%TF.GenerationSoftware,KiCad,Pcbnew,10.0.1*%
%TF.CreationDate,2026-04-30T16:36:20+02:00*%
%TF.ProjectId,Id_Board,49645f42-6f61-4726-942e-6b696361645f,rev?*%
%TF.SameCoordinates,Original*%
%TF.FileFunction,Legend,Top*%
%TF.FilePolarity,Positive*%
%FSLAX46Y46*%
G04 Gerber Fmt 4.6, Leading zero omitted, Abs format (unit mm)*
G04 Created by KiCad (PCBNEW 10.0.1) date 2026-04-30 16:36:20*
%MOMM*%
%LPD*%
G01*
G04 APERTURE LIST*
G04 Aperture macros list*
%AMRoundRect*
0 Rectangle with rounded corners*
0 $1 Rounding radius*
0 $2 $3 $4 $5 $6 $7 $8 $9 X,Y pos of 4 corners*
0 Add a 4 corners polygon primitive as box body*
4,1,4,$2,$3,$4,$5,$6,$7,$8,$9,$2,$3,0*
0 Add four circle primitives for the rounded corners*
1,1,$1+$1,$2,$3*
1,1,$1+$1,$4,$5*
1,1,$1+$1,$6,$7*
1,1,$1+$1,$8,$9*
0 Add four rect primitives between the rounded corners*
20,1,$1+$1,$2,$3,$4,$5,0*
20,1,$1+$1,$4,$5,$6,$7,0*
20,1,$1+$1,$6,$7,$8,$9,0*
20,1,$1+$1,$8,$9,$2,$3,0*%
G04 Aperture macros list end*
%ADD10C,0.150000*%
%ADD11C,0.200000*%
%ADD12C,0.120000*%
%ADD13C,0.250000*%
%ADD14C,0.060000*%
%ADD15RoundRect,0.200000X0.275000X-0.200000X0.275000X0.200000X-0.275000X0.200000X-0.275000X-0.200000X0*%
%ADD16RoundRect,0.250000X-2.500000X0.250000X-2.500000X-0.250000X2.500000X-0.250000X2.500000X0.250000X0*%
%ADD17RoundRect,0.250000X-1.250000X0.550000X-1.250000X-0.550000X1.250000X-0.550000X1.250000X0.550000X0*%
%ADD18C,3.200000*%
%ADD19C,1.600000*%
%ADD20RoundRect,0.250000X2.500000X-0.250000X2.500000X0.250000X-2.500000X0.250000X-2.500000X-0.250000X0*%
%ADD21RoundRect,0.250000X1.250000X-0.550000X1.250000X0.550000X-1.250000X0.550000X-1.250000X-0.550000X0*%
%ADD22R,1.100000X2.200000*%
G04 APERTURE END LIST*
D10*
X3596819Y-14092857D02*
X3120628Y-14426190D01*
X3596819Y-14664285D02*
X2596819Y-14664285D01*
X2596819Y-14664285D02*
X2596819Y-14283333D01*
X2596819Y-14283333D02*
X2644438Y-14188095D01*
X2644438Y-14188095D02*
X2692057Y-14140476D01*
X2692057Y-14140476D02*
X2787295Y-14092857D01*
X2787295Y-14092857D02*
X2930152Y-14092857D01*
X2930152Y-14092857D02*
X3025390Y-14140476D01*
X3025390Y-14140476D02*
X3073009Y-14188095D01*
X3073009Y-14188095D02*
X3120628Y-14283333D01*
X3120628Y-14283333D02*
X3120628Y-14664285D01*
X2692057Y-13711904D02*
X2644438Y-13664285D01*
X2644438Y-13664285D02*
X2596819Y-13569047D01*
X2596819Y-13569047D02*
X2596819Y-13330952D01*
X2596819Y-13330952D02*
X2644438Y-13235714D01*
X2644438Y-13235714D02*
X2692057Y-13188095D01*
X2692057Y-13188095D02*
X2787295Y-13140476D01*
X2787295Y-13140476D02*
X2882533Y-13140476D01*
X2882533Y-13140476D02*
X3025390Y-13188095D01*
X3025390Y-13188095D02*
X3596819Y-13759523D01*
X3596819Y-13759523D02*
X3596819Y-13140476D01*
X2692057Y-12759523D02*
X2644438Y-12711904D01*
X2644438Y-12711904D02*
X2596819Y-12616666D01*
X2596819Y-12616666D02*
X2596819Y-12378571D01*
X2596819Y-12378571D02*
X2644438Y-12283333D01*
X2644438Y-12283333D02*
X2692057Y-12235714D01*
X2692057Y-12235714D02*
X2787295Y-12188095D01*
X2787295Y-12188095D02*
X2882533Y-12188095D01*
X2882533Y-12188095D02*
X3025390Y-12235714D01*
X3025390Y-12235714D02*
X3596819Y-12807142D01*
X3596819Y-12807142D02*
X3596819Y-12188095D01*
X5628819Y-14092857D02*
X5152628Y-14426190D01*
X5628819Y-14664285D02*
X4628819Y-14664285D01*
X4628819Y-14664285D02*
X4628819Y-14283333D01*
X4628819Y-14283333D02*
X4676438Y-14188095D01*
X4676438Y-14188095D02*
X4724057Y-14140476D01*
X4724057Y-14140476D02*
X4819295Y-14092857D01*
X4819295Y-14092857D02*
X4962152Y-14092857D01*
X4962152Y-14092857D02*
X5057390Y-14140476D01*
X5057390Y-14140476D02*
X5105009Y-14188095D01*
X5105009Y-14188095D02*
X5152628Y-14283333D01*
X5152628Y-14283333D02*
X5152628Y-14664285D01*
X4724057Y-13711904D02*
X4676438Y-13664285D01*
X4676438Y-13664285D02*
X4628819Y-13569047D01*
X4628819Y-13569047D02*
X4628819Y-13330952D01*
X4628819Y-13330952D02*
X4676438Y-13235714D01*
X4676438Y-13235714D02*
X4724057Y-13188095D01*
X4724057Y-13188095D02*
X4819295Y-13140476D01*
X4819295Y-13140476D02*
X4914533Y-13140476D01*
X4914533Y-13140476D02*
X5057390Y-13188095D01*
X5057390Y-13188095D02*
X5628819Y-13759523D01*
X5628819Y-13759523D02*
X5628819Y-13140476D01*
X4962152Y-12283333D02*
X5628819Y-12283333D01*
X4581200Y-12521428D02*
X5295485Y-12759523D01*
X5295485Y-12759523D02*
X5295485Y-12140476D01*
X109809419Y-26390133D02*
X110523704Y-26390133D01*
X110523704Y-26390133D02*
X110666561Y-26437752D01*
X110666561Y-26437752D02*
X110761800Y-26532990D01*
X110761800Y-26532990D02*
X110809419Y-26675847D01*
X110809419Y-26675847D02*
X110809419Y-26771085D01*
X109809419Y-26009180D02*
X109809419Y-25390133D01*
X109809419Y-25390133D02*
X110190371Y-25723466D01*
X110190371Y-25723466D02*
X110190371Y-25580609D01*
X110190371Y-25580609D02*
X110237990Y-25485371D01*
X110237990Y-25485371D02*
X110285609Y-25437752D01*
X110285609Y-25437752D02*
X110380847Y-25390133D01*
X110380847Y-25390133D02*
X110618942Y-25390133D01*
X110618942Y-25390133D02*
X110714180Y-25437752D01*
X110714180Y-25437752D02*
X110761800Y-25485371D01*
X110761800Y-25485371D02*
X110809419Y-25580609D01*
X110809419Y-25580609D02*
X110809419Y-25866323D01*
X110809419Y-25866323D02*
X110761800Y-25961561D01*
X110761800Y-25961561D02*
X110714180Y-26009180D01*
X35524819Y-14092857D02*
X35048628Y-14426190D01*
X35524819Y-14664285D02*
X34524819Y-14664285D01*
X34524819Y-14664285D02*
X34524819Y-14283333D01*
X34524819Y-14283333D02*
X34572438Y-14188095D01*
X34572438Y-14188095D02*
X34620057Y-14140476D01*
X34620057Y-14140476D02*
X34715295Y-14092857D01*
X34715295Y-14092857D02*
X34858152Y-14092857D01*
X34858152Y-14092857D02*
X34953390Y-14140476D01*
X34953390Y-14140476D02*
X35001009Y-14188095D01*
X35001009Y-14188095D02*
X35048628Y-14283333D01*
X35048628Y-14283333D02*
X35048628Y-14664285D01*
X35524819Y-13140476D02*
X35524819Y-13711904D01*
X35524819Y-13426190D02*
X34524819Y-13426190D01*
X34524819Y-13426190D02*
X34667676Y-13521428D01*
X34667676Y-13521428D02*
X34762914Y-13616666D01*
X34762914Y-13616666D02*
X34810533Y-13711904D01*
X34524819Y-12807142D02*
X34524819Y-12140476D01*
X34524819Y-12140476D02*
X35524819Y-12569047D01*
X39238095Y-26304819D02*
X39238095Y-25304819D01*
X39238095Y-25781009D02*
X39809523Y-25781009D01*
X39809523Y-26304819D02*
X39809523Y-25304819D01*
X40190476Y-25304819D02*
X40809523Y-25304819D01*
X40809523Y-25304819D02*
X40476190Y-25685771D01*
X40476190Y-25685771D02*
X40619047Y-25685771D01*
X40619047Y-25685771D02*
X40714285Y-25733390D01*
X40714285Y-25733390D02*
X40761904Y-25781009D01*
X40761904Y-25781009D02*
X40809523Y-25876247D01*
X40809523Y-25876247D02*
X40809523Y-26114342D01*
X40809523Y-26114342D02*
X40761904Y-26209580D01*
X40761904Y-26209580D02*
X40714285Y-26257200D01*
X40714285Y-26257200D02*
X40619047Y-26304819D01*
X40619047Y-26304819D02*
X40333333Y-26304819D01*
X40333333Y-26304819D02*
X40238095Y-26257200D01*
X40238095Y-26257200D02*
X40190476Y-26209580D01*
X59666666Y-12724819D02*
X59666666Y-13439104D01*
X59666666Y-13439104D02*
X59619047Y-13581961D01*
X59619047Y-13581961D02*
X59523809Y-13677200D01*
X59523809Y-13677200D02*
X59380952Y-13724819D01*
X59380952Y-13724819D02*
X59285714Y-13724819D01*
X60666666Y-13724819D02*
X60095238Y-13724819D01*
X60380952Y-13724819D02*
X60380952Y-12724819D01*
X60380952Y-12724819D02*
X60285714Y-12867676D01*
X60285714Y-12867676D02*
X60190476Y-12962914D01*
X60190476Y-12962914D02*
X60095238Y-13010533D01*
X47774819Y-14092857D02*
X47298628Y-14426190D01*
X47774819Y-14664285D02*
X46774819Y-14664285D01*
X46774819Y-14664285D02*
X46774819Y-14283333D01*
X46774819Y-14283333D02*
X46822438Y-14188095D01*
X46822438Y-14188095D02*
X46870057Y-14140476D01*
X46870057Y-14140476D02*
X46965295Y-14092857D01*
X46965295Y-14092857D02*
X47108152Y-14092857D01*
X47108152Y-14092857D02*
X47203390Y-14140476D01*
X47203390Y-14140476D02*
X47251009Y-14188095D01*
X47251009Y-14188095D02*
X47298628Y-14283333D01*
X47298628Y-14283333D02*
X47298628Y-14664285D01*
X47774819Y-13140476D02*
X47774819Y-13711904D01*
X47774819Y-13426190D02*
X46774819Y-13426190D01*
X46774819Y-13426190D02*
X46917676Y-13521428D01*
X46917676Y-13521428D02*
X47012914Y-13616666D01*
X47012914Y-13616666D02*
X47060533Y-13711904D01*
X46774819Y-12235714D02*
X46774819Y-12711904D01*
X46774819Y-12711904D02*
X47251009Y-12759523D01*
X47251009Y-12759523D02*
X47203390Y-12711904D01*
X47203390Y-12711904D02*
X47155771Y-12616666D01*
X47155771Y-12616666D02*
X47155771Y-12378571D01*
X47155771Y-12378571D02*
X47203390Y-12283333D01*
X47203390Y-12283333D02*
X47251009Y-12235714D01*
X47251009Y-12235714D02*
X47346247Y-12188095D01*
X47346247Y-12188095D02*
X47584342Y-12188095D01*
X47584342Y-12188095D02*
X47679580Y-12235714D01*
X47679580Y-12235714D02*
X47727200Y-12283333D01*
X47727200Y-12283333D02*
X47774819Y-12378571D01*
X47774819Y-12378571D02*
X47774819Y-12616666D01*
X47774819Y-12616666D02*
X47727200Y-12711904D01*
X47727200Y-12711904D02*
X47679580Y-12759523D01*
X33774819Y-14092857D02*
X33298628Y-14426190D01*
X33774819Y-14664285D02*
X32774819Y-14664285D01*
X32774819Y-14664285D02*
X32774819Y-14283333D01*
X32774819Y-14283333D02*
X32822438Y-14188095D01*
X32822438Y-14188095D02*
X32870057Y-14140476D01*
X32870057Y-14140476D02*
X32965295Y-14092857D01*
X32965295Y-14092857D02*
X33108152Y-14092857D01*
X33108152Y-14092857D02*
X33203390Y-14140476D01*
X33203390Y-14140476D02*
X33251009Y-14188095D01*
X33251009Y-14188095D02*
X33298628Y-14283333D01*
X33298628Y-14283333D02*
X33298628Y-14664285D01*
X33774819Y-13140476D02*
X33774819Y-13711904D01*
X33774819Y-13426190D02*
X32774819Y-13426190D01*
X32774819Y-13426190D02*
X32917676Y-13521428D01*
X32917676Y-13521428D02*
X33012914Y-13616666D01*
X33012914Y-13616666D02*
X33060533Y-13711904D01*
X33203390Y-12569047D02*
X33155771Y-12664285D01*
X33155771Y-12664285D02*
X33108152Y-12711904D01*
X33108152Y-12711904D02*
X33012914Y-12759523D01*
X33012914Y-12759523D02*
X32965295Y-12759523D01*
X32965295Y-12759523D02*
X32870057Y-12711904D01*
X32870057Y-12711904D02*
X32822438Y-12664285D01*
X32822438Y-12664285D02*
X32774819Y-12569047D01*
X32774819Y-12569047D02*
X32774819Y-12378571D01*
X32774819Y-12378571D02*
X32822438Y-12283333D01*
X32822438Y-12283333D02*
X32870057Y-12235714D01*
X32870057Y-12235714D02*
X32965295Y-12188095D01*
X32965295Y-12188095D02*
X33012914Y-12188095D01*
X33012914Y-12188095D02*
X33108152Y-12235714D01*
X33108152Y-12235714D02*
X33155771Y-12283333D01*
X33155771Y-12283333D02*
X33203390Y-12378571D01*
X33203390Y-12378571D02*
X33203390Y-12569047D01*
X33203390Y-12569047D02*
X33251009Y-12664285D01*
X33251009Y-12664285D02*
X33298628Y-12711904D01*
X33298628Y-12711904D02*
X33393866Y-12759523D01*
X33393866Y-12759523D02*
X33584342Y-12759523D01*
X33584342Y-12759523D02*
X33679580Y-12711904D01*
X33679580Y-12711904D02*
X33727200Y-12664285D01*
X33727200Y-12664285D02*
X33774819Y-12569047D01*
X33774819Y-12569047D02*
X33774819Y-12378571D01*
X33774819Y-12378571D02*
X33727200Y-12283333D01*
X33727200Y-12283333D02*
X33679580Y-12235714D01*
X33679580Y-12235714D02*
X33584342Y-12188095D01*
X33584342Y-12188095D02*
X33393866Y-12188095D01*
X33393866Y-12188095D02*
X33298628Y-12235714D01*
X33298628Y-12235714D02*
X33251009Y-12283333D01*
X33251009Y-12283333D02*
X33203390Y-12378571D01*
X18024819Y-14092857D02*
X17548628Y-14426190D01*
X18024819Y-14664285D02*
X17024819Y-14664285D01*
X17024819Y-14664285D02*
X17024819Y-14283333D01*
X17024819Y-14283333D02*
X17072438Y-14188095D01*
X17072438Y-14188095D02*
X17120057Y-14140476D01*
X17120057Y-14140476D02*
X17215295Y-14092857D01*
X17215295Y-14092857D02*
X17358152Y-14092857D01*
X17358152Y-14092857D02*
X17453390Y-14140476D01*
X17453390Y-14140476D02*
X17501009Y-14188095D01*
X17501009Y-14188095D02*
X17548628Y-14283333D01*
X17548628Y-14283333D02*
X17548628Y-14664285D01*
X18024819Y-13140476D02*
X18024819Y-13711904D01*
X18024819Y-13426190D02*
X17024819Y-13426190D01*
X17024819Y-13426190D02*
X17167676Y-13521428D01*
X17167676Y-13521428D02*
X17262914Y-13616666D01*
X17262914Y-13616666D02*
X17310533Y-13711904D01*
X18024819Y-12664285D02*
X18024819Y-12473809D01*
X18024819Y-12473809D02*
X17977200Y-12378571D01*
X17977200Y-12378571D02*
X17929580Y-12330952D01*
X17929580Y-12330952D02*
X17786723Y-12235714D01*
X17786723Y-12235714D02*
X17596247Y-12188095D01*
X17596247Y-12188095D02*
X17215295Y-12188095D01*
X17215295Y-12188095D02*
X17120057Y-12235714D01*
X17120057Y-12235714D02*
X17072438Y-12283333D01*
X17072438Y-12283333D02*
X17024819Y-12378571D01*
X17024819Y-12378571D02*
X17024819Y-12569047D01*
X17024819Y-12569047D02*
X17072438Y-12664285D01*
X17072438Y-12664285D02*
X17120057Y-12711904D01*
X17120057Y-12711904D02*
X17215295Y-12759523D01*
X17215295Y-12759523D02*
X17453390Y-12759523D01*
X17453390Y-12759523D02*
X17548628Y-12711904D01*
X17548628Y-12711904D02*
X17596247Y-12664285D01*
X17596247Y-12664285D02*
X17643866Y-12569047D01*
X17643866Y-12569047D02*
X17643866Y-12378571D01*
X17643866Y-12378571D02*
X17596247Y-12283333D01*
X17596247Y-12283333D02*
X17548628Y-12235714D01*
X17548628Y-12235714D02*
X17453390Y-12188095D01*
X114738095Y-16304819D02*
X114738095Y-15304819D01*
X114738095Y-15781009D02*
X115309523Y-15781009D01*
X115309523Y-16304819D02*
X115309523Y-15304819D01*
X115738095Y-15400057D02*
X115785714Y-15352438D01*
X115785714Y-15352438D02*
X115880952Y-15304819D01*
X115880952Y-15304819D02*
X116119047Y-15304819D01*
X116119047Y-15304819D02*
X116214285Y-15352438D01*
X116214285Y-15352438D02*
X116261904Y-15400057D01*
X116261904Y-15400057D02*
X116309523Y-15495295D01*
X116309523Y-15495295D02*
X116309523Y-15590533D01*
X116309523Y-15590533D02*
X116261904Y-15733390D01*
X116261904Y-15733390D02*
X115690476Y-16304819D01*
X115690476Y-16304819D02*
X116309523Y-16304819D01*
X79238095Y-26304819D02*
X79238095Y-25304819D01*
X79238095Y-25781009D02*
X79809523Y-25781009D01*
X79809523Y-26304819D02*
X79809523Y-25304819D01*
X80714285Y-25638152D02*
X80714285Y-26304819D01*
X80476190Y-25257200D02*
X80238095Y-25971485D01*
X80238095Y-25971485D02*
X80857142Y-25971485D01*
X8449419Y-25911133D02*
X9163704Y-25911133D01*
X9163704Y-25911133D02*
X9306561Y-25958752D01*
X9306561Y-25958752D02*
X9401800Y-26053990D01*
X9401800Y-26053990D02*
X9449419Y-26196847D01*
X9449419Y-26196847D02*
X9449419Y-26292085D01*
X8544657Y-25482561D02*
X8497038Y-25434942D01*
X8497038Y-25434942D02*
X8449419Y-25339704D01*
X8449419Y-25339704D02*
X8449419Y-25101609D01*
X8449419Y-25101609D02*
X8497038Y-25006371D01*
X8497038Y-25006371D02*
X8544657Y-24958752D01*
X8544657Y-24958752D02*
X8639895Y-24911133D01*
X8639895Y-24911133D02*
X8735133Y-24911133D01*
X8735133Y-24911133D02*
X8877990Y-24958752D01*
X8877990Y-24958752D02*
X9449419Y-25530180D01*
X9449419Y-25530180D02*
X9449419Y-24911133D01*
X49524819Y-14092857D02*
X49048628Y-14426190D01*
X49524819Y-14664285D02*
X48524819Y-14664285D01*
X48524819Y-14664285D02*
X48524819Y-14283333D01*
X48524819Y-14283333D02*
X48572438Y-14188095D01*
X48572438Y-14188095D02*
X48620057Y-14140476D01*
X48620057Y-14140476D02*
X48715295Y-14092857D01*
X48715295Y-14092857D02*
X48858152Y-14092857D01*
X48858152Y-14092857D02*
X48953390Y-14140476D01*
X48953390Y-14140476D02*
X49001009Y-14188095D01*
X49001009Y-14188095D02*
X49048628Y-14283333D01*
X49048628Y-14283333D02*
X49048628Y-14664285D01*
X49524819Y-13140476D02*
X49524819Y-13711904D01*
X49524819Y-13426190D02*
X48524819Y-13426190D01*
X48524819Y-13426190D02*
X48667676Y-13521428D01*
X48667676Y-13521428D02*
X48762914Y-13616666D01*
X48762914Y-13616666D02*
X48810533Y-13711904D01*
X48858152Y-12283333D02*
X49524819Y-12283333D01*
X48477200Y-12521428D02*
X49191485Y-12759523D01*
X49191485Y-12759523D02*
X49191485Y-12140476D01*
X105524819Y-13616666D02*
X105048628Y-13949999D01*
X105524819Y-14188094D02*
X104524819Y-14188094D01*
X104524819Y-14188094D02*
X104524819Y-13807142D01*
X104524819Y-13807142D02*
X104572438Y-13711904D01*
X104572438Y-13711904D02*
X104620057Y-13664285D01*
X104620057Y-13664285D02*
X104715295Y-13616666D01*
X104715295Y-13616666D02*
X104858152Y-13616666D01*
X104858152Y-13616666D02*
X104953390Y-13664285D01*
X104953390Y-13664285D02*
X105001009Y-13711904D01*
X105001009Y-13711904D02*
X105048628Y-13807142D01*
X105048628Y-13807142D02*
X105048628Y-14188094D01*
X104620057Y-13235713D02*
X104572438Y-13188094D01*
X104572438Y-13188094D02*
X104524819Y-13092856D01*
X104524819Y-13092856D02*
X104524819Y-12854761D01*
X104524819Y-12854761D02*
X104572438Y-12759523D01*
X104572438Y-12759523D02*
X104620057Y-12711904D01*
X104620057Y-12711904D02*
X104715295Y-12664285D01*
X104715295Y-12664285D02*
X104810533Y-12664285D01*
X104810533Y-12664285D02*
X104953390Y-12711904D01*
X104953390Y-12711904D02*
X105524819Y-13283332D01*
X105524819Y-13283332D02*
X105524819Y-12664285D01*
X21524819Y-14092857D02*
X21048628Y-14426190D01*
X21524819Y-14664285D02*
X20524819Y-14664285D01*
X20524819Y-14664285D02*
X20524819Y-14283333D01*
X20524819Y-14283333D02*
X20572438Y-14188095D01*
X20572438Y-14188095D02*
X20620057Y-14140476D01*
X20620057Y-14140476D02*
X20715295Y-14092857D01*
X20715295Y-14092857D02*
X20858152Y-14092857D01*
X20858152Y-14092857D02*
X20953390Y-14140476D01*
X20953390Y-14140476D02*
X21001009Y-14188095D01*
X21001009Y-14188095D02*
X21048628Y-14283333D01*
X21048628Y-14283333D02*
X21048628Y-14664285D01*
X20620057Y-13711904D02*
X20572438Y-13664285D01*
X20572438Y-13664285D02*
X20524819Y-13569047D01*
X20524819Y-13569047D02*
X20524819Y-13330952D01*
X20524819Y-13330952D02*
X20572438Y-13235714D01*
X20572438Y-13235714D02*
X20620057Y-13188095D01*
X20620057Y-13188095D02*
X20715295Y-13140476D01*
X20715295Y-13140476D02*
X20810533Y-13140476D01*
X20810533Y-13140476D02*
X20953390Y-13188095D01*
X20953390Y-13188095D02*
X21524819Y-13759523D01*
X21524819Y-13759523D02*
X21524819Y-13140476D01*
X20524819Y-12521428D02*
X20524819Y-12426190D01*
X20524819Y-12426190D02*
X20572438Y-12330952D01*
X20572438Y-12330952D02*
X20620057Y-12283333D01*
X20620057Y-12283333D02*
X20715295Y-12235714D01*
X20715295Y-12235714D02*
X20905771Y-12188095D01*
X20905771Y-12188095D02*
X21143866Y-12188095D01*
X21143866Y-12188095D02*
X21334342Y-12235714D01*
X21334342Y-12235714D02*
X21429580Y-12283333D01*
X21429580Y-12283333D02*
X21477200Y-12330952D01*
X21477200Y-12330952D02*
X21524819Y-12426190D01*
X21524819Y-12426190D02*
X21524819Y-12521428D01*
X21524819Y-12521428D02*
X21477200Y-12616666D01*
X21477200Y-12616666D02*
X21429580Y-12664285D01*
X21429580Y-12664285D02*
X21334342Y-12711904D01*
X21334342Y-12711904D02*
X21143866Y-12759523D01*
X21143866Y-12759523D02*
X20905771Y-12759523D01*
X20905771Y-12759523D02*
X20715295Y-12711904D01*
X20715295Y-12711904D02*
X20620057Y-12664285D01*
X20620057Y-12664285D02*
X20572438Y-12616666D01*
X20572438Y-12616666D02*
X20524819Y-12521428D01*
X60024819Y-14092857D02*
X59548628Y-14426190D01*
X60024819Y-14664285D02*
X59024819Y-14664285D01*
X59024819Y-14664285D02*
X59024819Y-14283333D01*
X59024819Y-14283333D02*
X59072438Y-14188095D01*
X59072438Y-14188095D02*
X59120057Y-14140476D01*
X59120057Y-14140476D02*
X59215295Y-14092857D01*
X59215295Y-14092857D02*
X59358152Y-14092857D01*
X59358152Y-14092857D02*
X59453390Y-14140476D01*
X59453390Y-14140476D02*
X59501009Y-14188095D01*
X59501009Y-14188095D02*
X59548628Y-14283333D01*
X59548628Y-14283333D02*
X59548628Y-14664285D01*
X60024819Y-13140476D02*
X60024819Y-13711904D01*
X60024819Y-13426190D02*
X59024819Y-13426190D01*
X59024819Y-13426190D02*
X59167676Y-13521428D01*
X59167676Y-13521428D02*
X59262914Y-13616666D01*
X59262914Y-13616666D02*
X59310533Y-13711904D01*
X59024819Y-12521428D02*
X59024819Y-12426190D01*
X59024819Y-12426190D02*
X59072438Y-12330952D01*
X59072438Y-12330952D02*
X59120057Y-12283333D01*
X59120057Y-12283333D02*
X59215295Y-12235714D01*
X59215295Y-12235714D02*
X59405771Y-12188095D01*
X59405771Y-12188095D02*
X59643866Y-12188095D01*
X59643866Y-12188095D02*
X59834342Y-12235714D01*
X59834342Y-12235714D02*
X59929580Y-12283333D01*
X59929580Y-12283333D02*
X59977200Y-12330952D01*
X59977200Y-12330952D02*
X60024819Y-12426190D01*
X60024819Y-12426190D02*
X60024819Y-12521428D01*
X60024819Y-12521428D02*
X59977200Y-12616666D01*
X59977200Y-12616666D02*
X59929580Y-12664285D01*
X59929580Y-12664285D02*
X59834342Y-12711904D01*
X59834342Y-12711904D02*
X59643866Y-12759523D01*
X59643866Y-12759523D02*
X59405771Y-12759523D01*
X59405771Y-12759523D02*
X59215295Y-12711904D01*
X59215295Y-12711904D02*
X59120057Y-12664285D01*
X59120057Y-12664285D02*
X59072438Y-12616666D01*
X59072438Y-12616666D02*
X59024819Y-12521428D01*
X63524819Y-14092857D02*
X63048628Y-14426190D01*
X63524819Y-14664285D02*
X62524819Y-14664285D01*
X62524819Y-14664285D02*
X62524819Y-14283333D01*
X62524819Y-14283333D02*
X62572438Y-14188095D01*
X62572438Y-14188095D02*
X62620057Y-14140476D01*
X62620057Y-14140476D02*
X62715295Y-14092857D01*
X62715295Y-14092857D02*
X62858152Y-14092857D01*
X62858152Y-14092857D02*
X62953390Y-14140476D01*
X62953390Y-14140476D02*
X63001009Y-14188095D01*
X63001009Y-14188095D02*
X63048628Y-14283333D01*
X63048628Y-14283333D02*
X63048628Y-14664285D01*
X63524819Y-13140476D02*
X63524819Y-13711904D01*
X63524819Y-13426190D02*
X62524819Y-13426190D01*
X62524819Y-13426190D02*
X62667676Y-13521428D01*
X62667676Y-13521428D02*
X62762914Y-13616666D01*
X62762914Y-13616666D02*
X62810533Y-13711904D01*
X63524819Y-12188095D02*
X63524819Y-12759523D01*
X63524819Y-12473809D02*
X62524819Y-12473809D01*
X62524819Y-12473809D02*
X62667676Y-12569047D01*
X62667676Y-12569047D02*
X62762914Y-12664285D01*
X62762914Y-12664285D02*
X62810533Y-12759523D01*
X7524819Y-14092857D02*
X7048628Y-14426190D01*
X7524819Y-14664285D02*
X6524819Y-14664285D01*
X6524819Y-14664285D02*
X6524819Y-14283333D01*
X6524819Y-14283333D02*
X6572438Y-14188095D01*
X6572438Y-14188095D02*
X6620057Y-14140476D01*
X6620057Y-14140476D02*
X6715295Y-14092857D01*
X6715295Y-14092857D02*
X6858152Y-14092857D01*
X6858152Y-14092857D02*
X6953390Y-14140476D01*
X6953390Y-14140476D02*
X7001009Y-14188095D01*
X7001009Y-14188095D02*
X7048628Y-14283333D01*
X7048628Y-14283333D02*
X7048628Y-14664285D01*
X6620057Y-13711904D02*
X6572438Y-13664285D01*
X6572438Y-13664285D02*
X6524819Y-13569047D01*
X6524819Y-13569047D02*
X6524819Y-13330952D01*
X6524819Y-13330952D02*
X6572438Y-13235714D01*
X6572438Y-13235714D02*
X6620057Y-13188095D01*
X6620057Y-13188095D02*
X6715295Y-13140476D01*
X6715295Y-13140476D02*
X6810533Y-13140476D01*
X6810533Y-13140476D02*
X6953390Y-13188095D01*
X6953390Y-13188095D02*
X7524819Y-13759523D01*
X7524819Y-13759523D02*
X7524819Y-13140476D01*
X6524819Y-12807142D02*
X6524819Y-12188095D01*
X6524819Y-12188095D02*
X6905771Y-12521428D01*
X6905771Y-12521428D02*
X6905771Y-12378571D01*
X6905771Y-12378571D02*
X6953390Y-12283333D01*
X6953390Y-12283333D02*
X7001009Y-12235714D01*
X7001009Y-12235714D02*
X7096247Y-12188095D01*
X7096247Y-12188095D02*
X7334342Y-12188095D01*
X7334342Y-12188095D02*
X7429580Y-12235714D01*
X7429580Y-12235714D02*
X7477200Y-12283333D01*
X7477200Y-12283333D02*
X7524819Y-12378571D01*
X7524819Y-12378571D02*
X7524819Y-12664285D01*
X7524819Y-12664285D02*
X7477200Y-12759523D01*
X7477200Y-12759523D02*
X7429580Y-12807142D01*
X101878819Y-13616666D02*
X101402628Y-13949999D01*
X101878819Y-14188094D02*
X100878819Y-14188094D01*
X100878819Y-14188094D02*
X100878819Y-13807142D01*
X100878819Y-13807142D02*
X100926438Y-13711904D01*
X100926438Y-13711904D02*
X100974057Y-13664285D01*
X100974057Y-13664285D02*
X101069295Y-13616666D01*
X101069295Y-13616666D02*
X101212152Y-13616666D01*
X101212152Y-13616666D02*
X101307390Y-13664285D01*
X101307390Y-13664285D02*
X101355009Y-13711904D01*
X101355009Y-13711904D02*
X101402628Y-13807142D01*
X101402628Y-13807142D02*
X101402628Y-14188094D01*
X101878819Y-12664285D02*
X101878819Y-13235713D01*
X101878819Y-12949999D02*
X100878819Y-12949999D01*
X100878819Y-12949999D02*
X101021676Y-13045237D01*
X101021676Y-13045237D02*
X101116914Y-13140475D01*
X101116914Y-13140475D02*
X101164533Y-13235713D01*
X91524819Y-13616666D02*
X91048628Y-13949999D01*
X91524819Y-14188094D02*
X90524819Y-14188094D01*
X90524819Y-14188094D02*
X90524819Y-13807142D01*
X90524819Y-13807142D02*
X90572438Y-13711904D01*
X90572438Y-13711904D02*
X90620057Y-13664285D01*
X90620057Y-13664285D02*
X90715295Y-13616666D01*
X90715295Y-13616666D02*
X90858152Y-13616666D01*
X90858152Y-13616666D02*
X90953390Y-13664285D01*
X90953390Y-13664285D02*
X91001009Y-13711904D01*
X91001009Y-13711904D02*
X91048628Y-13807142D01*
X91048628Y-13807142D02*
X91048628Y-14188094D01*
X90524819Y-12711904D02*
X90524819Y-13188094D01*
X90524819Y-13188094D02*
X91001009Y-13235713D01*
X91001009Y-13235713D02*
X90953390Y-13188094D01*
X90953390Y-13188094D02*
X90905771Y-13092856D01*
X90905771Y-13092856D02*
X90905771Y-12854761D01*
X90905771Y-12854761D02*
X90953390Y-12759523D01*
X90953390Y-12759523D02*
X91001009Y-12711904D01*
X91001009Y-12711904D02*
X91096247Y-12664285D01*
X91096247Y-12664285D02*
X91334342Y-12664285D01*
X91334342Y-12664285D02*
X91429580Y-12711904D01*
X91429580Y-12711904D02*
X91477200Y-12759523D01*
X91477200Y-12759523D02*
X91524819Y-12854761D01*
X91524819Y-12854761D02*
X91524819Y-13092856D01*
X91524819Y-13092856D02*
X91477200Y-13188094D01*
X91477200Y-13188094D02*
X91429580Y-13235713D01*
X103824819Y-13616666D02*
X103348628Y-13949999D01*
X103824819Y-14188094D02*
X102824819Y-14188094D01*
X102824819Y-14188094D02*
X102824819Y-13807142D01*
X102824819Y-13807142D02*
X102872438Y-13711904D01*
X102872438Y-13711904D02*
X102920057Y-13664285D01*
X102920057Y-13664285D02*
X103015295Y-13616666D01*
X103015295Y-13616666D02*
X103158152Y-13616666D01*
X103158152Y-13616666D02*
X103253390Y-13664285D01*
X103253390Y-13664285D02*
X103301009Y-13711904D01*
X103301009Y-13711904D02*
X103348628Y-13807142D01*
X103348628Y-13807142D02*
X103348628Y-14188094D01*
X102824819Y-13283332D02*
X102824819Y-12664285D01*
X102824819Y-12664285D02*
X103205771Y-12997618D01*
X103205771Y-12997618D02*
X103205771Y-12854761D01*
X103205771Y-12854761D02*
X103253390Y-12759523D01*
X103253390Y-12759523D02*
X103301009Y-12711904D01*
X103301009Y-12711904D02*
X103396247Y-12664285D01*
X103396247Y-12664285D02*
X103634342Y-12664285D01*
X103634342Y-12664285D02*
X103729580Y-12711904D01*
X103729580Y-12711904D02*
X103777200Y-12759523D01*
X103777200Y-12759523D02*
X103824819Y-12854761D01*
X103824819Y-12854761D02*
X103824819Y-13140475D01*
X103824819Y-13140475D02*
X103777200Y-13235713D01*
X103777200Y-13235713D02*
X103729580Y-13283332D01*
X88024819Y-13616666D02*
X87548628Y-13949999D01*
X88024819Y-14188094D02*
X87024819Y-14188094D01*
X87024819Y-14188094D02*
X87024819Y-13807142D01*
X87024819Y-13807142D02*
X87072438Y-13711904D01*
X87072438Y-13711904D02*
X87120057Y-13664285D01*
X87120057Y-13664285D02*
X87215295Y-13616666D01*
X87215295Y-13616666D02*
X87358152Y-13616666D01*
X87358152Y-13616666D02*
X87453390Y-13664285D01*
X87453390Y-13664285D02*
X87501009Y-13711904D01*
X87501009Y-13711904D02*
X87548628Y-13807142D01*
X87548628Y-13807142D02*
X87548628Y-14188094D01*
X87358152Y-12759523D02*
X88024819Y-12759523D01*
X86977200Y-12997618D02*
X87691485Y-13235713D01*
X87691485Y-13235713D02*
X87691485Y-12616666D01*
X77524819Y-13616666D02*
X77048628Y-13949999D01*
X77524819Y-14188094D02*
X76524819Y-14188094D01*
X76524819Y-14188094D02*
X76524819Y-13807142D01*
X76524819Y-13807142D02*
X76572438Y-13711904D01*
X76572438Y-13711904D02*
X76620057Y-13664285D01*
X76620057Y-13664285D02*
X76715295Y-13616666D01*
X76715295Y-13616666D02*
X76858152Y-13616666D01*
X76858152Y-13616666D02*
X76953390Y-13664285D01*
X76953390Y-13664285D02*
X77001009Y-13711904D01*
X77001009Y-13711904D02*
X77048628Y-13807142D01*
X77048628Y-13807142D02*
X77048628Y-14188094D01*
X76953390Y-13045237D02*
X76905771Y-13140475D01*
X76905771Y-13140475D02*
X76858152Y-13188094D01*
X76858152Y-13188094D02*
X76762914Y-13235713D01*
X76762914Y-13235713D02*
X76715295Y-13235713D01*
X76715295Y-13235713D02*
X76620057Y-13188094D01*
X76620057Y-13188094D02*
X76572438Y-13140475D01*
X76572438Y-13140475D02*
X76524819Y-13045237D01*
X76524819Y-13045237D02*
X76524819Y-12854761D01*
X76524819Y-12854761D02*
X76572438Y-12759523D01*
X76572438Y-12759523D02*
X76620057Y-12711904D01*
X76620057Y-12711904D02*
X76715295Y-12664285D01*
X76715295Y-12664285D02*
X76762914Y-12664285D01*
X76762914Y-12664285D02*
X76858152Y-12711904D01*
X76858152Y-12711904D02*
X76905771Y-12759523D01*
X76905771Y-12759523D02*
X76953390Y-12854761D01*
X76953390Y-12854761D02*
X76953390Y-13045237D01*
X76953390Y-13045237D02*
X77001009Y-13140475D01*
X77001009Y-13140475D02*
X77048628Y-13188094D01*
X77048628Y-13188094D02*
X77143866Y-13235713D01*
X77143866Y-13235713D02*
X77334342Y-13235713D01*
X77334342Y-13235713D02*
X77429580Y-13188094D01*
X77429580Y-13188094D02*
X77477200Y-13140475D01*
X77477200Y-13140475D02*
X77524819Y-13045237D01*
X77524819Y-13045237D02*
X77524819Y-12854761D01*
X77524819Y-12854761D02*
X77477200Y-12759523D01*
X77477200Y-12759523D02*
X77429580Y-12711904D01*
X77429580Y-12711904D02*
X77334342Y-12664285D01*
X77334342Y-12664285D02*
X77143866Y-12664285D01*
X77143866Y-12664285D02*
X77048628Y-12711904D01*
X77048628Y-12711904D02*
X77001009Y-12759523D01*
X77001009Y-12759523D02*
X76953390Y-12854761D01*
X46024819Y-14092857D02*
X45548628Y-14426190D01*
X46024819Y-14664285D02*
X45024819Y-14664285D01*
X45024819Y-14664285D02*
X45024819Y-14283333D01*
X45024819Y-14283333D02*
X45072438Y-14188095D01*
X45072438Y-14188095D02*
X45120057Y-14140476D01*
X45120057Y-14140476D02*
X45215295Y-14092857D01*
X45215295Y-14092857D02*
X45358152Y-14092857D01*
X45358152Y-14092857D02*
X45453390Y-14140476D01*
X45453390Y-14140476D02*
X45501009Y-14188095D01*
X45501009Y-14188095D02*
X45548628Y-14283333D01*
X45548628Y-14283333D02*
X45548628Y-14664285D01*
X46024819Y-13140476D02*
X46024819Y-13711904D01*
X46024819Y-13426190D02*
X45024819Y-13426190D01*
X45024819Y-13426190D02*
X45167676Y-13521428D01*
X45167676Y-13521428D02*
X45262914Y-13616666D01*
X45262914Y-13616666D02*
X45310533Y-13711904D01*
X45024819Y-12807142D02*
X45024819Y-12188095D01*
X45024819Y-12188095D02*
X45405771Y-12521428D01*
X45405771Y-12521428D02*
X45405771Y-12378571D01*
X45405771Y-12378571D02*
X45453390Y-12283333D01*
X45453390Y-12283333D02*
X45501009Y-12235714D01*
X45501009Y-12235714D02*
X45596247Y-12188095D01*
X45596247Y-12188095D02*
X45834342Y-12188095D01*
X45834342Y-12188095D02*
X45929580Y-12235714D01*
X45929580Y-12235714D02*
X45977200Y-12283333D01*
X45977200Y-12283333D02*
X46024819Y-12378571D01*
X46024819Y-12378571D02*
X46024819Y-12664285D01*
X46024819Y-12664285D02*
X45977200Y-12759523D01*
X45977200Y-12759523D02*
X45929580Y-12807142D01*
X3738095Y-16304819D02*
X3738095Y-15304819D01*
X3738095Y-15781009D02*
X4309523Y-15781009D01*
X4309523Y-16304819D02*
X4309523Y-15304819D01*
X5309523Y-16304819D02*
X4738095Y-16304819D01*
X5023809Y-16304819D02*
X5023809Y-15304819D01*
X5023809Y-15304819D02*
X4928571Y-15447676D01*
X4928571Y-15447676D02*
X4833333Y-15542914D01*
X4833333Y-15542914D02*
X4738095Y-15590533D01*
X75774819Y-13616666D02*
X75298628Y-13949999D01*
X75774819Y-14188094D02*
X74774819Y-14188094D01*
X74774819Y-14188094D02*
X74774819Y-13807142D01*
X74774819Y-13807142D02*
X74822438Y-13711904D01*
X74822438Y-13711904D02*
X74870057Y-13664285D01*
X74870057Y-13664285D02*
X74965295Y-13616666D01*
X74965295Y-13616666D02*
X75108152Y-13616666D01*
X75108152Y-13616666D02*
X75203390Y-13664285D01*
X75203390Y-13664285D02*
X75251009Y-13711904D01*
X75251009Y-13711904D02*
X75298628Y-13807142D01*
X75298628Y-13807142D02*
X75298628Y-14188094D01*
X75774819Y-13140475D02*
X75774819Y-12949999D01*
X75774819Y-12949999D02*
X75727200Y-12854761D01*
X75727200Y-12854761D02*
X75679580Y-12807142D01*
X75679580Y-12807142D02*
X75536723Y-12711904D01*
X75536723Y-12711904D02*
X75346247Y-12664285D01*
X75346247Y-12664285D02*
X74965295Y-12664285D01*
X74965295Y-12664285D02*
X74870057Y-12711904D01*
X74870057Y-12711904D02*
X74822438Y-12759523D01*
X74822438Y-12759523D02*
X74774819Y-12854761D01*
X74774819Y-12854761D02*
X74774819Y-13045237D01*
X74774819Y-13045237D02*
X74822438Y-13140475D01*
X74822438Y-13140475D02*
X74870057Y-13188094D01*
X74870057Y-13188094D02*
X74965295Y-13235713D01*
X74965295Y-13235713D02*
X75203390Y-13235713D01*
X75203390Y-13235713D02*
X75298628Y-13188094D01*
X75298628Y-13188094D02*
X75346247Y-13140475D01*
X75346247Y-13140475D02*
X75393866Y-13045237D01*
X75393866Y-13045237D02*
X75393866Y-12854761D01*
X75393866Y-12854761D02*
X75346247Y-12759523D01*
X75346247Y-12759523D02*
X75298628Y-12711904D01*
X75298628Y-12711904D02*
X75203390Y-12664285D01*
X32100819Y-14092857D02*
X31624628Y-14426190D01*
X32100819Y-14664285D02*
X31100819Y-14664285D01*
X31100819Y-14664285D02*
X31100819Y-14283333D01*
X31100819Y-14283333D02*
X31148438Y-14188095D01*
X31148438Y-14188095D02*
X31196057Y-14140476D01*
X31196057Y-14140476D02*
X31291295Y-14092857D01*
X31291295Y-14092857D02*
X31434152Y-14092857D01*
X31434152Y-14092857D02*
X31529390Y-14140476D01*
X31529390Y-14140476D02*
X31577009Y-14188095D01*
X31577009Y-14188095D02*
X31624628Y-14283333D01*
X31624628Y-14283333D02*
X31624628Y-14664285D01*
X32100819Y-13140476D02*
X32100819Y-13711904D01*
X32100819Y-13426190D02*
X31100819Y-13426190D01*
X31100819Y-13426190D02*
X31243676Y-13521428D01*
X31243676Y-13521428D02*
X31338914Y-13616666D01*
X31338914Y-13616666D02*
X31386533Y-13711904D01*
X31100819Y-12283333D02*
X31100819Y-12473809D01*
X31100819Y-12473809D02*
X31148438Y-12569047D01*
X31148438Y-12569047D02*
X31196057Y-12616666D01*
X31196057Y-12616666D02*
X31338914Y-12711904D01*
X31338914Y-12711904D02*
X31529390Y-12759523D01*
X31529390Y-12759523D02*
X31910342Y-12759523D01*
X31910342Y-12759523D02*
X32005580Y-12711904D01*
X32005580Y-12711904D02*
X32053200Y-12664285D01*
X32053200Y-12664285D02*
X32100819Y-12569047D01*
X32100819Y-12569047D02*
X32100819Y-12378571D01*
X32100819Y-12378571D02*
X32053200Y-12283333D01*
X32053200Y-12283333D02*
X32005580Y-12235714D01*
X32005580Y-12235714D02*
X31910342Y-12188095D01*
X31910342Y-12188095D02*
X31672247Y-12188095D01*
X31672247Y-12188095D02*
X31577009Y-12235714D01*
X31577009Y-12235714D02*
X31529390Y-12283333D01*
X31529390Y-12283333D02*
X31481771Y-12378571D01*
X31481771Y-12378571D02*
X31481771Y-12569047D01*
X31481771Y-12569047D02*
X31529390Y-12664285D01*
X31529390Y-12664285D02*
X31577009Y-12711904D01*
X31577009Y-12711904D02*
X31672247Y-12759523D01*
X61774819Y-14092857D02*
X61298628Y-14426190D01*
X61774819Y-14664285D02*
X60774819Y-14664285D01*
X60774819Y-14664285D02*
X60774819Y-14283333D01*
X60774819Y-14283333D02*
X60822438Y-14188095D01*
X60822438Y-14188095D02*
X60870057Y-14140476D01*
X60870057Y-14140476D02*
X60965295Y-14092857D01*
X60965295Y-14092857D02*
X61108152Y-14092857D01*
X61108152Y-14092857D02*
X61203390Y-14140476D01*
X61203390Y-14140476D02*
X61251009Y-14188095D01*
X61251009Y-14188095D02*
X61298628Y-14283333D01*
X61298628Y-14283333D02*
X61298628Y-14664285D01*
X61774819Y-13140476D02*
X61774819Y-13711904D01*
X61774819Y-13426190D02*
X60774819Y-13426190D01*
X60774819Y-13426190D02*
X60917676Y-13521428D01*
X60917676Y-13521428D02*
X61012914Y-13616666D01*
X61012914Y-13616666D02*
X61060533Y-13711904D01*
X60870057Y-12759523D02*
X60822438Y-12711904D01*
X60822438Y-12711904D02*
X60774819Y-12616666D01*
X60774819Y-12616666D02*
X60774819Y-12378571D01*
X60774819Y-12378571D02*
X60822438Y-12283333D01*
X60822438Y-12283333D02*
X60870057Y-12235714D01*
X60870057Y-12235714D02*
X60965295Y-12188095D01*
X60965295Y-12188095D02*
X61060533Y-12188095D01*
X61060533Y-12188095D02*
X61203390Y-12235714D01*
X61203390Y-12235714D02*
X61774819Y-12807142D01*
X61774819Y-12807142D02*
X61774819Y-12188095D01*
X58666667Y-18507200D02*
X58809524Y-18554819D01*
X58809524Y-18554819D02*
X59047619Y-18554819D01*
X59047619Y-18554819D02*
X59142857Y-18507200D01*
X59142857Y-18507200D02*
X59190476Y-18459580D01*
X59190476Y-18459580D02*
X59238095Y-18364342D01*
X59238095Y-18364342D02*
X59238095Y-18269104D01*
X59238095Y-18269104D02*
X59190476Y-18173866D01*
X59190476Y-18173866D02*
X59142857Y-18126247D01*
X59142857Y-18126247D02*
X59047619Y-18078628D01*
X59047619Y-18078628D02*
X58857143Y-18031009D01*
X58857143Y-18031009D02*
X58761905Y-17983390D01*
X58761905Y-17983390D02*
X58714286Y-17935771D01*
X58714286Y-17935771D02*
X58666667Y-17840533D01*
X58666667Y-17840533D02*
X58666667Y-17745295D01*
X58666667Y-17745295D02*
X58714286Y-17650057D01*
X58714286Y-17650057D02*
X58761905Y-17602438D01*
X58761905Y-17602438D02*
X58857143Y-17554819D01*
X58857143Y-17554819D02*
X59095238Y-17554819D01*
X59095238Y-17554819D02*
X59238095Y-17602438D01*
X59571429Y-17554819D02*
X59809524Y-18554819D01*
X59809524Y-18554819D02*
X60000000Y-17840533D01*
X60000000Y-17840533D02*
X60190476Y-18554819D01*
X60190476Y-18554819D02*
X60428572Y-17554819D01*
X61333333Y-18554819D02*
X60761905Y-18554819D01*
X61047619Y-18554819D02*
X61047619Y-17554819D01*
X61047619Y-17554819D02*
X60952381Y-17697676D01*
X60952381Y-17697676D02*
X60857143Y-17792914D01*
X60857143Y-17792914D02*
X60761905Y-17840533D01*
D11*
X51783482Y-29622219D02*
X51212054Y-29622219D01*
X51497768Y-29622219D02*
X51497768Y-28622219D01*
X51497768Y-28622219D02*
X51402530Y-28765076D01*
X51402530Y-28765076D02*
X51307292Y-28860314D01*
X51307292Y-28860314D02*
X51212054Y-28907933D01*
X53672054Y-28647457D02*
X53719673Y-28599838D01*
X53719673Y-28599838D02*
X53814911Y-28552219D01*
X53814911Y-28552219D02*
X54053006Y-28552219D01*
X54053006Y-28552219D02*
X54148244Y-28599838D01*
X54148244Y-28599838D02*
X54195863Y-28647457D01*
X54195863Y-28647457D02*
X54243482Y-28742695D01*
X54243482Y-28742695D02*
X54243482Y-28837933D01*
X54243482Y-28837933D02*
X54195863Y-28980790D01*
X54195863Y-28980790D02*
X53624435Y-29552219D01*
X53624435Y-29552219D02*
X54243482Y-29552219D01*
X56164435Y-28592219D02*
X56783482Y-28592219D01*
X56783482Y-28592219D02*
X56450149Y-28973171D01*
X56450149Y-28973171D02*
X56593006Y-28973171D01*
X56593006Y-28973171D02*
X56688244Y-29020790D01*
X56688244Y-29020790D02*
X56735863Y-29068409D01*
X56735863Y-29068409D02*
X56783482Y-29163647D01*
X56783482Y-29163647D02*
X56783482Y-29401742D01*
X56783482Y-29401742D02*
X56735863Y-29496980D01*
X56735863Y-29496980D02*
X56688244Y-29544600D01*
X56688244Y-29544600D02*
X56593006Y-29592219D01*
X56593006Y-29592219D02*
X56307292Y-29592219D01*
X56307292Y-29592219D02*
X56212054Y-29544600D01*
X56212054Y-29544600D02*
X56164435Y-29496980D01*
X59008244Y-28835552D02*
X59008244Y-29502219D01*
X58770149Y-28454600D02*
X58532054Y-29168885D01*
X58532054Y-29168885D02*
X59151101Y-29168885D01*
X61705863Y-28472219D02*
X61229673Y-28472219D01*
X61229673Y-28472219D02*
X61182054Y-28948409D01*
X61182054Y-28948409D02*
X61229673Y-28900790D01*
X61229673Y-28900790D02*
X61324911Y-28853171D01*
X61324911Y-28853171D02*
X61563006Y-28853171D01*
X61563006Y-28853171D02*
X61658244Y-28900790D01*
X61658244Y-28900790D02*
X61705863Y-28948409D01*
X61705863Y-28948409D02*
X61753482Y-29043647D01*
X61753482Y-29043647D02*
X61753482Y-29281742D01*
X61753482Y-29281742D02*
X61705863Y-29376980D01*
X61705863Y-29376980D02*
X61658244Y-29424600D01*
X61658244Y-29424600D02*
X61563006Y-29472219D01*
X61563006Y-29472219D02*
X61324911Y-29472219D01*
X61324911Y-29472219D02*
X61229673Y-29424600D01*
X61229673Y-29424600D02*
X61182054Y-29376980D01*
X64228244Y-28442219D02*
X64037768Y-28442219D01*
X64037768Y-28442219D02*
X63942530Y-28489838D01*
X63942530Y-28489838D02*
X63894911Y-28537457D01*
X63894911Y-28537457D02*
X63799673Y-28680314D01*
X63799673Y-28680314D02*
X63752054Y-28870790D01*
X63752054Y-28870790D02*
X63752054Y-29251742D01*
X63752054Y-29251742D02*
X63799673Y-29346980D01*
X63799673Y-29346980D02*
X63847292Y-29394600D01*
X63847292Y-29394600D02*
X63942530Y-29442219D01*
X63942530Y-29442219D02*
X64133006Y-29442219D01*
X64133006Y-29442219D02*
X64228244Y-29394600D01*
X64228244Y-29394600D02*
X64275863Y-29346980D01*
X64275863Y-29346980D02*
X64323482Y-29251742D01*
X64323482Y-29251742D02*
X64323482Y-29013647D01*
X64323482Y-29013647D02*
X64275863Y-28918409D01*
X64275863Y-28918409D02*
X64228244Y-28870790D01*
X64228244Y-28870790D02*
X64133006Y-28823171D01*
X64133006Y-28823171D02*
X63942530Y-28823171D01*
X63942530Y-28823171D02*
X63847292Y-28870790D01*
X63847292Y-28870790D02*
X63799673Y-28918409D01*
X63799673Y-28918409D02*
X63752054Y-29013647D01*
X66374435Y-28572219D02*
X67041101Y-28572219D01*
X67041101Y-28572219D02*
X66612530Y-29572219D01*
X68952530Y-28900790D02*
X68857292Y-28853171D01*
X68857292Y-28853171D02*
X68809673Y-28805552D01*
X68809673Y-28805552D02*
X68762054Y-28710314D01*
X68762054Y-28710314D02*
X68762054Y-28662695D01*
X68762054Y-28662695D02*
X68809673Y-28567457D01*
X68809673Y-28567457D02*
X68857292Y-28519838D01*
X68857292Y-28519838D02*
X68952530Y-28472219D01*
X68952530Y-28472219D02*
X69143006Y-28472219D01*
X69143006Y-28472219D02*
X69238244Y-28519838D01*
X69238244Y-28519838D02*
X69285863Y-28567457D01*
X69285863Y-28567457D02*
X69333482Y-28662695D01*
X69333482Y-28662695D02*
X69333482Y-28710314D01*
X69333482Y-28710314D02*
X69285863Y-28805552D01*
X69285863Y-28805552D02*
X69238244Y-28853171D01*
X69238244Y-28853171D02*
X69143006Y-28900790D01*
X69143006Y-28900790D02*
X68952530Y-28900790D01*
X68952530Y-28900790D02*
X68857292Y-28948409D01*
X68857292Y-28948409D02*
X68809673Y-28996028D01*
X68809673Y-28996028D02*
X68762054Y-29091266D01*
X68762054Y-29091266D02*
X68762054Y-29281742D01*
X68762054Y-29281742D02*
X68809673Y-29376980D01*
X68809673Y-29376980D02*
X68857292Y-29424600D01*
X68857292Y-29424600D02*
X68952530Y-29472219D01*
X68952530Y-29472219D02*
X69143006Y-29472219D01*
X69143006Y-29472219D02*
X69238244Y-29424600D01*
X69238244Y-29424600D02*
X69285863Y-29376980D01*
X69285863Y-29376980D02*
X69333482Y-29281742D01*
X69333482Y-29281742D02*
X69333482Y-29091266D01*
X69333482Y-29091266D02*
X69285863Y-28996028D01*
X69285863Y-28996028D02*
X69238244Y-28948409D01*
X69238244Y-28948409D02*
X69143006Y-28900790D01*
D10*
X89774819Y-13616666D02*
X89298628Y-13949999D01*
X89774819Y-14188094D02*
X88774819Y-14188094D01*
X88774819Y-14188094D02*
X88774819Y-13807142D01*
X88774819Y-13807142D02*
X88822438Y-13711904D01*
X88822438Y-13711904D02*
X88870057Y-13664285D01*
X88870057Y-13664285D02*
X88965295Y-13616666D01*
X88965295Y-13616666D02*
X89108152Y-13616666D01*
X89108152Y-13616666D02*
X89203390Y-13664285D01*
X89203390Y-13664285D02*
X89251009Y-13711904D01*
X89251009Y-13711904D02*
X89298628Y-13807142D01*
X89298628Y-13807142D02*
X89298628Y-14188094D01*
X88774819Y-12759523D02*
X88774819Y-12949999D01*
X88774819Y-12949999D02*
X88822438Y-13045237D01*
X88822438Y-13045237D02*
X88870057Y-13092856D01*
X88870057Y-13092856D02*
X89012914Y-13188094D01*
X89012914Y-13188094D02*
X89203390Y-13235713D01*
X89203390Y-13235713D02*
X89584342Y-13235713D01*
X89584342Y-13235713D02*
X89679580Y-13188094D01*
X89679580Y-13188094D02*
X89727200Y-13140475D01*
X89727200Y-13140475D02*
X89774819Y-13045237D01*
X89774819Y-13045237D02*
X89774819Y-12854761D01*
X89774819Y-12854761D02*
X89727200Y-12759523D01*
X89727200Y-12759523D02*
X89679580Y-12711904D01*
X89679580Y-12711904D02*
X89584342Y-12664285D01*
X89584342Y-12664285D02*
X89346247Y-12664285D01*
X89346247Y-12664285D02*
X89251009Y-12711904D01*
X89251009Y-12711904D02*
X89203390Y-12759523D01*
X89203390Y-12759523D02*
X89155771Y-12854761D01*
X89155771Y-12854761D02*
X89155771Y-13045237D01*
X89155771Y-13045237D02*
X89203390Y-13140475D01*
X89203390Y-13140475D02*
X89251009Y-13188094D01*
X89251009Y-13188094D02*
X89346247Y-13235713D01*
X74024819Y-13616666D02*
X73548628Y-13949999D01*
X74024819Y-14188094D02*
X73024819Y-14188094D01*
X73024819Y-14188094D02*
X73024819Y-13807142D01*
X73024819Y-13807142D02*
X73072438Y-13711904D01*
X73072438Y-13711904D02*
X73120057Y-13664285D01*
X73120057Y-13664285D02*
X73215295Y-13616666D01*
X73215295Y-13616666D02*
X73358152Y-13616666D01*
X73358152Y-13616666D02*
X73453390Y-13664285D01*
X73453390Y-13664285D02*
X73501009Y-13711904D01*
X73501009Y-13711904D02*
X73548628Y-13807142D01*
X73548628Y-13807142D02*
X73548628Y-14188094D01*
X73024819Y-13283332D02*
X73024819Y-12616666D01*
X73024819Y-12616666D02*
X74024819Y-13045237D01*
X19852819Y-14092857D02*
X19376628Y-14426190D01*
X19852819Y-14664285D02*
X18852819Y-14664285D01*
X18852819Y-14664285D02*
X18852819Y-14283333D01*
X18852819Y-14283333D02*
X18900438Y-14188095D01*
X18900438Y-14188095D02*
X18948057Y-14140476D01*
X18948057Y-14140476D02*
X19043295Y-14092857D01*
X19043295Y-14092857D02*
X19186152Y-14092857D01*
X19186152Y-14092857D02*
X19281390Y-14140476D01*
X19281390Y-14140476D02*
X19329009Y-14188095D01*
X19329009Y-14188095D02*
X19376628Y-14283333D01*
X19376628Y-14283333D02*
X19376628Y-14664285D01*
X18948057Y-13711904D02*
X18900438Y-13664285D01*
X18900438Y-13664285D02*
X18852819Y-13569047D01*
X18852819Y-13569047D02*
X18852819Y-13330952D01*
X18852819Y-13330952D02*
X18900438Y-13235714D01*
X18900438Y-13235714D02*
X18948057Y-13188095D01*
X18948057Y-13188095D02*
X19043295Y-13140476D01*
X19043295Y-13140476D02*
X19138533Y-13140476D01*
X19138533Y-13140476D02*
X19281390Y-13188095D01*
X19281390Y-13188095D02*
X19852819Y-13759523D01*
X19852819Y-13759523D02*
X19852819Y-13140476D01*
X19852819Y-12188095D02*
X19852819Y-12759523D01*
X19852819Y-12473809D02*
X18852819Y-12473809D01*
X18852819Y-12473809D02*
X18995676Y-12569047D01*
X18995676Y-12569047D02*
X19090914Y-12664285D01*
X19090914Y-12664285D02*
X19138533Y-12759523D01*
%TO.C,R22*%
D12*
X4049500Y-13687258D02*
X4049500Y-13212742D01*
X5094500Y-13687258D02*
X5094500Y-13212742D01*
%TO.C,R24*%
X6081500Y-13687258D02*
X6081500Y-13212742D01*
X7126500Y-13687258D02*
X7126500Y-13212742D01*
%TO.C,J3*%
X104044600Y-21971800D02*
X104044600Y-24296800D01*
X104044600Y-24296800D02*
X101654600Y-24296800D01*
X104044600Y-30141800D02*
X104044600Y-27816800D01*
X104894600Y-21971800D02*
X104044600Y-21971800D01*
X104894600Y-30141800D02*
X104044600Y-30141800D01*
X108414600Y-21971800D02*
X109264600Y-21971800D01*
X109264600Y-21971800D02*
X109264600Y-30141800D01*
X109264600Y-30141800D02*
X108414600Y-30141800D01*
%TO.C,R17*%
X35977500Y-13687258D02*
X35977500Y-13212742D01*
X37022500Y-13687258D02*
X37022500Y-13212742D01*
%TO.C,J1*%
D13*
X3230000Y1910000D02*
X3230000Y-11050000D01*
X3230000Y-11050000D02*
X116770000Y-11050000D01*
X116770000Y1910000D02*
X3230000Y1910000D01*
X116770000Y-11050000D02*
X116770000Y1910000D01*
D14*
X116780000Y1960000D02*
G75*
G02*
X116720000Y1960000I-30000J0D01*
G01*
X116720000Y1960000D02*
G75*
G02*
X116780000Y1960000I30000J0D01*
G01*
%TO.C,R15*%
D12*
X48227500Y-13687258D02*
X48227500Y-13212742D01*
X49272500Y-13687258D02*
X49272500Y-13212742D01*
%TO.C,R18*%
X34227500Y-13687258D02*
X34227500Y-13212742D01*
X35272500Y-13687258D02*
X35272500Y-13212742D01*
%TO.C,R19*%
X18477500Y-13687258D02*
X18477500Y-13212742D01*
X19522500Y-13687258D02*
X19522500Y-13212742D01*
%TO.C,J2*%
X10084600Y-21492800D02*
X10934600Y-21492800D01*
X10084600Y-29662800D02*
X10084600Y-21492800D01*
X10934600Y-29662800D02*
X10084600Y-29662800D01*
X14454600Y-21492800D02*
X15304600Y-21492800D01*
X14454600Y-29662800D02*
X15304600Y-29662800D01*
X15304600Y-21492800D02*
X15304600Y-23817800D01*
X15304600Y-27337800D02*
X17694600Y-27337800D01*
X15304600Y-29662800D02*
X15304600Y-27337800D01*
%TO.C,R14*%
X49977500Y-13687258D02*
X49977500Y-13212742D01*
X51022500Y-13687258D02*
X51022500Y-13212742D01*
%TO.C,R2*%
X105977500Y-13687258D02*
X105977500Y-13212742D01*
X107022500Y-13687258D02*
X107022500Y-13212742D01*
%TO.C,R20*%
X21977500Y-13687258D02*
X21977500Y-13212742D01*
X23022500Y-13687258D02*
X23022500Y-13212742D01*
%TO.C,R10*%
X60477500Y-13687258D02*
X60477500Y-13212742D01*
X61522500Y-13687258D02*
X61522500Y-13212742D01*
%TO.C,R11*%
X63977500Y-13687258D02*
X63977500Y-13212742D01*
X65022500Y-13687258D02*
X65022500Y-13212742D01*
%TO.C,R23*%
X7977500Y-13687258D02*
X7977500Y-13212742D01*
X9022500Y-13687258D02*
X9022500Y-13212742D01*
%TO.C,R1*%
X102601500Y-13687258D02*
X102601500Y-13212742D01*
X103646500Y-13687258D02*
X103646500Y-13212742D01*
%TO.C,R5*%
X91977500Y-13687258D02*
X91977500Y-13212742D01*
X93022500Y-13687258D02*
X93022500Y-13212742D01*
%TO.C,R3*%
X104277500Y-13687258D02*
X104277500Y-13212742D01*
X105322500Y-13687258D02*
X105322500Y-13212742D01*
%TO.C,R4*%
X88477500Y-13687258D02*
X88477500Y-13212742D01*
X89522500Y-13687258D02*
X89522500Y-13212742D01*
%TO.C,R8*%
X77977500Y-13687258D02*
X77977500Y-13212742D01*
X79022500Y-13687258D02*
X79022500Y-13212742D01*
%TO.C,R13*%
X46477500Y-13687258D02*
X46477500Y-13212742D01*
X47522500Y-13687258D02*
X47522500Y-13212742D01*
%TO.C,R9*%
X76227500Y-13687258D02*
X76227500Y-13212742D01*
X77272500Y-13687258D02*
X77272500Y-13212742D01*
%TO.C,R16*%
X32553500Y-13687258D02*
X32553500Y-13212742D01*
X33598500Y-13687258D02*
X33598500Y-13212742D01*
%TO.C,R12*%
X62227500Y-13687258D02*
X62227500Y-13212742D01*
X63272500Y-13687258D02*
X63272500Y-13212742D01*
%TO.C,SW1*%
D13*
X49850000Y-23500000D02*
X49850000Y-29500000D01*
X49850000Y-29500000D02*
X70150000Y-29500000D01*
X50710000Y-25920000D02*
X51560000Y-25920000D01*
X50710000Y-26670000D02*
X50710000Y-25920000D01*
X50730000Y-25110000D02*
X51560000Y-25110000D01*
X50730000Y-27520000D02*
X50730000Y-25110000D01*
X51560000Y-25110000D02*
X51560000Y-27520000D01*
X51560000Y-25920000D02*
X51560000Y-26670000D01*
X51560000Y-26670000D02*
X50710000Y-26670000D01*
X51560000Y-27520000D02*
X50730000Y-27520000D01*
X53250000Y-25920000D02*
X54100000Y-25920000D01*
X53250000Y-26670000D02*
X53250000Y-25920000D01*
X53270000Y-25110000D02*
X54100000Y-25110000D01*
X53270000Y-27520000D02*
X53270000Y-25110000D01*
X54100000Y-25110000D02*
X54100000Y-27520000D01*
X54100000Y-25920000D02*
X54100000Y-26670000D01*
X54100000Y-26670000D02*
X53250000Y-26670000D01*
X54100000Y-27520000D02*
X53270000Y-27520000D01*
X55790000Y-25920000D02*
X56640000Y-25920000D01*
X55790000Y-26670000D02*
X55790000Y-25920000D01*
X55810000Y-25110000D02*
X56640000Y-25110000D01*
X55810000Y-27520000D02*
X55810000Y-25110000D01*
X56640000Y-25110000D02*
X56640000Y-27520000D01*
X56640000Y-25920000D02*
X56640000Y-26670000D01*
X56640000Y-26670000D02*
X55790000Y-26670000D01*
X56640000Y-27520000D02*
X55810000Y-27520000D01*
X58330000Y-25920000D02*
X59180000Y-25920000D01*
X58330000Y-26670000D02*
X58330000Y-25920000D01*
X58350000Y-25110000D02*
X59180000Y-25110000D01*
X58350000Y-27520000D02*
X58350000Y-25110000D01*
X59180000Y-25110000D02*
X59180000Y-27520000D01*
X59180000Y-25920000D02*
X59180000Y-26670000D01*
X59180000Y-26670000D02*
X58330000Y-26670000D01*
X59180000Y-27520000D02*
X58350000Y-27520000D01*
X60870000Y-25920000D02*
X61720000Y-25920000D01*
X60870000Y-26670000D02*
X60870000Y-25920000D01*
X60890000Y-25110000D02*
X61720000Y-25110000D01*
X60890000Y-27520000D02*
X60890000Y-25110000D01*
X61720000Y-25110000D02*
X61720000Y-27520000D01*
X61720000Y-25920000D02*
X61720000Y-26670000D01*
X61720000Y-26670000D02*
X60870000Y-26670000D01*
X61720000Y-27520000D02*
X60890000Y-27520000D01*
X63410000Y-25920000D02*
X64260000Y-25920000D01*
X63410000Y-26670000D02*
X63410000Y-25920000D01*
X63430000Y-25110000D02*
X64260000Y-25110000D01*
X63430000Y-27520000D02*
X63430000Y-25110000D01*
X64260000Y-25110000D02*
X64260000Y-27520000D01*
X64260000Y-25920000D02*
X64260000Y-26670000D01*
X64260000Y-26670000D02*
X63410000Y-26670000D01*
X64260000Y-27520000D02*
X63430000Y-27520000D01*
X65950000Y-25920000D02*
X66800000Y-25920000D01*
X65950000Y-26670000D02*
X65950000Y-25920000D01*
X65970000Y-25110000D02*
X66800000Y-25110000D01*
X65970000Y-27520000D02*
X65970000Y-25110000D01*
X66800000Y-25110000D02*
X66800000Y-27520000D01*
X66800000Y-25920000D02*
X66800000Y-26670000D01*
X66800000Y-26670000D02*
X65950000Y-26670000D01*
X66800000Y-27520000D02*
X65970000Y-27520000D01*
X68490000Y-25920000D02*
X69340000Y-25920000D01*
X68490000Y-26670000D02*
X68490000Y-25920000D01*
X68510000Y-25110000D02*
X69340000Y-25110000D01*
X68510000Y-27520000D02*
X68510000Y-25110000D01*
X69340000Y-25110000D02*
X69340000Y-27520000D01*
X69340000Y-25920000D02*
X69340000Y-26670000D01*
X69340000Y-26670000D02*
X68490000Y-26670000D01*
X69340000Y-27520000D02*
X68510000Y-27520000D01*
X70150000Y-23500000D02*
X49850000Y-23500000D01*
X70150000Y-29500000D02*
X70150000Y-23500000D01*
D14*
X49880000Y-31150000D02*
G75*
G02*
X49820000Y-31150000I-30000J0D01*
G01*
X49820000Y-31150000D02*
G75*
G02*
X49880000Y-31150000I30000J0D01*
G01*
%TO.C,R6*%
D12*
X90227500Y-13687258D02*
X90227500Y-13212742D01*
X91272500Y-13687258D02*
X91272500Y-13212742D01*
%TO.C,R7*%
X74477500Y-13687258D02*
X74477500Y-13212742D01*
X75522500Y-13687258D02*
X75522500Y-13212742D01*
%TO.C,R21*%
X20305500Y-13687258D02*
X20305500Y-13212742D01*
X21350500Y-13687258D02*
X21350500Y-13212742D01*
%TD*%
%LPC*%
D15*
%TO.C,R22*%
X4572000Y-14275000D03*
X4572000Y-12625000D03*
%TD*%
%TO.C,R24*%
X6604000Y-14275000D03*
X6604000Y-12625000D03*
%TD*%
D16*
%TO.C,J3*%
X104404600Y-25056800D03*
X104404600Y-27056800D03*
D17*
X106654600Y-22656800D03*
X106654600Y-29456800D03*
%TD*%
D15*
%TO.C,R17*%
X36500000Y-14275000D03*
X36500000Y-12625000D03*
%TD*%
D18*
%TO.C,H3*%
X40000000Y-30000000D03*
%TD*%
%TO.C,J1*%
X114750000Y-4140000D03*
X5250000Y-4140000D03*
D19*
X105500000Y-6730000D03*
X106500000Y-9270000D03*
X107500000Y-6730000D03*
X108500000Y-9270000D03*
X109500000Y-6730000D03*
X110500000Y-9270000D03*
X111500000Y-6730000D03*
X112500000Y-9270000D03*
X91500000Y-6730000D03*
X92500000Y-9270000D03*
X93500000Y-6730000D03*
X94500000Y-9270000D03*
X95500000Y-6730000D03*
X96500000Y-9270000D03*
X97500000Y-6730000D03*
X98500000Y-9270000D03*
X77500000Y-6730000D03*
X78500000Y-9270000D03*
X79500000Y-6730000D03*
X80500000Y-9270000D03*
X81500000Y-6730000D03*
X82500000Y-9270000D03*
X83500000Y-6730000D03*
X84500000Y-9270000D03*
X63500000Y-6730000D03*
X64500000Y-9270000D03*
X65500000Y-6730000D03*
X66500000Y-9270000D03*
X67500000Y-6730000D03*
X68500000Y-9270000D03*
X69500000Y-6730000D03*
X70500000Y-9270000D03*
X49500000Y-6730000D03*
X50500000Y-9270000D03*
X51500000Y-6730000D03*
X52500000Y-9270000D03*
X53500000Y-6730000D03*
X54500000Y-9270000D03*
X55500000Y-6730000D03*
X56500000Y-9270000D03*
X35500000Y-6730000D03*
X36500000Y-9270000D03*
X37500000Y-6730000D03*
X38500000Y-9270000D03*
X39500000Y-6730000D03*
X40500000Y-9270000D03*
X41500000Y-6730000D03*
X42500000Y-9270000D03*
X21500000Y-6730000D03*
X22500000Y-9270000D03*
X23500000Y-6730000D03*
X24500000Y-9270000D03*
X25500000Y-6730000D03*
X26500000Y-9270000D03*
X27500000Y-6730000D03*
X28500000Y-9270000D03*
X7500000Y-6730000D03*
X8500000Y-9270000D03*
X9500000Y-6730000D03*
X10500000Y-9270000D03*
X11500000Y-6730000D03*
X12500000Y-9270000D03*
X13500000Y-6730000D03*
X14500000Y-9270000D03*
%TD*%
D15*
%TO.C,R15*%
X48750000Y-14275000D03*
X48750000Y-12625000D03*
%TD*%
%TO.C,R18*%
X34750000Y-14275000D03*
X34750000Y-12625000D03*
%TD*%
%TO.C,R19*%
X19000000Y-14275000D03*
X19000000Y-12625000D03*
%TD*%
D18*
%TO.C,H2*%
X115500000Y-20000000D03*
%TD*%
%TO.C,H4*%
X80000000Y-30000000D03*
%TD*%
D20*
%TO.C,J2*%
X14944600Y-26577800D03*
X14944600Y-24577800D03*
D21*
X12694600Y-28977800D03*
X12694600Y-22177800D03*
%TD*%
D15*
%TO.C,R14*%
X50500000Y-14275000D03*
X50500000Y-12625000D03*
%TD*%
%TO.C,R2*%
X106500000Y-14275000D03*
X106500000Y-12625000D03*
%TD*%
%TO.C,R20*%
X22500000Y-14275000D03*
X22500000Y-12625000D03*
%TD*%
%TO.C,R10*%
X61000000Y-14275000D03*
X61000000Y-12625000D03*
%TD*%
%TO.C,R11*%
X64500000Y-14275000D03*
X64500000Y-12625000D03*
%TD*%
%TO.C,R23*%
X8500000Y-14275000D03*
X8500000Y-12625000D03*
%TD*%
%TO.C,R1*%
X103124000Y-14275000D03*
X103124000Y-12625000D03*
%TD*%
%TO.C,R5*%
X92500000Y-14275000D03*
X92500000Y-12625000D03*
%TD*%
%TO.C,R3*%
X104800000Y-14275000D03*
X104800000Y-12625000D03*
%TD*%
%TO.C,R4*%
X89000000Y-14275000D03*
X89000000Y-12625000D03*
%TD*%
%TO.C,R8*%
X78500000Y-14275000D03*
X78500000Y-12625000D03*
%TD*%
%TO.C,R13*%
X47000000Y-14275000D03*
X47000000Y-12625000D03*
%TD*%
D18*
%TO.C,H1*%
X4500000Y-20000000D03*
%TD*%
D15*
%TO.C,R9*%
X76750000Y-14275000D03*
X76750000Y-12625000D03*
%TD*%
%TO.C,R16*%
X33076000Y-14275000D03*
X33076000Y-12625000D03*
%TD*%
%TO.C,R12*%
X62750000Y-14275000D03*
X62750000Y-12625000D03*
%TD*%
D22*
%TO.C,SW1*%
X51110000Y-30900000D03*
X53650000Y-30900000D03*
X56190000Y-30900000D03*
X58730000Y-30900000D03*
X61270000Y-30900000D03*
X63810000Y-30900000D03*
X66350000Y-30900000D03*
X68890000Y-30900000D03*
X68890000Y-22100000D03*
X66350000Y-22100000D03*
X63810000Y-22100000D03*
X61270000Y-22100000D03*
X58730000Y-22100000D03*
X56190000Y-22100000D03*
X53650000Y-22100000D03*
X51110000Y-22100000D03*
%TD*%
D15*
%TO.C,R6*%
X90750000Y-14275000D03*
X90750000Y-12625000D03*
%TD*%
%TO.C,R7*%
X75000000Y-14275000D03*
X75000000Y-12625000D03*
%TD*%
%TO.C,R21*%
X20828000Y-14275000D03*
X20828000Y-12625000D03*
%TD*%
%LPD*%
M02*
