%TF.GenerationSoftware,KiCad,Pcbnew,10.0.1*%
%TF.CreationDate,2026-04-20T21:56:29+02:00*%
%TF.ProjectId,Id_Board,49645f42-6f61-4726-942e-6b696361645f,rev?*%
%TF.SameCoordinates,Original*%
%TF.FileFunction,Copper,L2,Bot*%
%TF.FilePolarity,Positive*%
%FSLAX46Y46*%
G04 Gerber Fmt 4.6, Leading zero omitted, Abs format (unit mm)*
G04 Created by KiCad (PCBNEW 10.0.1) date 2026-04-20 21:56:29*
%MOMM*%
%LPD*%
G01*
G04 APERTURE LIST*
G04 Aperture macros list*
%AMRoundRect*
0 Rectangle with rounded corners*
0 $1 Rounding radius*
0 $2 $3 $4 $5 $6 $7 $8 $9 X,Y pos of 4 corners*
0 Add a 4 corners polygon primitive as box body*
4,1,4,$2,$3,$4,$5,$6,$7,$8,$9,$2,$3,0*
0 Add four circle primitives for the rounded corners*
1,1,$1+$1,$2,$3*
1,1,$1+$1,$4,$5*
1,1,$1+$1,$6,$7*
1,1,$1+$1,$8,$9*
0 Add four rect primitives between the rounded corners*
20,1,$1+$1,$2,$3,$4,$5,0*
20,1,$1+$1,$4,$5,$6,$7,0*
20,1,$1+$1,$6,$7,$8,$9,0*
20,1,$1+$1,$8,$9,$2,$3,0*%
G04 Aperture macros list end*
%TA.AperFunction,WasherPad*%
%ADD10C,3.251200*%
%TD*%
%TA.AperFunction,ComponentPad*%
%ADD11R,1.498600X1.498600*%
%TD*%
%TA.AperFunction,ComponentPad*%
%ADD12C,1.498600*%
%TD*%
%TA.AperFunction,ComponentPad*%
%ADD13C,2.286000*%
%TD*%
%TA.AperFunction,ComponentPad*%
%ADD14RoundRect,0.250000X0.550000X-0.550000X0.550000X0.550000X-0.550000X0.550000X-0.550000X-0.550000X0*%
%TD*%
%TA.AperFunction,ComponentPad*%
%ADD15C,1.600000*%
%TD*%
G04 APERTURE END LIST*
D10*
%TO.P,REF1,*%
%TO.N,*%
X63182000Y-46460000D03*
D11*
%TO.P,REF1,1*%
%TO.N,N/C*%
X65976000Y-49000000D03*
D12*
%TO.P,REF1,2*%
X66992000Y-50778000D03*
%TO.P,REF1,3*%
X68008000Y-49000000D03*
%TO.P,REF1,4*%
X69024000Y-50778000D03*
%TO.P,REF1,5*%
X70040000Y-49000000D03*
%TO.P,REF1,6*%
X71056000Y-50778000D03*
%TO.P,REF1,7*%
X72072000Y-49000000D03*
%TO.P,REF1,8*%
X73088000Y-50778000D03*
%TO.P,REF1,9*%
X81724000Y-49000000D03*
%TO.P,REF1,10*%
X82740000Y-50778000D03*
%TO.P,REF1,11*%
X83756000Y-49000000D03*
%TO.P,REF1,12*%
X84772000Y-50778000D03*
%TO.P,REF1,13*%
X85788000Y-49000000D03*
%TO.P,REF1,14*%
X86804000Y-50778000D03*
%TO.P,REF1,15*%
X87820000Y-49000000D03*
%TO.P,REF1,16*%
X88836000Y-50778000D03*
%TO.P,REF1,17*%
X97472000Y-49000000D03*
%TO.P,REF1,18*%
X98488000Y-50778000D03*
%TO.P,REF1,19*%
X99504000Y-49000000D03*
%TO.P,REF1,20*%
X100520000Y-50778000D03*
%TO.P,REF1,21*%
X101536000Y-49000000D03*
%TO.P,REF1,22*%
X102552000Y-50778000D03*
%TO.P,REF1,23*%
X103568000Y-49000000D03*
%TO.P,REF1,24*%
X104584000Y-50778000D03*
%TO.P,REF1,25*%
X113220000Y-49000000D03*
%TO.P,REF1,26*%
X114236000Y-50778000D03*
%TO.P,REF1,27*%
X115252000Y-49000000D03*
%TO.P,REF1,28*%
X116268000Y-50778000D03*
%TO.P,REF1,29*%
X117284000Y-49000000D03*
%TO.P,REF1,30*%
X118300000Y-50778000D03*
%TO.P,REF1,31*%
X119316000Y-49000000D03*
%TO.P,REF1,32*%
X120332000Y-50778000D03*
%TO.P,REF1,33*%
X128968000Y-49000000D03*
%TO.P,REF1,34*%
X129984000Y-50778000D03*
%TO.P,REF1,35*%
X131000000Y-49000000D03*
%TO.P,REF1,36*%
X132016000Y-50778000D03*
%TO.P,REF1,37*%
X133032000Y-49000000D03*
%TO.P,REF1,38*%
X134048000Y-50778000D03*
%TO.P,REF1,39*%
X135064000Y-49000000D03*
%TO.P,REF1,40*%
X136080000Y-50778000D03*
%TO.P,REF1,41*%
X144716000Y-49000000D03*
%TO.P,REF1,42*%
X145732000Y-50778000D03*
%TO.P,REF1,43*%
X146748000Y-49000000D03*
%TO.P,REF1,44*%
X147764000Y-50778000D03*
%TO.P,REF1,45*%
X148780000Y-49000000D03*
%TO.P,REF1,46*%
X149796000Y-50778000D03*
%TO.P,REF1,47*%
X150812000Y-49000000D03*
%TO.P,REF1,48*%
X151828000Y-50778000D03*
%TO.P,REF1,49*%
X160464000Y-49000000D03*
%TO.P,REF1,50*%
X161480000Y-50778000D03*
%TO.P,REF1,51*%
X162496000Y-49000000D03*
%TO.P,REF1,52*%
X163512000Y-50778000D03*
%TO.P,REF1,53*%
X164528000Y-49000000D03*
%TO.P,REF1,54*%
X165544000Y-50778000D03*
%TO.P,REF1,55*%
X166560000Y-49000000D03*
%TO.P,REF1,56*%
X167576000Y-50778000D03*
%TO.P,REF1,57*%
X176212000Y-49000000D03*
%TO.P,REF1,58*%
X177228000Y-50778000D03*
%TO.P,REF1,59*%
X178244000Y-49000000D03*
%TO.P,REF1,60*%
X179260000Y-50778000D03*
%TO.P,REF1,61*%
X180276000Y-49000000D03*
%TO.P,REF1,62*%
X181292000Y-50778000D03*
%TO.P,REF1,63*%
X182308000Y-49000000D03*
%TO.P,REF1,64*%
X183324000Y-50778000D03*
D13*
%TO.P,REF1,SH*%
X61404000Y-49889000D03*
X116776000Y-56620000D03*
X132524000Y-56620000D03*
X187896000Y-49889000D03*
%TD*%
D14*
%TO.P,REF2,1*%
%TO.N,N/C*%
X171380000Y-82810000D03*
D15*
%TO.P,REF2,2*%
X173920000Y-82810000D03*
%TO.P,REF2,3*%
X176460000Y-82810000D03*
%TO.P,REF2,4*%
X179000000Y-82810000D03*
%TO.P,REF2,5*%
X181540000Y-82810000D03*
%TO.P,REF2,6*%
X184080000Y-82810000D03*
%TO.P,REF2,7*%
X186620000Y-82810000D03*
%TO.P,REF2,8*%
X186620000Y-75190000D03*
%TO.P,REF2,9*%
X184080000Y-75190000D03*
%TO.P,REF2,10*%
X181540000Y-75190000D03*
%TO.P,REF2,11*%
X179000000Y-75190000D03*
%TO.P,REF2,12*%
X176460000Y-75190000D03*
%TO.P,REF2,13*%
X173920000Y-75190000D03*
%TO.P,REF2,14*%
X171380000Y-75190000D03*
%TD*%
M02*
