%TF.GenerationSoftware,KiCad,Pcbnew,10.0.1*%
%TF.CreationDate,2026-05-05T23:53:16+02:00*%
%TF.ProjectId,Id_Board,49645f42-6f61-4726-942e-6b696361645f,rev?*%
%TF.SameCoordinates,Original*%
%TF.FileFunction,Copper,L1,Top*%
%TF.FilePolarity,Positive*%
%FSLAX46Y46*%
G04 Gerber Fmt 4.6, Leading zero omitted, Abs format (unit mm)*
G04 Created by KiCad (PCBNEW 10.0.1) date 2026-05-05 23:53:16*
%MOMM*%
%LPD*%
G01*
G04 APERTURE LIST*
G04 Aperture macros list*
%AMRoundRect*
0 Rectangle with rounded corners*
0 $1 Rounding radius*
0 $2 $3 $4 $5 $6 $7 $8 $9 X,Y pos of 4 corners*
0 Add a 4 corners polygon primitive as box body*
4,1,4,$2,$3,$4,$5,$6,$7,$8,$9,$2,$3,0*
0 Add four circle primitives for the rounded corners*
1,1,$1+$1,$2,$3*
1,1,$1+$1,$4,$5*
1,1,$1+$1,$6,$7*
1,1,$1+$1,$8,$9*
0 Add four rect primitives between the rounded corners*
20,1,$1+$1,$2,$3,$4,$5,0*
20,1,$1+$1,$4,$5,$6,$7,0*
20,1,$1+$1,$6,$7,$8,$9,0*
20,1,$1+$1,$8,$9,$2,$3,0*%
G04 Aperture macros list end*
%TA.AperFunction,ComponentPad*%
%ADD10C,1.600000*%
%TD*%
%TA.AperFunction,SMDPad,CuDef*%
%ADD11RoundRect,0.200000X0.275000X-0.200000X0.275000X0.200000X-0.275000X0.200000X-0.275000X-0.200000X0*%
%TD*%
%TA.AperFunction,SMDPad,CuDef*%
%ADD12RoundRect,0.250000X-2.500000X0.250000X-2.500000X-0.250000X2.500000X-0.250000X2.500000X0.250000X0*%
%TD*%
%TA.AperFunction,SMDPad,CuDef*%
%ADD13RoundRect,0.250000X-1.250000X0.550000X-1.250000X-0.550000X1.250000X-0.550000X1.250000X0.550000X0*%
%TD*%
%TA.AperFunction,SMDPad,CuDef*%
%ADD14RoundRect,0.250000X2.500000X-0.250000X2.500000X0.250000X-2.500000X0.250000X-2.500000X-0.250000X0*%
%TD*%
%TA.AperFunction,SMDPad,CuDef*%
%ADD15RoundRect,0.250000X1.250000X-0.550000X1.250000X0.550000X-1.250000X0.550000X-1.250000X-0.550000X0*%
%TD*%
%TA.AperFunction,SMDPad,CuDef*%
%ADD16R,1.100000X2.200000*%
%TD*%
%TA.AperFunction,ViaPad*%
%ADD17C,0.600000*%
%TD*%
%TA.AperFunction,Conductor*%
%ADD18C,0.200000*%
%TD*%
%TA.AperFunction,Conductor*%
%ADD19C,0.500000*%
%TD*%
G04 APERTURE END LIST*
D10*
%TO.P,J1,G1*%
%TO.N,Net-(J1-PadG1)*%
X21500000Y-6730000D03*
%TO.P,J1,G2*%
%TO.N,Net-(J1-PadG2)*%
X22500000Y-9270000D03*
%TO.P,J1,G6*%
%TO.N,BoardC*%
X26500000Y-9270000D03*
%TO.P,J1,G3*%
%TO.N,Net-(J1-PadG3)*%
X23500000Y-6730000D03*
%TO.P,J1,G7*%
%TO.N,BoardD*%
X27500000Y-6730000D03*
%TO.P,J1,G5*%
%TO.N,BoardB*%
X25500000Y-6730000D03*
%TO.P,J1,G8*%
%TO.N,ParityA*%
X28500000Y-9270000D03*
%TO.P,J1,G4*%
%TO.N,BoardA*%
X24500000Y-9270000D03*
%TO.P,J1,F1*%
%TO.N,Net-(J1-PadF1)*%
X35500000Y-6730000D03*
%TO.P,J1,F2*%
%TO.N,Net-(J1-PadF2)*%
X36500000Y-9270000D03*
%TO.P,J1,F6*%
%TO.N,BoardC*%
X40500000Y-9270000D03*
%TO.P,J1,F3*%
%TO.N,Net-(J1-PadF3)*%
X37500000Y-6730000D03*
%TO.P,J1,F7*%
%TO.N,BoardD*%
X41500000Y-6730000D03*
%TO.P,J1,F5*%
%TO.N,BoardB*%
X39500000Y-6730000D03*
%TO.P,J1,F8*%
%TO.N,ParityB*%
X42500000Y-9270000D03*
%TO.P,J1,F4*%
%TO.N,BoardA*%
X38500000Y-9270000D03*
%TO.P,J1,E1*%
%TO.N,Net-(J1-PadE1)*%
X49500000Y-6730000D03*
%TO.P,J1,E2*%
%TO.N,Net-(J1-PadE2)*%
X50500000Y-9270000D03*
%TO.P,J1,E6*%
%TO.N,BoardC*%
X54500000Y-9270000D03*
%TO.P,J1,E3*%
%TO.N,Net-(J1-PadE3)*%
X51500000Y-6730000D03*
%TO.P,J1,E7*%
%TO.N,BoardD*%
X55500000Y-6730000D03*
%TO.P,J1,E5*%
%TO.N,BoardB*%
X53500000Y-6730000D03*
%TO.P,J1,E8*%
%TO.N,ParityA*%
X56500000Y-9270000D03*
%TO.P,J1,E4*%
%TO.N,BoardA*%
X52500000Y-9270000D03*
%TO.P,J1,D1*%
%TO.N,Net-(J1-PadD1)*%
X63500000Y-6730000D03*
%TO.P,J1,D2*%
%TO.N,Net-(J1-PadD2)*%
X64500000Y-9270000D03*
%TO.P,J1,D6*%
%TO.N,BoardC*%
X68500000Y-9270000D03*
%TO.P,J1,D3*%
%TO.N,Net-(J1-PadD3)*%
X65500000Y-6730000D03*
%TO.P,J1,D7*%
%TO.N,BoardD*%
X69500000Y-6730000D03*
%TO.P,J1,D5*%
%TO.N,BoardB*%
X67500000Y-6730000D03*
%TO.P,J1,D8*%
%TO.N,ParityB*%
X70500000Y-9270000D03*
%TO.P,J1,D4*%
%TO.N,BoardA*%
X66500000Y-9270000D03*
%TO.P,J1,C1*%
%TO.N,Net-(J1-PadC1)*%
X77500000Y-6730000D03*
%TO.P,J1,C2*%
%TO.N,Net-(J1-PadC2)*%
X78500000Y-9270000D03*
%TO.P,J1,C6*%
%TO.N,BoardC*%
X82500000Y-9270000D03*
%TO.P,J1,C3*%
%TO.N,Net-(J1-PadC3)*%
X79500000Y-6730000D03*
%TO.P,J1,C7*%
%TO.N,BoardD*%
X83500000Y-6730000D03*
%TO.P,J1,C5*%
%TO.N,BoardB*%
X81500000Y-6730000D03*
%TO.P,J1,C8*%
%TO.N,ParityA*%
X84500000Y-9270000D03*
%TO.P,J1,C4*%
%TO.N,BoardA*%
X80500000Y-9270000D03*
%TO.P,J1,B1*%
%TO.N,Net-(J1-PadB1)*%
X91500000Y-6730000D03*
%TO.P,J1,B2*%
%TO.N,Net-(J1-PadB2)*%
X92500000Y-9270000D03*
%TO.P,J1,B6*%
%TO.N,BoardC*%
X96500000Y-9270000D03*
%TO.P,J1,B3*%
%TO.N,Net-(J1-PadB3)*%
X93500000Y-6730000D03*
%TO.P,J1,B7*%
%TO.N,BoardD*%
X97500000Y-6730000D03*
%TO.P,J1,B5*%
%TO.N,BoardB*%
X95500000Y-6730000D03*
%TO.P,J1,B8*%
%TO.N,ParityB*%
X98500000Y-9270000D03*
%TO.P,J1,B4*%
%TO.N,BoardA*%
X94500000Y-9270000D03*
%TO.P,J1,H1*%
%TO.N,Net-(J1-PadH1)*%
X7500000Y-6730000D03*
%TO.P,J1,H2*%
%TO.N,Net-(J1-PadH2)*%
X8500000Y-9270000D03*
%TO.P,J1,H6*%
%TO.N,BoardC*%
X12500000Y-9270000D03*
%TO.P,J1,H3*%
%TO.N,Net-(J1-PadH3)*%
X9500000Y-6730000D03*
%TO.P,J1,H7*%
%TO.N,BoardD*%
X13500000Y-6730000D03*
%TO.P,J1,H5*%
%TO.N,BoardB*%
X11500000Y-6730000D03*
%TO.P,J1,H8*%
%TO.N,ParityB*%
X14500000Y-9270000D03*
%TO.P,J1,H4*%
%TO.N,BoardA*%
X10500000Y-9270000D03*
%TO.P,J1,A4*%
X108500000Y-9270000D03*
%TO.P,J1,A8*%
%TO.N,ParityA*%
X112500000Y-9270000D03*
%TO.P,J1,A5*%
%TO.N,BoardB*%
X109500000Y-6730000D03*
%TO.P,J1,A7*%
%TO.N,BoardD*%
X111500000Y-6730000D03*
%TO.P,J1,A3*%
%TO.N,Net-(J1-PadA3)*%
X107500000Y-6730000D03*
%TO.P,J1,A6*%
%TO.N,BoardC*%
X110500000Y-9270000D03*
%TO.P,J1,A2*%
%TO.N,Net-(J1-PadA2)*%
X106500000Y-9270000D03*
%TO.P,J1,A1*%
%TO.N,Net-(J1-PadA1)*%
X105500000Y-6730000D03*
%TD*%
D11*
%TO.P,R22,1*%
%TO.N,GND*%
X4572000Y-14275000D03*
%TO.P,R22,2*%
%TO.N,Net-(J1-PadH1)*%
X4572000Y-12625000D03*
%TD*%
%TO.P,R24,1*%
%TO.N,GND*%
X6604000Y-14275000D03*
%TO.P,R24,2*%
%TO.N,Net-(J1-PadH3)*%
X6604000Y-12625000D03*
%TD*%
D12*
%TO.P,J3,1,Pin_1_1*%
%TO.N,GND*%
X104404600Y-25056800D03*
%TO.P,J3,2,Pin_2_2*%
X104404600Y-27056800D03*
D13*
%TO.P,J3,MP*%
%TO.N,N/C*%
X106654600Y-22656800D03*
X106654600Y-29456800D03*
%TD*%
D11*
%TO.P,R17,1*%
%TO.N,GND*%
X36500000Y-14275000D03*
%TO.P,R17,2*%
%TO.N,Net-(J1-PadF2)*%
X36500000Y-12625000D03*
%TD*%
%TO.P,R15,1*%
%TO.N,GND*%
X48750000Y-14275000D03*
%TO.P,R15,2*%
%TO.N,Net-(J1-PadE3)*%
X48750000Y-12625000D03*
%TD*%
%TO.P,R18,1*%
%TO.N,GND*%
X34750000Y-14275000D03*
%TO.P,R18,2*%
%TO.N,Net-(J1-PadF3)*%
X34750000Y-12625000D03*
%TD*%
%TO.P,R19,1*%
%TO.N,GND*%
X19000000Y-14275000D03*
%TO.P,R19,2*%
%TO.N,Net-(J1-PadG1)*%
X19000000Y-12625000D03*
%TD*%
D14*
%TO.P,J2,1,Pin_1_1*%
%TO.N,GND*%
X14944600Y-26577800D03*
%TO.P,J2,2,Pin_2_2*%
X14944600Y-24577800D03*
D15*
%TO.P,J2,MP*%
%TO.N,N/C*%
X12694600Y-28977800D03*
X12694600Y-22177800D03*
%TD*%
D11*
%TO.P,R14,1*%
%TO.N,GND*%
X50500000Y-14275000D03*
%TO.P,R14,2*%
%TO.N,Net-(J1-PadE2)*%
X50500000Y-12625000D03*
%TD*%
%TO.P,R2,1*%
%TO.N,GND*%
X106500000Y-14275000D03*
%TO.P,R2,2*%
%TO.N,Net-(J1-PadA2)*%
X106500000Y-12625000D03*
%TD*%
%TO.P,R20,1*%
%TO.N,GND*%
X22500000Y-14275000D03*
%TO.P,R20,2*%
%TO.N,Net-(J1-PadG2)*%
X22500000Y-12625000D03*
%TD*%
%TO.P,R10,1*%
%TO.N,GND*%
X61000000Y-14275000D03*
%TO.P,R10,2*%
%TO.N,Net-(J1-PadD1)*%
X61000000Y-12625000D03*
%TD*%
%TO.P,R11,1*%
%TO.N,GND*%
X64500000Y-14275000D03*
%TO.P,R11,2*%
%TO.N,Net-(J1-PadD2)*%
X64500000Y-12625000D03*
%TD*%
%TO.P,R23,1*%
%TO.N,GND*%
X8500000Y-14275000D03*
%TO.P,R23,2*%
%TO.N,Net-(J1-PadH2)*%
X8500000Y-12625000D03*
%TD*%
%TO.P,R1,1*%
%TO.N,GND*%
X103124000Y-14275000D03*
%TO.P,R1,2*%
%TO.N,Net-(J1-PadA1)*%
X103124000Y-12625000D03*
%TD*%
%TO.P,R5,1*%
%TO.N,GND*%
X92500000Y-14275000D03*
%TO.P,R5,2*%
%TO.N,Net-(J1-PadB2)*%
X92500000Y-12625000D03*
%TD*%
%TO.P,R3,1*%
%TO.N,GND*%
X104800000Y-14275000D03*
%TO.P,R3,2*%
%TO.N,Net-(J1-PadA3)*%
X104800000Y-12625000D03*
%TD*%
%TO.P,R4,1*%
%TO.N,GND*%
X89000000Y-14275000D03*
%TO.P,R4,2*%
%TO.N,Net-(J1-PadB1)*%
X89000000Y-12625000D03*
%TD*%
%TO.P,R8,1*%
%TO.N,GND*%
X78500000Y-14275000D03*
%TO.P,R8,2*%
%TO.N,Net-(J1-PadC2)*%
X78500000Y-12625000D03*
%TD*%
%TO.P,R13,1*%
%TO.N,GND*%
X47000000Y-14275000D03*
%TO.P,R13,2*%
%TO.N,Net-(J1-PadE1)*%
X47000000Y-12625000D03*
%TD*%
%TO.P,R9,1*%
%TO.N,GND*%
X76750000Y-14275000D03*
%TO.P,R9,2*%
%TO.N,Net-(J1-PadC3)*%
X76750000Y-12625000D03*
%TD*%
%TO.P,R16,1*%
%TO.N,GND*%
X33076000Y-14275000D03*
%TO.P,R16,2*%
%TO.N,Net-(J1-PadF1)*%
X33076000Y-12625000D03*
%TD*%
%TO.P,R12,1*%
%TO.N,GND*%
X62750000Y-14275000D03*
%TO.P,R12,2*%
%TO.N,Net-(J1-PadD3)*%
X62750000Y-12625000D03*
%TD*%
D16*
%TO.P,SW1,1*%
%TO.N,GND*%
X51110000Y-30900000D03*
%TO.P,SW1,2*%
X53650000Y-30900000D03*
%TO.P,SW1,3*%
X56190000Y-30900000D03*
%TO.P,SW1,4*%
X58730000Y-30900000D03*
%TO.P,SW1,5*%
X61270000Y-30900000D03*
%TO.P,SW1,6*%
X63810000Y-30900000D03*
%TO.P,SW1,7*%
X66350000Y-30900000D03*
%TO.P,SW1,8*%
X68890000Y-30900000D03*
%TO.P,SW1,9*%
%TO.N,BoardA*%
X68890000Y-22100000D03*
%TO.P,SW1,10*%
%TO.N,BoardB*%
X66350000Y-22100000D03*
%TO.P,SW1,11*%
%TO.N,BoardC*%
X63810000Y-22100000D03*
%TO.P,SW1,12*%
%TO.N,BoardD*%
X61270000Y-22100000D03*
%TO.P,SW1,13*%
%TO.N,unconnected-(SW1-Pad13)*%
X58730000Y-22100000D03*
%TO.P,SW1,14*%
%TO.N,unconnected-(SW1-Pad14)*%
X56190000Y-22100000D03*
%TO.P,SW1,15*%
%TO.N,ParityB*%
X53650000Y-22100000D03*
%TO.P,SW1,16*%
%TO.N,ParityA*%
X51110000Y-22100000D03*
%TD*%
D11*
%TO.P,R6,1*%
%TO.N,GND*%
X90750000Y-14275000D03*
%TO.P,R6,2*%
%TO.N,Net-(J1-PadB3)*%
X90750000Y-12625000D03*
%TD*%
%TO.P,R7,1*%
%TO.N,GND*%
X75000000Y-14275000D03*
%TO.P,R7,2*%
%TO.N,Net-(J1-PadC1)*%
X75000000Y-12625000D03*
%TD*%
%TO.P,R21,1*%
%TO.N,GND*%
X20828000Y-14275000D03*
%TO.P,R21,2*%
%TO.N,Net-(J1-PadG3)*%
X20828000Y-12625000D03*
%TD*%
D17*
%TO.N,GND*%
X90750000Y-15250000D03*
X6625000Y-15250000D03*
X76750000Y-15250000D03*
X20828000Y-15250000D03*
X104800400Y-15250000D03*
X62750000Y-15250000D03*
X48750000Y-15250000D03*
X34750000Y-15250000D03*
%TO.N,BoardA*%
X94513400Y-19329400D03*
X108500000Y-19346000D03*
X52500000Y-19327600D03*
X24511000Y-19329400D03*
X38506400Y-19329400D03*
X66500000Y-19326600D03*
X80492600Y-19329400D03*
%TO.N,BoardB*%
X25501600Y-1549400D03*
X95500000Y-1528000D03*
X67500000Y-1536200D03*
X39500000Y-1527000D03*
X109500000Y-1550000D03*
X66344800Y-20523200D03*
X60500000Y-1500000D03*
X53500000Y-1531600D03*
X81500000Y-1532600D03*
%TO.N,BoardC*%
X40513000Y-18186400D03*
X96520000Y-18186400D03*
X26517600Y-18186400D03*
X54533800Y-18161000D03*
X82524600Y-18186400D03*
X68503800Y-18161000D03*
X109601000Y-18161000D03*
X63804800Y-18186400D03*
X63810000Y-20523200D03*
%TO.N,BoardD*%
X61264800Y-20523200D03*
%TO.N,ParityA*%
X51104800Y-20523200D03*
X51104800Y-15875000D03*
X56515000Y-15875000D03*
X84531200Y-15875000D03*
%TO.N,ParityB*%
X42545000Y-17018000D03*
X98501200Y-17018000D03*
X53644800Y-17043400D03*
X70510400Y-17018000D03*
X53644800Y-20523200D03*
%TD*%
%TO.N,GND*%
D18*
X20828000Y-14275000D02*
X20828000Y-15172000D01*
X48750000Y-14275000D02*
X48750000Y-15000000D01*
X6750000Y-15000000D02*
X6625000Y-14875000D01*
X103124000Y-14275000D02*
X106500000Y-14275000D01*
X104800000Y-15188800D02*
X104800400Y-15189200D01*
X89000000Y-14275000D02*
X92500000Y-14275000D01*
X47000000Y-14275000D02*
X50500000Y-14275000D01*
X6604000Y-14275000D02*
X6604000Y-14854000D01*
X34750000Y-14275000D02*
X34750000Y-15000000D01*
X8500000Y-14275000D02*
X4572000Y-14275000D01*
X90750000Y-14275000D02*
X90750000Y-15000000D01*
X61000000Y-14275000D02*
X64500000Y-14275000D01*
X19000000Y-14275000D02*
X22500000Y-14275000D01*
D19*
X51110000Y-30900000D02*
X68890000Y-30900000D01*
D18*
X75000000Y-14275000D02*
X78500000Y-14275000D01*
X62750000Y-14275000D02*
X62750000Y-15000000D01*
X106527800Y-14275000D02*
X106553000Y-14300200D01*
X6604000Y-14854000D02*
X6750000Y-15000000D01*
X106500000Y-14275000D02*
X106527800Y-14275000D01*
X20750000Y-15250000D02*
X20828000Y-15172000D01*
X33076000Y-14275000D02*
X36500000Y-14275000D01*
X104800000Y-14275000D02*
X104800000Y-15188800D01*
X76750000Y-14275000D02*
X76750000Y-15000000D01*
%TO.N,Net-(J1-PadH1)*%
X4572000Y-9658000D02*
X4572000Y-12625000D01*
X7500000Y-6730000D02*
X4572000Y-9658000D01*
%TO.N,Net-(J1-PadH3)*%
X6604000Y-9610365D02*
X9484365Y-6730000D01*
X6604000Y-12625000D02*
X6604000Y-9610365D01*
X9484365Y-6730000D02*
X9500000Y-6730000D01*
%TO.N,Net-(J1-PadF2)*%
X36500000Y-9270000D02*
X36500000Y-12625000D01*
%TO.N,Net-(J1-PadA1)*%
X105500000Y-6730000D02*
X103124000Y-9106000D01*
X103124000Y-9106000D02*
X103124000Y-12625000D01*
%TO.N,Net-(J1-PadA2)*%
X106500000Y-9270000D02*
X106500000Y-12625000D01*
%TO.N,Net-(J1-PadA3)*%
X107500000Y-6730000D02*
X107484365Y-6730000D01*
X104800000Y-9414365D02*
X104800000Y-12625000D01*
X107484365Y-6730000D02*
X104800000Y-9414365D01*
%TO.N,BoardA*%
X68910200Y-19329400D02*
X108483400Y-19329400D01*
X68890000Y-22100000D02*
X68890000Y-19349600D01*
X10500000Y-9270000D02*
X10500000Y-14691000D01*
X10500000Y-14691000D02*
X15138400Y-19329400D01*
X15138400Y-19329400D02*
X68910200Y-19329400D01*
X108483400Y-19329400D02*
X108500000Y-19346000D01*
X68890000Y-19349600D02*
X68910200Y-19329400D01*
%TO.N,BoardB*%
X11500000Y-6730000D02*
X16706000Y-1524000D01*
X25501600Y-1524000D02*
X25501600Y-1549400D01*
X66350000Y-20328400D02*
X66344800Y-20323200D01*
X25501600Y-1524000D02*
X109728000Y-1524000D01*
X16706000Y-1524000D02*
X25501600Y-1524000D01*
X66350000Y-22100000D02*
X66350000Y-20604600D01*
%TO.N,BoardC*%
X16095133Y-18177933D02*
X12500000Y-14582800D01*
X109702600Y-18177933D02*
X16095133Y-18177933D01*
X63830200Y-20323200D02*
X63810000Y-20343400D01*
X63810000Y-22100000D02*
X63810000Y-20543400D01*
X12500000Y-14582800D02*
X12500000Y-9270000D01*
%TO.N,BoardD*%
X61270000Y-22100000D02*
X61270000Y-20528400D01*
X97500000Y-6730000D02*
X97500000Y-3062800D01*
X41500000Y-3077000D02*
X41529000Y-3048000D01*
X27482800Y-3048000D02*
X17182000Y-3048000D01*
X55500000Y-3148600D02*
X55600600Y-3048000D01*
X110312200Y-3048000D02*
X97485200Y-3048000D01*
X83439000Y-3048000D02*
X69494400Y-3048000D01*
X61270000Y-20328400D02*
X61264800Y-20323200D01*
X41500000Y-6730000D02*
X41500000Y-3077000D01*
X27500000Y-6730000D02*
X27500000Y-3065200D01*
X110312200Y-3048000D02*
X111500000Y-4235800D01*
X27500000Y-3065200D02*
X27482800Y-3048000D01*
X97500000Y-3062800D02*
X97485200Y-3048000D01*
X55500000Y-6730000D02*
X55500000Y-3148600D01*
X97485200Y-3048000D02*
X83439000Y-3048000D01*
X69494400Y-3048000D02*
X55600600Y-3048000D01*
X55600600Y-3048000D02*
X41529000Y-3048000D01*
X83500000Y-6730000D02*
X83500000Y-3109000D01*
X111500000Y-6730000D02*
X111500000Y-4235800D01*
X69500000Y-3053600D02*
X69494400Y-3048000D01*
X83500000Y-3109000D02*
X83439000Y-3048000D01*
X17182000Y-3048000D02*
X13500000Y-6730000D01*
X41529000Y-3048000D02*
X27482800Y-3048000D01*
X69500000Y-6730000D02*
X69500000Y-3053600D01*
%TO.N,ParityA*%
X112500000Y-9270000D02*
X112500000Y-11528200D01*
X51110000Y-22100000D02*
X51110000Y-20477600D01*
X28500000Y-13514000D02*
X28500000Y-9270000D01*
X112500000Y-11528200D02*
X108153200Y-15875000D01*
X108153200Y-15875000D02*
X30861000Y-15875000D01*
X30861000Y-15875000D02*
X28500000Y-13514000D01*
X51110000Y-20328400D02*
X51104800Y-20323200D01*
%TO.N,Net-(J1-PadB1)*%
X91500000Y-6730000D02*
X89000000Y-9230000D01*
X89000000Y-9230000D02*
X89000000Y-12625000D01*
%TO.N,Net-(J1-PadB2)*%
X92500000Y-9270000D02*
X92500000Y-12625000D01*
%TO.N,Net-(J1-PadB3)*%
X90750000Y-9464365D02*
X90750000Y-12625000D01*
X93500000Y-6730000D02*
X93484365Y-6730000D01*
X93484365Y-6730000D02*
X90750000Y-9464365D01*
%TO.N,ParityB*%
X98501200Y-17018000D02*
X98492733Y-17026467D01*
X14500000Y-14347600D02*
X14500000Y-9270000D01*
X98492733Y-17026467D02*
X17178867Y-17026467D01*
X53650000Y-22100000D02*
X53650000Y-20528400D01*
X53650000Y-20328400D02*
X53644800Y-20323200D01*
X17178867Y-17026467D02*
X14500000Y-14347600D01*
%TO.N,Net-(J1-PadC1)*%
X75000000Y-9230000D02*
X75000000Y-12625000D01*
X77500000Y-6730000D02*
X75000000Y-9230000D01*
%TO.N,Net-(J1-PadC2)*%
X78500000Y-9270000D02*
X78500000Y-12625000D01*
%TO.N,Net-(J1-PadC3)*%
X76750000Y-9250000D02*
X76750000Y-12625000D01*
X79500000Y-6730000D02*
X79270000Y-6730000D01*
X79270000Y-6730000D02*
X76750000Y-9250000D01*
%TO.N,Net-(J1-PadD1)*%
X61000000Y-9230000D02*
X61000000Y-12625000D01*
X63500000Y-6730000D02*
X61000000Y-9230000D01*
%TO.N,Net-(J1-PadD2)*%
X64500000Y-9270000D02*
X64500000Y-12625000D01*
%TO.N,Net-(J1-PadD3)*%
X65484365Y-6730000D02*
X62750000Y-9464365D01*
X65500000Y-6730000D02*
X65484365Y-6730000D01*
X62750000Y-9464365D02*
X62750000Y-12625000D01*
%TO.N,Net-(J1-PadE1)*%
X47000000Y-9230000D02*
X47000000Y-12625000D01*
X49500000Y-6730000D02*
X47000000Y-9230000D01*
%TO.N,Net-(J1-PadE2)*%
X50500000Y-9270000D02*
X50500000Y-12625000D01*
%TO.N,Net-(J1-PadE3)*%
X51500000Y-6730000D02*
X51270000Y-6730000D01*
X52000000Y-7000000D02*
X51900000Y-7000000D01*
X48750000Y-9250000D02*
X48750000Y-12625000D01*
X51270000Y-6730000D02*
X48750000Y-9250000D01*
%TO.N,Net-(J1-PadF1)*%
X33076000Y-9154000D02*
X33076000Y-12625000D01*
X35500000Y-6730000D02*
X33076000Y-9154000D01*
%TO.N,Net-(J1-PadF3)*%
X37500000Y-6730000D02*
X37484365Y-6730000D01*
X34750000Y-9464365D02*
X34750000Y-12625000D01*
X37484365Y-6730000D02*
X34750000Y-9464365D01*
%TO.N,Net-(J1-PadG1)*%
X21500000Y-6730000D02*
X19000000Y-9230000D01*
X19000000Y-9230000D02*
X19000000Y-12625000D01*
%TO.N,Net-(J1-PadG2)*%
X22500000Y-9270000D02*
X22500000Y-12625000D01*
%TO.N,Net-(J1-PadG3)*%
X23500000Y-6730000D02*
X23484365Y-6730000D01*
X20828000Y-9386365D02*
X20828000Y-12625000D01*
X23484365Y-6730000D02*
X20828000Y-9386365D01*
%TO.N,Net-(J1-PadH2)*%
X8500000Y-9270000D02*
X8500000Y-12625000D01*
%TD*%
%TA.AperFunction,Conductor*%
%TO.N,GND*%
G36*
X39365382Y-520185D02*
G01*
X39411137Y-572989D01*
X39421081Y-642147D01*
X39392056Y-705703D01*
X39333278Y-743477D01*
X39322535Y-746117D01*
X39266508Y-757261D01*
X39266498Y-757264D01*
X39120827Y-817602D01*
X39120814Y-817609D01*
X38993615Y-902602D01*
X38926937Y-923480D01*
X38924724Y-923500D01*
X26043351Y-923500D01*
X25976312Y-903815D01*
X25974460Y-902602D01*
X25880784Y-840009D01*
X25880772Y-840002D01*
X25735101Y-779664D01*
X25735089Y-779661D01*
X25580445Y-748900D01*
X25580442Y-748900D01*
X25422758Y-748900D01*
X25422755Y-748900D01*
X25268110Y-779661D01*
X25268098Y-779664D01*
X25122427Y-840002D01*
X25122415Y-840009D01*
X25028740Y-902602D01*
X24962063Y-923480D01*
X24959849Y-923500D01*
X16792670Y-923500D01*
X16792654Y-923499D01*
X16785058Y-923499D01*
X16626943Y-923499D01*
X16474215Y-964423D01*
X16343806Y-1039715D01*
X16337281Y-1043482D01*
X11944842Y-5435921D01*
X11883519Y-5469406D01*
X11818848Y-5466173D01*
X11804534Y-5461522D01*
X11629995Y-5433878D01*
X11602352Y-5429500D01*
X11397648Y-5429500D01*
X11373329Y-5433351D01*
X11195465Y-5461522D01*
X11000776Y-5524781D01*
X10818386Y-5617715D01*
X10652786Y-5738028D01*
X10652782Y-5738032D01*
X10587681Y-5803134D01*
X10526358Y-5836619D01*
X10456666Y-5831635D01*
X10412319Y-5803134D01*
X10347213Y-5738028D01*
X10181613Y-5617715D01*
X10181612Y-5617714D01*
X10181610Y-5617713D01*
X10124653Y-5588691D01*
X9999223Y-5524781D01*
X9804534Y-5461522D01*
X9629995Y-5433878D01*
X9602352Y-5429500D01*
X9397648Y-5429500D01*
X9373329Y-5433351D01*
X9195465Y-5461522D01*
X9000776Y-5524781D01*
X8818386Y-5617715D01*
X8652786Y-5738028D01*
X8652782Y-5738032D01*
X8587681Y-5803134D01*
X8526358Y-5836619D01*
X8456666Y-5831635D01*
X8412319Y-5803134D01*
X8347213Y-5738028D01*
X8181613Y-5617715D01*
X8181612Y-5617714D01*
X8181610Y-5617713D01*
X8124653Y-5588691D01*
X7999223Y-5524781D01*
X7804534Y-5461522D01*
X7629995Y-5433878D01*
X7602352Y-5429500D01*
X7397648Y-5429500D01*
X7373329Y-5433351D01*
X7195465Y-5461522D01*
X7000776Y-5524781D01*
X6818386Y-5617715D01*
X6652786Y-5738028D01*
X6508028Y-5882786D01*
X6387715Y-6048386D01*
X6294781Y-6230776D01*
X6231522Y-6425465D01*
X6199500Y-6627648D01*
X6199500Y-6832351D01*
X6231522Y-7034534D01*
X6236173Y-7048848D01*
X6238165Y-7118690D01*
X6205921Y-7174842D01*
X4203286Y-9177478D01*
X4091482Y-9289281D01*
X4091480Y-9289283D01*
X4091480Y-9289284D01*
X4045721Y-9368541D01*
X4045720Y-9368541D01*
X4012424Y-9426212D01*
X4012423Y-9426213D01*
X3999241Y-9475411D01*
X3971499Y-9578943D01*
X3971499Y-9578945D01*
X3971499Y-9747046D01*
X3971500Y-9747059D01*
X3971500Y-11733284D01*
X3951815Y-11800323D01*
X3911652Y-11839400D01*
X3861811Y-11869530D01*
X3741530Y-11989811D01*
X3653522Y-12135393D01*
X3602913Y-12297807D01*
X3596500Y-12368386D01*
X3596500Y-12881613D01*
X3602913Y-12952192D01*
X3602913Y-12952194D01*
X3602914Y-12952196D01*
X3653522Y-13114606D01*
X3730116Y-13241308D01*
X3741530Y-13260188D01*
X3844015Y-13362673D01*
X3877500Y-13423996D01*
X3872516Y-13493688D01*
X3844015Y-13538035D01*
X3741928Y-13640121D01*
X3741927Y-13640122D01*
X3653980Y-13785604D01*
X3603409Y-13947893D01*
X3597000Y-14018427D01*
X3597000Y-14025000D01*
X9474999Y-14025000D01*
X9474999Y-14018417D01*
X9468591Y-13947897D01*
X9468590Y-13947892D01*
X9418018Y-13785603D01*
X9330072Y-13640122D01*
X9227984Y-13538034D01*
X9194499Y-13476711D01*
X9199483Y-13407019D01*
X9227983Y-13362673D01*
X9330472Y-13260185D01*
X9418478Y-13114606D01*
X9469086Y-12952196D01*
X9475500Y-12881616D01*
X9475500Y-12368384D01*
X9469086Y-12297804D01*
X9418478Y-12135394D01*
X9330472Y-11989815D01*
X9330470Y-11989813D01*
X9330469Y-11989811D01*
X9210188Y-11869530D01*
X9160348Y-11839400D01*
X9113162Y-11787871D01*
X9100500Y-11733284D01*
X9100500Y-10499601D01*
X9120185Y-10432562D01*
X9168206Y-10389116D01*
X9181610Y-10382287D01*
X9347219Y-10261966D01*
X9412319Y-10196866D01*
X9473642Y-10163381D01*
X9543334Y-10168365D01*
X9587681Y-10196866D01*
X9652781Y-10261966D01*
X9818390Y-10382287D01*
X9831793Y-10389116D01*
X9882589Y-10437088D01*
X9899500Y-10499601D01*
X9899500Y-14604330D01*
X9899499Y-14604348D01*
X9899499Y-14770054D01*
X9899498Y-14770054D01*
X9937969Y-14913630D01*
X9940423Y-14922785D01*
X9955038Y-14948099D01*
X9955039Y-14948101D01*
X9955040Y-14948101D01*
X9988761Y-15006509D01*
X10019479Y-15059714D01*
X10019481Y-15059717D01*
X10138349Y-15178585D01*
X10138355Y-15178590D01*
X14653539Y-19693774D01*
X14653549Y-19693785D01*
X14657879Y-19698115D01*
X14657880Y-19698116D01*
X14769684Y-19809920D01*
X14849998Y-19856289D01*
X14906615Y-19888977D01*
X15059343Y-19929900D01*
X23931234Y-19929900D01*
X23998273Y-19949585D01*
X24000125Y-19950798D01*
X24131814Y-20038790D01*
X24131827Y-20038797D01*
X24277498Y-20099135D01*
X24277503Y-20099137D01*
X24388863Y-20121288D01*
X24432153Y-20129899D01*
X24432156Y-20129900D01*
X24432158Y-20129900D01*
X24589844Y-20129900D01*
X24589845Y-20129899D01*
X24744497Y-20099137D01*
X24890179Y-20038794D01*
X24944663Y-20002389D01*
X25021875Y-19950798D01*
X25088553Y-19929920D01*
X25090766Y-19929900D01*
X37926634Y-19929900D01*
X37993673Y-19949585D01*
X37995525Y-19950798D01*
X38127214Y-20038790D01*
X38127227Y-20038797D01*
X38272898Y-20099135D01*
X38272903Y-20099137D01*
X38384263Y-20121288D01*
X38427553Y-20129899D01*
X38427556Y-20129900D01*
X38427558Y-20129900D01*
X38585244Y-20129900D01*
X38585245Y-20129899D01*
X38739897Y-20099137D01*
X38885579Y-20038794D01*
X38940063Y-20002389D01*
X39017275Y-19950798D01*
X39083953Y-19929920D01*
X39086166Y-19929900D01*
X50306489Y-19929900D01*
X50373528Y-19949585D01*
X50419283Y-20002389D01*
X50429227Y-20071547D01*
X50409591Y-20122791D01*
X50395409Y-20144015D01*
X50395402Y-20144027D01*
X50335064Y-20289698D01*
X50335061Y-20289710D01*
X50304300Y-20444353D01*
X50304300Y-20504142D01*
X50284615Y-20571181D01*
X50254612Y-20603408D01*
X50202452Y-20642455D01*
X50116206Y-20757664D01*
X50116202Y-20757671D01*
X50065908Y-20892517D01*
X50059501Y-20952116D01*
X50059501Y-20952123D01*
X50059500Y-20952135D01*
X50059500Y-23247870D01*
X50059501Y-23247876D01*
X50065908Y-23307483D01*
X50116202Y-23442328D01*
X50116206Y-23442335D01*
X50202452Y-23557544D01*
X50202455Y-23557547D01*
X50317664Y-23643793D01*
X50317671Y-23643797D01*
X50452517Y-23694091D01*
X50452516Y-23694091D01*
X50459444Y-23694835D01*
X50512127Y-23700500D01*
X51707872Y-23700499D01*
X51767483Y-23694091D01*
X51902331Y-23643796D01*
X52017546Y-23557546D01*
X52103796Y-23442331D01*
X52154091Y-23307483D01*
X52160500Y-23247873D01*
X52160499Y-20952128D01*
X52154091Y-20892517D01*
X52148415Y-20877300D01*
X52103797Y-20757671D01*
X52103793Y-20757664D01*
X52017548Y-20642457D01*
X52017546Y-20642454D01*
X51954988Y-20595622D01*
X51913118Y-20539690D01*
X51905300Y-20496357D01*
X51905300Y-20444355D01*
X51905299Y-20444353D01*
X51874537Y-20289703D01*
X51863390Y-20262791D01*
X51814197Y-20144027D01*
X51814195Y-20144023D01*
X51814194Y-20144021D01*
X51803556Y-20128100D01*
X51800009Y-20122791D01*
X51796971Y-20113090D01*
X51790317Y-20105411D01*
X51786708Y-20080313D01*
X51779131Y-20056114D01*
X51781819Y-20046313D01*
X51780373Y-20036253D01*
X51790907Y-20013186D01*
X51797615Y-19988734D01*
X51805175Y-19981942D01*
X51809398Y-19972697D01*
X51830730Y-19958987D01*
X51849594Y-19942043D01*
X51861191Y-19939411D01*
X51868176Y-19934923D01*
X51903111Y-19929900D01*
X51922928Y-19929900D01*
X51989967Y-19949585D01*
X51991819Y-19950798D01*
X52120814Y-20036990D01*
X52120827Y-20036997D01*
X52264936Y-20096688D01*
X52266503Y-20097337D01*
X52386912Y-20121288D01*
X52421153Y-20128099D01*
X52421156Y-20128100D01*
X52421158Y-20128100D01*
X52578844Y-20128100D01*
X52578845Y-20128099D01*
X52733497Y-20097337D01*
X52733510Y-20097331D01*
X52735632Y-20096688D01*
X52736816Y-20096677D01*
X52739472Y-20096149D01*
X52739572Y-20096652D01*
X52805499Y-20096053D01*
X52864617Y-20133292D01*
X52894218Y-20196582D01*
X52886209Y-20262791D01*
X52875064Y-20289699D01*
X52875061Y-20289710D01*
X52844300Y-20444353D01*
X52844300Y-20504142D01*
X52824615Y-20571181D01*
X52794612Y-20603408D01*
X52742452Y-20642455D01*
X52656206Y-20757664D01*
X52656202Y-20757671D01*
X52605908Y-20892517D01*
X52599501Y-20952116D01*
X52599501Y-20952123D01*
X52599500Y-20952135D01*
X52599500Y-23247870D01*
X52599501Y-23247876D01*
X52605908Y-23307483D01*
X52656202Y-23442328D01*
X52656206Y-23442335D01*
X52742452Y-23557544D01*
X52742455Y-23557547D01*
X52857664Y-23643793D01*
X52857671Y-23643797D01*
X52992517Y-23694091D01*
X52992516Y-23694091D01*
X52999444Y-23694835D01*
X53052127Y-23700500D01*
X54247872Y-23700499D01*
X54307483Y-23694091D01*
X54442331Y-23643796D01*
X54557546Y-23557546D01*
X54643796Y-23442331D01*
X54694091Y-23307483D01*
X54700500Y-23247873D01*
X54700499Y-20952135D01*
X55139500Y-20952135D01*
X55139500Y-23247870D01*
X55139501Y-23247876D01*
X55145908Y-23307483D01*
X55196202Y-23442328D01*
X55196206Y-23442335D01*
X55282452Y-23557544D01*
X55282455Y-23557547D01*
X55397664Y-23643793D01*
X55397671Y-23643797D01*
X55532517Y-23694091D01*
X55532516Y-23694091D01*
X55539444Y-23694835D01*
X55592127Y-23700500D01*
X56787872Y-23700499D01*
X56847483Y-23694091D01*
X56982331Y-23643796D01*
X57097546Y-23557546D01*
X57183796Y-23442331D01*
X57234091Y-23307483D01*
X57240500Y-23247873D01*
X57240499Y-20952135D01*
X57679500Y-20952135D01*
X57679500Y-23247870D01*
X57679501Y-23247876D01*
X57685908Y-23307483D01*
X57736202Y-23442328D01*
X57736206Y-23442335D01*
X57822452Y-23557544D01*
X57822455Y-23557547D01*
X57937664Y-23643793D01*
X57937671Y-23643797D01*
X58072517Y-23694091D01*
X58072516Y-23694091D01*
X58079444Y-23694835D01*
X58132127Y-23700500D01*
X59327872Y-23700499D01*
X59387483Y-23694091D01*
X59522331Y-23643796D01*
X59637546Y-23557546D01*
X59723796Y-23442331D01*
X59774091Y-23307483D01*
X59780500Y-23247873D01*
X59780499Y-20952128D01*
X59774091Y-20892517D01*
X59768415Y-20877300D01*
X59723797Y-20757671D01*
X59723793Y-20757664D01*
X59637547Y-20642455D01*
X59637544Y-20642452D01*
X59522335Y-20556206D01*
X59522328Y-20556202D01*
X59387482Y-20505908D01*
X59387483Y-20505908D01*
X59327883Y-20499501D01*
X59327881Y-20499500D01*
X59327873Y-20499500D01*
X59327864Y-20499500D01*
X58132129Y-20499500D01*
X58132123Y-20499501D01*
X58072516Y-20505908D01*
X57937671Y-20556202D01*
X57937664Y-20556206D01*
X57822455Y-20642452D01*
X57822452Y-20642455D01*
X57736206Y-20757664D01*
X57736202Y-20757671D01*
X57685908Y-20892517D01*
X57679501Y-20952116D01*
X57679501Y-20952123D01*
X57679500Y-20952135D01*
X57240499Y-20952135D01*
X57240499Y-20952128D01*
X57234091Y-20892517D01*
X57228415Y-20877300D01*
X57183797Y-20757671D01*
X57183793Y-20757664D01*
X57097547Y-20642455D01*
X57097544Y-20642452D01*
X56982335Y-20556206D01*
X56982328Y-20556202D01*
X56847482Y-20505908D01*
X56847483Y-20505908D01*
X56787883Y-20499501D01*
X56787881Y-20499500D01*
X56787873Y-20499500D01*
X56787864Y-20499500D01*
X55592129Y-20499500D01*
X55592123Y-20499501D01*
X55532516Y-20505908D01*
X55397671Y-20556202D01*
X55397664Y-20556206D01*
X55282455Y-20642452D01*
X55282452Y-20642455D01*
X55196206Y-20757664D01*
X55196202Y-20757671D01*
X55145908Y-20892517D01*
X55139501Y-20952116D01*
X55139501Y-20952123D01*
X55139500Y-20952135D01*
X54700499Y-20952135D01*
X54700499Y-20952128D01*
X54694091Y-20892517D01*
X54688415Y-20877300D01*
X54643797Y-20757671D01*
X54643793Y-20757664D01*
X54557548Y-20642457D01*
X54557546Y-20642454D01*
X54494988Y-20595622D01*
X54453118Y-20539690D01*
X54445300Y-20496357D01*
X54445300Y-20444355D01*
X54445299Y-20444353D01*
X54414537Y-20289703D01*
X54403390Y-20262791D01*
X54354197Y-20144027D01*
X54354195Y-20144023D01*
X54354194Y-20144021D01*
X54343556Y-20128100D01*
X54340009Y-20122791D01*
X54319131Y-20056114D01*
X54337615Y-19988734D01*
X54389594Y-19942043D01*
X54443111Y-19929900D01*
X60466489Y-19929900D01*
X60533528Y-19949585D01*
X60579283Y-20002389D01*
X60589227Y-20071547D01*
X60569591Y-20122791D01*
X60555409Y-20144015D01*
X60555402Y-20144027D01*
X60495064Y-20289698D01*
X60495061Y-20289710D01*
X60464300Y-20444353D01*
X60464300Y-20504142D01*
X60444615Y-20571181D01*
X60414612Y-20603408D01*
X60362452Y-20642455D01*
X60276206Y-20757664D01*
X60276202Y-20757671D01*
X60225908Y-20892517D01*
X60219501Y-20952116D01*
X60219501Y-20952123D01*
X60219500Y-20952135D01*
X60219500Y-23247870D01*
X60219501Y-23247876D01*
X60225908Y-23307483D01*
X60276202Y-23442328D01*
X60276206Y-23442335D01*
X60362452Y-23557544D01*
X60362455Y-23557547D01*
X60477664Y-23643793D01*
X60477671Y-23643797D01*
X60612517Y-23694091D01*
X60612516Y-23694091D01*
X60619444Y-23694835D01*
X60672127Y-23700500D01*
X61867872Y-23700499D01*
X61927483Y-23694091D01*
X62062331Y-23643796D01*
X62177546Y-23557546D01*
X62263796Y-23442331D01*
X62314091Y-23307483D01*
X62320500Y-23247873D01*
X62320499Y-20952128D01*
X62314091Y-20892517D01*
X62308415Y-20877300D01*
X62263797Y-20757671D01*
X62263793Y-20757664D01*
X62177548Y-20642457D01*
X62177546Y-20642454D01*
X62114988Y-20595622D01*
X62073118Y-20539690D01*
X62065300Y-20496357D01*
X62065300Y-20444355D01*
X62065299Y-20444353D01*
X62034537Y-20289703D01*
X62023390Y-20262791D01*
X61974197Y-20144027D01*
X61974195Y-20144023D01*
X61974194Y-20144021D01*
X61963556Y-20128100D01*
X61960009Y-20122791D01*
X61939131Y-20056114D01*
X61957615Y-19988734D01*
X62009594Y-19942043D01*
X62063111Y-19929900D01*
X63011689Y-19929900D01*
X63078728Y-19949585D01*
X63124483Y-20002389D01*
X63134427Y-20071547D01*
X63114791Y-20122791D01*
X63100609Y-20144015D01*
X63100602Y-20144027D01*
X63040264Y-20289698D01*
X63040261Y-20289710D01*
X63009500Y-20444353D01*
X63009500Y-20500249D01*
X62989815Y-20567288D01*
X62959812Y-20599515D01*
X62902457Y-20642451D01*
X62902451Y-20642457D01*
X62816206Y-20757664D01*
X62816202Y-20757671D01*
X62765908Y-20892517D01*
X62759501Y-20952116D01*
X62759501Y-20952123D01*
X62759500Y-20952135D01*
X62759500Y-23247870D01*
X62759501Y-23247876D01*
X62765908Y-23307483D01*
X62816202Y-23442328D01*
X62816206Y-23442335D01*
X62902452Y-23557544D01*
X62902455Y-23557547D01*
X63017664Y-23643793D01*
X63017671Y-23643797D01*
X63152517Y-23694091D01*
X63152516Y-23694091D01*
X63159444Y-23694835D01*
X63212127Y-23700500D01*
X64407872Y-23700499D01*
X64467483Y-23694091D01*
X64602331Y-23643796D01*
X64717546Y-23557546D01*
X64803796Y-23442331D01*
X64854091Y-23307483D01*
X64860500Y-23247873D01*
X64860499Y-20952128D01*
X64854091Y-20892517D01*
X64848415Y-20877300D01*
X64803797Y-20757671D01*
X64803793Y-20757664D01*
X64717548Y-20642457D01*
X64717546Y-20642454D01*
X64665388Y-20603408D01*
X64660188Y-20599515D01*
X64618318Y-20543581D01*
X64610500Y-20500249D01*
X64610500Y-20444355D01*
X64610499Y-20444353D01*
X64579737Y-20289703D01*
X64568590Y-20262791D01*
X64519397Y-20144027D01*
X64519395Y-20144023D01*
X64519394Y-20144021D01*
X64508756Y-20128100D01*
X64505209Y-20122791D01*
X64484331Y-20056114D01*
X64502815Y-19988734D01*
X64554794Y-19942043D01*
X64608311Y-19929900D01*
X65546489Y-19929900D01*
X65613528Y-19949585D01*
X65659283Y-20002389D01*
X65669227Y-20071547D01*
X65649591Y-20122791D01*
X65635409Y-20144015D01*
X65635402Y-20144027D01*
X65575064Y-20289698D01*
X65575061Y-20289710D01*
X65544300Y-20444353D01*
X65544300Y-20504142D01*
X65524615Y-20571181D01*
X65494612Y-20603408D01*
X65442452Y-20642455D01*
X65356206Y-20757664D01*
X65356202Y-20757671D01*
X65305908Y-20892517D01*
X65299501Y-20952116D01*
X65299501Y-20952123D01*
X65299500Y-20952135D01*
X65299500Y-23247870D01*
X65299501Y-23247876D01*
X65305908Y-23307483D01*
X65356202Y-23442328D01*
X65356206Y-23442335D01*
X65442452Y-23557544D01*
X65442455Y-23557547D01*
X65557664Y-23643793D01*
X65557671Y-23643797D01*
X65692517Y-23694091D01*
X65692516Y-23694091D01*
X65699444Y-23694835D01*
X65752127Y-23700500D01*
X66947872Y-23700499D01*
X67007483Y-23694091D01*
X67142331Y-23643796D01*
X67257546Y-23557546D01*
X67343796Y-23442331D01*
X67394091Y-23307483D01*
X67400500Y-23247873D01*
X67400499Y-20952128D01*
X67394091Y-20892517D01*
X67388415Y-20877300D01*
X67343797Y-20757671D01*
X67343793Y-20757664D01*
X67257548Y-20642457D01*
X67257546Y-20642454D01*
X67194988Y-20595622D01*
X67153118Y-20539690D01*
X67145300Y-20496357D01*
X67145300Y-20444355D01*
X67145299Y-20444353D01*
X67114537Y-20289703D01*
X67103390Y-20262791D01*
X67054197Y-20144027D01*
X67054195Y-20144023D01*
X67054194Y-20144021D01*
X67043556Y-20128100D01*
X67040009Y-20122791D01*
X67019131Y-20056114D01*
X67037615Y-19988734D01*
X67089594Y-19942043D01*
X67143111Y-19929900D01*
X68165500Y-19929900D01*
X68232539Y-19949585D01*
X68278294Y-20002389D01*
X68289500Y-20053900D01*
X68289500Y-20398560D01*
X68269815Y-20465599D01*
X68217011Y-20511354D01*
X68208833Y-20514742D01*
X68097671Y-20556202D01*
X68097664Y-20556206D01*
X67982455Y-20642452D01*
X67982452Y-20642455D01*
X67896206Y-20757664D01*
X67896202Y-20757671D01*
X67845908Y-20892517D01*
X67839501Y-20952116D01*
X67839501Y-20952123D01*
X67839500Y-20952135D01*
X67839500Y-23247870D01*
X67839501Y-23247876D01*
X67845908Y-23307483D01*
X67896202Y-23442328D01*
X67896206Y-23442335D01*
X67982452Y-23557544D01*
X67982455Y-23557547D01*
X68097664Y-23643793D01*
X68097671Y-23643797D01*
X68232517Y-23694091D01*
X68232516Y-23694091D01*
X68239444Y-23694835D01*
X68292127Y-23700500D01*
X69487872Y-23700499D01*
X69547483Y-23694091D01*
X69682331Y-23643796D01*
X69797546Y-23557546D01*
X69883796Y-23442331D01*
X69934091Y-23307483D01*
X69940500Y-23247873D01*
X69940499Y-22056783D01*
X104654100Y-22056783D01*
X104654100Y-23256801D01*
X104654101Y-23256818D01*
X104664600Y-23359596D01*
X104664601Y-23359599D01*
X104719785Y-23526131D01*
X104719787Y-23526136D01*
X104739512Y-23558115D01*
X104811888Y-23675456D01*
X104935944Y-23799512D01*
X104980933Y-23827261D01*
X105027657Y-23879209D01*
X105038880Y-23948172D01*
X105011036Y-24012254D01*
X104952967Y-24051110D01*
X104915836Y-24056800D01*
X104654600Y-24056800D01*
X104654600Y-24806800D01*
X107654599Y-24806800D01*
X107654599Y-24756828D01*
X107654598Y-24756813D01*
X107644105Y-24654102D01*
X107588958Y-24487680D01*
X107588956Y-24487675D01*
X107496915Y-24338454D01*
X107372943Y-24214482D01*
X107328124Y-24186838D01*
X107281399Y-24134890D01*
X107270176Y-24065928D01*
X107298019Y-24001846D01*
X107356088Y-23962989D01*
X107393218Y-23957299D01*
X107954608Y-23957299D01*
X108057397Y-23946799D01*
X108223934Y-23891614D01*
X108373256Y-23799512D01*
X108497312Y-23675456D01*
X108589414Y-23526134D01*
X108644599Y-23359597D01*
X108655100Y-23256809D01*
X108655099Y-22056792D01*
X108644599Y-21954003D01*
X108589414Y-21787466D01*
X108497312Y-21638144D01*
X108373256Y-21514088D01*
X108223934Y-21421986D01*
X108057397Y-21366801D01*
X108057395Y-21366800D01*
X107954610Y-21356300D01*
X105354598Y-21356300D01*
X105354581Y-21356301D01*
X105251803Y-21366800D01*
X105251800Y-21366801D01*
X105085268Y-21421985D01*
X105085263Y-21421987D01*
X104935942Y-21514089D01*
X104811889Y-21638142D01*
X104719787Y-21787463D01*
X104719785Y-21787468D01*
X104691949Y-21871470D01*
X104664601Y-21954003D01*
X104664601Y-21954004D01*
X104664600Y-21954004D01*
X104654100Y-22056783D01*
X69940499Y-22056783D01*
X69940499Y-20952128D01*
X69934091Y-20892517D01*
X69928415Y-20877300D01*
X69883797Y-20757671D01*
X69883793Y-20757664D01*
X69797547Y-20642455D01*
X69797544Y-20642452D01*
X69682335Y-20556206D01*
X69682329Y-20556203D01*
X69571166Y-20514741D01*
X69515233Y-20472869D01*
X69490816Y-20407405D01*
X69490500Y-20398559D01*
X69490500Y-20053900D01*
X69510185Y-19986861D01*
X69562989Y-19941106D01*
X69614500Y-19929900D01*
X79912834Y-19929900D01*
X79979873Y-19949585D01*
X79981725Y-19950798D01*
X80113414Y-20038790D01*
X80113427Y-20038797D01*
X80259098Y-20099135D01*
X80259103Y-20099137D01*
X80370463Y-20121288D01*
X80413753Y-20129899D01*
X80413756Y-20129900D01*
X80413758Y-20129900D01*
X80571444Y-20129900D01*
X80571445Y-20129899D01*
X80726097Y-20099137D01*
X80871779Y-20038794D01*
X80926263Y-20002389D01*
X81003475Y-19950798D01*
X81070153Y-19929920D01*
X81072366Y-19929900D01*
X93933634Y-19929900D01*
X94000673Y-19949585D01*
X94002525Y-19950798D01*
X94134214Y-20038790D01*
X94134227Y-20038797D01*
X94279898Y-20099135D01*
X94279903Y-20099137D01*
X94391263Y-20121288D01*
X94434553Y-20129899D01*
X94434556Y-20129900D01*
X94434558Y-20129900D01*
X94592244Y-20129900D01*
X94592245Y-20129899D01*
X94746897Y-20099137D01*
X94892579Y-20038794D01*
X94947063Y-20002389D01*
X95024275Y-19950798D01*
X95090953Y-19929920D01*
X95093166Y-19929900D01*
X107900459Y-19929900D01*
X107967498Y-19949585D01*
X107988140Y-19966219D01*
X107989707Y-19967786D01*
X107989711Y-19967789D01*
X108120814Y-20055390D01*
X108120827Y-20055397D01*
X108266498Y-20115735D01*
X108266503Y-20115737D01*
X108421153Y-20146499D01*
X108421156Y-20146500D01*
X108421158Y-20146500D01*
X108578844Y-20146500D01*
X108578845Y-20146499D01*
X108733497Y-20115737D01*
X108879179Y-20055394D01*
X109010289Y-19967789D01*
X109099367Y-19878711D01*
X113649500Y-19878711D01*
X113649500Y-20121288D01*
X113671672Y-20289710D01*
X113681162Y-20361789D01*
X113708978Y-20465599D01*
X113743947Y-20596104D01*
X113836773Y-20820205D01*
X113836776Y-20820212D01*
X113958064Y-21030289D01*
X113958066Y-21030292D01*
X113958067Y-21030293D01*
X114105733Y-21222736D01*
X114105739Y-21222743D01*
X114277256Y-21394260D01*
X114277262Y-21394265D01*
X114469711Y-21541936D01*
X114679788Y-21663224D01*
X114903900Y-21756054D01*
X115138211Y-21818838D01*
X115318586Y-21842584D01*
X115378711Y-21850500D01*
X115378712Y-21850500D01*
X115621289Y-21850500D01*
X115669388Y-21844167D01*
X115861789Y-21818838D01*
X116096100Y-21756054D01*
X116320212Y-21663224D01*
X116530289Y-21541936D01*
X116722738Y-21394265D01*
X116894265Y-21222738D01*
X117041936Y-21030289D01*
X117163224Y-20820212D01*
X117256054Y-20596100D01*
X117318838Y-20361789D01*
X117350500Y-20121288D01*
X117350500Y-19878712D01*
X117318838Y-19638211D01*
X117256054Y-19403900D01*
X117163224Y-19179788D01*
X117041936Y-18969711D01*
X116965728Y-18870394D01*
X116894266Y-18777263D01*
X116894260Y-18777256D01*
X116722743Y-18605739D01*
X116722736Y-18605733D01*
X116530293Y-18458067D01*
X116530292Y-18458066D01*
X116530289Y-18458064D01*
X116320212Y-18336776D01*
X116320205Y-18336773D01*
X116096104Y-18243947D01*
X115861785Y-18181161D01*
X115621289Y-18149500D01*
X115621288Y-18149500D01*
X115378712Y-18149500D01*
X115378711Y-18149500D01*
X115138214Y-18181161D01*
X114903895Y-18243947D01*
X114679794Y-18336773D01*
X114679785Y-18336777D01*
X114469706Y-18458067D01*
X114277263Y-18605733D01*
X114277256Y-18605739D01*
X114105739Y-18777256D01*
X114105733Y-18777263D01*
X113958067Y-18969706D01*
X113836777Y-19179785D01*
X113836773Y-19179794D01*
X113743947Y-19403895D01*
X113681161Y-19638214D01*
X113649500Y-19878711D01*
X109099367Y-19878711D01*
X109121789Y-19856289D01*
X109136175Y-19834758D01*
X109155551Y-19805762D01*
X109209390Y-19725185D01*
X109209390Y-19725184D01*
X109209394Y-19725179D01*
X109269737Y-19579497D01*
X109300500Y-19424842D01*
X109300500Y-19267158D01*
X109300500Y-19267155D01*
X109300499Y-19267153D01*
X109269738Y-19112510D01*
X109269737Y-19112503D01*
X109267685Y-19107551D01*
X109260217Y-19038083D01*
X109291492Y-18975603D01*
X109351581Y-18939951D01*
X109406439Y-18938482D01*
X109522155Y-18961500D01*
X109522158Y-18961500D01*
X109679844Y-18961500D01*
X109679845Y-18961499D01*
X109834497Y-18930737D01*
X109980179Y-18870394D01*
X110111289Y-18782789D01*
X110222789Y-18671289D01*
X110310394Y-18540179D01*
X110370737Y-18394497D01*
X110401500Y-18239842D01*
X110401500Y-18082158D01*
X110401500Y-18082155D01*
X110401499Y-18082153D01*
X110370738Y-17927510D01*
X110370737Y-17927503D01*
X110370735Y-17927498D01*
X110310397Y-17781827D01*
X110310390Y-17781814D01*
X110222789Y-17650711D01*
X110222786Y-17650707D01*
X110111292Y-17539213D01*
X110111288Y-17539210D01*
X109980185Y-17451609D01*
X109980172Y-17451602D01*
X109834501Y-17391264D01*
X109834489Y-17391261D01*
X109679845Y-17360500D01*
X109679842Y-17360500D01*
X109522158Y-17360500D01*
X109522155Y-17360500D01*
X109367510Y-17391261D01*
X109367498Y-17391264D01*
X109221827Y-17451602D01*
X109221814Y-17451609D01*
X109090711Y-17539210D01*
X109090707Y-17539213D01*
X109088807Y-17541114D01*
X109087566Y-17541791D01*
X109086001Y-17543076D01*
X109085757Y-17542779D01*
X109027484Y-17574599D01*
X109001126Y-17577433D01*
X99321128Y-17577433D01*
X99254089Y-17557748D01*
X99208334Y-17504944D01*
X99198390Y-17435786D01*
X99209090Y-17403150D01*
X99208263Y-17402808D01*
X99270935Y-17251501D01*
X99270937Y-17251497D01*
X99301700Y-17096842D01*
X99301700Y-16939158D01*
X99301700Y-16939155D01*
X99301699Y-16939153D01*
X99270938Y-16784510D01*
X99270937Y-16784503D01*
X99270935Y-16784498D01*
X99213963Y-16646952D01*
X99206494Y-16577482D01*
X99237770Y-16515003D01*
X99297859Y-16479352D01*
X99328524Y-16475500D01*
X108066531Y-16475500D01*
X108066547Y-16475501D01*
X108074143Y-16475501D01*
X108232254Y-16475501D01*
X108232257Y-16475501D01*
X108384985Y-16434577D01*
X108457171Y-16392900D01*
X108521916Y-16355520D01*
X108633720Y-16243716D01*
X108633720Y-16243714D01*
X108643924Y-16233511D01*
X108643927Y-16233506D01*
X112980520Y-11896916D01*
X113059577Y-11759984D01*
X113100501Y-11607257D01*
X113100501Y-11449142D01*
X113100501Y-11441547D01*
X113100500Y-11441529D01*
X113100500Y-10499601D01*
X113120185Y-10432562D01*
X113168206Y-10389116D01*
X113181610Y-10382287D01*
X113347219Y-10261966D01*
X113491966Y-10117219D01*
X113491968Y-10117215D01*
X113491971Y-10117213D01*
X113566934Y-10014033D01*
X113612287Y-9951610D01*
X113705220Y-9769219D01*
X113768477Y-9574534D01*
X113800500Y-9372352D01*
X113800500Y-9167648D01*
X113796345Y-9141416D01*
X113768477Y-8965465D01*
X113705218Y-8770776D01*
X113671503Y-8704607D01*
X113612287Y-8588390D01*
X113604556Y-8577749D01*
X113491971Y-8422786D01*
X113347213Y-8278028D01*
X113181613Y-8157715D01*
X113181612Y-8157714D01*
X113181610Y-8157713D01*
X113124653Y-8128691D01*
X112999223Y-8064781D01*
X112804534Y-8001522D01*
X112607693Y-7970346D01*
X112602352Y-7969500D01*
X112397648Y-7969500D01*
X112397641Y-7969500D01*
X112397310Y-7969526D01*
X112397186Y-7969500D01*
X112392776Y-7969500D01*
X112392776Y-7968573D01*
X112328933Y-7955158D01*
X112279179Y-7906104D01*
X112263844Y-7837938D01*
X112287797Y-7772302D01*
X112314702Y-7745590D01*
X112347219Y-7721966D01*
X112491966Y-7577219D01*
X112491968Y-7577215D01*
X112491971Y-7577213D01*
X112544732Y-7504590D01*
X112612287Y-7411610D01*
X112705220Y-7229219D01*
X112768477Y-7034534D01*
X112800500Y-6832352D01*
X112800500Y-6627648D01*
X112768477Y-6425466D01*
X112705220Y-6230781D01*
X112705218Y-6230778D01*
X112705218Y-6230776D01*
X112671503Y-6164607D01*
X112612287Y-6048390D01*
X112570228Y-5990500D01*
X112491971Y-5882786D01*
X112347213Y-5738028D01*
X112181610Y-5617712D01*
X112168200Y-5610879D01*
X112117406Y-5562903D01*
X112100500Y-5500397D01*
X112100500Y-4324859D01*
X112100501Y-4324846D01*
X112100501Y-4156745D01*
X112100501Y-4156743D01*
X112063515Y-4018711D01*
X112899500Y-4018711D01*
X112899500Y-4261288D01*
X112931161Y-4501785D01*
X112993947Y-4736104D01*
X113086773Y-4960205D01*
X113086776Y-4960212D01*
X113208064Y-5170289D01*
X113208066Y-5170292D01*
X113208067Y-5170293D01*
X113355733Y-5362736D01*
X113355739Y-5362743D01*
X113527256Y-5534260D01*
X113527263Y-5534266D01*
X113636012Y-5617712D01*
X113719711Y-5681936D01*
X113929788Y-5803224D01*
X114153900Y-5896054D01*
X114388211Y-5958838D01*
X114568586Y-5982584D01*
X114628711Y-5990500D01*
X114628712Y-5990500D01*
X114871289Y-5990500D01*
X114919388Y-5984167D01*
X115111789Y-5958838D01*
X115346100Y-5896054D01*
X115570212Y-5803224D01*
X115780289Y-5681936D01*
X115972738Y-5534265D01*
X116144265Y-5362738D01*
X116291936Y-5170289D01*
X116413224Y-4960212D01*
X116506054Y-4736100D01*
X116568838Y-4501789D01*
X116600500Y-4261288D01*
X116600500Y-4018712D01*
X116568838Y-3778211D01*
X116506054Y-3543900D01*
X116413224Y-3319788D01*
X116291936Y-3109711D01*
X116144265Y-2917262D01*
X116144260Y-2917256D01*
X115972743Y-2745739D01*
X115972736Y-2745733D01*
X115780293Y-2598067D01*
X115780292Y-2598066D01*
X115780289Y-2598064D01*
X115570212Y-2476776D01*
X115570205Y-2476773D01*
X115346104Y-2383947D01*
X115152610Y-2332100D01*
X115111789Y-2321162D01*
X115111788Y-2321161D01*
X115111785Y-2321161D01*
X114871289Y-2289500D01*
X114871288Y-2289500D01*
X114628712Y-2289500D01*
X114628711Y-2289500D01*
X114388214Y-2321161D01*
X114153895Y-2383947D01*
X113929794Y-2476773D01*
X113929785Y-2476777D01*
X113719706Y-2598067D01*
X113527263Y-2745733D01*
X113527256Y-2745739D01*
X113355739Y-2917256D01*
X113355733Y-2917263D01*
X113208067Y-3109706D01*
X113086777Y-3319785D01*
X113086773Y-3319794D01*
X112993947Y-3543895D01*
X112931161Y-3778214D01*
X112899500Y-4018711D01*
X112063515Y-4018711D01*
X112059577Y-4004015D01*
X112030639Y-3953895D01*
X111980520Y-3867084D01*
X111868716Y-3755280D01*
X111868715Y-3755279D01*
X111864385Y-3750949D01*
X111864374Y-3750939D01*
X110799790Y-2686355D01*
X110799788Y-2686352D01*
X110680917Y-2567481D01*
X110680909Y-2567475D01*
X110569620Y-2503223D01*
X110569619Y-2503222D01*
X110569619Y-2503223D01*
X110543985Y-2488423D01*
X110391257Y-2447499D01*
X110233143Y-2447499D01*
X110225547Y-2447499D01*
X110225531Y-2447500D01*
X110006432Y-2447500D01*
X109939393Y-2427815D01*
X109893638Y-2375011D01*
X109883694Y-2305853D01*
X109912719Y-2242297D01*
X109937541Y-2220398D01*
X109959326Y-2205841D01*
X110010289Y-2171789D01*
X110121789Y-2060289D01*
X110209394Y-1929179D01*
X110261955Y-1802282D01*
X110269122Y-1787748D01*
X110287577Y-1755784D01*
X110328500Y-1603057D01*
X110328500Y-1444943D01*
X110287577Y-1292216D01*
X110232657Y-1197091D01*
X110208524Y-1155290D01*
X110208518Y-1155282D01*
X110188504Y-1135268D01*
X110173083Y-1116477D01*
X110121792Y-1039715D01*
X110121786Y-1039707D01*
X110010292Y-928213D01*
X110010288Y-928210D01*
X109879185Y-840609D01*
X109879172Y-840602D01*
X109733501Y-780264D01*
X109733489Y-780261D01*
X109578845Y-749500D01*
X109578842Y-749500D01*
X109421158Y-749500D01*
X109421155Y-749500D01*
X109266510Y-780261D01*
X109266498Y-780264D01*
X109120827Y-840602D01*
X109120815Y-840609D01*
X109028038Y-902602D01*
X108961361Y-923480D01*
X108959147Y-923500D01*
X96073779Y-923500D01*
X96006740Y-903815D01*
X96004888Y-902602D01*
X95879185Y-818609D01*
X95879172Y-818602D01*
X95733501Y-758264D01*
X95733489Y-758261D01*
X95672438Y-746117D01*
X95610527Y-713732D01*
X95575953Y-653016D01*
X95579692Y-583247D01*
X95620559Y-526575D01*
X95685577Y-500994D01*
X95696629Y-500500D01*
X117934108Y-500500D01*
X117995572Y-500500D01*
X118004418Y-500816D01*
X118204561Y-515130D01*
X118222063Y-517647D01*
X118413795Y-559355D01*
X118430760Y-564336D01*
X118614611Y-632909D01*
X118630694Y-640253D01*
X118788642Y-726500D01*
X118802908Y-734290D01*
X118817791Y-743855D01*
X118974864Y-861438D01*
X118988235Y-873024D01*
X119126975Y-1011764D01*
X119138561Y-1025135D01*
X119256144Y-1182208D01*
X119265709Y-1197091D01*
X119359743Y-1369300D01*
X119367093Y-1385394D01*
X119435661Y-1569234D01*
X119440645Y-1586209D01*
X119482351Y-1777931D01*
X119484869Y-1795442D01*
X119499184Y-1995580D01*
X119499500Y-2004427D01*
X119499500Y-32995572D01*
X119499184Y-33004419D01*
X119484869Y-33204557D01*
X119482351Y-33222068D01*
X119440645Y-33413790D01*
X119435661Y-33430765D01*
X119367093Y-33614605D01*
X119359743Y-33630699D01*
X119265709Y-33802908D01*
X119256144Y-33817791D01*
X119138561Y-33974864D01*
X119126975Y-33988235D01*
X118988235Y-34126975D01*
X118974864Y-34138561D01*
X118817791Y-34256144D01*
X118802908Y-34265709D01*
X118630699Y-34359743D01*
X118614605Y-34367093D01*
X118430765Y-34435661D01*
X118413790Y-34440645D01*
X118222068Y-34482351D01*
X118204557Y-34484869D01*
X118023779Y-34497799D01*
X118004417Y-34499184D01*
X117995572Y-34499500D01*
X2004428Y-34499500D01*
X1995582Y-34499184D01*
X1973622Y-34497613D01*
X1795442Y-34484869D01*
X1777931Y-34482351D01*
X1586209Y-34440645D01*
X1569234Y-34435661D01*
X1385394Y-34367093D01*
X1369300Y-34359743D01*
X1197091Y-34265709D01*
X1182208Y-34256144D01*
X1025135Y-34138561D01*
X1011764Y-34126975D01*
X873024Y-33988235D01*
X861438Y-33974864D01*
X743855Y-33817791D01*
X734290Y-33802908D01*
X640256Y-33630699D01*
X632909Y-33614611D01*
X564336Y-33430760D01*
X559354Y-33413790D01*
X517648Y-33222068D01*
X515130Y-33204556D01*
X500816Y-33004418D01*
X500500Y-32995572D01*
X500500Y-32047844D01*
X50060000Y-32047844D01*
X50066401Y-32107372D01*
X50066403Y-32107379D01*
X50116645Y-32242086D01*
X50116649Y-32242093D01*
X50202809Y-32357187D01*
X50202812Y-32357190D01*
X50317906Y-32443350D01*
X50317913Y-32443354D01*
X50452620Y-32493596D01*
X50452627Y-32493598D01*
X50512155Y-32499999D01*
X50512172Y-32500000D01*
X50860000Y-32500000D01*
X51360000Y-32500000D01*
X51707828Y-32500000D01*
X51707844Y-32499999D01*
X51767372Y-32493598D01*
X51767379Y-32493596D01*
X51902086Y-32443354D01*
X51902093Y-32443350D01*
X52017187Y-32357190D01*
X52017190Y-32357187D01*
X52103350Y-32242093D01*
X52103354Y-32242086D01*
X52153596Y-32107379D01*
X52153598Y-32107372D01*
X52159999Y-32047844D01*
X52600000Y-32047844D01*
X52606401Y-32107372D01*
X52606403Y-32107379D01*
X52656645Y-32242086D01*
X52656649Y-32242093D01*
X52742809Y-32357187D01*
X52742812Y-32357190D01*
X52857906Y-32443350D01*
X52857913Y-32443354D01*
X52992620Y-32493596D01*
X52992627Y-32493598D01*
X53052155Y-32499999D01*
X53052172Y-32500000D01*
X53400000Y-32500000D01*
X53900000Y-32500000D01*
X54247828Y-32500000D01*
X54247844Y-32499999D01*
X54307372Y-32493598D01*
X54307379Y-32493596D01*
X54442086Y-32443354D01*
X54442093Y-32443350D01*
X54557187Y-32357190D01*
X54557190Y-32357187D01*
X54643350Y-32242093D01*
X54643354Y-32242086D01*
X54693596Y-32107379D01*
X54693598Y-32107372D01*
X54699999Y-32047844D01*
X55140000Y-32047844D01*
X55146401Y-32107372D01*
X55146403Y-32107379D01*
X55196645Y-32242086D01*
X55196649Y-32242093D01*
X55282809Y-32357187D01*
X55282812Y-32357190D01*
X55397906Y-32443350D01*
X55397913Y-32443354D01*
X55532620Y-32493596D01*
X55532627Y-32493598D01*
X55592155Y-32499999D01*
X55592172Y-32500000D01*
X55940000Y-32500000D01*
X56440000Y-32500000D01*
X56787828Y-32500000D01*
X56787844Y-32499999D01*
X56847372Y-32493598D01*
X56847379Y-32493596D01*
X56982086Y-32443354D01*
X56982093Y-32443350D01*
X57097187Y-32357190D01*
X57097190Y-32357187D01*
X57183350Y-32242093D01*
X57183354Y-32242086D01*
X57233596Y-32107379D01*
X57233598Y-32107372D01*
X57239999Y-32047844D01*
X57680000Y-32047844D01*
X57686401Y-32107372D01*
X57686403Y-32107379D01*
X57736645Y-32242086D01*
X57736649Y-32242093D01*
X57822809Y-32357187D01*
X57822812Y-32357190D01*
X57937906Y-32443350D01*
X57937913Y-32443354D01*
X58072620Y-32493596D01*
X58072627Y-32493598D01*
X58132155Y-32499999D01*
X58132172Y-32500000D01*
X58480000Y-32500000D01*
X58980000Y-32500000D01*
X59327828Y-32500000D01*
X59327844Y-32499999D01*
X59387372Y-32493598D01*
X59387379Y-32493596D01*
X59522086Y-32443354D01*
X59522093Y-32443350D01*
X59637187Y-32357190D01*
X59637190Y-32357187D01*
X59723350Y-32242093D01*
X59723354Y-32242086D01*
X59773596Y-32107379D01*
X59773598Y-32107372D01*
X59779999Y-32047844D01*
X60220000Y-32047844D01*
X60226401Y-32107372D01*
X60226403Y-32107379D01*
X60276645Y-32242086D01*
X60276649Y-32242093D01*
X60362809Y-32357187D01*
X60362812Y-32357190D01*
X60477906Y-32443350D01*
X60477913Y-32443354D01*
X60612620Y-32493596D01*
X60612627Y-32493598D01*
X60672155Y-32499999D01*
X60672172Y-32500000D01*
X61020000Y-32500000D01*
X61520000Y-32500000D01*
X61867828Y-32500000D01*
X61867844Y-32499999D01*
X61927372Y-32493598D01*
X61927379Y-32493596D01*
X62062086Y-32443354D01*
X62062093Y-32443350D01*
X62177187Y-32357190D01*
X62177190Y-32357187D01*
X62263350Y-32242093D01*
X62263354Y-32242086D01*
X62313596Y-32107379D01*
X62313598Y-32107372D01*
X62319999Y-32047844D01*
X62760000Y-32047844D01*
X62766401Y-32107372D01*
X62766403Y-32107379D01*
X62816645Y-32242086D01*
X62816649Y-32242093D01*
X62902809Y-32357187D01*
X62902812Y-32357190D01*
X63017906Y-32443350D01*
X63017913Y-32443354D01*
X63152620Y-32493596D01*
X63152627Y-32493598D01*
X63212155Y-32499999D01*
X63212172Y-32500000D01*
X63560000Y-32500000D01*
X64060000Y-32500000D01*
X64407828Y-32500000D01*
X64407844Y-32499999D01*
X64467372Y-32493598D01*
X64467379Y-32493596D01*
X64602086Y-32443354D01*
X64602093Y-32443350D01*
X64717187Y-32357190D01*
X64717190Y-32357187D01*
X64803350Y-32242093D01*
X64803354Y-32242086D01*
X64853596Y-32107379D01*
X64853598Y-32107372D01*
X64859999Y-32047844D01*
X65300000Y-32047844D01*
X65306401Y-32107372D01*
X65306403Y-32107379D01*
X65356645Y-32242086D01*
X65356649Y-32242093D01*
X65442809Y-32357187D01*
X65442812Y-32357190D01*
X65557906Y-32443350D01*
X65557913Y-32443354D01*
X65692620Y-32493596D01*
X65692627Y-32493598D01*
X65752155Y-32499999D01*
X65752172Y-32500000D01*
X66100000Y-32500000D01*
X66600000Y-32500000D01*
X66947828Y-32500000D01*
X66947844Y-32499999D01*
X67007372Y-32493598D01*
X67007379Y-32493596D01*
X67142086Y-32443354D01*
X67142093Y-32443350D01*
X67257187Y-32357190D01*
X67257190Y-32357187D01*
X67343350Y-32242093D01*
X67343354Y-32242086D01*
X67393596Y-32107379D01*
X67393598Y-32107372D01*
X67399999Y-32047844D01*
X67840000Y-32047844D01*
X67846401Y-32107372D01*
X67846403Y-32107379D01*
X67896645Y-32242086D01*
X67896649Y-32242093D01*
X67982809Y-32357187D01*
X67982812Y-32357190D01*
X68097906Y-32443350D01*
X68097913Y-32443354D01*
X68232620Y-32493596D01*
X68232627Y-32493598D01*
X68292155Y-32499999D01*
X68292172Y-32500000D01*
X68640000Y-32500000D01*
X69140000Y-32500000D01*
X69487828Y-32500000D01*
X69487844Y-32499999D01*
X69547372Y-32493598D01*
X69547379Y-32493596D01*
X69682086Y-32443354D01*
X69682093Y-32443350D01*
X69797187Y-32357190D01*
X69797190Y-32357187D01*
X69883350Y-32242093D01*
X69883354Y-32242086D01*
X69933596Y-32107379D01*
X69933598Y-32107372D01*
X69939999Y-32047844D01*
X69940000Y-32047827D01*
X69940000Y-31150000D01*
X69140000Y-31150000D01*
X69140000Y-32500000D01*
X68640000Y-32500000D01*
X68640000Y-31150000D01*
X67840000Y-31150000D01*
X67840000Y-32047844D01*
X67399999Y-32047844D01*
X67400000Y-32047827D01*
X67400000Y-31150000D01*
X66600000Y-31150000D01*
X66600000Y-32500000D01*
X66100000Y-32500000D01*
X66100000Y-31150000D01*
X65300000Y-31150000D01*
X65300000Y-32047844D01*
X64859999Y-32047844D01*
X64860000Y-32047827D01*
X64860000Y-31150000D01*
X64060000Y-31150000D01*
X64060000Y-32500000D01*
X63560000Y-32500000D01*
X63560000Y-31150000D01*
X62760000Y-31150000D01*
X62760000Y-32047844D01*
X62319999Y-32047844D01*
X62320000Y-32047827D01*
X62320000Y-31150000D01*
X61520000Y-31150000D01*
X61520000Y-32500000D01*
X61020000Y-32500000D01*
X61020000Y-31150000D01*
X60220000Y-31150000D01*
X60220000Y-32047844D01*
X59779999Y-32047844D01*
X59780000Y-32047827D01*
X59780000Y-31150000D01*
X58980000Y-31150000D01*
X58980000Y-32500000D01*
X58480000Y-32500000D01*
X58480000Y-31150000D01*
X57680000Y-31150000D01*
X57680000Y-32047844D01*
X57239999Y-32047844D01*
X57240000Y-32047827D01*
X57240000Y-31150000D01*
X56440000Y-31150000D01*
X56440000Y-32500000D01*
X55940000Y-32500000D01*
X55940000Y-31150000D01*
X55140000Y-31150000D01*
X55140000Y-32047844D01*
X54699999Y-32047844D01*
X54700000Y-32047827D01*
X54700000Y-31150000D01*
X53900000Y-31150000D01*
X53900000Y-32500000D01*
X53400000Y-32500000D01*
X53400000Y-31150000D01*
X52600000Y-31150000D01*
X52600000Y-32047844D01*
X52159999Y-32047844D01*
X52160000Y-32047827D01*
X52160000Y-31150000D01*
X51360000Y-31150000D01*
X51360000Y-32500000D01*
X50860000Y-32500000D01*
X50860000Y-31150000D01*
X50060000Y-31150000D01*
X50060000Y-32047844D01*
X500500Y-32047844D01*
X500500Y-28377783D01*
X10694100Y-28377783D01*
X10694100Y-29577801D01*
X10694101Y-29577818D01*
X10704600Y-29680596D01*
X10704601Y-29680599D01*
X10732581Y-29765036D01*
X10759786Y-29847134D01*
X10851888Y-29996456D01*
X10975944Y-30120512D01*
X11125266Y-30212614D01*
X11291803Y-30267799D01*
X11394591Y-30278300D01*
X13994608Y-30278299D01*
X14097397Y-30267799D01*
X14263934Y-30212614D01*
X14413256Y-30120512D01*
X14537312Y-29996456D01*
X14609937Y-29878711D01*
X38149500Y-29878711D01*
X38149500Y-30121288D01*
X38181161Y-30361785D01*
X38243947Y-30596104D01*
X38310717Y-30757300D01*
X38336776Y-30820212D01*
X38458064Y-31030289D01*
X38458066Y-31030292D01*
X38458067Y-31030293D01*
X38605733Y-31222736D01*
X38605739Y-31222743D01*
X38777256Y-31394260D01*
X38777262Y-31394265D01*
X38969711Y-31541936D01*
X39179788Y-31663224D01*
X39403900Y-31756054D01*
X39638211Y-31818838D01*
X39818586Y-31842584D01*
X39878711Y-31850500D01*
X39878712Y-31850500D01*
X40121289Y-31850500D01*
X40169388Y-31844167D01*
X40361789Y-31818838D01*
X40596100Y-31756054D01*
X40820212Y-31663224D01*
X41030289Y-31541936D01*
X41222738Y-31394265D01*
X41394265Y-31222738D01*
X41541936Y-31030289D01*
X41663224Y-30820212D01*
X41756054Y-30596100D01*
X41818838Y-30361789D01*
X41850500Y-30121288D01*
X41850500Y-29878712D01*
X41846343Y-29847134D01*
X41835535Y-29765036D01*
X41833839Y-29752155D01*
X50060000Y-29752155D01*
X50060000Y-30650000D01*
X50860000Y-30650000D01*
X51360000Y-30650000D01*
X52160000Y-30650000D01*
X52160000Y-29752172D01*
X52159999Y-29752155D01*
X52600000Y-29752155D01*
X52600000Y-30650000D01*
X53400000Y-30650000D01*
X53900000Y-30650000D01*
X54700000Y-30650000D01*
X54700000Y-29752172D01*
X54699999Y-29752155D01*
X55140000Y-29752155D01*
X55140000Y-30650000D01*
X55940000Y-30650000D01*
X56440000Y-30650000D01*
X57240000Y-30650000D01*
X57240000Y-29752172D01*
X57239999Y-29752155D01*
X57680000Y-29752155D01*
X57680000Y-30650000D01*
X58480000Y-30650000D01*
X58980000Y-30650000D01*
X59780000Y-30650000D01*
X59780000Y-29752172D01*
X59779999Y-29752155D01*
X60220000Y-29752155D01*
X60220000Y-30650000D01*
X61020000Y-30650000D01*
X61520000Y-30650000D01*
X62320000Y-30650000D01*
X62320000Y-29752172D01*
X62319999Y-29752155D01*
X62760000Y-29752155D01*
X62760000Y-30650000D01*
X63560000Y-30650000D01*
X64060000Y-30650000D01*
X64860000Y-30650000D01*
X64860000Y-29752172D01*
X64859999Y-29752155D01*
X65300000Y-29752155D01*
X65300000Y-30650000D01*
X66100000Y-30650000D01*
X66600000Y-30650000D01*
X67400000Y-30650000D01*
X67400000Y-29752172D01*
X67399999Y-29752155D01*
X67840000Y-29752155D01*
X67840000Y-30650000D01*
X68640000Y-30650000D01*
X69140000Y-30650000D01*
X69940000Y-30650000D01*
X69940000Y-29878711D01*
X78149500Y-29878711D01*
X78149500Y-30121288D01*
X78181161Y-30361785D01*
X78243947Y-30596104D01*
X78310717Y-30757300D01*
X78336776Y-30820212D01*
X78458064Y-31030289D01*
X78458066Y-31030292D01*
X78458067Y-31030293D01*
X78605733Y-31222736D01*
X78605739Y-31222743D01*
X78777256Y-31394260D01*
X78777262Y-31394265D01*
X78969711Y-31541936D01*
X79179788Y-31663224D01*
X79403900Y-31756054D01*
X79638211Y-31818838D01*
X79818586Y-31842584D01*
X79878711Y-31850500D01*
X79878712Y-31850500D01*
X80121289Y-31850500D01*
X80169388Y-31844167D01*
X80361789Y-31818838D01*
X80596100Y-31756054D01*
X80820212Y-31663224D01*
X81030289Y-31541936D01*
X81222738Y-31394265D01*
X81394265Y-31222738D01*
X81541936Y-31030289D01*
X81663224Y-30820212D01*
X81756054Y-30596100D01*
X81818838Y-30361789D01*
X81850500Y-30121288D01*
X81850500Y-29878712D01*
X81818838Y-29638211D01*
X81756054Y-29403900D01*
X81663224Y-29179788D01*
X81541936Y-28969711D01*
X81534309Y-28959771D01*
X81510790Y-28929120D01*
X81455284Y-28856783D01*
X104654100Y-28856783D01*
X104654100Y-30056801D01*
X104654101Y-30056818D01*
X104664600Y-30159596D01*
X104664601Y-30159599D01*
X104719785Y-30326131D01*
X104719787Y-30326136D01*
X104741778Y-30361789D01*
X104811888Y-30475456D01*
X104935944Y-30599512D01*
X105085266Y-30691614D01*
X105251803Y-30746799D01*
X105354591Y-30757300D01*
X107954608Y-30757299D01*
X108057397Y-30746799D01*
X108223934Y-30691614D01*
X108373256Y-30599512D01*
X108497312Y-30475456D01*
X108589414Y-30326134D01*
X108644599Y-30159597D01*
X108655100Y-30056809D01*
X108655099Y-28856792D01*
X108644599Y-28754003D01*
X108589414Y-28587466D01*
X108497312Y-28438144D01*
X108373256Y-28314088D01*
X108223934Y-28221986D01*
X108057397Y-28166801D01*
X108057395Y-28166800D01*
X107954616Y-28156300D01*
X107393221Y-28156300D01*
X107326182Y-28136615D01*
X107280427Y-28083811D01*
X107270483Y-28014653D01*
X107299508Y-27951097D01*
X107328125Y-27926761D01*
X107372943Y-27899117D01*
X107496915Y-27775145D01*
X107588956Y-27625924D01*
X107588958Y-27625919D01*
X107644105Y-27459497D01*
X107644106Y-27459490D01*
X107654599Y-27356786D01*
X107654600Y-27356773D01*
X107654600Y-27306800D01*
X104654600Y-27306800D01*
X104654600Y-28056799D01*
X104915838Y-28056799D01*
X104982877Y-28076484D01*
X105028632Y-28129288D01*
X105038576Y-28198446D01*
X105009551Y-28262002D01*
X104980937Y-28286336D01*
X104950149Y-28305325D01*
X104935942Y-28314089D01*
X104811889Y-28438142D01*
X104719787Y-28587463D01*
X104719786Y-28587466D01*
X104664601Y-28754003D01*
X104664601Y-28754004D01*
X104664600Y-28754004D01*
X104654100Y-28856783D01*
X81455284Y-28856783D01*
X81394266Y-28777263D01*
X81394260Y-28777256D01*
X81222743Y-28605739D01*
X81222736Y-28605733D01*
X81030293Y-28458067D01*
X81030292Y-28458066D01*
X81030289Y-28458064D01*
X80820212Y-28336776D01*
X80765441Y-28314089D01*
X80596104Y-28243947D01*
X80361785Y-28181161D01*
X80121289Y-28149500D01*
X80121288Y-28149500D01*
X79878712Y-28149500D01*
X79878711Y-28149500D01*
X79638214Y-28181161D01*
X79403895Y-28243947D01*
X79179794Y-28336773D01*
X79179785Y-28336777D01*
X78969706Y-28458067D01*
X78777263Y-28605733D01*
X78777256Y-28605739D01*
X78605739Y-28777256D01*
X78605733Y-28777263D01*
X78458067Y-28969706D01*
X78336777Y-29179785D01*
X78336773Y-29179794D01*
X78243947Y-29403895D01*
X78181161Y-29638214D01*
X78149500Y-29878711D01*
X69940000Y-29878711D01*
X69940000Y-29752172D01*
X69939999Y-29752155D01*
X69933598Y-29692627D01*
X69933596Y-29692620D01*
X69883354Y-29557913D01*
X69883350Y-29557906D01*
X69797190Y-29442812D01*
X69797187Y-29442809D01*
X69682093Y-29356649D01*
X69682086Y-29356645D01*
X69547379Y-29306403D01*
X69547372Y-29306401D01*
X69487844Y-29300000D01*
X69140000Y-29300000D01*
X69140000Y-30650000D01*
X68640000Y-30650000D01*
X68640000Y-29300000D01*
X68292155Y-29300000D01*
X68232627Y-29306401D01*
X68232620Y-29306403D01*
X68097913Y-29356645D01*
X68097906Y-29356649D01*
X67982812Y-29442809D01*
X67982809Y-29442812D01*
X67896649Y-29557906D01*
X67896645Y-29557913D01*
X67846403Y-29692620D01*
X67846401Y-29692627D01*
X67840000Y-29752155D01*
X67399999Y-29752155D01*
X67393598Y-29692627D01*
X67393596Y-29692620D01*
X67343354Y-29557913D01*
X67343350Y-29557906D01*
X67257190Y-29442812D01*
X67257187Y-29442809D01*
X67142093Y-29356649D01*
X67142086Y-29356645D01*
X67007379Y-29306403D01*
X67007372Y-29306401D01*
X66947844Y-29300000D01*
X66600000Y-29300000D01*
X66600000Y-30650000D01*
X66100000Y-30650000D01*
X66100000Y-29300000D01*
X65752155Y-29300000D01*
X65692627Y-29306401D01*
X65692620Y-29306403D01*
X65557913Y-29356645D01*
X65557906Y-29356649D01*
X65442812Y-29442809D01*
X65442809Y-29442812D01*
X65356649Y-29557906D01*
X65356645Y-29557913D01*
X65306403Y-29692620D01*
X65306401Y-29692627D01*
X65300000Y-29752155D01*
X64859999Y-29752155D01*
X64853598Y-29692627D01*
X64853596Y-29692620D01*
X64803354Y-29557913D01*
X64803350Y-29557906D01*
X64717190Y-29442812D01*
X64717187Y-29442809D01*
X64602093Y-29356649D01*
X64602086Y-29356645D01*
X64467379Y-29306403D01*
X64467372Y-29306401D01*
X64407844Y-29300000D01*
X64060000Y-29300000D01*
X64060000Y-30650000D01*
X63560000Y-30650000D01*
X63560000Y-29300000D01*
X63212155Y-29300000D01*
X63152627Y-29306401D01*
X63152620Y-29306403D01*
X63017913Y-29356645D01*
X63017906Y-29356649D01*
X62902812Y-29442809D01*
X62902809Y-29442812D01*
X62816649Y-29557906D01*
X62816645Y-29557913D01*
X62766403Y-29692620D01*
X62766401Y-29692627D01*
X62760000Y-29752155D01*
X62319999Y-29752155D01*
X62313598Y-29692627D01*
X62313596Y-29692620D01*
X62263354Y-29557913D01*
X62263350Y-29557906D01*
X62177190Y-29442812D01*
X62177187Y-29442809D01*
X62062093Y-29356649D01*
X62062086Y-29356645D01*
X61927379Y-29306403D01*
X61927372Y-29306401D01*
X61867844Y-29300000D01*
X61520000Y-29300000D01*
X61520000Y-30650000D01*
X61020000Y-30650000D01*
X61020000Y-29300000D01*
X60672155Y-29300000D01*
X60612627Y-29306401D01*
X60612620Y-29306403D01*
X60477913Y-29356645D01*
X60477906Y-29356649D01*
X60362812Y-29442809D01*
X60362809Y-29442812D01*
X60276649Y-29557906D01*
X60276645Y-29557913D01*
X60226403Y-29692620D01*
X60226401Y-29692627D01*
X60220000Y-29752155D01*
X59779999Y-29752155D01*
X59773598Y-29692627D01*
X59773596Y-29692620D01*
X59723354Y-29557913D01*
X59723350Y-29557906D01*
X59637190Y-29442812D01*
X59637187Y-29442809D01*
X59522093Y-29356649D01*
X59522086Y-29356645D01*
X59387379Y-29306403D01*
X59387372Y-29306401D01*
X59327844Y-29300000D01*
X58980000Y-29300000D01*
X58980000Y-30650000D01*
X58480000Y-30650000D01*
X58480000Y-29300000D01*
X58132155Y-29300000D01*
X58072627Y-29306401D01*
X58072620Y-29306403D01*
X57937913Y-29356645D01*
X57937906Y-29356649D01*
X57822812Y-29442809D01*
X57822809Y-29442812D01*
X57736649Y-29557906D01*
X57736645Y-29557913D01*
X57686403Y-29692620D01*
X57686401Y-29692627D01*
X57680000Y-29752155D01*
X57239999Y-29752155D01*
X57233598Y-29692627D01*
X57233596Y-29692620D01*
X57183354Y-29557913D01*
X57183350Y-29557906D01*
X57097190Y-29442812D01*
X57097187Y-29442809D01*
X56982093Y-29356649D01*
X56982086Y-29356645D01*
X56847379Y-29306403D01*
X56847372Y-29306401D01*
X56787844Y-29300000D01*
X56440000Y-29300000D01*
X56440000Y-30650000D01*
X55940000Y-30650000D01*
X55940000Y-29300000D01*
X55592155Y-29300000D01*
X55532627Y-29306401D01*
X55532620Y-29306403D01*
X55397913Y-29356645D01*
X55397906Y-29356649D01*
X55282812Y-29442809D01*
X55282809Y-29442812D01*
X55196649Y-29557906D01*
X55196645Y-29557913D01*
X55146403Y-29692620D01*
X55146401Y-29692627D01*
X55140000Y-29752155D01*
X54699999Y-29752155D01*
X54693598Y-29692627D01*
X54693596Y-29692620D01*
X54643354Y-29557913D01*
X54643350Y-29557906D01*
X54557190Y-29442812D01*
X54557187Y-29442809D01*
X54442093Y-29356649D01*
X54442086Y-29356645D01*
X54307379Y-29306403D01*
X54307372Y-29306401D01*
X54247844Y-29300000D01*
X53900000Y-29300000D01*
X53900000Y-30650000D01*
X53400000Y-30650000D01*
X53400000Y-29300000D01*
X53052155Y-29300000D01*
X52992627Y-29306401D01*
X52992620Y-29306403D01*
X52857913Y-29356645D01*
X52857906Y-29356649D01*
X52742812Y-29442809D01*
X52742809Y-29442812D01*
X52656649Y-29557906D01*
X52656645Y-29557913D01*
X52606403Y-29692620D01*
X52606401Y-29692627D01*
X52600000Y-29752155D01*
X52159999Y-29752155D01*
X52153598Y-29692627D01*
X52153596Y-29692620D01*
X52103354Y-29557913D01*
X52103350Y-29557906D01*
X52017190Y-29442812D01*
X52017187Y-29442809D01*
X51902093Y-29356649D01*
X51902086Y-29356645D01*
X51767379Y-29306403D01*
X51767372Y-29306401D01*
X51707844Y-29300000D01*
X51360000Y-29300000D01*
X51360000Y-30650000D01*
X50860000Y-30650000D01*
X50860000Y-29300000D01*
X50512155Y-29300000D01*
X50452627Y-29306401D01*
X50452620Y-29306403D01*
X50317913Y-29356645D01*
X50317906Y-29356649D01*
X50202812Y-29442809D01*
X50202809Y-29442812D01*
X50116649Y-29557906D01*
X50116645Y-29557913D01*
X50066403Y-29692620D01*
X50066401Y-29692627D01*
X50060000Y-29752155D01*
X41833839Y-29752155D01*
X41818838Y-29638214D01*
X41818838Y-29638211D01*
X41756054Y-29403900D01*
X41663224Y-29179788D01*
X41541936Y-28969711D01*
X41455290Y-28856791D01*
X41394266Y-28777263D01*
X41394260Y-28777256D01*
X41222743Y-28605739D01*
X41222736Y-28605733D01*
X41030293Y-28458067D01*
X41030292Y-28458066D01*
X41030289Y-28458064D01*
X40820212Y-28336776D01*
X40765441Y-28314089D01*
X40596104Y-28243947D01*
X40361785Y-28181161D01*
X40121289Y-28149500D01*
X40121288Y-28149500D01*
X39878712Y-28149500D01*
X39878711Y-28149500D01*
X39638214Y-28181161D01*
X39403895Y-28243947D01*
X39179794Y-28336773D01*
X39179785Y-28336777D01*
X38969706Y-28458067D01*
X38777263Y-28605733D01*
X38777256Y-28605739D01*
X38605739Y-28777256D01*
X38605733Y-28777263D01*
X38458067Y-28969706D01*
X38336777Y-29179785D01*
X38336773Y-29179794D01*
X38243947Y-29403895D01*
X38181161Y-29638214D01*
X38149500Y-29878711D01*
X14609937Y-29878711D01*
X14629414Y-29847134D01*
X14684599Y-29680597D01*
X14695100Y-29577809D01*
X14695099Y-28377792D01*
X14684599Y-28275003D01*
X14629414Y-28108466D01*
X14537312Y-27959144D01*
X14413256Y-27835088D01*
X14368263Y-27807336D01*
X14321541Y-27755390D01*
X14310318Y-27686428D01*
X14338162Y-27622345D01*
X14396230Y-27583489D01*
X14433362Y-27577799D01*
X14694599Y-27577799D01*
X15194600Y-27577799D01*
X17494572Y-27577799D01*
X17494586Y-27577798D01*
X17597297Y-27567305D01*
X17763719Y-27512158D01*
X17763724Y-27512156D01*
X17912945Y-27420115D01*
X17976274Y-27356786D01*
X101154601Y-27356786D01*
X101165094Y-27459497D01*
X101220241Y-27625919D01*
X101220243Y-27625924D01*
X101312284Y-27775145D01*
X101436254Y-27899115D01*
X101585475Y-27991156D01*
X101585480Y-27991158D01*
X101751902Y-28046305D01*
X101751909Y-28046306D01*
X101854619Y-28056799D01*
X104154599Y-28056799D01*
X104154600Y-28056798D01*
X104154600Y-27306800D01*
X101154601Y-27306800D01*
X101154601Y-27356786D01*
X17976274Y-27356786D01*
X18036915Y-27296145D01*
X18102176Y-27190341D01*
X18102178Y-27190338D01*
X18128953Y-27146930D01*
X18128958Y-27146919D01*
X18184105Y-26980497D01*
X18184106Y-26980490D01*
X18194599Y-26877786D01*
X18194600Y-26877773D01*
X18194600Y-26827800D01*
X15194600Y-26827800D01*
X15194600Y-27577799D01*
X14694599Y-27577799D01*
X14694600Y-27577798D01*
X14694600Y-26827800D01*
X11694601Y-26827800D01*
X11694601Y-26877786D01*
X11705094Y-26980497D01*
X11760241Y-27146919D01*
X11760243Y-27146924D01*
X11852284Y-27296145D01*
X11976256Y-27420117D01*
X12021075Y-27447761D01*
X12067800Y-27499708D01*
X12079023Y-27568671D01*
X12051180Y-27632753D01*
X11993112Y-27671610D01*
X11955979Y-27677300D01*
X11394598Y-27677300D01*
X11394581Y-27677301D01*
X11291803Y-27687800D01*
X11291800Y-27687801D01*
X11125268Y-27742985D01*
X11125263Y-27742987D01*
X10975942Y-27835089D01*
X10851889Y-27959142D01*
X10759787Y-28108463D01*
X10759785Y-28108468D01*
X10743935Y-28156300D01*
X10704601Y-28275003D01*
X10704601Y-28275004D01*
X10704600Y-28275004D01*
X10694100Y-28377783D01*
X500500Y-28377783D01*
X500500Y-26756813D01*
X101154600Y-26756813D01*
X101154600Y-26806800D01*
X104154600Y-26806800D01*
X104654600Y-26806800D01*
X107654599Y-26806800D01*
X107654599Y-26756828D01*
X107654598Y-26756813D01*
X107644105Y-26654102D01*
X107588958Y-26487680D01*
X107588956Y-26487675D01*
X107496915Y-26338454D01*
X107372945Y-26214484D01*
X107288404Y-26162339D01*
X107241680Y-26110391D01*
X107230457Y-26041428D01*
X107258301Y-25977346D01*
X107288404Y-25951261D01*
X107372945Y-25899115D01*
X107496915Y-25775145D01*
X107588956Y-25625924D01*
X107588958Y-25625919D01*
X107644105Y-25459497D01*
X107644106Y-25459490D01*
X107654599Y-25356786D01*
X107654600Y-25356773D01*
X107654600Y-25306800D01*
X104654600Y-25306800D01*
X104654600Y-26806800D01*
X104154600Y-26806800D01*
X104154600Y-25306800D01*
X101154601Y-25306800D01*
X101154601Y-25356786D01*
X101165094Y-25459497D01*
X101220241Y-25625919D01*
X101220243Y-25625924D01*
X101312284Y-25775145D01*
X101436255Y-25899116D01*
X101436259Y-25899119D01*
X101520795Y-25951262D01*
X101567520Y-26003210D01*
X101578741Y-26072172D01*
X101550898Y-26136254D01*
X101520795Y-26162338D01*
X101436259Y-26214480D01*
X101436255Y-26214483D01*
X101312284Y-26338454D01*
X101220243Y-26487675D01*
X101220241Y-26487680D01*
X101165094Y-26654102D01*
X101165093Y-26654109D01*
X101154600Y-26756813D01*
X500500Y-26756813D01*
X500500Y-26277813D01*
X11694600Y-26277813D01*
X11694600Y-26327800D01*
X14694600Y-26327800D01*
X15194600Y-26327800D01*
X18194599Y-26327800D01*
X18194599Y-26277828D01*
X18194598Y-26277813D01*
X18184105Y-26175102D01*
X18128958Y-26008680D01*
X18128956Y-26008675D01*
X18036915Y-25859454D01*
X17912945Y-25735484D01*
X17828404Y-25683339D01*
X17781680Y-25631391D01*
X17770457Y-25562428D01*
X17798301Y-25498346D01*
X17828404Y-25472261D01*
X17912945Y-25420115D01*
X18036915Y-25296145D01*
X18128956Y-25146924D01*
X18128958Y-25146919D01*
X18184105Y-24980497D01*
X18184106Y-24980490D01*
X18194599Y-24877786D01*
X18194600Y-24877773D01*
X18194600Y-24827800D01*
X15194600Y-24827800D01*
X15194600Y-26327800D01*
X14694600Y-26327800D01*
X14694600Y-24827800D01*
X11694601Y-24827800D01*
X11694601Y-24877786D01*
X11705094Y-24980497D01*
X11760241Y-25146919D01*
X11760243Y-25146924D01*
X11852284Y-25296145D01*
X11976255Y-25420116D01*
X11976259Y-25420119D01*
X12060795Y-25472262D01*
X12107520Y-25524210D01*
X12118741Y-25593172D01*
X12090898Y-25657254D01*
X12060795Y-25683338D01*
X11976259Y-25735480D01*
X11976255Y-25735483D01*
X11852284Y-25859454D01*
X11760243Y-26008675D01*
X11760241Y-26008680D01*
X11705094Y-26175102D01*
X11705093Y-26175109D01*
X11694600Y-26277813D01*
X500500Y-26277813D01*
X500500Y-24756813D01*
X101154600Y-24756813D01*
X101154600Y-24806800D01*
X104154600Y-24806800D01*
X104154600Y-24056800D01*
X101854628Y-24056800D01*
X101854612Y-24056801D01*
X101751902Y-24067294D01*
X101585480Y-24122441D01*
X101585475Y-24122443D01*
X101436254Y-24214484D01*
X101312284Y-24338454D01*
X101220243Y-24487675D01*
X101220241Y-24487680D01*
X101165094Y-24654102D01*
X101165093Y-24654109D01*
X101154600Y-24756813D01*
X500500Y-24756813D01*
X500500Y-19878711D01*
X2649500Y-19878711D01*
X2649500Y-20121288D01*
X2671672Y-20289710D01*
X2681162Y-20361789D01*
X2708978Y-20465599D01*
X2743947Y-20596104D01*
X2836773Y-20820205D01*
X2836776Y-20820212D01*
X2958064Y-21030289D01*
X2958066Y-21030292D01*
X2958067Y-21030293D01*
X3105733Y-21222736D01*
X3105739Y-21222743D01*
X3277256Y-21394260D01*
X3277262Y-21394265D01*
X3469711Y-21541936D01*
X3679788Y-21663224D01*
X3903900Y-21756054D01*
X4138211Y-21818838D01*
X4318586Y-21842584D01*
X4378711Y-21850500D01*
X4378712Y-21850500D01*
X4621289Y-21850500D01*
X4669388Y-21844167D01*
X4861789Y-21818838D01*
X5096100Y-21756054D01*
X5320212Y-21663224D01*
X5468200Y-21577783D01*
X10694100Y-21577783D01*
X10694100Y-22777801D01*
X10694101Y-22777818D01*
X10704600Y-22880596D01*
X10704601Y-22880599D01*
X10759785Y-23047131D01*
X10759786Y-23047134D01*
X10851888Y-23196456D01*
X10975944Y-23320512D01*
X11125266Y-23412614D01*
X11291803Y-23467799D01*
X11394591Y-23478300D01*
X11955980Y-23478299D01*
X12023017Y-23497983D01*
X12068772Y-23550787D01*
X12078716Y-23619946D01*
X12049691Y-23683502D01*
X12021076Y-23707837D01*
X11976256Y-23735482D01*
X11852284Y-23859454D01*
X11760243Y-24008675D01*
X11760241Y-24008680D01*
X11705094Y-24175102D01*
X11705093Y-24175109D01*
X11694600Y-24277813D01*
X11694600Y-24327800D01*
X14694600Y-24327800D01*
X15194600Y-24327800D01*
X18194599Y-24327800D01*
X18194599Y-24277828D01*
X18194598Y-24277813D01*
X18184105Y-24175102D01*
X18128958Y-24008680D01*
X18128956Y-24008675D01*
X18036915Y-23859454D01*
X17912945Y-23735484D01*
X17763724Y-23643443D01*
X17763719Y-23643441D01*
X17597297Y-23588294D01*
X17597290Y-23588293D01*
X17494586Y-23577800D01*
X15194600Y-23577800D01*
X15194600Y-24327800D01*
X14694600Y-24327800D01*
X14694600Y-23577800D01*
X14433363Y-23577800D01*
X14366324Y-23558115D01*
X14320569Y-23505311D01*
X14310625Y-23436153D01*
X14339650Y-23372597D01*
X14368267Y-23348261D01*
X14413256Y-23320512D01*
X14537312Y-23196456D01*
X14629414Y-23047134D01*
X14684599Y-22880597D01*
X14695100Y-22777809D01*
X14695099Y-21577792D01*
X14684599Y-21475003D01*
X14629414Y-21308466D01*
X14537312Y-21159144D01*
X14413256Y-21035088D01*
X14278759Y-20952130D01*
X14263936Y-20942987D01*
X14263931Y-20942985D01*
X14262462Y-20942498D01*
X14097397Y-20887801D01*
X14097395Y-20887800D01*
X13994610Y-20877300D01*
X11394598Y-20877300D01*
X11394581Y-20877301D01*
X11291803Y-20887800D01*
X11291800Y-20887801D01*
X11125268Y-20942985D01*
X11125263Y-20942987D01*
X10975942Y-21035089D01*
X10851889Y-21159142D01*
X10759787Y-21308463D01*
X10759786Y-21308466D01*
X10704601Y-21475003D01*
X10704601Y-21475004D01*
X10704600Y-21475004D01*
X10694100Y-21577783D01*
X5468200Y-21577783D01*
X5530289Y-21541936D01*
X5588085Y-21497587D01*
X5615883Y-21476258D01*
X5686611Y-21421986D01*
X5722738Y-21394265D01*
X5894265Y-21222738D01*
X6041936Y-21030289D01*
X6163224Y-20820212D01*
X6256054Y-20596100D01*
X6318838Y-20361789D01*
X6350500Y-20121288D01*
X6350500Y-19878712D01*
X6318838Y-19638211D01*
X6256054Y-19403900D01*
X6163224Y-19179788D01*
X6041936Y-18969711D01*
X5965728Y-18870394D01*
X5894266Y-18777263D01*
X5894260Y-18777256D01*
X5722743Y-18605739D01*
X5722736Y-18605733D01*
X5530293Y-18458067D01*
X5530292Y-18458066D01*
X5530289Y-18458064D01*
X5320212Y-18336776D01*
X5320205Y-18336773D01*
X5096104Y-18243947D01*
X4861785Y-18181161D01*
X4621289Y-18149500D01*
X4621288Y-18149500D01*
X4378712Y-18149500D01*
X4378711Y-18149500D01*
X4138214Y-18181161D01*
X3903895Y-18243947D01*
X3679794Y-18336773D01*
X3679785Y-18336777D01*
X3469706Y-18458067D01*
X3277263Y-18605733D01*
X3277256Y-18605739D01*
X3105739Y-18777256D01*
X3105733Y-18777263D01*
X2958067Y-18969706D01*
X2836777Y-19179785D01*
X2836773Y-19179794D01*
X2743947Y-19403895D01*
X2681161Y-19638214D01*
X2649500Y-19878711D01*
X500500Y-19878711D01*
X500500Y-14531582D01*
X3597001Y-14531582D01*
X3603408Y-14602102D01*
X3603409Y-14602107D01*
X3653981Y-14764396D01*
X3741927Y-14909877D01*
X3862122Y-15030072D01*
X4007604Y-15118019D01*
X4007603Y-15118019D01*
X4169894Y-15168590D01*
X4169892Y-15168590D01*
X4240418Y-15174999D01*
X4822000Y-15174999D01*
X4903581Y-15174999D01*
X4974102Y-15168591D01*
X4974107Y-15168590D01*
X5136396Y-15118018D01*
X5281877Y-15030072D01*
X5402072Y-14909877D01*
X5481883Y-14777855D01*
X5533411Y-14730667D01*
X5602270Y-14718829D01*
X5666599Y-14746098D01*
X5694117Y-14777855D01*
X5773927Y-14909877D01*
X5894122Y-15030072D01*
X6039604Y-15118019D01*
X6039603Y-15118019D01*
X6201894Y-15168590D01*
X6201892Y-15168590D01*
X6272418Y-15174999D01*
X6854000Y-15174999D01*
X6935581Y-15174999D01*
X7006102Y-15168591D01*
X7006107Y-15168590D01*
X7168396Y-15118018D01*
X7313877Y-15030072D01*
X7434071Y-14909878D01*
X7434074Y-14909874D01*
X7445883Y-14890341D01*
X7497410Y-14843153D01*
X7566270Y-14831314D01*
X7630599Y-14858582D01*
X7658117Y-14890341D01*
X7669925Y-14909874D01*
X7669928Y-14909878D01*
X7790122Y-15030072D01*
X7935604Y-15118019D01*
X7935603Y-15118019D01*
X8097894Y-15168590D01*
X8097892Y-15168590D01*
X8168418Y-15174999D01*
X8750000Y-15174999D01*
X8831581Y-15174999D01*
X8902102Y-15168591D01*
X8902107Y-15168590D01*
X9064396Y-15118018D01*
X9209877Y-15030072D01*
X9330072Y-14909877D01*
X9418019Y-14764395D01*
X9468590Y-14602106D01*
X9475000Y-14531572D01*
X9475000Y-14525000D01*
X8750000Y-14525000D01*
X8750000Y-15174999D01*
X8168418Y-15174999D01*
X8249999Y-15174998D01*
X8250000Y-15174998D01*
X8250000Y-14525000D01*
X6854000Y-14525000D01*
X6854000Y-15174999D01*
X6272418Y-15174999D01*
X6353999Y-15174998D01*
X6354000Y-15174998D01*
X6354000Y-14525000D01*
X4822000Y-14525000D01*
X4822000Y-15174999D01*
X4240418Y-15174999D01*
X4321999Y-15174998D01*
X4322000Y-15174998D01*
X4322000Y-14525000D01*
X3597001Y-14525000D01*
X3597001Y-14531582D01*
X500500Y-14531582D01*
X500500Y-4018711D01*
X3399500Y-4018711D01*
X3399500Y-4261288D01*
X3431161Y-4501785D01*
X3493947Y-4736104D01*
X3586773Y-4960205D01*
X3586776Y-4960212D01*
X3708064Y-5170289D01*
X3708066Y-5170292D01*
X3708067Y-5170293D01*
X3855733Y-5362736D01*
X3855739Y-5362743D01*
X4027256Y-5534260D01*
X4027263Y-5534266D01*
X4136012Y-5617712D01*
X4219711Y-5681936D01*
X4429788Y-5803224D01*
X4653900Y-5896054D01*
X4888211Y-5958838D01*
X5068586Y-5982584D01*
X5128711Y-5990500D01*
X5128712Y-5990500D01*
X5371289Y-5990500D01*
X5419388Y-5984167D01*
X5611789Y-5958838D01*
X5846100Y-5896054D01*
X6070212Y-5803224D01*
X6280289Y-5681936D01*
X6472738Y-5534265D01*
X6644265Y-5362738D01*
X6791936Y-5170289D01*
X6913224Y-4960212D01*
X7006054Y-4736100D01*
X7068838Y-4501789D01*
X7100500Y-4261288D01*
X7100500Y-4018712D01*
X7068838Y-3778211D01*
X7006054Y-3543900D01*
X6913224Y-3319788D01*
X6791936Y-3109711D01*
X6644265Y-2917262D01*
X6644260Y-2917256D01*
X6472743Y-2745739D01*
X6472736Y-2745733D01*
X6280293Y-2598067D01*
X6280292Y-2598066D01*
X6280289Y-2598064D01*
X6070212Y-2476776D01*
X6070205Y-2476773D01*
X5846104Y-2383947D01*
X5652610Y-2332100D01*
X5611789Y-2321162D01*
X5611788Y-2321161D01*
X5611785Y-2321161D01*
X5371289Y-2289500D01*
X5371288Y-2289500D01*
X5128712Y-2289500D01*
X5128711Y-2289500D01*
X4888214Y-2321161D01*
X4653895Y-2383947D01*
X4429794Y-2476773D01*
X4429785Y-2476777D01*
X4219706Y-2598067D01*
X4027263Y-2745733D01*
X4027256Y-2745739D01*
X3855739Y-2917256D01*
X3855733Y-2917263D01*
X3708067Y-3109706D01*
X3586777Y-3319785D01*
X3586773Y-3319794D01*
X3493947Y-3543895D01*
X3431161Y-3778214D01*
X3399500Y-4018711D01*
X500500Y-4018711D01*
X500500Y-2004427D01*
X500816Y-1995581D01*
X515130Y-1795443D01*
X515131Y-1795434D01*
X517646Y-1777938D01*
X559356Y-1586200D01*
X564335Y-1569242D01*
X632911Y-1385382D01*
X640251Y-1369310D01*
X734294Y-1197083D01*
X743850Y-1182214D01*
X861443Y-1025128D01*
X873017Y-1011771D01*
X1011771Y-873017D01*
X1025128Y-861443D01*
X1182214Y-743850D01*
X1197083Y-734294D01*
X1369310Y-640251D01*
X1385382Y-632911D01*
X1569242Y-564335D01*
X1586200Y-559356D01*
X1777938Y-517646D01*
X1795436Y-515130D01*
X1995582Y-500816D01*
X2004428Y-500500D01*
X2065892Y-500500D01*
X39298343Y-500500D01*
X39365382Y-520185D01*
G37*
%TD.AperFunction*%
%TA.AperFunction,Conductor*%
G36*
X26842539Y-3668185D02*
G01*
X26888294Y-3720989D01*
X26899500Y-3772500D01*
X26899500Y-5500397D01*
X26879815Y-5567436D01*
X26831800Y-5610879D01*
X26818389Y-5617712D01*
X26652786Y-5738028D01*
X26652782Y-5738032D01*
X26587681Y-5803134D01*
X26526358Y-5836619D01*
X26456666Y-5831635D01*
X26412319Y-5803134D01*
X26347213Y-5738028D01*
X26181613Y-5617715D01*
X26181612Y-5617714D01*
X26181610Y-5617713D01*
X26124653Y-5588691D01*
X25999223Y-5524781D01*
X25804534Y-5461522D01*
X25629995Y-5433878D01*
X25602352Y-5429500D01*
X25397648Y-5429500D01*
X25373329Y-5433351D01*
X25195465Y-5461522D01*
X25000776Y-5524781D01*
X24818386Y-5617715D01*
X24652786Y-5738028D01*
X24652782Y-5738032D01*
X24587681Y-5803134D01*
X24526358Y-5836619D01*
X24456666Y-5831635D01*
X24412319Y-5803134D01*
X24347213Y-5738028D01*
X24181613Y-5617715D01*
X24181612Y-5617714D01*
X24181610Y-5617713D01*
X24124653Y-5588691D01*
X23999223Y-5524781D01*
X23804534Y-5461522D01*
X23629995Y-5433878D01*
X23602352Y-5429500D01*
X23397648Y-5429500D01*
X23373329Y-5433351D01*
X23195465Y-5461522D01*
X23000776Y-5524781D01*
X22818386Y-5617715D01*
X22652786Y-5738028D01*
X22652782Y-5738032D01*
X22587681Y-5803134D01*
X22526358Y-5836619D01*
X22456666Y-5831635D01*
X22412319Y-5803134D01*
X22347213Y-5738028D01*
X22181613Y-5617715D01*
X22181612Y-5617714D01*
X22181610Y-5617713D01*
X22124653Y-5588691D01*
X21999223Y-5524781D01*
X21804534Y-5461522D01*
X21629995Y-5433878D01*
X21602352Y-5429500D01*
X21397648Y-5429500D01*
X21373329Y-5433351D01*
X21195465Y-5461522D01*
X21000776Y-5524781D01*
X20818386Y-5617715D01*
X20652786Y-5738028D01*
X20508028Y-5882786D01*
X20387715Y-6048386D01*
X20294781Y-6230776D01*
X20231522Y-6425465D01*
X20199500Y-6627648D01*
X20199500Y-6832351D01*
X20231522Y-7034534D01*
X20236173Y-7048848D01*
X20238165Y-7118690D01*
X20205921Y-7174842D01*
X18631286Y-8749478D01*
X18519481Y-8861282D01*
X18519475Y-8861290D01*
X18477587Y-8933844D01*
X18477587Y-8933845D01*
X18440423Y-8998215D01*
X18399499Y-9150943D01*
X18399499Y-9150945D01*
X18399499Y-9319046D01*
X18399500Y-9319059D01*
X18399500Y-11733284D01*
X18379815Y-11800323D01*
X18339652Y-11839400D01*
X18289811Y-11869530D01*
X18169530Y-11989811D01*
X18081522Y-12135393D01*
X18030913Y-12297807D01*
X18024500Y-12368386D01*
X18024500Y-12881613D01*
X18030913Y-12952192D01*
X18030913Y-12952194D01*
X18030914Y-12952196D01*
X18081522Y-13114606D01*
X18158116Y-13241308D01*
X18169530Y-13260188D01*
X18272015Y-13362673D01*
X18305500Y-13423996D01*
X18300516Y-13493688D01*
X18272015Y-13538035D01*
X18169928Y-13640121D01*
X18169927Y-13640122D01*
X18081980Y-13785604D01*
X18031409Y-13947893D01*
X18025000Y-14018427D01*
X18025000Y-14025000D01*
X23474999Y-14025000D01*
X23474999Y-14018417D01*
X23468591Y-13947897D01*
X23468590Y-13947892D01*
X23418018Y-13785603D01*
X23330072Y-13640122D01*
X23227984Y-13538034D01*
X23194499Y-13476711D01*
X23199483Y-13407019D01*
X23227983Y-13362673D01*
X23330472Y-13260185D01*
X23418478Y-13114606D01*
X23469086Y-12952196D01*
X23475500Y-12881616D01*
X23475500Y-12368384D01*
X23469086Y-12297804D01*
X23418478Y-12135394D01*
X23330472Y-11989815D01*
X23330470Y-11989813D01*
X23330469Y-11989811D01*
X23210188Y-11869530D01*
X23160348Y-11839400D01*
X23113162Y-11787871D01*
X23100500Y-11733284D01*
X23100500Y-10499601D01*
X23120185Y-10432562D01*
X23168206Y-10389116D01*
X23181610Y-10382287D01*
X23347219Y-10261966D01*
X23412319Y-10196866D01*
X23473642Y-10163381D01*
X23543334Y-10168365D01*
X23587681Y-10196866D01*
X23652786Y-10261971D01*
X23807749Y-10374556D01*
X23818390Y-10382287D01*
X23899499Y-10423614D01*
X24000776Y-10475218D01*
X24000778Y-10475218D01*
X24000781Y-10475220D01*
X24075818Y-10499601D01*
X24195465Y-10538477D01*
X24296557Y-10554488D01*
X24397648Y-10570500D01*
X24397649Y-10570500D01*
X24602351Y-10570500D01*
X24602352Y-10570500D01*
X24804534Y-10538477D01*
X24999219Y-10475220D01*
X25181610Y-10382287D01*
X25282417Y-10309047D01*
X25347213Y-10261971D01*
X25347215Y-10261968D01*
X25347219Y-10261966D01*
X25412319Y-10196866D01*
X25473642Y-10163381D01*
X25543334Y-10168365D01*
X25587681Y-10196866D01*
X25652786Y-10261971D01*
X25807749Y-10374556D01*
X25818390Y-10382287D01*
X25899499Y-10423614D01*
X26000776Y-10475218D01*
X26000778Y-10475218D01*
X26000781Y-10475220D01*
X26075818Y-10499601D01*
X26195465Y-10538477D01*
X26296557Y-10554488D01*
X26397648Y-10570500D01*
X26397649Y-10570500D01*
X26602351Y-10570500D01*
X26602352Y-10570500D01*
X26804534Y-10538477D01*
X26999219Y-10475220D01*
X27181610Y-10382287D01*
X27282417Y-10309047D01*
X27347213Y-10261971D01*
X27347215Y-10261968D01*
X27347219Y-10261966D01*
X27412319Y-10196866D01*
X27473642Y-10163381D01*
X27543334Y-10168365D01*
X27587681Y-10196866D01*
X27652781Y-10261966D01*
X27818390Y-10382287D01*
X27831793Y-10389116D01*
X27882589Y-10437088D01*
X27899500Y-10499601D01*
X27899500Y-13427330D01*
X27899499Y-13427348D01*
X27899499Y-13593054D01*
X27899498Y-13593054D01*
X27899499Y-13593057D01*
X27933161Y-13718685D01*
X27940424Y-13745787D01*
X27941163Y-13747066D01*
X27941173Y-13747104D01*
X27941182Y-13747100D01*
X28019475Y-13882709D01*
X28019481Y-13882717D01*
X28138349Y-14001585D01*
X28138355Y-14001590D01*
X30351051Y-16214286D01*
X30384536Y-16275609D01*
X30379552Y-16345301D01*
X30337680Y-16401234D01*
X30272216Y-16425651D01*
X30263370Y-16425967D01*
X17478964Y-16425967D01*
X17411925Y-16406282D01*
X17391283Y-16389648D01*
X15533217Y-14531582D01*
X18025001Y-14531582D01*
X18031408Y-14602102D01*
X18031409Y-14602107D01*
X18081981Y-14764396D01*
X18169927Y-14909877D01*
X18290122Y-15030072D01*
X18435604Y-15118019D01*
X18435603Y-15118019D01*
X18597894Y-15168590D01*
X18597892Y-15168590D01*
X18668418Y-15174999D01*
X19250000Y-15174999D01*
X19331581Y-15174999D01*
X19402102Y-15168591D01*
X19402107Y-15168590D01*
X19564396Y-15118018D01*
X19709875Y-15030073D01*
X19826318Y-14913630D01*
X19887641Y-14880145D01*
X19957333Y-14885129D01*
X20001682Y-14913630D01*
X20118124Y-15030073D01*
X20263604Y-15118019D01*
X20263603Y-15118019D01*
X20425894Y-15168590D01*
X20425892Y-15168590D01*
X20496418Y-15174999D01*
X21078000Y-15174999D01*
X21159581Y-15174999D01*
X21230102Y-15168591D01*
X21230107Y-15168590D01*
X21392396Y-15118018D01*
X21537877Y-15030072D01*
X21537878Y-15030071D01*
X21576319Y-14991631D01*
X21637642Y-14958146D01*
X21707334Y-14963130D01*
X21751681Y-14991631D01*
X21790122Y-15030072D01*
X21935604Y-15118019D01*
X21935603Y-15118019D01*
X22097894Y-15168590D01*
X22097892Y-15168590D01*
X22168418Y-15174999D01*
X22750000Y-15174999D01*
X22831581Y-15174999D01*
X22902102Y-15168591D01*
X22902107Y-15168590D01*
X23064396Y-15118018D01*
X23209877Y-15030072D01*
X23330072Y-14909877D01*
X23418019Y-14764395D01*
X23468590Y-14602106D01*
X23475000Y-14531572D01*
X23475000Y-14525000D01*
X22750000Y-14525000D01*
X22750000Y-15174999D01*
X22168418Y-15174999D01*
X22249999Y-15174998D01*
X22250000Y-15174998D01*
X22250000Y-14525000D01*
X21078000Y-14525000D01*
X21078000Y-15174999D01*
X20496418Y-15174999D01*
X20577999Y-15174998D01*
X20578000Y-15174998D01*
X20578000Y-14525000D01*
X19250000Y-14525000D01*
X19250000Y-15174999D01*
X18668418Y-15174999D01*
X18749999Y-15174998D01*
X18750000Y-15174998D01*
X18750000Y-14525000D01*
X18025001Y-14525000D01*
X18025001Y-14531582D01*
X15533217Y-14531582D01*
X15136819Y-14135184D01*
X15103334Y-14073861D01*
X15100500Y-14047503D01*
X15100500Y-10499601D01*
X15120185Y-10432562D01*
X15168206Y-10389116D01*
X15181610Y-10382287D01*
X15347219Y-10261966D01*
X15491966Y-10117219D01*
X15491968Y-10117215D01*
X15491971Y-10117213D01*
X15566934Y-10014033D01*
X15612287Y-9951610D01*
X15705220Y-9769219D01*
X15768477Y-9574534D01*
X15800500Y-9372352D01*
X15800500Y-9167648D01*
X15796345Y-9141416D01*
X15768477Y-8965465D01*
X15705218Y-8770776D01*
X15671503Y-8704607D01*
X15612287Y-8588390D01*
X15604556Y-8577749D01*
X15491971Y-8422786D01*
X15347213Y-8278028D01*
X15181613Y-8157715D01*
X15181612Y-8157714D01*
X15181610Y-8157713D01*
X15124653Y-8128691D01*
X14999223Y-8064781D01*
X14804534Y-8001522D01*
X14607693Y-7970346D01*
X14602352Y-7969500D01*
X14397648Y-7969500D01*
X14397641Y-7969500D01*
X14397310Y-7969526D01*
X14397186Y-7969500D01*
X14392776Y-7969500D01*
X14392776Y-7968573D01*
X14328933Y-7955158D01*
X14279179Y-7906104D01*
X14263844Y-7837938D01*
X14287797Y-7772302D01*
X14314702Y-7745590D01*
X14347219Y-7721966D01*
X14491966Y-7577219D01*
X14491968Y-7577215D01*
X14491971Y-7577213D01*
X14544732Y-7504590D01*
X14612287Y-7411610D01*
X14705220Y-7229219D01*
X14768477Y-7034534D01*
X14800500Y-6832352D01*
X14800500Y-6627648D01*
X14768477Y-6425466D01*
X14763825Y-6411151D01*
X14761832Y-6341312D01*
X14794075Y-6285158D01*
X17394416Y-3684819D01*
X17455739Y-3651334D01*
X17482097Y-3648500D01*
X26775500Y-3648500D01*
X26842539Y-3668185D01*
G37*
%TD.AperFunction*%
%TA.AperFunction,Conductor*%
G36*
X40842539Y-3668185D02*
G01*
X40888294Y-3720989D01*
X40899500Y-3772500D01*
X40899500Y-5500397D01*
X40879815Y-5567436D01*
X40831800Y-5610879D01*
X40818389Y-5617712D01*
X40652786Y-5738028D01*
X40652782Y-5738032D01*
X40587681Y-5803134D01*
X40526358Y-5836619D01*
X40456666Y-5831635D01*
X40412319Y-5803134D01*
X40347213Y-5738028D01*
X40181613Y-5617715D01*
X40181612Y-5617714D01*
X40181610Y-5617713D01*
X40124653Y-5588691D01*
X39999223Y-5524781D01*
X39804534Y-5461522D01*
X39629995Y-5433878D01*
X39602352Y-5429500D01*
X39397648Y-5429500D01*
X39373329Y-5433351D01*
X39195465Y-5461522D01*
X39000776Y-5524781D01*
X38818386Y-5617715D01*
X38652786Y-5738028D01*
X38652782Y-5738032D01*
X38587681Y-5803134D01*
X38526358Y-5836619D01*
X38456666Y-5831635D01*
X38412319Y-5803134D01*
X38347213Y-5738028D01*
X38181613Y-5617715D01*
X38181612Y-5617714D01*
X38181610Y-5617713D01*
X38124653Y-5588691D01*
X37999223Y-5524781D01*
X37804534Y-5461522D01*
X37629995Y-5433878D01*
X37602352Y-5429500D01*
X37397648Y-5429500D01*
X37373329Y-5433351D01*
X37195465Y-5461522D01*
X37000776Y-5524781D01*
X36818386Y-5617715D01*
X36652786Y-5738028D01*
X36652782Y-5738032D01*
X36587681Y-5803134D01*
X36526358Y-5836619D01*
X36456666Y-5831635D01*
X36412319Y-5803134D01*
X36347213Y-5738028D01*
X36181613Y-5617715D01*
X36181612Y-5617714D01*
X36181610Y-5617713D01*
X36124653Y-5588691D01*
X35999223Y-5524781D01*
X35804534Y-5461522D01*
X35629995Y-5433878D01*
X35602352Y-5429500D01*
X35397648Y-5429500D01*
X35373329Y-5433351D01*
X35195465Y-5461522D01*
X35000776Y-5524781D01*
X34818386Y-5617715D01*
X34652786Y-5738028D01*
X34508028Y-5882786D01*
X34387715Y-6048386D01*
X34294781Y-6230776D01*
X34231522Y-6425465D01*
X34199500Y-6627648D01*
X34199500Y-6832351D01*
X34231523Y-7034535D01*
X34236172Y-7048845D01*
X34238165Y-7118687D01*
X34205921Y-7174841D01*
X32710364Y-8670399D01*
X32710357Y-8670406D01*
X32707286Y-8673478D01*
X32707284Y-8673480D01*
X32595480Y-8785284D01*
X32571518Y-8826788D01*
X32516423Y-8922215D01*
X32475499Y-9074943D01*
X32475499Y-9074945D01*
X32475499Y-9243046D01*
X32475500Y-9243059D01*
X32475500Y-11733284D01*
X32455815Y-11800323D01*
X32415652Y-11839400D01*
X32365811Y-11869530D01*
X32245530Y-11989811D01*
X32157522Y-12135393D01*
X32106913Y-12297807D01*
X32100500Y-12368386D01*
X32100500Y-12881613D01*
X32106913Y-12952192D01*
X32106913Y-12952194D01*
X32106914Y-12952196D01*
X32157522Y-13114606D01*
X32234116Y-13241308D01*
X32245530Y-13260188D01*
X32348015Y-13362673D01*
X32381500Y-13423996D01*
X32376516Y-13493688D01*
X32348015Y-13538035D01*
X32245928Y-13640121D01*
X32245927Y-13640122D01*
X32157980Y-13785604D01*
X32107409Y-13947893D01*
X32101000Y-14018427D01*
X32101000Y-14025000D01*
X37474999Y-14025000D01*
X37474999Y-14018417D01*
X37468591Y-13947897D01*
X37468590Y-13947892D01*
X37418018Y-13785603D01*
X37330072Y-13640122D01*
X37227984Y-13538034D01*
X37194499Y-13476711D01*
X37199483Y-13407019D01*
X37227983Y-13362673D01*
X37330472Y-13260185D01*
X37418478Y-13114606D01*
X37469086Y-12952196D01*
X37475500Y-12881616D01*
X37475500Y-12368384D01*
X37469086Y-12297804D01*
X37418478Y-12135394D01*
X37330472Y-11989815D01*
X37330470Y-11989813D01*
X37330469Y-11989811D01*
X37210188Y-11869530D01*
X37160348Y-11839400D01*
X37113162Y-11787871D01*
X37100500Y-11733284D01*
X37100500Y-10499601D01*
X37120185Y-10432562D01*
X37168206Y-10389116D01*
X37181610Y-10382287D01*
X37347219Y-10261966D01*
X37412319Y-10196866D01*
X37473642Y-10163381D01*
X37543334Y-10168365D01*
X37587681Y-10196866D01*
X37652786Y-10261971D01*
X37807749Y-10374556D01*
X37818390Y-10382287D01*
X37899499Y-10423614D01*
X38000776Y-10475218D01*
X38000778Y-10475218D01*
X38000781Y-10475220D01*
X38075818Y-10499601D01*
X38195465Y-10538477D01*
X38296557Y-10554488D01*
X38397648Y-10570500D01*
X38397649Y-10570500D01*
X38602351Y-10570500D01*
X38602352Y-10570500D01*
X38804534Y-10538477D01*
X38999219Y-10475220D01*
X39181610Y-10382287D01*
X39282417Y-10309047D01*
X39347213Y-10261971D01*
X39347215Y-10261968D01*
X39347219Y-10261966D01*
X39412319Y-10196866D01*
X39473642Y-10163381D01*
X39543334Y-10168365D01*
X39587681Y-10196866D01*
X39652786Y-10261971D01*
X39807749Y-10374556D01*
X39818390Y-10382287D01*
X39899499Y-10423614D01*
X40000776Y-10475218D01*
X40000778Y-10475218D01*
X40000781Y-10475220D01*
X40075818Y-10499601D01*
X40195465Y-10538477D01*
X40296557Y-10554488D01*
X40397648Y-10570500D01*
X40397649Y-10570500D01*
X40602351Y-10570500D01*
X40602352Y-10570500D01*
X40804534Y-10538477D01*
X40999219Y-10475220D01*
X41181610Y-10382287D01*
X41282417Y-10309047D01*
X41347213Y-10261971D01*
X41347215Y-10261968D01*
X41347219Y-10261966D01*
X41412319Y-10196866D01*
X41473642Y-10163381D01*
X41543334Y-10168365D01*
X41587681Y-10196866D01*
X41652786Y-10261971D01*
X41807749Y-10374556D01*
X41818390Y-10382287D01*
X41899499Y-10423614D01*
X42000776Y-10475218D01*
X42000778Y-10475218D01*
X42000781Y-10475220D01*
X42075818Y-10499601D01*
X42195465Y-10538477D01*
X42296557Y-10554488D01*
X42397648Y-10570500D01*
X42397649Y-10570500D01*
X42602351Y-10570500D01*
X42602352Y-10570500D01*
X42804534Y-10538477D01*
X42999219Y-10475220D01*
X43181610Y-10382287D01*
X43282417Y-10309047D01*
X43347213Y-10261971D01*
X43347215Y-10261968D01*
X43347219Y-10261966D01*
X43491966Y-10117219D01*
X43491968Y-10117215D01*
X43491971Y-10117213D01*
X43566934Y-10014033D01*
X43612287Y-9951610D01*
X43705220Y-9769219D01*
X43768477Y-9574534D01*
X43800500Y-9372352D01*
X43800500Y-9167648D01*
X43796345Y-9141416D01*
X43768477Y-8965465D01*
X43705218Y-8770776D01*
X43671503Y-8704607D01*
X43612287Y-8588390D01*
X43604556Y-8577749D01*
X43491971Y-8422786D01*
X43347213Y-8278028D01*
X43181613Y-8157715D01*
X43181612Y-8157714D01*
X43181610Y-8157713D01*
X43124653Y-8128691D01*
X42999223Y-8064781D01*
X42804534Y-8001522D01*
X42607693Y-7970346D01*
X42602352Y-7969500D01*
X42397648Y-7969500D01*
X42397641Y-7969500D01*
X42397310Y-7969526D01*
X42397186Y-7969500D01*
X42392776Y-7969500D01*
X42392776Y-7968573D01*
X42328933Y-7955158D01*
X42279179Y-7906104D01*
X42263844Y-7837938D01*
X42287797Y-7772302D01*
X42314702Y-7745590D01*
X42347219Y-7721966D01*
X42491966Y-7577219D01*
X42491968Y-7577215D01*
X42491971Y-7577213D01*
X42544732Y-7504590D01*
X42612287Y-7411610D01*
X42705220Y-7229219D01*
X42768477Y-7034534D01*
X42800500Y-6832352D01*
X42800500Y-6627648D01*
X42768477Y-6425466D01*
X42705220Y-6230781D01*
X42705218Y-6230778D01*
X42705218Y-6230776D01*
X42671503Y-6164607D01*
X42612287Y-6048390D01*
X42570228Y-5990500D01*
X42491971Y-5882786D01*
X42347213Y-5738028D01*
X42181610Y-5617712D01*
X42168200Y-5610879D01*
X42117406Y-5562903D01*
X42100500Y-5500397D01*
X42100500Y-3772500D01*
X42120185Y-3705461D01*
X42172989Y-3659706D01*
X42224500Y-3648500D01*
X54775500Y-3648500D01*
X54842539Y-3668185D01*
X54888294Y-3720989D01*
X54899500Y-3772500D01*
X54899500Y-5500397D01*
X54879815Y-5567436D01*
X54831800Y-5610879D01*
X54818389Y-5617712D01*
X54652786Y-5738028D01*
X54652782Y-5738032D01*
X54587681Y-5803134D01*
X54526358Y-5836619D01*
X54456666Y-5831635D01*
X54412319Y-5803134D01*
X54347213Y-5738028D01*
X54181613Y-5617715D01*
X54181612Y-5617714D01*
X54181610Y-5617713D01*
X54124653Y-5588691D01*
X53999223Y-5524781D01*
X53804534Y-5461522D01*
X53629995Y-5433878D01*
X53602352Y-5429500D01*
X53397648Y-5429500D01*
X53373329Y-5433351D01*
X53195465Y-5461522D01*
X53000776Y-5524781D01*
X52818386Y-5617715D01*
X52652786Y-5738028D01*
X52652782Y-5738032D01*
X52587681Y-5803134D01*
X52526358Y-5836619D01*
X52456666Y-5831635D01*
X52412319Y-5803134D01*
X52347213Y-5738028D01*
X52181613Y-5617715D01*
X52181612Y-5617714D01*
X52181610Y-5617713D01*
X52124653Y-5588691D01*
X51999223Y-5524781D01*
X51804534Y-5461522D01*
X51629995Y-5433878D01*
X51602352Y-5429500D01*
X51397648Y-5429500D01*
X51373329Y-5433351D01*
X51195465Y-5461522D01*
X51000776Y-5524781D01*
X50818386Y-5617715D01*
X50652786Y-5738028D01*
X50652782Y-5738032D01*
X50587681Y-5803134D01*
X50526358Y-5836619D01*
X50456666Y-5831635D01*
X50412319Y-5803134D01*
X50347213Y-5738028D01*
X50181613Y-5617715D01*
X50181612Y-5617714D01*
X50181610Y-5617713D01*
X50124653Y-5588691D01*
X49999223Y-5524781D01*
X49804534Y-5461522D01*
X49629995Y-5433878D01*
X49602352Y-5429500D01*
X49397648Y-5429500D01*
X49373329Y-5433351D01*
X49195465Y-5461522D01*
X49000776Y-5524781D01*
X48818386Y-5617715D01*
X48652786Y-5738028D01*
X48508028Y-5882786D01*
X48387715Y-6048386D01*
X48294781Y-6230776D01*
X48231522Y-6425465D01*
X48199500Y-6627648D01*
X48199500Y-6832351D01*
X48231522Y-7034534D01*
X48236173Y-7048848D01*
X48238165Y-7118690D01*
X48205921Y-7174842D01*
X46631286Y-8749478D01*
X46519481Y-8861282D01*
X46519475Y-8861290D01*
X46477587Y-8933844D01*
X46477587Y-8933845D01*
X46440423Y-8998215D01*
X46399499Y-9150943D01*
X46399499Y-9150945D01*
X46399499Y-9319046D01*
X46399500Y-9319059D01*
X46399500Y-11733284D01*
X46379815Y-11800323D01*
X46339652Y-11839400D01*
X46289811Y-11869530D01*
X46169530Y-11989811D01*
X46081522Y-12135393D01*
X46030913Y-12297807D01*
X46024500Y-12368386D01*
X46024500Y-12881613D01*
X46030913Y-12952192D01*
X46030913Y-12952194D01*
X46030914Y-12952196D01*
X46081522Y-13114606D01*
X46158116Y-13241308D01*
X46169530Y-13260188D01*
X46272015Y-13362673D01*
X46305500Y-13423996D01*
X46300516Y-13493688D01*
X46272015Y-13538035D01*
X46169928Y-13640121D01*
X46169927Y-13640122D01*
X46081980Y-13785604D01*
X46031409Y-13947893D01*
X46025000Y-14018427D01*
X46025000Y-14025000D01*
X51474999Y-14025000D01*
X51474999Y-14018417D01*
X51468591Y-13947897D01*
X51468590Y-13947892D01*
X51418018Y-13785603D01*
X51330072Y-13640122D01*
X51227984Y-13538034D01*
X51194499Y-13476711D01*
X51199483Y-13407019D01*
X51227983Y-13362673D01*
X51330472Y-13260185D01*
X51418478Y-13114606D01*
X51469086Y-12952196D01*
X51475500Y-12881616D01*
X51475500Y-12368384D01*
X51469086Y-12297804D01*
X51418478Y-12135394D01*
X51330472Y-11989815D01*
X51330470Y-11989813D01*
X51330469Y-11989811D01*
X51210188Y-11869530D01*
X51160348Y-11839400D01*
X51113162Y-11787871D01*
X51100500Y-11733284D01*
X51100500Y-10499601D01*
X51120185Y-10432562D01*
X51168206Y-10389116D01*
X51181610Y-10382287D01*
X51347219Y-10261966D01*
X51412319Y-10196866D01*
X51473642Y-10163381D01*
X51543334Y-10168365D01*
X51587681Y-10196866D01*
X51652786Y-10261971D01*
X51807749Y-10374556D01*
X51818390Y-10382287D01*
X51899499Y-10423614D01*
X52000776Y-10475218D01*
X52000778Y-10475218D01*
X52000781Y-10475220D01*
X52075818Y-10499601D01*
X52195465Y-10538477D01*
X52296557Y-10554488D01*
X52397648Y-10570500D01*
X52397649Y-10570500D01*
X52602351Y-10570500D01*
X52602352Y-10570500D01*
X52804534Y-10538477D01*
X52999219Y-10475220D01*
X53181610Y-10382287D01*
X53282417Y-10309047D01*
X53347213Y-10261971D01*
X53347215Y-10261968D01*
X53347219Y-10261966D01*
X53412319Y-10196866D01*
X53473642Y-10163381D01*
X53543334Y-10168365D01*
X53587681Y-10196866D01*
X53652786Y-10261971D01*
X53807749Y-10374556D01*
X53818390Y-10382287D01*
X53899499Y-10423614D01*
X54000776Y-10475218D01*
X54000778Y-10475218D01*
X54000781Y-10475220D01*
X54075818Y-10499601D01*
X54195465Y-10538477D01*
X54296557Y-10554488D01*
X54397648Y-10570500D01*
X54397649Y-10570500D01*
X54602351Y-10570500D01*
X54602352Y-10570500D01*
X54804534Y-10538477D01*
X54999219Y-10475220D01*
X55181610Y-10382287D01*
X55282417Y-10309047D01*
X55347213Y-10261971D01*
X55347215Y-10261968D01*
X55347219Y-10261966D01*
X55412319Y-10196866D01*
X55473642Y-10163381D01*
X55543334Y-10168365D01*
X55587681Y-10196866D01*
X55652786Y-10261971D01*
X55807749Y-10374556D01*
X55818390Y-10382287D01*
X55899499Y-10423614D01*
X56000776Y-10475218D01*
X56000778Y-10475218D01*
X56000781Y-10475220D01*
X56075818Y-10499601D01*
X56195465Y-10538477D01*
X56296557Y-10554488D01*
X56397648Y-10570500D01*
X56397649Y-10570500D01*
X56602351Y-10570500D01*
X56602352Y-10570500D01*
X56804534Y-10538477D01*
X56999219Y-10475220D01*
X57181610Y-10382287D01*
X57282417Y-10309047D01*
X57347213Y-10261971D01*
X57347215Y-10261968D01*
X57347219Y-10261966D01*
X57491966Y-10117219D01*
X57491968Y-10117215D01*
X57491971Y-10117213D01*
X57566934Y-10014033D01*
X57612287Y-9951610D01*
X57705220Y-9769219D01*
X57768477Y-9574534D01*
X57800500Y-9372352D01*
X57800500Y-9167648D01*
X57796345Y-9141416D01*
X57768477Y-8965465D01*
X57705218Y-8770776D01*
X57671503Y-8704607D01*
X57612287Y-8588390D01*
X57604556Y-8577749D01*
X57491971Y-8422786D01*
X57347213Y-8278028D01*
X57181613Y-8157715D01*
X57181612Y-8157714D01*
X57181610Y-8157713D01*
X57124653Y-8128691D01*
X56999223Y-8064781D01*
X56804534Y-8001522D01*
X56607693Y-7970346D01*
X56602352Y-7969500D01*
X56397648Y-7969500D01*
X56397641Y-7969500D01*
X56397310Y-7969526D01*
X56397186Y-7969500D01*
X56392776Y-7969500D01*
X56392776Y-7968573D01*
X56328933Y-7955158D01*
X56279179Y-7906104D01*
X56263844Y-7837938D01*
X56287797Y-7772302D01*
X56314702Y-7745590D01*
X56347219Y-7721966D01*
X56491966Y-7577219D01*
X56491968Y-7577215D01*
X56491971Y-7577213D01*
X56544732Y-7504590D01*
X56612287Y-7411610D01*
X56705220Y-7229219D01*
X56768477Y-7034534D01*
X56800500Y-6832352D01*
X56800500Y-6627648D01*
X56768477Y-6425466D01*
X56705220Y-6230781D01*
X56705218Y-6230778D01*
X56705218Y-6230776D01*
X56671503Y-6164607D01*
X56612287Y-6048390D01*
X56570228Y-5990500D01*
X56491971Y-5882786D01*
X56347213Y-5738028D01*
X56181610Y-5617712D01*
X56168200Y-5610879D01*
X56117406Y-5562903D01*
X56100500Y-5500397D01*
X56100500Y-3772500D01*
X56120185Y-3705461D01*
X56172989Y-3659706D01*
X56224500Y-3648500D01*
X68775500Y-3648500D01*
X68842539Y-3668185D01*
X68888294Y-3720989D01*
X68899500Y-3772500D01*
X68899500Y-5500397D01*
X68879815Y-5567436D01*
X68831800Y-5610879D01*
X68818389Y-5617712D01*
X68652786Y-5738028D01*
X68652782Y-5738032D01*
X68587681Y-5803134D01*
X68526358Y-5836619D01*
X68456666Y-5831635D01*
X68412319Y-5803134D01*
X68347213Y-5738028D01*
X68181613Y-5617715D01*
X68181612Y-5617714D01*
X68181610Y-5617713D01*
X68124653Y-5588691D01*
X67999223Y-5524781D01*
X67804534Y-5461522D01*
X67629995Y-5433878D01*
X67602352Y-5429500D01*
X67397648Y-5429500D01*
X67373329Y-5433351D01*
X67195465Y-5461522D01*
X67000776Y-5524781D01*
X66818386Y-5617715D01*
X66652786Y-5738028D01*
X66652782Y-5738032D01*
X66587681Y-5803134D01*
X66526358Y-5836619D01*
X66456666Y-5831635D01*
X66412319Y-5803134D01*
X66347213Y-5738028D01*
X66181613Y-5617715D01*
X66181612Y-5617714D01*
X66181610Y-5617713D01*
X66124653Y-5588691D01*
X65999223Y-5524781D01*
X65804534Y-5461522D01*
X65629995Y-5433878D01*
X65602352Y-5429500D01*
X65397648Y-5429500D01*
X65373329Y-5433351D01*
X65195465Y-5461522D01*
X65000776Y-5524781D01*
X64818386Y-5617715D01*
X64652786Y-5738028D01*
X64652782Y-5738032D01*
X64587681Y-5803134D01*
X64526358Y-5836619D01*
X64456666Y-5831635D01*
X64412319Y-5803134D01*
X64347213Y-5738028D01*
X64181613Y-5617715D01*
X64181612Y-5617714D01*
X64181610Y-5617713D01*
X64124653Y-5588691D01*
X63999223Y-5524781D01*
X63804534Y-5461522D01*
X63629995Y-5433878D01*
X63602352Y-5429500D01*
X63397648Y-5429500D01*
X63373329Y-5433351D01*
X63195465Y-5461522D01*
X63000776Y-5524781D01*
X62818386Y-5617715D01*
X62652786Y-5738028D01*
X62508028Y-5882786D01*
X62387715Y-6048386D01*
X62294781Y-6230776D01*
X62231522Y-6425465D01*
X62199500Y-6627648D01*
X62199500Y-6832351D01*
X62231522Y-7034534D01*
X62236173Y-7048848D01*
X62238165Y-7118690D01*
X62205921Y-7174842D01*
X60631286Y-8749478D01*
X60519481Y-8861282D01*
X60519475Y-8861290D01*
X60477587Y-8933844D01*
X60477587Y-8933845D01*
X60440423Y-8998215D01*
X60399499Y-9150943D01*
X60399499Y-9150945D01*
X60399499Y-9319046D01*
X60399500Y-9319059D01*
X60399500Y-11733284D01*
X60379815Y-11800323D01*
X60339652Y-11839400D01*
X60289811Y-11869530D01*
X60169530Y-11989811D01*
X60081522Y-12135393D01*
X60030913Y-12297807D01*
X60024500Y-12368386D01*
X60024500Y-12881613D01*
X60030913Y-12952192D01*
X60030913Y-12952194D01*
X60030914Y-12952196D01*
X60081522Y-13114606D01*
X60158116Y-13241308D01*
X60169530Y-13260188D01*
X60272015Y-13362673D01*
X60305500Y-13423996D01*
X60300516Y-13493688D01*
X60272015Y-13538035D01*
X60169928Y-13640121D01*
X60169927Y-13640122D01*
X60081980Y-13785604D01*
X60031409Y-13947893D01*
X60025000Y-14018427D01*
X60025000Y-14025000D01*
X65474999Y-14025000D01*
X65474999Y-14018417D01*
X65468591Y-13947897D01*
X65468590Y-13947892D01*
X65418018Y-13785603D01*
X65330072Y-13640122D01*
X65227984Y-13538034D01*
X65194499Y-13476711D01*
X65199483Y-13407019D01*
X65227983Y-13362673D01*
X65330472Y-13260185D01*
X65418478Y-13114606D01*
X65469086Y-12952196D01*
X65475500Y-12881616D01*
X65475500Y-12368384D01*
X65469086Y-12297804D01*
X65418478Y-12135394D01*
X65330472Y-11989815D01*
X65330470Y-11989813D01*
X65330469Y-11989811D01*
X65210188Y-11869530D01*
X65160348Y-11839400D01*
X65113162Y-11787871D01*
X65100500Y-11733284D01*
X65100500Y-10499601D01*
X65120185Y-10432562D01*
X65168206Y-10389116D01*
X65181610Y-10382287D01*
X65347219Y-10261966D01*
X65412319Y-10196866D01*
X65473642Y-10163381D01*
X65543334Y-10168365D01*
X65587681Y-10196866D01*
X65652786Y-10261971D01*
X65807749Y-10374556D01*
X65818390Y-10382287D01*
X65899499Y-10423614D01*
X66000776Y-10475218D01*
X66000778Y-10475218D01*
X66000781Y-10475220D01*
X66075818Y-10499601D01*
X66195465Y-10538477D01*
X66296557Y-10554488D01*
X66397648Y-10570500D01*
X66397649Y-10570500D01*
X66602351Y-10570500D01*
X66602352Y-10570500D01*
X66804534Y-10538477D01*
X66999219Y-10475220D01*
X67181610Y-10382287D01*
X67282417Y-10309047D01*
X67347213Y-10261971D01*
X67347215Y-10261968D01*
X67347219Y-10261966D01*
X67412319Y-10196866D01*
X67473642Y-10163381D01*
X67543334Y-10168365D01*
X67587681Y-10196866D01*
X67652786Y-10261971D01*
X67807749Y-10374556D01*
X67818390Y-10382287D01*
X67899499Y-10423614D01*
X68000776Y-10475218D01*
X68000778Y-10475218D01*
X68000781Y-10475220D01*
X68075818Y-10499601D01*
X68195465Y-10538477D01*
X68296557Y-10554488D01*
X68397648Y-10570500D01*
X68397649Y-10570500D01*
X68602351Y-10570500D01*
X68602352Y-10570500D01*
X68804534Y-10538477D01*
X68999219Y-10475220D01*
X69181610Y-10382287D01*
X69282417Y-10309047D01*
X69347213Y-10261971D01*
X69347215Y-10261968D01*
X69347219Y-10261966D01*
X69412319Y-10196866D01*
X69473642Y-10163381D01*
X69543334Y-10168365D01*
X69587681Y-10196866D01*
X69652786Y-10261971D01*
X69807749Y-10374556D01*
X69818390Y-10382287D01*
X69899499Y-10423614D01*
X70000776Y-10475218D01*
X70000778Y-10475218D01*
X70000781Y-10475220D01*
X70075818Y-10499601D01*
X70195465Y-10538477D01*
X70296557Y-10554488D01*
X70397648Y-10570500D01*
X70397649Y-10570500D01*
X70602351Y-10570500D01*
X70602352Y-10570500D01*
X70804534Y-10538477D01*
X70999219Y-10475220D01*
X71181610Y-10382287D01*
X71282417Y-10309047D01*
X71347213Y-10261971D01*
X71347215Y-10261968D01*
X71347219Y-10261966D01*
X71491966Y-10117219D01*
X71491968Y-10117215D01*
X71491971Y-10117213D01*
X71566934Y-10014033D01*
X71612287Y-9951610D01*
X71705220Y-9769219D01*
X71768477Y-9574534D01*
X71800500Y-9372352D01*
X71800500Y-9167648D01*
X71796345Y-9141416D01*
X71768477Y-8965465D01*
X71705218Y-8770776D01*
X71671503Y-8704607D01*
X71612287Y-8588390D01*
X71604556Y-8577749D01*
X71491971Y-8422786D01*
X71347213Y-8278028D01*
X71181613Y-8157715D01*
X71181612Y-8157714D01*
X71181610Y-8157713D01*
X71124653Y-8128691D01*
X70999223Y-8064781D01*
X70804534Y-8001522D01*
X70607693Y-7970346D01*
X70602352Y-7969500D01*
X70397648Y-7969500D01*
X70397641Y-7969500D01*
X70397310Y-7969526D01*
X70397186Y-7969500D01*
X70392776Y-7969500D01*
X70392776Y-7968573D01*
X70328933Y-7955158D01*
X70279179Y-7906104D01*
X70263844Y-7837938D01*
X70287797Y-7772302D01*
X70314702Y-7745590D01*
X70347219Y-7721966D01*
X70491966Y-7577219D01*
X70491968Y-7577215D01*
X70491971Y-7577213D01*
X70544732Y-7504590D01*
X70612287Y-7411610D01*
X70705220Y-7229219D01*
X70768477Y-7034534D01*
X70800500Y-6832352D01*
X70800500Y-6627648D01*
X70768477Y-6425466D01*
X70705220Y-6230781D01*
X70705218Y-6230778D01*
X70705218Y-6230776D01*
X70671503Y-6164607D01*
X70612287Y-6048390D01*
X70570228Y-5990500D01*
X70491971Y-5882786D01*
X70347213Y-5738028D01*
X70181610Y-5617712D01*
X70168200Y-5610879D01*
X70117406Y-5562903D01*
X70100500Y-5500397D01*
X70100500Y-3772500D01*
X70120185Y-3705461D01*
X70172989Y-3659706D01*
X70224500Y-3648500D01*
X82775500Y-3648500D01*
X82842539Y-3668185D01*
X82888294Y-3720989D01*
X82899500Y-3772500D01*
X82899500Y-5500397D01*
X82879815Y-5567436D01*
X82831800Y-5610879D01*
X82818389Y-5617712D01*
X82652786Y-5738028D01*
X82652782Y-5738032D01*
X82587681Y-5803134D01*
X82526358Y-5836619D01*
X82456666Y-5831635D01*
X82412319Y-5803134D01*
X82347213Y-5738028D01*
X82181613Y-5617715D01*
X82181612Y-5617714D01*
X82181610Y-5617713D01*
X82124653Y-5588691D01*
X81999223Y-5524781D01*
X81804534Y-5461522D01*
X81629995Y-5433878D01*
X81602352Y-5429500D01*
X81397648Y-5429500D01*
X81373329Y-5433351D01*
X81195465Y-5461522D01*
X81000776Y-5524781D01*
X80818386Y-5617715D01*
X80652786Y-5738028D01*
X80652782Y-5738032D01*
X80587681Y-5803134D01*
X80526358Y-5836619D01*
X80456666Y-5831635D01*
X80412319Y-5803134D01*
X80347213Y-5738028D01*
X80181613Y-5617715D01*
X80181612Y-5617714D01*
X80181610Y-5617713D01*
X80124653Y-5588691D01*
X79999223Y-5524781D01*
X79804534Y-5461522D01*
X79629995Y-5433878D01*
X79602352Y-5429500D01*
X79397648Y-5429500D01*
X79373329Y-5433351D01*
X79195465Y-5461522D01*
X79000776Y-5524781D01*
X78818386Y-5617715D01*
X78652786Y-5738028D01*
X78652782Y-5738032D01*
X78587681Y-5803134D01*
X78526358Y-5836619D01*
X78456666Y-5831635D01*
X78412319Y-5803134D01*
X78347213Y-5738028D01*
X78181613Y-5617715D01*
X78181612Y-5617714D01*
X78181610Y-5617713D01*
X78124653Y-5588691D01*
X77999223Y-5524781D01*
X77804534Y-5461522D01*
X77629995Y-5433878D01*
X77602352Y-5429500D01*
X77397648Y-5429500D01*
X77373329Y-5433351D01*
X77195465Y-5461522D01*
X77000776Y-5524781D01*
X76818386Y-5617715D01*
X76652786Y-5738028D01*
X76508028Y-5882786D01*
X76387715Y-6048386D01*
X76294781Y-6230776D01*
X76231522Y-6425465D01*
X76199500Y-6627648D01*
X76199500Y-6832351D01*
X76231522Y-7034534D01*
X76236173Y-7048848D01*
X76238165Y-7118690D01*
X76205921Y-7174842D01*
X74631286Y-8749478D01*
X74519481Y-8861282D01*
X74519475Y-8861290D01*
X74477587Y-8933844D01*
X74477587Y-8933845D01*
X74440423Y-8998215D01*
X74399499Y-9150943D01*
X74399499Y-9150945D01*
X74399499Y-9319046D01*
X74399500Y-9319059D01*
X74399500Y-11733284D01*
X74379815Y-11800323D01*
X74339652Y-11839400D01*
X74289811Y-11869530D01*
X74169530Y-11989811D01*
X74081522Y-12135393D01*
X74030913Y-12297807D01*
X74024500Y-12368386D01*
X74024500Y-12881613D01*
X74030913Y-12952192D01*
X74030913Y-12952194D01*
X74030914Y-12952196D01*
X74081522Y-13114606D01*
X74158116Y-13241308D01*
X74169530Y-13260188D01*
X74272015Y-13362673D01*
X74305500Y-13423996D01*
X74300516Y-13493688D01*
X74272015Y-13538035D01*
X74169928Y-13640121D01*
X74169927Y-13640122D01*
X74081980Y-13785604D01*
X74031409Y-13947893D01*
X74025000Y-14018427D01*
X74025000Y-14025000D01*
X79474999Y-14025000D01*
X79474999Y-14018417D01*
X79468591Y-13947897D01*
X79468590Y-13947892D01*
X79418018Y-13785603D01*
X79330072Y-13640122D01*
X79227984Y-13538034D01*
X79194499Y-13476711D01*
X79199483Y-13407019D01*
X79227983Y-13362673D01*
X79330472Y-13260185D01*
X79418478Y-13114606D01*
X79469086Y-12952196D01*
X79475500Y-12881616D01*
X79475500Y-12368384D01*
X79469086Y-12297804D01*
X79418478Y-12135394D01*
X79330472Y-11989815D01*
X79330470Y-11989813D01*
X79330469Y-11989811D01*
X79210188Y-11869530D01*
X79160348Y-11839400D01*
X79113162Y-11787871D01*
X79100500Y-11733284D01*
X79100500Y-10499601D01*
X79120185Y-10432562D01*
X79168206Y-10389116D01*
X79181610Y-10382287D01*
X79347219Y-10261966D01*
X79412319Y-10196866D01*
X79473642Y-10163381D01*
X79543334Y-10168365D01*
X79587681Y-10196866D01*
X79652786Y-10261971D01*
X79807749Y-10374556D01*
X79818390Y-10382287D01*
X79899499Y-10423614D01*
X80000776Y-10475218D01*
X80000778Y-10475218D01*
X80000781Y-10475220D01*
X80075818Y-10499601D01*
X80195465Y-10538477D01*
X80296557Y-10554488D01*
X80397648Y-10570500D01*
X80397649Y-10570500D01*
X80602351Y-10570500D01*
X80602352Y-10570500D01*
X80804534Y-10538477D01*
X80999219Y-10475220D01*
X81181610Y-10382287D01*
X81282417Y-10309047D01*
X81347213Y-10261971D01*
X81347215Y-10261968D01*
X81347219Y-10261966D01*
X81412319Y-10196866D01*
X81473642Y-10163381D01*
X81543334Y-10168365D01*
X81587681Y-10196866D01*
X81652786Y-10261971D01*
X81807749Y-10374556D01*
X81818390Y-10382287D01*
X81899499Y-10423614D01*
X82000776Y-10475218D01*
X82000778Y-10475218D01*
X82000781Y-10475220D01*
X82075818Y-10499601D01*
X82195465Y-10538477D01*
X82296557Y-10554488D01*
X82397648Y-10570500D01*
X82397649Y-10570500D01*
X82602351Y-10570500D01*
X82602352Y-10570500D01*
X82804534Y-10538477D01*
X82999219Y-10475220D01*
X83181610Y-10382287D01*
X83282417Y-10309047D01*
X83347213Y-10261971D01*
X83347215Y-10261968D01*
X83347219Y-10261966D01*
X83412319Y-10196866D01*
X83473642Y-10163381D01*
X83543334Y-10168365D01*
X83587681Y-10196866D01*
X83652786Y-10261971D01*
X83807749Y-10374556D01*
X83818390Y-10382287D01*
X83899499Y-10423614D01*
X84000776Y-10475218D01*
X84000778Y-10475218D01*
X84000781Y-10475220D01*
X84075818Y-10499601D01*
X84195465Y-10538477D01*
X84296557Y-10554488D01*
X84397648Y-10570500D01*
X84397649Y-10570500D01*
X84602351Y-10570500D01*
X84602352Y-10570500D01*
X84804534Y-10538477D01*
X84999219Y-10475220D01*
X85181610Y-10382287D01*
X85282417Y-10309047D01*
X85347213Y-10261971D01*
X85347215Y-10261968D01*
X85347219Y-10261966D01*
X85491966Y-10117219D01*
X85491968Y-10117215D01*
X85491971Y-10117213D01*
X85566934Y-10014033D01*
X85612287Y-9951610D01*
X85705220Y-9769219D01*
X85768477Y-9574534D01*
X85800500Y-9372352D01*
X85800500Y-9167648D01*
X85796345Y-9141416D01*
X85768477Y-8965465D01*
X85705218Y-8770776D01*
X85671503Y-8704607D01*
X85612287Y-8588390D01*
X85604556Y-8577749D01*
X85491971Y-8422786D01*
X85347213Y-8278028D01*
X85181613Y-8157715D01*
X85181612Y-8157714D01*
X85181610Y-8157713D01*
X85124653Y-8128691D01*
X84999223Y-8064781D01*
X84804534Y-8001522D01*
X84607693Y-7970346D01*
X84602352Y-7969500D01*
X84397648Y-7969500D01*
X84397641Y-7969500D01*
X84397310Y-7969526D01*
X84397186Y-7969500D01*
X84392776Y-7969500D01*
X84392776Y-7968573D01*
X84328933Y-7955158D01*
X84279179Y-7906104D01*
X84263844Y-7837938D01*
X84287797Y-7772302D01*
X84314702Y-7745590D01*
X84347219Y-7721966D01*
X84491966Y-7577219D01*
X84491968Y-7577215D01*
X84491971Y-7577213D01*
X84544732Y-7504590D01*
X84612287Y-7411610D01*
X84705220Y-7229219D01*
X84768477Y-7034534D01*
X84800500Y-6832352D01*
X84800500Y-6627648D01*
X84768477Y-6425466D01*
X84705220Y-6230781D01*
X84705218Y-6230778D01*
X84705218Y-6230776D01*
X84671503Y-6164607D01*
X84612287Y-6048390D01*
X84570228Y-5990500D01*
X84491971Y-5882786D01*
X84347213Y-5738028D01*
X84181610Y-5617712D01*
X84168200Y-5610879D01*
X84117406Y-5562903D01*
X84100500Y-5500397D01*
X84100500Y-3772500D01*
X84120185Y-3705461D01*
X84172989Y-3659706D01*
X84224500Y-3648500D01*
X96775500Y-3648500D01*
X96842539Y-3668185D01*
X96888294Y-3720989D01*
X96899500Y-3772500D01*
X96899500Y-5500397D01*
X96879815Y-5567436D01*
X96831800Y-5610879D01*
X96818389Y-5617712D01*
X96652786Y-5738028D01*
X96652782Y-5738032D01*
X96587681Y-5803134D01*
X96526358Y-5836619D01*
X96456666Y-5831635D01*
X96412319Y-5803134D01*
X96347213Y-5738028D01*
X96181613Y-5617715D01*
X96181612Y-5617714D01*
X96181610Y-5617713D01*
X96124653Y-5588691D01*
X95999223Y-5524781D01*
X95804534Y-5461522D01*
X95629995Y-5433878D01*
X95602352Y-5429500D01*
X95397648Y-5429500D01*
X95373329Y-5433351D01*
X95195465Y-5461522D01*
X95000776Y-5524781D01*
X94818386Y-5617715D01*
X94652786Y-5738028D01*
X94652782Y-5738032D01*
X94587681Y-5803134D01*
X94526358Y-5836619D01*
X94456666Y-5831635D01*
X94412319Y-5803134D01*
X94347213Y-5738028D01*
X94181613Y-5617715D01*
X94181612Y-5617714D01*
X94181610Y-5617713D01*
X94124653Y-5588691D01*
X93999223Y-5524781D01*
X93804534Y-5461522D01*
X93629995Y-5433878D01*
X93602352Y-5429500D01*
X93397648Y-5429500D01*
X93373329Y-5433351D01*
X93195465Y-5461522D01*
X93000776Y-5524781D01*
X92818386Y-5617715D01*
X92652786Y-5738028D01*
X92652782Y-5738032D01*
X92587681Y-5803134D01*
X92526358Y-5836619D01*
X92456666Y-5831635D01*
X92412319Y-5803134D01*
X92347213Y-5738028D01*
X92181613Y-5617715D01*
X92181612Y-5617714D01*
X92181610Y-5617713D01*
X92124653Y-5588691D01*
X91999223Y-5524781D01*
X91804534Y-5461522D01*
X91629995Y-5433878D01*
X91602352Y-5429500D01*
X91397648Y-5429500D01*
X91373329Y-5433351D01*
X91195465Y-5461522D01*
X91000776Y-5524781D01*
X90818386Y-5617715D01*
X90652786Y-5738028D01*
X90508028Y-5882786D01*
X90387715Y-6048386D01*
X90294781Y-6230776D01*
X90231522Y-6425465D01*
X90199500Y-6627648D01*
X90199500Y-6832351D01*
X90231522Y-7034534D01*
X90236173Y-7048848D01*
X90238165Y-7118690D01*
X90205921Y-7174842D01*
X88631286Y-8749478D01*
X88519481Y-8861282D01*
X88519475Y-8861290D01*
X88477587Y-8933844D01*
X88477587Y-8933845D01*
X88440423Y-8998215D01*
X88399499Y-9150943D01*
X88399499Y-9150945D01*
X88399499Y-9319046D01*
X88399500Y-9319059D01*
X88399500Y-11733284D01*
X88379815Y-11800323D01*
X88339652Y-11839400D01*
X88289811Y-11869530D01*
X88169530Y-11989811D01*
X88081522Y-12135393D01*
X88030913Y-12297807D01*
X88024500Y-12368386D01*
X88024500Y-12881613D01*
X88030913Y-12952192D01*
X88030913Y-12952194D01*
X88030914Y-12952196D01*
X88081522Y-13114606D01*
X88158116Y-13241308D01*
X88169530Y-13260188D01*
X88272015Y-13362673D01*
X88305500Y-13423996D01*
X88300516Y-13493688D01*
X88272015Y-13538035D01*
X88169928Y-13640121D01*
X88169927Y-13640122D01*
X88081980Y-13785604D01*
X88031409Y-13947893D01*
X88025000Y-14018427D01*
X88025000Y-14025000D01*
X93474999Y-14025000D01*
X93474999Y-14018417D01*
X93468591Y-13947897D01*
X93468590Y-13947892D01*
X93418018Y-13785603D01*
X93330072Y-13640122D01*
X93227984Y-13538034D01*
X93194499Y-13476711D01*
X93199483Y-13407019D01*
X93227983Y-13362673D01*
X93330472Y-13260185D01*
X93418478Y-13114606D01*
X93469086Y-12952196D01*
X93475500Y-12881616D01*
X93475500Y-12368384D01*
X93469086Y-12297804D01*
X93418478Y-12135394D01*
X93330472Y-11989815D01*
X93330470Y-11989813D01*
X93330469Y-11989811D01*
X93210188Y-11869530D01*
X93160348Y-11839400D01*
X93113162Y-11787871D01*
X93100500Y-11733284D01*
X93100500Y-10499601D01*
X93120185Y-10432562D01*
X93168206Y-10389116D01*
X93181610Y-10382287D01*
X93347219Y-10261966D01*
X93412319Y-10196866D01*
X93473642Y-10163381D01*
X93543334Y-10168365D01*
X93587681Y-10196866D01*
X93652786Y-10261971D01*
X93807749Y-10374556D01*
X93818390Y-10382287D01*
X93899499Y-10423614D01*
X94000776Y-10475218D01*
X94000778Y-10475218D01*
X94000781Y-10475220D01*
X94075818Y-10499601D01*
X94195465Y-10538477D01*
X94296557Y-10554488D01*
X94397648Y-10570500D01*
X94397649Y-10570500D01*
X94602351Y-10570500D01*
X94602352Y-10570500D01*
X94804534Y-10538477D01*
X94999219Y-10475220D01*
X95181610Y-10382287D01*
X95282417Y-10309047D01*
X95347213Y-10261971D01*
X95347215Y-10261968D01*
X95347219Y-10261966D01*
X95412319Y-10196866D01*
X95473642Y-10163381D01*
X95543334Y-10168365D01*
X95587681Y-10196866D01*
X95652786Y-10261971D01*
X95807749Y-10374556D01*
X95818390Y-10382287D01*
X95899499Y-10423614D01*
X96000776Y-10475218D01*
X96000778Y-10475218D01*
X96000781Y-10475220D01*
X96075818Y-10499601D01*
X96195465Y-10538477D01*
X96296557Y-10554488D01*
X96397648Y-10570500D01*
X96397649Y-10570500D01*
X96602351Y-10570500D01*
X96602352Y-10570500D01*
X96804534Y-10538477D01*
X96999219Y-10475220D01*
X97181610Y-10382287D01*
X97282417Y-10309047D01*
X97347213Y-10261971D01*
X97347215Y-10261968D01*
X97347219Y-10261966D01*
X97412319Y-10196866D01*
X97473642Y-10163381D01*
X97543334Y-10168365D01*
X97587681Y-10196866D01*
X97652786Y-10261971D01*
X97807749Y-10374556D01*
X97818390Y-10382287D01*
X97899499Y-10423614D01*
X98000776Y-10475218D01*
X98000778Y-10475218D01*
X98000781Y-10475220D01*
X98075818Y-10499601D01*
X98195465Y-10538477D01*
X98296557Y-10554488D01*
X98397648Y-10570500D01*
X98397649Y-10570500D01*
X98602351Y-10570500D01*
X98602352Y-10570500D01*
X98804534Y-10538477D01*
X98999219Y-10475220D01*
X99181610Y-10382287D01*
X99282417Y-10309047D01*
X99347213Y-10261971D01*
X99347215Y-10261968D01*
X99347219Y-10261966D01*
X99491966Y-10117219D01*
X99491968Y-10117215D01*
X99491971Y-10117213D01*
X99566934Y-10014033D01*
X99612287Y-9951610D01*
X99705220Y-9769219D01*
X99768477Y-9574534D01*
X99800500Y-9372352D01*
X99800500Y-9167648D01*
X99796345Y-9141416D01*
X99768477Y-8965465D01*
X99705218Y-8770776D01*
X99671503Y-8704607D01*
X99612287Y-8588390D01*
X99604556Y-8577749D01*
X99491971Y-8422786D01*
X99347213Y-8278028D01*
X99181613Y-8157715D01*
X99181612Y-8157714D01*
X99181610Y-8157713D01*
X99124653Y-8128691D01*
X98999223Y-8064781D01*
X98804534Y-8001522D01*
X98607693Y-7970346D01*
X98602352Y-7969500D01*
X98397648Y-7969500D01*
X98397641Y-7969500D01*
X98397310Y-7969526D01*
X98397186Y-7969500D01*
X98392776Y-7969500D01*
X98392776Y-7968573D01*
X98328933Y-7955158D01*
X98279179Y-7906104D01*
X98263844Y-7837938D01*
X98287797Y-7772302D01*
X98314702Y-7745590D01*
X98347219Y-7721966D01*
X98491966Y-7577219D01*
X98491968Y-7577215D01*
X98491971Y-7577213D01*
X98544732Y-7504590D01*
X98612287Y-7411610D01*
X98705220Y-7229219D01*
X98768477Y-7034534D01*
X98800500Y-6832352D01*
X98800500Y-6627648D01*
X98768477Y-6425466D01*
X98705220Y-6230781D01*
X98705218Y-6230778D01*
X98705218Y-6230776D01*
X98671503Y-6164607D01*
X98612287Y-6048390D01*
X98570228Y-5990500D01*
X98491971Y-5882786D01*
X98347213Y-5738028D01*
X98181610Y-5617712D01*
X98168200Y-5610879D01*
X98117406Y-5562903D01*
X98100500Y-5500397D01*
X98100500Y-3772500D01*
X98120185Y-3705461D01*
X98172989Y-3659706D01*
X98224500Y-3648500D01*
X110012103Y-3648500D01*
X110079142Y-3668185D01*
X110099784Y-3684819D01*
X110863181Y-4448216D01*
X110896666Y-4509539D01*
X110899500Y-4535897D01*
X110899500Y-5500397D01*
X110879815Y-5567436D01*
X110831800Y-5610879D01*
X110818389Y-5617712D01*
X110652786Y-5738028D01*
X110652782Y-5738032D01*
X110587681Y-5803134D01*
X110526358Y-5836619D01*
X110456666Y-5831635D01*
X110412319Y-5803134D01*
X110347213Y-5738028D01*
X110181613Y-5617715D01*
X110181612Y-5617714D01*
X110181610Y-5617713D01*
X110124653Y-5588691D01*
X109999223Y-5524781D01*
X109804534Y-5461522D01*
X109629995Y-5433878D01*
X109602352Y-5429500D01*
X109397648Y-5429500D01*
X109373329Y-5433351D01*
X109195465Y-5461522D01*
X109000776Y-5524781D01*
X108818386Y-5617715D01*
X108652786Y-5738028D01*
X108652782Y-5738032D01*
X108587681Y-5803134D01*
X108526358Y-5836619D01*
X108456666Y-5831635D01*
X108412319Y-5803134D01*
X108347213Y-5738028D01*
X108181613Y-5617715D01*
X108181612Y-5617714D01*
X108181610Y-5617713D01*
X108124653Y-5588691D01*
X107999223Y-5524781D01*
X107804534Y-5461522D01*
X107629995Y-5433878D01*
X107602352Y-5429500D01*
X107397648Y-5429500D01*
X107373329Y-5433351D01*
X107195465Y-5461522D01*
X107000776Y-5524781D01*
X106818386Y-5617715D01*
X106652786Y-5738028D01*
X106652782Y-5738032D01*
X106587681Y-5803134D01*
X106526358Y-5836619D01*
X106456666Y-5831635D01*
X106412319Y-5803134D01*
X106347213Y-5738028D01*
X106181613Y-5617715D01*
X106181612Y-5617714D01*
X106181610Y-5617713D01*
X106124653Y-5588691D01*
X105999223Y-5524781D01*
X105804534Y-5461522D01*
X105629995Y-5433878D01*
X105602352Y-5429500D01*
X105397648Y-5429500D01*
X105373329Y-5433351D01*
X105195465Y-5461522D01*
X105000776Y-5524781D01*
X104818386Y-5617715D01*
X104652786Y-5738028D01*
X104508028Y-5882786D01*
X104387715Y-6048386D01*
X104294781Y-6230776D01*
X104231522Y-6425465D01*
X104199500Y-6627648D01*
X104199500Y-6832351D01*
X104231522Y-7034534D01*
X104236173Y-7048848D01*
X104238165Y-7118690D01*
X104205921Y-7174842D01*
X102758647Y-8622116D01*
X102758640Y-8622123D01*
X102755286Y-8625478D01*
X102755284Y-8625480D01*
X102643480Y-8737284D01*
X102615432Y-8785865D01*
X102564423Y-8874215D01*
X102523499Y-9026943D01*
X102523499Y-9026945D01*
X102523499Y-9195046D01*
X102523500Y-9195059D01*
X102523500Y-11733284D01*
X102503815Y-11800323D01*
X102463652Y-11839400D01*
X102413811Y-11869530D01*
X102293530Y-11989811D01*
X102205522Y-12135393D01*
X102154913Y-12297807D01*
X102148500Y-12368386D01*
X102148500Y-12881613D01*
X102154913Y-12952192D01*
X102154913Y-12952194D01*
X102154914Y-12952196D01*
X102205522Y-13114606D01*
X102282116Y-13241308D01*
X102293530Y-13260188D01*
X102396015Y-13362673D01*
X102429500Y-13423996D01*
X102424516Y-13493688D01*
X102396015Y-13538035D01*
X102293928Y-13640121D01*
X102293927Y-13640122D01*
X102205980Y-13785604D01*
X102155409Y-13947893D01*
X102149000Y-14018427D01*
X102149000Y-14025000D01*
X107474999Y-14025000D01*
X107474999Y-14018417D01*
X107468591Y-13947897D01*
X107468590Y-13947892D01*
X107418018Y-13785603D01*
X107330072Y-13640122D01*
X107227984Y-13538034D01*
X107194499Y-13476711D01*
X107199483Y-13407019D01*
X107227983Y-13362673D01*
X107330472Y-13260185D01*
X107418478Y-13114606D01*
X107469086Y-12952196D01*
X107475500Y-12881616D01*
X107475500Y-12368384D01*
X107469086Y-12297804D01*
X107418478Y-12135394D01*
X107330472Y-11989815D01*
X107330470Y-11989813D01*
X107330469Y-11989811D01*
X107210188Y-11869530D01*
X107160348Y-11839400D01*
X107113162Y-11787871D01*
X107100500Y-11733284D01*
X107100500Y-10499601D01*
X107120185Y-10432562D01*
X107168206Y-10389116D01*
X107181610Y-10382287D01*
X107347219Y-10261966D01*
X107412319Y-10196866D01*
X107473642Y-10163381D01*
X107543334Y-10168365D01*
X107587681Y-10196866D01*
X107652786Y-10261971D01*
X107807749Y-10374556D01*
X107818390Y-10382287D01*
X107899499Y-10423614D01*
X108000776Y-10475218D01*
X108000778Y-10475218D01*
X108000781Y-10475220D01*
X108075818Y-10499601D01*
X108195465Y-10538477D01*
X108296557Y-10554488D01*
X108397648Y-10570500D01*
X108397649Y-10570500D01*
X108602351Y-10570500D01*
X108602352Y-10570500D01*
X108804534Y-10538477D01*
X108999219Y-10475220D01*
X109181610Y-10382287D01*
X109282417Y-10309047D01*
X109347213Y-10261971D01*
X109347215Y-10261968D01*
X109347219Y-10261966D01*
X109412319Y-10196866D01*
X109473642Y-10163381D01*
X109543334Y-10168365D01*
X109587681Y-10196866D01*
X109652786Y-10261971D01*
X109807749Y-10374556D01*
X109818390Y-10382287D01*
X109899499Y-10423614D01*
X110000776Y-10475218D01*
X110000778Y-10475218D01*
X110000781Y-10475220D01*
X110075818Y-10499601D01*
X110195465Y-10538477D01*
X110296557Y-10554488D01*
X110397648Y-10570500D01*
X110397649Y-10570500D01*
X110602351Y-10570500D01*
X110602352Y-10570500D01*
X110804534Y-10538477D01*
X110999219Y-10475220D01*
X111181610Y-10382287D01*
X111282417Y-10309047D01*
X111347213Y-10261971D01*
X111347215Y-10261968D01*
X111347219Y-10261966D01*
X111412319Y-10196866D01*
X111473642Y-10163381D01*
X111543334Y-10168365D01*
X111587681Y-10196866D01*
X111652781Y-10261966D01*
X111818390Y-10382287D01*
X111831793Y-10389116D01*
X111882589Y-10437088D01*
X111899500Y-10499601D01*
X111899500Y-11228102D01*
X111879815Y-11295141D01*
X111863181Y-11315783D01*
X107940784Y-15238181D01*
X107879461Y-15271666D01*
X107853103Y-15274500D01*
X107250355Y-15274500D01*
X107183316Y-15254815D01*
X107137561Y-15202011D01*
X107127617Y-15132853D01*
X107156642Y-15069297D01*
X107186205Y-15044383D01*
X107209877Y-15030072D01*
X107330072Y-14909877D01*
X107418019Y-14764395D01*
X107468590Y-14602106D01*
X107475000Y-14531572D01*
X107475000Y-14525000D01*
X102149001Y-14525000D01*
X102149001Y-14531582D01*
X102155408Y-14602102D01*
X102155409Y-14602107D01*
X102205981Y-14764396D01*
X102293927Y-14909877D01*
X102414122Y-15030072D01*
X102437795Y-15044383D01*
X102484983Y-15095911D01*
X102496821Y-15164771D01*
X102469552Y-15229099D01*
X102411833Y-15268473D01*
X102373645Y-15274500D01*
X93250355Y-15274500D01*
X93183316Y-15254815D01*
X93137561Y-15202011D01*
X93127617Y-15132853D01*
X93156642Y-15069297D01*
X93186205Y-15044383D01*
X93209877Y-15030072D01*
X93330072Y-14909877D01*
X93418019Y-14764395D01*
X93468590Y-14602106D01*
X93475000Y-14531572D01*
X93475000Y-14525000D01*
X88025001Y-14525000D01*
X88025001Y-14531582D01*
X88031408Y-14602102D01*
X88031409Y-14602107D01*
X88081981Y-14764396D01*
X88169927Y-14909877D01*
X88290122Y-15030072D01*
X88313795Y-15044383D01*
X88360983Y-15095911D01*
X88372821Y-15164771D01*
X88345552Y-15229099D01*
X88287833Y-15268473D01*
X88249645Y-15274500D01*
X85110966Y-15274500D01*
X85043927Y-15254815D01*
X85042075Y-15253602D01*
X84910385Y-15165609D01*
X84910372Y-15165602D01*
X84764701Y-15105264D01*
X84764689Y-15105261D01*
X84610045Y-15074500D01*
X84610042Y-15074500D01*
X84452358Y-15074500D01*
X84452355Y-15074500D01*
X84297710Y-15105261D01*
X84297698Y-15105264D01*
X84152027Y-15165602D01*
X84152014Y-15165609D01*
X84020325Y-15253602D01*
X83953647Y-15274480D01*
X83951434Y-15274500D01*
X79250355Y-15274500D01*
X79183316Y-15254815D01*
X79137561Y-15202011D01*
X79127617Y-15132853D01*
X79156642Y-15069297D01*
X79186205Y-15044383D01*
X79209877Y-15030072D01*
X79330072Y-14909877D01*
X79418019Y-14764395D01*
X79468590Y-14602106D01*
X79475000Y-14531572D01*
X79475000Y-14525000D01*
X74025001Y-14525000D01*
X74025001Y-14531582D01*
X74031408Y-14602102D01*
X74031409Y-14602107D01*
X74081981Y-14764396D01*
X74169927Y-14909877D01*
X74290122Y-15030072D01*
X74313795Y-15044383D01*
X74360983Y-15095911D01*
X74372821Y-15164771D01*
X74345552Y-15229099D01*
X74287833Y-15268473D01*
X74249645Y-15274500D01*
X65250355Y-15274500D01*
X65183316Y-15254815D01*
X65137561Y-15202011D01*
X65127617Y-15132853D01*
X65156642Y-15069297D01*
X65186205Y-15044383D01*
X65209877Y-15030072D01*
X65330072Y-14909877D01*
X65418019Y-14764395D01*
X65468590Y-14602106D01*
X65475000Y-14531572D01*
X65475000Y-14525000D01*
X60025001Y-14525000D01*
X60025001Y-14531582D01*
X60031408Y-14602102D01*
X60031409Y-14602107D01*
X60081981Y-14764396D01*
X60169927Y-14909877D01*
X60290122Y-15030072D01*
X60313795Y-15044383D01*
X60360983Y-15095911D01*
X60372821Y-15164771D01*
X60345552Y-15229099D01*
X60287833Y-15268473D01*
X60249645Y-15274500D01*
X57094766Y-15274500D01*
X57027727Y-15254815D01*
X57025875Y-15253602D01*
X56894185Y-15165609D01*
X56894172Y-15165602D01*
X56748501Y-15105264D01*
X56748489Y-15105261D01*
X56593845Y-15074500D01*
X56593842Y-15074500D01*
X56436158Y-15074500D01*
X56436155Y-15074500D01*
X56281510Y-15105261D01*
X56281498Y-15105264D01*
X56135827Y-15165602D01*
X56135814Y-15165609D01*
X56004125Y-15253602D01*
X55937447Y-15274480D01*
X55935234Y-15274500D01*
X51684566Y-15274500D01*
X51617527Y-15254815D01*
X51615675Y-15253602D01*
X51483985Y-15165609D01*
X51483975Y-15165604D01*
X51365775Y-15116644D01*
X51311372Y-15072803D01*
X51289307Y-15006509D01*
X51306586Y-14938809D01*
X51325551Y-14914397D01*
X51330074Y-14909874D01*
X51418019Y-14764395D01*
X51468590Y-14602106D01*
X51475000Y-14531572D01*
X51475000Y-14525000D01*
X46025001Y-14525000D01*
X46025001Y-14531582D01*
X46031408Y-14602102D01*
X46031409Y-14602107D01*
X46081981Y-14764396D01*
X46169927Y-14909877D01*
X46290122Y-15030072D01*
X46313795Y-15044383D01*
X46360983Y-15095911D01*
X46372821Y-15164771D01*
X46345552Y-15229099D01*
X46287833Y-15268473D01*
X46249645Y-15274500D01*
X37250355Y-15274500D01*
X37183316Y-15254815D01*
X37137561Y-15202011D01*
X37127617Y-15132853D01*
X37156642Y-15069297D01*
X37186205Y-15044383D01*
X37209877Y-15030072D01*
X37330072Y-14909877D01*
X37418019Y-14764395D01*
X37468590Y-14602106D01*
X37475000Y-14531572D01*
X37475000Y-14525000D01*
X32101001Y-14525000D01*
X32101001Y-14531582D01*
X32107408Y-14602102D01*
X32107409Y-14602107D01*
X32157981Y-14764396D01*
X32245927Y-14909877D01*
X32366122Y-15030072D01*
X32389795Y-15044383D01*
X32436983Y-15095911D01*
X32448821Y-15164771D01*
X32421552Y-15229099D01*
X32363833Y-15268473D01*
X32325645Y-15274500D01*
X31161097Y-15274500D01*
X31094058Y-15254815D01*
X31073416Y-15238181D01*
X29136819Y-13301584D01*
X29103334Y-13240261D01*
X29100500Y-13213903D01*
X29100500Y-10499601D01*
X29120185Y-10432562D01*
X29168206Y-10389116D01*
X29181610Y-10382287D01*
X29347219Y-10261966D01*
X29491966Y-10117219D01*
X29491968Y-10117215D01*
X29491971Y-10117213D01*
X29566934Y-10014033D01*
X29612287Y-9951610D01*
X29705220Y-9769219D01*
X29768477Y-9574534D01*
X29800500Y-9372352D01*
X29800500Y-9167648D01*
X29796345Y-9141416D01*
X29768477Y-8965465D01*
X29705218Y-8770776D01*
X29671503Y-8704607D01*
X29612287Y-8588390D01*
X29604556Y-8577749D01*
X29491971Y-8422786D01*
X29347213Y-8278028D01*
X29181613Y-8157715D01*
X29181612Y-8157714D01*
X29181610Y-8157713D01*
X29124653Y-8128691D01*
X28999223Y-8064781D01*
X28804534Y-8001522D01*
X28607693Y-7970346D01*
X28602352Y-7969500D01*
X28397648Y-7969500D01*
X28397641Y-7969500D01*
X28397310Y-7969526D01*
X28397186Y-7969500D01*
X28392776Y-7969500D01*
X28392776Y-7968573D01*
X28328933Y-7955158D01*
X28279179Y-7906104D01*
X28263844Y-7837938D01*
X28287797Y-7772302D01*
X28314702Y-7745590D01*
X28347219Y-7721966D01*
X28491966Y-7577219D01*
X28491968Y-7577215D01*
X28491971Y-7577213D01*
X28544732Y-7504590D01*
X28612287Y-7411610D01*
X28705220Y-7229219D01*
X28768477Y-7034534D01*
X28800500Y-6832352D01*
X28800500Y-6627648D01*
X28768477Y-6425466D01*
X28705220Y-6230781D01*
X28705218Y-6230778D01*
X28705218Y-6230776D01*
X28671503Y-6164607D01*
X28612287Y-6048390D01*
X28570228Y-5990500D01*
X28491971Y-5882786D01*
X28347213Y-5738028D01*
X28181610Y-5617712D01*
X28168200Y-5610879D01*
X28117406Y-5562903D01*
X28100500Y-5500397D01*
X28100500Y-3772500D01*
X28120185Y-3705461D01*
X28172989Y-3659706D01*
X28224500Y-3648500D01*
X40775500Y-3648500D01*
X40842539Y-3668185D01*
G37*
%TD.AperFunction*%
%TD*%
M02*
