%TF.GenerationSoftware,KiCad,Pcbnew,10.0.1*%
%TF.CreationDate,2026-04-20T21:56:29+02:00*%
%TF.ProjectId,Id_Board,49645f42-6f61-4726-942e-6b696361645f,rev?*%
%TF.SameCoordinates,Original*%
%TF.FileFunction,Legend,Top*%
%TF.FilePolarity,Positive*%
%FSLAX46Y46*%
G04 Gerber Fmt 4.6, Leading zero omitted, Abs format (unit mm)*
G04 Created by KiCad (PCBNEW 10.0.1) date 2026-04-20 21:56:29*
%MOMM*%
%LPD*%
G01*
G04 APERTURE LIST*
G04 Aperture macros list*
%AMRoundRect*
0 Rectangle with rounded corners*
0 $1 Rounding radius*
0 $2 $3 $4 $5 $6 $7 $8 $9 X,Y pos of 4 corners*
0 Add a 4 corners polygon primitive as box body*
4,1,4,$2,$3,$4,$5,$6,$7,$8,$9,$2,$3,0*
0 Add four circle primitives for the rounded corners*
1,1,$1+$1,$2,$3*
1,1,$1+$1,$4,$5*
1,1,$1+$1,$6,$7*
1,1,$1+$1,$8,$9*
0 Add four rect primitives between the rounded corners*
20,1,$1+$1,$2,$3,$4,$5,0*
20,1,$1+$1,$4,$5,$6,$7,0*
20,1,$1+$1,$6,$7,$8,$9,0*
20,1,$1+$1,$8,$9,$2,$3,0*%
G04 Aperture macros list end*
%ADD10C,0.150000*%
%ADD11C,0.120000*%
%ADD12C,3.251200*%
%ADD13R,1.498600X1.498600*%
%ADD14C,1.498600*%
%ADD15C,2.286000*%
%ADD16RoundRect,0.250000X0.550000X-0.550000X0.550000X0.550000X-0.550000X0.550000X-0.550000X-0.550000X0*%
%ADD17C,1.600000*%
G04 APERTURE END LIST*
D10*
X123608380Y-39954819D02*
X123275047Y-39478628D01*
X123036952Y-39954819D02*
X123036952Y-38954819D01*
X123036952Y-38954819D02*
X123417904Y-38954819D01*
X123417904Y-38954819D02*
X123513142Y-39002438D01*
X123513142Y-39002438D02*
X123560761Y-39050057D01*
X123560761Y-39050057D02*
X123608380Y-39145295D01*
X123608380Y-39145295D02*
X123608380Y-39288152D01*
X123608380Y-39288152D02*
X123560761Y-39383390D01*
X123560761Y-39383390D02*
X123513142Y-39431009D01*
X123513142Y-39431009D02*
X123417904Y-39478628D01*
X123417904Y-39478628D02*
X123036952Y-39478628D01*
X124036952Y-39431009D02*
X124370285Y-39431009D01*
X124513142Y-39954819D02*
X124036952Y-39954819D01*
X124036952Y-39954819D02*
X124036952Y-38954819D01*
X124036952Y-38954819D02*
X124513142Y-38954819D01*
X125275047Y-39431009D02*
X124941714Y-39431009D01*
X124941714Y-39954819D02*
X124941714Y-38954819D01*
X124941714Y-38954819D02*
X125417904Y-38954819D01*
X126322666Y-39954819D02*
X125751238Y-39954819D01*
X126036952Y-39954819D02*
X126036952Y-38954819D01*
X126036952Y-38954819D02*
X125941714Y-39097676D01*
X125941714Y-39097676D02*
X125846476Y-39192914D01*
X125846476Y-39192914D02*
X125751238Y-39240533D01*
X168414819Y-80047619D02*
X167938628Y-80380952D01*
X168414819Y-80619047D02*
X167414819Y-80619047D01*
X167414819Y-80619047D02*
X167414819Y-80238095D01*
X167414819Y-80238095D02*
X167462438Y-80142857D01*
X167462438Y-80142857D02*
X167510057Y-80095238D01*
X167510057Y-80095238D02*
X167605295Y-80047619D01*
X167605295Y-80047619D02*
X167748152Y-80047619D01*
X167748152Y-80047619D02*
X167843390Y-80095238D01*
X167843390Y-80095238D02*
X167891009Y-80142857D01*
X167891009Y-80142857D02*
X167938628Y-80238095D01*
X167938628Y-80238095D02*
X167938628Y-80619047D01*
X167891009Y-79619047D02*
X167891009Y-79285714D01*
X168414819Y-79142857D02*
X168414819Y-79619047D01*
X168414819Y-79619047D02*
X167414819Y-79619047D01*
X167414819Y-79619047D02*
X167414819Y-79142857D01*
X167891009Y-78380952D02*
X167891009Y-78714285D01*
X168414819Y-78714285D02*
X167414819Y-78714285D01*
X167414819Y-78714285D02*
X167414819Y-78238095D01*
X167510057Y-77904761D02*
X167462438Y-77857142D01*
X167462438Y-77857142D02*
X167414819Y-77761904D01*
X167414819Y-77761904D02*
X167414819Y-77523809D01*
X167414819Y-77523809D02*
X167462438Y-77428571D01*
X167462438Y-77428571D02*
X167510057Y-77380952D01*
X167510057Y-77380952D02*
X167605295Y-77333333D01*
X167605295Y-77333333D02*
X167700533Y-77333333D01*
X167700533Y-77333333D02*
X167843390Y-77380952D01*
X167843390Y-77380952D02*
X168414819Y-77952380D01*
X168414819Y-77952380D02*
X168414819Y-77333333D01*
%TO.C,REF1*%
D11*
X60476000Y-47800000D02*
X60976000Y-48300000D01*
X60476000Y-48800000D02*
X60476000Y-47800000D01*
X60976000Y-48300000D02*
X60476000Y-48800000D01*
X61167000Y-40889000D02*
X61167000Y-48500000D01*
X61167000Y-56857000D02*
X115376000Y-56857000D01*
X61167000Y-56860000D02*
X61167000Y-51300000D01*
X61171000Y-40889000D02*
X188133000Y-40889000D01*
X118176000Y-56857000D02*
X131126000Y-56857000D01*
X133926000Y-56857000D02*
X188133000Y-56857000D01*
X188133000Y-40889000D02*
X188133000Y-48500000D01*
X188133000Y-56857000D02*
X188133000Y-51300000D01*
%TO.C,REF2*%
X168720000Y-84190000D02*
X170103000Y-84190000D01*
X168720000Y-84190000D02*
X168720000Y-82807000D01*
X168960000Y-83950000D02*
X189040000Y-83950000D01*
X168960000Y-83950000D02*
X168960000Y-74050000D01*
X189040000Y-83950000D02*
X189040000Y-74050000D01*
X170745000Y-79676667D02*
X172015000Y-79676667D01*
X173285000Y-79676667D02*
X174555000Y-79676667D01*
X175825000Y-79676667D02*
X177095000Y-79676667D01*
X178365000Y-79676667D02*
X179635000Y-79676667D01*
X180905000Y-79676667D02*
X182175000Y-79676667D01*
X183445000Y-79676667D02*
X184715000Y-79676667D01*
X185985000Y-79676667D02*
X187255000Y-79676667D01*
X168960000Y-74050000D02*
X189040000Y-74050000D01*
X170745000Y-79676667D02*
X172015000Y-79676667D01*
X172015000Y-81030000D01*
X170745000Y-81030000D01*
X170745000Y-79676667D01*
G36*
X170745000Y-79676667D02*
G01*
X172015000Y-79676667D01*
X172015000Y-81030000D01*
X170745000Y-81030000D01*
X170745000Y-79676667D01*
G37*
X170745000Y-76970000D02*
X172015000Y-76970000D01*
X172015000Y-81030000D01*
X170745000Y-81030000D01*
X170745000Y-76970000D01*
X173285000Y-79676667D02*
X174555000Y-79676667D01*
X174555000Y-81030000D01*
X173285000Y-81030000D01*
X173285000Y-79676667D01*
G36*
X173285000Y-79676667D02*
G01*
X174555000Y-79676667D01*
X174555000Y-81030000D01*
X173285000Y-81030000D01*
X173285000Y-79676667D01*
G37*
X173285000Y-76970000D02*
X174555000Y-76970000D01*
X174555000Y-81030000D01*
X173285000Y-81030000D01*
X173285000Y-76970000D01*
X175825000Y-79676667D02*
X177095000Y-79676667D01*
X177095000Y-81030000D01*
X175825000Y-81030000D01*
X175825000Y-79676667D01*
G36*
X175825000Y-79676667D02*
G01*
X177095000Y-79676667D01*
X177095000Y-81030000D01*
X175825000Y-81030000D01*
X175825000Y-79676667D01*
G37*
X175825000Y-76970000D02*
X177095000Y-76970000D01*
X177095000Y-81030000D01*
X175825000Y-81030000D01*
X175825000Y-76970000D01*
X178365000Y-79676667D02*
X179635000Y-79676667D01*
X179635000Y-81030000D01*
X178365000Y-81030000D01*
X178365000Y-79676667D01*
G36*
X178365000Y-79676667D02*
G01*
X179635000Y-79676667D01*
X179635000Y-81030000D01*
X178365000Y-81030000D01*
X178365000Y-79676667D01*
G37*
X178365000Y-76970000D02*
X179635000Y-76970000D01*
X179635000Y-81030000D01*
X178365000Y-81030000D01*
X178365000Y-76970000D01*
X180905000Y-79676667D02*
X182175000Y-79676667D01*
X182175000Y-81030000D01*
X180905000Y-81030000D01*
X180905000Y-79676667D01*
G36*
X180905000Y-79676667D02*
G01*
X182175000Y-79676667D01*
X182175000Y-81030000D01*
X180905000Y-81030000D01*
X180905000Y-79676667D01*
G37*
X180905000Y-76970000D02*
X182175000Y-76970000D01*
X182175000Y-81030000D01*
X180905000Y-81030000D01*
X180905000Y-76970000D01*
X183445000Y-79676667D02*
X184715000Y-79676667D01*
X184715000Y-81030000D01*
X183445000Y-81030000D01*
X183445000Y-79676667D01*
G36*
X183445000Y-79676667D02*
G01*
X184715000Y-79676667D01*
X184715000Y-81030000D01*
X183445000Y-81030000D01*
X183445000Y-79676667D01*
G37*
X183445000Y-76970000D02*
X184715000Y-76970000D01*
X184715000Y-81030000D01*
X183445000Y-81030000D01*
X183445000Y-76970000D01*
X185985000Y-79676667D02*
X187255000Y-79676667D01*
X187255000Y-81030000D01*
X185985000Y-81030000D01*
X185985000Y-79676667D01*
G36*
X185985000Y-79676667D02*
G01*
X187255000Y-79676667D01*
X187255000Y-81030000D01*
X185985000Y-81030000D01*
X185985000Y-79676667D01*
G37*
X185985000Y-76970000D02*
X187255000Y-76970000D01*
X187255000Y-81030000D01*
X185985000Y-81030000D01*
X185985000Y-76970000D01*
%TD*%
%LPC*%
D12*
%TO.C,REF1*%
X63182000Y-46460000D03*
X124650000Y-46460000D03*
X186118000Y-46460000D03*
D13*
X65976000Y-49000000D03*
D14*
X66992000Y-50778000D03*
X68008000Y-49000000D03*
X69024000Y-50778000D03*
X70040000Y-49000000D03*
X71056000Y-50778000D03*
X72072000Y-49000000D03*
X73088000Y-50778000D03*
X81724000Y-49000000D03*
X82740000Y-50778000D03*
X83756000Y-49000000D03*
X84772000Y-50778000D03*
X85788000Y-49000000D03*
X86804000Y-50778000D03*
X87820000Y-49000000D03*
X88836000Y-50778000D03*
X97472000Y-49000000D03*
X98488000Y-50778000D03*
X99504000Y-49000000D03*
X100520000Y-50778000D03*
X101536000Y-49000000D03*
X102552000Y-50778000D03*
X103568000Y-49000000D03*
X104584000Y-50778000D03*
X113220000Y-49000000D03*
X114236000Y-50778000D03*
X115252000Y-49000000D03*
X116268000Y-50778000D03*
X117284000Y-49000000D03*
X118300000Y-50778000D03*
X119316000Y-49000000D03*
X120332000Y-50778000D03*
X128968000Y-49000000D03*
X129984000Y-50778000D03*
X131000000Y-49000000D03*
X132016000Y-50778000D03*
X133032000Y-49000000D03*
X134048000Y-50778000D03*
X135064000Y-49000000D03*
X136080000Y-50778000D03*
X144716000Y-49000000D03*
X145732000Y-50778000D03*
X146748000Y-49000000D03*
X147764000Y-50778000D03*
X148780000Y-49000000D03*
X149796000Y-50778000D03*
X150812000Y-49000000D03*
X151828000Y-50778000D03*
X160464000Y-49000000D03*
X161480000Y-50778000D03*
X162496000Y-49000000D03*
X163512000Y-50778000D03*
X164528000Y-49000000D03*
X165544000Y-50778000D03*
X166560000Y-49000000D03*
X167576000Y-50778000D03*
X176212000Y-49000000D03*
X177228000Y-50778000D03*
X178244000Y-49000000D03*
X179260000Y-50778000D03*
X180276000Y-49000000D03*
X181292000Y-50778000D03*
X182308000Y-49000000D03*
X183324000Y-50778000D03*
D15*
X61404000Y-49889000D03*
X116776000Y-56620000D03*
X132524000Y-56620000D03*
X187896000Y-49889000D03*
%TD*%
D16*
%TO.C,REF2*%
X171380000Y-82810000D03*
D17*
X173920000Y-82810000D03*
X176460000Y-82810000D03*
X179000000Y-82810000D03*
X181540000Y-82810000D03*
X184080000Y-82810000D03*
X186620000Y-82810000D03*
X186620000Y-75190000D03*
X184080000Y-75190000D03*
X181540000Y-75190000D03*
X179000000Y-75190000D03*
X176460000Y-75190000D03*
X173920000Y-75190000D03*
X171380000Y-75190000D03*
%TD*%
%LPD*%
M02*
