M48
; DRILL file KiCad 10.0.1 date 2026-05-05T23:53:17
; FORMAT={-:-/ absolute / inch / decimal}
; #@! TF.CreationDate,2026-05-05T23:53:17+02:00
; #@! TF.GenerationSoftware,Kicad,Pcbnew,10.0.1
; #@! TF.FileFunction,Plated,1,2,PTH
FMAT,2
INCH
; #@! TA.AperFunction,Plated,PTH,ViaDrill
T1C0.0118
; #@! TA.AperFunction,Plated,PTH,ComponentDrill
T2C0.0394
%
G90
G05
T1
X0.2608Y-0.6004
X0.82Y-0.6004
X0.965Y-0.761
X1.004Y-0.061
X1.044Y-0.716
X1.3681Y-0.6004
X1.516Y-0.761
X1.5551Y-0.0601
X1.595Y-0.716
X1.675Y-0.67
X1.9193Y-0.6004
X2.012Y-0.625
X2.012Y-0.808
X2.0669Y-0.7609
X2.1063Y-0.0603
X2.112Y-0.671
X2.112Y-0.808
X2.147Y-0.715
X2.225Y-0.625
X2.3819Y-0.0591
X2.412Y-0.808
X2.4705Y-0.6004
X2.512Y-0.716
X2.5122Y-0.808
X2.612Y-0.808
X2.6181Y-0.7609
X2.6575Y-0.0605
X2.697Y-0.715
X2.776Y-0.67
X3.0217Y-0.6004
X3.169Y-0.761
X3.2087Y-0.0603
X3.249Y-0.716
X3.328Y-0.625
X3.5728Y-0.6004
X3.721Y-0.761
X3.7598Y-0.0602
X3.8Y-0.716
X3.878Y-0.67
X4.126Y-0.6004
X4.2717Y-0.7617
X4.311Y-0.061
X4.315Y-0.715
T2
X0.2953Y-0.265
X0.3346Y-0.365
X0.374Y-0.265
X0.4134Y-0.365
X0.4528Y-0.265
X0.4921Y-0.365
X0.5315Y-0.265
X0.5709Y-0.365
X0.8465Y-0.265
X0.8858Y-0.365
X0.9252Y-0.265
X0.9646Y-0.365
X1.0039Y-0.265
X1.0433Y-0.365
X1.0827Y-0.265
X1.122Y-0.365
X1.3976Y-0.265
X1.437Y-0.365
X1.4764Y-0.265
X1.5157Y-0.365
X1.5551Y-0.265
X1.5945Y-0.365
X1.6339Y-0.265
X1.6732Y-0.365
X1.9488Y-0.265
X1.9882Y-0.365
X2.0276Y-0.265
X2.0669Y-0.365
X2.1063Y-0.265
X2.1457Y-0.365
X2.185Y-0.265
X2.2244Y-0.365
X2.5Y-0.265
X2.5394Y-0.365
X2.5787Y-0.265
X2.6181Y-0.365
X2.6575Y-0.265
X2.6969Y-0.365
X2.7362Y-0.265
X2.7756Y-0.365
X3.0512Y-0.265
X3.0906Y-0.365
X3.1299Y-0.265
X3.1693Y-0.365
X3.2087Y-0.265
X3.248Y-0.365
X3.2874Y-0.265
X3.3268Y-0.365
X3.6024Y-0.265
X3.6417Y-0.365
X3.6811Y-0.265
X3.7205Y-0.365
X3.7598Y-0.265
X3.7992Y-0.365
X3.8386Y-0.265
X3.878Y-0.365
X4.1535Y-0.265
X4.1929Y-0.365
X4.2323Y-0.265
X4.2717Y-0.365
X4.311Y-0.265
X4.3504Y-0.365
X4.3898Y-0.265
X4.4291Y-0.365
M30
