%TF.GenerationSoftware,KiCad,Pcbnew,10.0.1*%
%TF.CreationDate,2026-04-20T21:56:29+02:00*%
%TF.ProjectId,Id_Board,49645f42-6f61-4726-942e-6b696361645f,rev?*%
%TF.SameCoordinates,Original*%
%TF.FileFunction,Soldermask,Top*%
%TF.FilePolarity,Negative*%
%FSLAX46Y46*%
G04 Gerber Fmt 4.6, Leading zero omitted, Abs format (unit mm)*
G04 Created by KiCad (PCBNEW 10.0.1) date 2026-04-20 21:56:29*
%MOMM*%
%LPD*%
G01*
G04 APERTURE LIST*
G04 Aperture macros list*
%AMRoundRect*
0 Rectangle with rounded corners*
0 $1 Rounding radius*
0 $2 $3 $4 $5 $6 $7 $8 $9 X,Y pos of 4 corners*
0 Add a 4 corners polygon primitive as box body*
4,1,4,$2,$3,$4,$5,$6,$7,$8,$9,$2,$3,0*
0 Add four circle primitives for the rounded corners*
1,1,$1+$1,$2,$3*
1,1,$1+$1,$4,$5*
1,1,$1+$1,$6,$7*
1,1,$1+$1,$8,$9*
0 Add four rect primitives between the rounded corners*
20,1,$1+$1,$2,$3,$4,$5,0*
20,1,$1+$1,$4,$5,$6,$7,0*
20,1,$1+$1,$6,$7,$8,$9,0*
20,1,$1+$1,$8,$9,$2,$3,0*%
G04 Aperture macros list end*
%ADD10C,3.251200*%
%ADD11R,1.498600X1.498600*%
%ADD12C,1.498600*%
%ADD13C,2.286000*%
%ADD14RoundRect,0.250000X0.550000X-0.550000X0.550000X0.550000X-0.550000X0.550000X-0.550000X-0.550000X0*%
%ADD15C,1.600000*%
G04 APERTURE END LIST*
D10*
%TO.C,REF1*%
X63182000Y-46460000D03*
D11*
X65976000Y-49000000D03*
D12*
X66992000Y-50778000D03*
X68008000Y-49000000D03*
X69024000Y-50778000D03*
X70040000Y-49000000D03*
X71056000Y-50778000D03*
X72072000Y-49000000D03*
X73088000Y-50778000D03*
X81724000Y-49000000D03*
X82740000Y-50778000D03*
X83756000Y-49000000D03*
X84772000Y-50778000D03*
X85788000Y-49000000D03*
X86804000Y-50778000D03*
X87820000Y-49000000D03*
X88836000Y-50778000D03*
X97472000Y-49000000D03*
X98488000Y-50778000D03*
X99504000Y-49000000D03*
X100520000Y-50778000D03*
X101536000Y-49000000D03*
X102552000Y-50778000D03*
X103568000Y-49000000D03*
X104584000Y-50778000D03*
X113220000Y-49000000D03*
X114236000Y-50778000D03*
X115252000Y-49000000D03*
X116268000Y-50778000D03*
X117284000Y-49000000D03*
X118300000Y-50778000D03*
X119316000Y-49000000D03*
X120332000Y-50778000D03*
X128968000Y-49000000D03*
X129984000Y-50778000D03*
X131000000Y-49000000D03*
X132016000Y-50778000D03*
X133032000Y-49000000D03*
X134048000Y-50778000D03*
X135064000Y-49000000D03*
X136080000Y-50778000D03*
X144716000Y-49000000D03*
X145732000Y-50778000D03*
X146748000Y-49000000D03*
X147764000Y-50778000D03*
X148780000Y-49000000D03*
X149796000Y-50778000D03*
X150812000Y-49000000D03*
X151828000Y-50778000D03*
X160464000Y-49000000D03*
X161480000Y-50778000D03*
X162496000Y-49000000D03*
X163512000Y-50778000D03*
X164528000Y-49000000D03*
X165544000Y-50778000D03*
X166560000Y-49000000D03*
X167576000Y-50778000D03*
X176212000Y-49000000D03*
X177228000Y-50778000D03*
X178244000Y-49000000D03*
X179260000Y-50778000D03*
X180276000Y-49000000D03*
X181292000Y-50778000D03*
X182308000Y-49000000D03*
X183324000Y-50778000D03*
D13*
X61404000Y-49889000D03*
X116776000Y-56620000D03*
X132524000Y-56620000D03*
X187896000Y-49889000D03*
%TD*%
D14*
%TO.C,REF2*%
X171380000Y-82810000D03*
D15*
X173920000Y-82810000D03*
X176460000Y-82810000D03*
X179000000Y-82810000D03*
X181540000Y-82810000D03*
X184080000Y-82810000D03*
X186620000Y-82810000D03*
X186620000Y-75190000D03*
X184080000Y-75190000D03*
X181540000Y-75190000D03*
X179000000Y-75190000D03*
X176460000Y-75190000D03*
X173920000Y-75190000D03*
X171380000Y-75190000D03*
%TD*%
M02*
