M48
; DRILL file KiCad 10.0.1 date 2026-04-20T21:56:29
; FORMAT={-:-/ absolute / inch / decimal}
; #@! TF.CreationDate,2026-04-20T21:56:29+02:00
; #@! TF.GenerationSoftware,Kicad,Pcbnew,10.0.1
; #@! TF.FileFunction,Plated,1,2,PTH
FMAT,2
INCH
; #@! TA.AperFunction,Plated,PTH,ComponentDrill
T1C0.0315
; #@! TA.AperFunction,Plated,PTH,ComponentDrill
T2C0.0350
; #@! TA.AperFunction,Plated,PTH,ComponentDrill
T3C0.0350
; #@! TA.AperFunction,Plated,PTH,ComponentDrill
T4C0.0620
%
G90
G05
T1
X6.7472Y-2.9602
X6.7472Y-3.2602
X6.8472Y-2.9602
X6.8472Y-3.2602
X6.9472Y-2.9602
X6.9472Y-3.2602
X7.0472Y-2.9602
X7.0472Y-3.2602
X7.1472Y-2.9602
X7.1472Y-3.2602
X7.2472Y-2.9602
X7.2472Y-3.2602
X7.3472Y-2.9602
X7.3472Y-3.2602
T2
X2.5975Y-1.9291
X2.6375Y-1.9991
X2.6775Y-1.9291
X2.7175Y-1.9991
X2.7575Y-1.9291
X2.7975Y-1.9991
X2.8375Y-1.9291
X2.8775Y-1.9991
X3.2175Y-1.9291
X3.2575Y-1.9991
X3.2975Y-1.9291
X3.3375Y-1.9991
X3.3775Y-1.9291
X3.4175Y-1.9991
X3.4575Y-1.9291
X3.4975Y-1.9991
X3.8375Y-1.9291
X3.8775Y-1.9991
X3.9175Y-1.9291
X3.9575Y-1.9991
X3.9975Y-1.9291
X4.0375Y-1.9991
X4.0775Y-1.9291
X4.1175Y-1.9991
X4.4575Y-1.9291
X4.4975Y-1.9991
X4.5375Y-1.9291
X4.5775Y-1.9991
X4.6175Y-1.9291
X4.6575Y-1.9991
X4.6975Y-1.9291
X4.7375Y-1.9991
X5.0775Y-1.9291
X5.1175Y-1.9991
X5.1575Y-1.9291
X5.1975Y-1.9991
X5.2375Y-1.9291
X5.2775Y-1.9991
X5.3175Y-1.9291
X5.3575Y-1.9991
X5.6975Y-1.9291
X5.7375Y-1.9991
X5.7775Y-1.9291
X5.8175Y-1.9991
X5.8575Y-1.9291
X5.8975Y-1.9991
X5.9375Y-1.9291
X5.9775Y-1.9991
X6.3175Y-1.9291
X6.3575Y-1.9991
X6.3975Y-1.9291
X6.4375Y-1.9991
X6.4775Y-1.9291
X6.5175Y-1.9991
X6.5575Y-1.9291
X6.5975Y-1.9991
X6.9375Y-1.9291
X6.9775Y-1.9991
X7.0175Y-1.9291
X7.0575Y-1.9991
X7.0975Y-1.9291
X7.1775Y-1.9291
X7.2175Y-1.9991
T3
X7.1375Y-1.9991
T4
X2.4175Y-1.9641
X4.5975Y-2.2291
X5.2175Y-2.2291
X7.3975Y-1.9641
M30
