%TF.GenerationSoftware,KiCad,Pcbnew,10.0.1*%
%TF.CreationDate,2026-04-30T16:36:20+02:00*%
%TF.ProjectId,Id_Board,49645f42-6f61-4726-942e-6b696361645f,rev?*%
%TF.SameCoordinates,Original*%
%TF.FileFunction,Copper,L2,Bot*%
%TF.FilePolarity,Positive*%
%FSLAX46Y46*%
G04 Gerber Fmt 4.6, Leading zero omitted, Abs format (unit mm)*
G04 Created by KiCad (PCBNEW 10.0.1) date 2026-04-30 16:36:20*
%MOMM*%
%LPD*%
G01*
G04 APERTURE LIST*
%TA.AperFunction,ComponentPad*%
%ADD10C,3.200000*%
%TD*%
%TA.AperFunction,ComponentPad*%
%ADD11C,1.600000*%
%TD*%
%TA.AperFunction,ViaPad*%
%ADD12C,0.600000*%
%TD*%
%TA.AperFunction,Conductor*%
%ADD13C,0.200000*%
%TD*%
G04 APERTURE END LIST*
D10*
%TO.P,J1,*%
%TO.N,*%
X114750000Y-4140000D03*
X5250000Y-4140000D03*
D11*
%TO.P,J1,A1*%
%TO.N,Net-(J1-PadA1)*%
X105500000Y-6730000D03*
%TO.P,J1,A2*%
%TO.N,Net-(J1-PadA2)*%
X106500000Y-9270000D03*
%TO.P,J1,A3*%
%TO.N,Net-(J1-PadA3)*%
X107500000Y-6730000D03*
%TO.P,J1,A4*%
%TO.N,BoardA*%
X108500000Y-9270000D03*
%TO.P,J1,A5*%
%TO.N,BoardB*%
X109500000Y-6730000D03*
%TO.P,J1,A6*%
%TO.N,BoardC*%
X110500000Y-9270000D03*
%TO.P,J1,A7*%
%TO.N,BoardD*%
X111500000Y-6730000D03*
%TO.P,J1,A8*%
%TO.N,ParityA*%
X112500000Y-9270000D03*
%TO.P,J1,B1*%
%TO.N,Net-(J1-PadB1)*%
X91500000Y-6730000D03*
%TO.P,J1,B2*%
%TO.N,Net-(J1-PadB2)*%
X92500000Y-9270000D03*
%TO.P,J1,B3*%
%TO.N,Net-(J1-PadB3)*%
X93500000Y-6730000D03*
%TO.P,J1,B4*%
%TO.N,BoardA*%
X94500000Y-9270000D03*
%TO.P,J1,B5*%
%TO.N,BoardB*%
X95500000Y-6730000D03*
%TO.P,J1,B6*%
%TO.N,BoardC*%
X96500000Y-9270000D03*
%TO.P,J1,B7*%
%TO.N,BoardD*%
X97500000Y-6730000D03*
%TO.P,J1,B8*%
%TO.N,ParityB*%
X98500000Y-9270000D03*
%TO.P,J1,C1*%
%TO.N,Net-(J1-PadC1)*%
X77500000Y-6730000D03*
%TO.P,J1,C2*%
%TO.N,Net-(J1-PadC2)*%
X78500000Y-9270000D03*
%TO.P,J1,C3*%
%TO.N,Net-(J1-PadC3)*%
X79500000Y-6730000D03*
%TO.P,J1,C4*%
%TO.N,BoardA*%
X80500000Y-9270000D03*
%TO.P,J1,C5*%
%TO.N,BoardB*%
X81500000Y-6730000D03*
%TO.P,J1,C6*%
%TO.N,BoardC*%
X82500000Y-9270000D03*
%TO.P,J1,C7*%
%TO.N,BoardD*%
X83500000Y-6730000D03*
%TO.P,J1,C8*%
%TO.N,ParityA*%
X84500000Y-9270000D03*
%TO.P,J1,D1*%
%TO.N,Net-(J1-PadD1)*%
X63500000Y-6730000D03*
%TO.P,J1,D2*%
%TO.N,Net-(J1-PadD2)*%
X64500000Y-9270000D03*
%TO.P,J1,D3*%
%TO.N,Net-(J1-PadD3)*%
X65500000Y-6730000D03*
%TO.P,J1,D4*%
%TO.N,BoardA*%
X66500000Y-9270000D03*
%TO.P,J1,D5*%
%TO.N,BoardB*%
X67500000Y-6730000D03*
%TO.P,J1,D6*%
%TO.N,BoardC*%
X68500000Y-9270000D03*
%TO.P,J1,D7*%
%TO.N,BoardD*%
X69500000Y-6730000D03*
%TO.P,J1,D8*%
%TO.N,ParityB*%
X70500000Y-9270000D03*
%TO.P,J1,E1*%
%TO.N,Net-(J1-PadE1)*%
X49500000Y-6730000D03*
%TO.P,J1,E2*%
%TO.N,Net-(J1-PadE2)*%
X50500000Y-9270000D03*
%TO.P,J1,E3*%
%TO.N,Net-(J1-PadE3)*%
X51500000Y-6730000D03*
%TO.P,J1,E4*%
%TO.N,BoardA*%
X52500000Y-9270000D03*
%TO.P,J1,E5*%
%TO.N,BoardB*%
X53500000Y-6730000D03*
%TO.P,J1,E6*%
%TO.N,BoardC*%
X54500000Y-9270000D03*
%TO.P,J1,E7*%
%TO.N,BoardD*%
X55500000Y-6730000D03*
%TO.P,J1,E8*%
%TO.N,ParityA*%
X56500000Y-9270000D03*
%TO.P,J1,F1*%
%TO.N,Net-(J1-PadF1)*%
X35500000Y-6730000D03*
%TO.P,J1,F2*%
%TO.N,Net-(J1-PadF2)*%
X36500000Y-9270000D03*
%TO.P,J1,F3*%
%TO.N,Net-(J1-PadF3)*%
X37500000Y-6730000D03*
%TO.P,J1,F4*%
%TO.N,BoardA*%
X38500000Y-9270000D03*
%TO.P,J1,F5*%
%TO.N,BoardB*%
X39500000Y-6730000D03*
%TO.P,J1,F6*%
%TO.N,BoardC*%
X40500000Y-9270000D03*
%TO.P,J1,F7*%
%TO.N,BoardD*%
X41500000Y-6730000D03*
%TO.P,J1,F8*%
%TO.N,ParityB*%
X42500000Y-9270000D03*
%TO.P,J1,G1*%
%TO.N,Net-(J1-PadG1)*%
X21500000Y-6730000D03*
%TO.P,J1,G2*%
%TO.N,Net-(J1-PadG2)*%
X22500000Y-9270000D03*
%TO.P,J1,G3*%
%TO.N,Net-(J1-PadG3)*%
X23500000Y-6730000D03*
%TO.P,J1,G4*%
%TO.N,BoardA*%
X24500000Y-9270000D03*
%TO.P,J1,G5*%
%TO.N,BoardB*%
X25500000Y-6730000D03*
%TO.P,J1,G6*%
%TO.N,BoardC*%
X26500000Y-9270000D03*
%TO.P,J1,G7*%
%TO.N,BoardD*%
X27500000Y-6730000D03*
%TO.P,J1,G8*%
%TO.N,ParityA*%
X28500000Y-9270000D03*
%TO.P,J1,H1*%
%TO.N,Net-(J1-PadH1)*%
X7500000Y-6730000D03*
%TO.P,J1,H2*%
%TO.N,Net-(J1-PadH2)*%
X8500000Y-9270000D03*
%TO.P,J1,H3*%
%TO.N,Net-(J1-PadH3)*%
X9500000Y-6730000D03*
%TO.P,J1,H4*%
%TO.N,BoardA*%
X10500000Y-9270000D03*
%TO.P,J1,H5*%
%TO.N,BoardB*%
X11500000Y-6730000D03*
%TO.P,J1,H6*%
%TO.N,BoardC*%
X12500000Y-9270000D03*
%TO.P,J1,H7*%
%TO.N,BoardD*%
X13500000Y-6730000D03*
%TO.P,J1,H8*%
%TO.N,ParityB*%
X14500000Y-9270000D03*
%TD*%
D12*
%TO.N,ParityA*%
X51104800Y-20523200D03*
X51104800Y-15875000D03*
X56515000Y-15875000D03*
X84531200Y-15875000D03*
%TO.N,BoardA*%
X94513400Y-19329400D03*
X108500000Y-19346000D03*
X52500000Y-19327600D03*
X24511000Y-19329400D03*
X38506400Y-19329400D03*
X66500000Y-19326600D03*
X80492600Y-19329400D03*
%TO.N,BoardC*%
X40513000Y-18186400D03*
X96520000Y-18186400D03*
X26517600Y-18186400D03*
X54533800Y-18161000D03*
X82524600Y-18186400D03*
X68503800Y-18161000D03*
X109601000Y-18161000D03*
X63804800Y-18186400D03*
X63810000Y-20523200D03*
%TO.N,BoardB*%
X25501600Y-1549400D03*
X95500000Y-1528000D03*
X67500000Y-1536200D03*
X39500000Y-1527000D03*
X109500000Y-1550000D03*
X66344800Y-20523200D03*
X60500000Y-1500000D03*
X53500000Y-1531600D03*
X81500000Y-1532600D03*
%TO.N,BoardD*%
X61264800Y-20523200D03*
%TO.N,ParityB*%
X42545000Y-17018000D03*
X98501200Y-17018000D03*
X53644800Y-17043400D03*
X70510400Y-17018000D03*
X53644800Y-20523200D03*
%TO.N,GND*%
X90750000Y-15250000D03*
X6625000Y-15250000D03*
X76750000Y-15250000D03*
X20828000Y-15250000D03*
X104800400Y-15250000D03*
X62750000Y-15250000D03*
X48750000Y-15250000D03*
X34750000Y-15250000D03*
%TD*%
%TO.N,ParityA*%
D13*
X84500000Y-15843800D02*
X84531200Y-15875000D01*
X84500000Y-9270000D02*
X84500000Y-15843800D01*
X51104800Y-20472400D02*
X51104800Y-15875000D01*
X56500000Y-15860000D02*
X56515000Y-15875000D01*
X56500000Y-9270000D02*
X56500000Y-15860000D01*
%TO.N,BoardA*%
X66500000Y-9270000D02*
X66500000Y-19326600D01*
X24500000Y-19318400D02*
X24511000Y-19329400D01*
X38500000Y-9270000D02*
X38500000Y-19323000D01*
X66497200Y-19329400D02*
X66500000Y-19326600D01*
X80492600Y-19329400D02*
X80500000Y-19322000D01*
X52501800Y-19329400D02*
X52500000Y-19327600D01*
X94513400Y-19304000D02*
X94500000Y-19290600D01*
X80500000Y-19322000D02*
X80500000Y-9270000D01*
X94513400Y-19329400D02*
X94513400Y-19304000D01*
X52500000Y-9270000D02*
X52500000Y-19327600D01*
X24500000Y-9270000D02*
X24500000Y-19318400D01*
X94500000Y-19290600D02*
X94500000Y-9270000D01*
X108508800Y-19354800D02*
X108500000Y-19346000D01*
X38500000Y-19323000D02*
X38506400Y-19329400D01*
X108500000Y-9270000D02*
X108500000Y-19346000D01*
%TO.N,BoardC*%
X63810000Y-20543400D02*
X63810000Y-18191600D01*
X26500000Y-9270000D02*
X26500000Y-18168800D01*
X40500000Y-18173400D02*
X40513000Y-18186400D01*
X40500000Y-9270000D02*
X40500000Y-18173400D01*
X68500000Y-9270000D02*
X68500000Y-18157200D01*
X63810000Y-18191600D02*
X63804800Y-18186400D01*
X26500000Y-18168800D02*
X26517600Y-18186400D01*
X54500000Y-9270000D02*
X54500000Y-18127200D01*
X110500000Y-9270000D02*
X110500000Y-17262000D01*
X110500000Y-17262000D02*
X109601000Y-18161000D01*
X96500000Y-18166400D02*
X96520000Y-18186400D01*
X82500000Y-18161800D02*
X82524600Y-18186400D01*
X96500000Y-9270000D02*
X96500000Y-18166400D01*
X54500000Y-18127200D02*
X54533800Y-18161000D01*
X82500000Y-9270000D02*
X82500000Y-18161800D01*
X68500000Y-18157200D02*
X68503800Y-18161000D01*
%TO.N,BoardB*%
X25500000Y-6730000D02*
X25500000Y-1551000D01*
X53500000Y-6730000D02*
X53500000Y-1531600D01*
X95500000Y-1528000D02*
X95504000Y-1524000D01*
X81508600Y-1524000D02*
X81500000Y-1532600D01*
X67500000Y-6730000D02*
X67500000Y-1536200D01*
X25500000Y-1551000D02*
X25501600Y-1549400D01*
X53492400Y-1524000D02*
X53500000Y-1531600D01*
X64901471Y-18250000D02*
X60500000Y-13848529D01*
X39500000Y-6730000D02*
X39500000Y-1527000D01*
X64901471Y-19079871D02*
X64901471Y-18250000D01*
X67487800Y-1524000D02*
X67500000Y-1536200D01*
X109499400Y-1549400D02*
X109500000Y-1550000D01*
X60500000Y-13848529D02*
X60500000Y-1500000D01*
X39497000Y-1524000D02*
X39500000Y-1527000D01*
X109500000Y-6730000D02*
X109500000Y-1550000D01*
X95500000Y-6730000D02*
X95500000Y-1528000D01*
X66344800Y-20523200D02*
X64901471Y-19079871D01*
X81500000Y-6730000D02*
X81500000Y-1532600D01*
%TO.N,BoardD*%
X56742600Y-6730000D02*
X55500000Y-6730000D01*
X61264800Y-20523200D02*
X58293000Y-17551400D01*
X58293000Y-8280400D02*
X56742600Y-6730000D01*
X58293000Y-17551400D02*
X58293000Y-8280400D01*
%TO.N,ParityB*%
X42500000Y-9270000D02*
X42500000Y-16973000D01*
X98500000Y-9270000D02*
X98500000Y-17016800D01*
X70500000Y-17007600D02*
X70510400Y-17018000D01*
X53644800Y-20523200D02*
X53644800Y-17043400D01*
X98500000Y-17016800D02*
X98501200Y-17018000D01*
X70500000Y-9270000D02*
X70500000Y-17007600D01*
X42500000Y-16973000D02*
X42545000Y-17018000D01*
%TD*%
%TA.AperFunction,Conductor*%
%TO.N,GND*%
G36*
X39365382Y-520185D02*
G01*
X39411137Y-572989D01*
X39421081Y-642147D01*
X39392056Y-705703D01*
X39333278Y-743477D01*
X39322535Y-746117D01*
X39266508Y-757261D01*
X39266498Y-757264D01*
X39120827Y-817602D01*
X39120814Y-817609D01*
X38989711Y-905210D01*
X38989707Y-905213D01*
X38878213Y-1016707D01*
X38878210Y-1016711D01*
X38790609Y-1147814D01*
X38790602Y-1147827D01*
X38730264Y-1293498D01*
X38730261Y-1293510D01*
X38699500Y-1448153D01*
X38699500Y-1605846D01*
X38730261Y-1760489D01*
X38730264Y-1760501D01*
X38790602Y-1906172D01*
X38790609Y-1906185D01*
X38878602Y-2037874D01*
X38899480Y-2104551D01*
X38899500Y-2106765D01*
X38899500Y-5500397D01*
X38879815Y-5567436D01*
X38831800Y-5610879D01*
X38818389Y-5617712D01*
X38652786Y-5738028D01*
X38652782Y-5738032D01*
X38587681Y-5803134D01*
X38526358Y-5836619D01*
X38456666Y-5831635D01*
X38412319Y-5803134D01*
X38347213Y-5738028D01*
X38181613Y-5617715D01*
X38181612Y-5617714D01*
X38181610Y-5617713D01*
X38124653Y-5588691D01*
X37999223Y-5524781D01*
X37804534Y-5461522D01*
X37629995Y-5433878D01*
X37602352Y-5429500D01*
X37397648Y-5429500D01*
X37373329Y-5433351D01*
X37195465Y-5461522D01*
X37000776Y-5524781D01*
X36818386Y-5617715D01*
X36652786Y-5738028D01*
X36652782Y-5738032D01*
X36587681Y-5803134D01*
X36526358Y-5836619D01*
X36456666Y-5831635D01*
X36412319Y-5803134D01*
X36347213Y-5738028D01*
X36181613Y-5617715D01*
X36181612Y-5617714D01*
X36181610Y-5617713D01*
X36124653Y-5588691D01*
X35999223Y-5524781D01*
X35804534Y-5461522D01*
X35629995Y-5433878D01*
X35602352Y-5429500D01*
X35397648Y-5429500D01*
X35373329Y-5433351D01*
X35195465Y-5461522D01*
X35000776Y-5524781D01*
X34818386Y-5617715D01*
X34652786Y-5738028D01*
X34508028Y-5882786D01*
X34387715Y-6048386D01*
X34294781Y-6230776D01*
X34231522Y-6425465D01*
X34199500Y-6627648D01*
X34199500Y-6832351D01*
X34231522Y-7034534D01*
X34294781Y-7229223D01*
X34387715Y-7411613D01*
X34508028Y-7577213D01*
X34652786Y-7721971D01*
X34773598Y-7809744D01*
X34818390Y-7842287D01*
X34934607Y-7901503D01*
X35000776Y-7935218D01*
X35000778Y-7935218D01*
X35000781Y-7935220D01*
X35062144Y-7955158D01*
X35195465Y-7998477D01*
X35214697Y-8001523D01*
X35397648Y-8030500D01*
X35397649Y-8030500D01*
X35602347Y-8030500D01*
X35602352Y-8030500D01*
X35602356Y-8030499D01*
X35602664Y-8030475D01*
X35602783Y-8030500D01*
X35607224Y-8030500D01*
X35607224Y-8031432D01*
X35671043Y-8044829D01*
X35720807Y-8093873D01*
X35736156Y-8162035D01*
X35712217Y-8227676D01*
X35685297Y-8254409D01*
X35652782Y-8278032D01*
X35508028Y-8422786D01*
X35387715Y-8588386D01*
X35294781Y-8770776D01*
X35231522Y-8965465D01*
X35199500Y-9167648D01*
X35199500Y-9372351D01*
X35231522Y-9574534D01*
X35294781Y-9769223D01*
X35387715Y-9951613D01*
X35508028Y-10117213D01*
X35652786Y-10261971D01*
X35807749Y-10374556D01*
X35818390Y-10382287D01*
X35899499Y-10423614D01*
X36000776Y-10475218D01*
X36000778Y-10475218D01*
X36000781Y-10475220D01*
X36075818Y-10499601D01*
X36195465Y-10538477D01*
X36296557Y-10554488D01*
X36397648Y-10570500D01*
X36397649Y-10570500D01*
X36602351Y-10570500D01*
X36602352Y-10570500D01*
X36804534Y-10538477D01*
X36999219Y-10475220D01*
X37181610Y-10382287D01*
X37274590Y-10314732D01*
X37347213Y-10261971D01*
X37347215Y-10261968D01*
X37347219Y-10261966D01*
X37412319Y-10196866D01*
X37473642Y-10163381D01*
X37543334Y-10168365D01*
X37587681Y-10196866D01*
X37652781Y-10261966D01*
X37818390Y-10382287D01*
X37831793Y-10389116D01*
X37882589Y-10437088D01*
X37899500Y-10499601D01*
X37899500Y-18759212D01*
X37879815Y-18826251D01*
X37878602Y-18828103D01*
X37797009Y-18950214D01*
X37797002Y-18950227D01*
X37736664Y-19095898D01*
X37736661Y-19095910D01*
X37705900Y-19250553D01*
X37705900Y-19408246D01*
X37736661Y-19562889D01*
X37736664Y-19562901D01*
X37797002Y-19708572D01*
X37797009Y-19708585D01*
X37884610Y-19839688D01*
X37884613Y-19839692D01*
X37996107Y-19951186D01*
X37996111Y-19951189D01*
X38127214Y-20038790D01*
X38127227Y-20038797D01*
X38272898Y-20099135D01*
X38272903Y-20099137D01*
X38384263Y-20121288D01*
X38427553Y-20129899D01*
X38427556Y-20129900D01*
X38427558Y-20129900D01*
X38585244Y-20129900D01*
X38585245Y-20129899D01*
X38739897Y-20099137D01*
X38885579Y-20038794D01*
X39016689Y-19951189D01*
X39128189Y-19839689D01*
X39215794Y-19708579D01*
X39276137Y-19562897D01*
X39306900Y-19408242D01*
X39306900Y-19250558D01*
X39306900Y-19250555D01*
X39306899Y-19250553D01*
X39279439Y-19112503D01*
X39276137Y-19095903D01*
X39274975Y-19093098D01*
X39215797Y-18950227D01*
X39215790Y-18950214D01*
X39124805Y-18814046D01*
X39125936Y-18813289D01*
X39101333Y-18755350D01*
X39100500Y-18741003D01*
X39100500Y-10499601D01*
X39120185Y-10432562D01*
X39168206Y-10389116D01*
X39181610Y-10382287D01*
X39347219Y-10261966D01*
X39412319Y-10196866D01*
X39473642Y-10163381D01*
X39543334Y-10168365D01*
X39587681Y-10196866D01*
X39652781Y-10261966D01*
X39818390Y-10382287D01*
X39831793Y-10389116D01*
X39882589Y-10437088D01*
X39899500Y-10499601D01*
X39899500Y-17626090D01*
X39879815Y-17693129D01*
X39878602Y-17694981D01*
X39803609Y-17807214D01*
X39803602Y-17807227D01*
X39743264Y-17952898D01*
X39743261Y-17952910D01*
X39712500Y-18107553D01*
X39712500Y-18265246D01*
X39743261Y-18419889D01*
X39743264Y-18419901D01*
X39803602Y-18565572D01*
X39803609Y-18565585D01*
X39891210Y-18696688D01*
X39891213Y-18696692D01*
X40002707Y-18808186D01*
X40002711Y-18808189D01*
X40133814Y-18895790D01*
X40133827Y-18895797D01*
X40265220Y-18950221D01*
X40279503Y-18956137D01*
X40377365Y-18975603D01*
X40434153Y-18986899D01*
X40434156Y-18986900D01*
X40434158Y-18986900D01*
X40591844Y-18986900D01*
X40591845Y-18986899D01*
X40746497Y-18956137D01*
X40892179Y-18895794D01*
X41023289Y-18808189D01*
X41134789Y-18696689D01*
X41222394Y-18565579D01*
X41282737Y-18419897D01*
X41313500Y-18265242D01*
X41313500Y-18107558D01*
X41313500Y-18107555D01*
X41313499Y-18107553D01*
X41298455Y-18031921D01*
X41282737Y-17952903D01*
X41269156Y-17920116D01*
X41222397Y-17807227D01*
X41222390Y-17807214D01*
X41134789Y-17676111D01*
X41130924Y-17671401D01*
X41132453Y-17670145D01*
X41103334Y-17616817D01*
X41100500Y-17590459D01*
X41100500Y-10499601D01*
X41120185Y-10432562D01*
X41168206Y-10389116D01*
X41181610Y-10382287D01*
X41347219Y-10261966D01*
X41412319Y-10196866D01*
X41473642Y-10163381D01*
X41543334Y-10168365D01*
X41587681Y-10196866D01*
X41652781Y-10261966D01*
X41818390Y-10382287D01*
X41831793Y-10389116D01*
X41882589Y-10437088D01*
X41899500Y-10499601D01*
X41899500Y-16505580D01*
X41879815Y-16572619D01*
X41878603Y-16574469D01*
X41835611Y-16638812D01*
X41835602Y-16638828D01*
X41775264Y-16784498D01*
X41775261Y-16784510D01*
X41744500Y-16939153D01*
X41744500Y-17096846D01*
X41775261Y-17251489D01*
X41775264Y-17251501D01*
X41835602Y-17397172D01*
X41835609Y-17397185D01*
X41923210Y-17528288D01*
X41923213Y-17528292D01*
X42034707Y-17639786D01*
X42034711Y-17639789D01*
X42165814Y-17727390D01*
X42165827Y-17727397D01*
X42297220Y-17781821D01*
X42311503Y-17787737D01*
X42466153Y-17818499D01*
X42466156Y-17818500D01*
X42466158Y-17818500D01*
X42623844Y-17818500D01*
X42623845Y-17818499D01*
X42778497Y-17787737D01*
X42924179Y-17727394D01*
X43055289Y-17639789D01*
X43166789Y-17528289D01*
X43254394Y-17397179D01*
X43256845Y-17391263D01*
X43277640Y-17341057D01*
X43314737Y-17251497D01*
X43345500Y-17096842D01*
X43345500Y-16939158D01*
X43345500Y-16939155D01*
X43345499Y-16939153D01*
X43314738Y-16784510D01*
X43314737Y-16784503D01*
X43269587Y-16675500D01*
X43254397Y-16638827D01*
X43254390Y-16638814D01*
X43166789Y-16507711D01*
X43166786Y-16507707D01*
X43136819Y-16477740D01*
X43103334Y-16416417D01*
X43100500Y-16390059D01*
X43100500Y-10499601D01*
X43120185Y-10432562D01*
X43168206Y-10389116D01*
X43181610Y-10382287D01*
X43347219Y-10261966D01*
X43491966Y-10117219D01*
X43491968Y-10117215D01*
X43491971Y-10117213D01*
X43544732Y-10044590D01*
X43612287Y-9951610D01*
X43705220Y-9769219D01*
X43768477Y-9574534D01*
X43800500Y-9372352D01*
X43800500Y-9167648D01*
X43768477Y-8965466D01*
X43705220Y-8770781D01*
X43705218Y-8770778D01*
X43705218Y-8770776D01*
X43671503Y-8704607D01*
X43612287Y-8588390D01*
X43604556Y-8577749D01*
X43491971Y-8422786D01*
X43347213Y-8278028D01*
X43181613Y-8157715D01*
X43181612Y-8157714D01*
X43181610Y-8157713D01*
X43124653Y-8128691D01*
X42999223Y-8064781D01*
X42804534Y-8001522D01*
X42629995Y-7973878D01*
X42602352Y-7969500D01*
X42397648Y-7969500D01*
X42397641Y-7969500D01*
X42397310Y-7969526D01*
X42397186Y-7969500D01*
X42392776Y-7969500D01*
X42392776Y-7968573D01*
X42328933Y-7955158D01*
X42279179Y-7906104D01*
X42263844Y-7837938D01*
X42287797Y-7772302D01*
X42314702Y-7745590D01*
X42347219Y-7721966D01*
X42491966Y-7577219D01*
X42491968Y-7577215D01*
X42491971Y-7577213D01*
X42546591Y-7502033D01*
X42612287Y-7411610D01*
X42705220Y-7229219D01*
X42768477Y-7034534D01*
X42800500Y-6832352D01*
X42800500Y-6627648D01*
X42768477Y-6425466D01*
X42705220Y-6230781D01*
X42705218Y-6230778D01*
X42705218Y-6230776D01*
X42655548Y-6133295D01*
X42612287Y-6048390D01*
X42597414Y-6027919D01*
X42491971Y-5882786D01*
X42347213Y-5738028D01*
X42181613Y-5617715D01*
X42181612Y-5617714D01*
X42181610Y-5617713D01*
X42124653Y-5588691D01*
X41999223Y-5524781D01*
X41804534Y-5461522D01*
X41629995Y-5433878D01*
X41602352Y-5429500D01*
X41397648Y-5429500D01*
X41373329Y-5433351D01*
X41195465Y-5461522D01*
X41000776Y-5524781D01*
X40818386Y-5617715D01*
X40652786Y-5738028D01*
X40652782Y-5738032D01*
X40587681Y-5803134D01*
X40526358Y-5836619D01*
X40456666Y-5831635D01*
X40412319Y-5803134D01*
X40347213Y-5738028D01*
X40181610Y-5617712D01*
X40168200Y-5610879D01*
X40117406Y-5562903D01*
X40100500Y-5500397D01*
X40100500Y-2106765D01*
X40120185Y-2039726D01*
X40121398Y-2037874D01*
X40209390Y-1906185D01*
X40209390Y-1906184D01*
X40209394Y-1906179D01*
X40269737Y-1760497D01*
X40300500Y-1605842D01*
X40300500Y-1448158D01*
X40300500Y-1448155D01*
X40300499Y-1448153D01*
X40288015Y-1385394D01*
X40269737Y-1293503D01*
X40258551Y-1266498D01*
X40209397Y-1147827D01*
X40209390Y-1147814D01*
X40121789Y-1016711D01*
X40121786Y-1016707D01*
X40010292Y-905213D01*
X40010288Y-905210D01*
X39879185Y-817609D01*
X39879172Y-817602D01*
X39733501Y-757264D01*
X39733491Y-757261D01*
X39677465Y-746117D01*
X39615554Y-713732D01*
X39580980Y-653016D01*
X39584720Y-583247D01*
X39625587Y-526575D01*
X39690605Y-500993D01*
X39701657Y-500500D01*
X53321469Y-500500D01*
X53388508Y-520185D01*
X53434263Y-572989D01*
X53444207Y-642147D01*
X53415182Y-705703D01*
X53356404Y-743477D01*
X53345660Y-746117D01*
X53266510Y-761861D01*
X53266498Y-761864D01*
X53120827Y-822202D01*
X53120814Y-822209D01*
X52989711Y-909810D01*
X52989707Y-909813D01*
X52878213Y-1021307D01*
X52878210Y-1021311D01*
X52790609Y-1152414D01*
X52790602Y-1152427D01*
X52730264Y-1298098D01*
X52730261Y-1298110D01*
X52699500Y-1452753D01*
X52699500Y-1610446D01*
X52730261Y-1765089D01*
X52730264Y-1765101D01*
X52790602Y-1910772D01*
X52790609Y-1910785D01*
X52857487Y-2010874D01*
X52876196Y-2038874D01*
X52878602Y-2042474D01*
X52899480Y-2109151D01*
X52899500Y-2111365D01*
X52899500Y-5500397D01*
X52879815Y-5567436D01*
X52831800Y-5610879D01*
X52818389Y-5617712D01*
X52652786Y-5738028D01*
X52652782Y-5738032D01*
X52587681Y-5803134D01*
X52526358Y-5836619D01*
X52456666Y-5831635D01*
X52412319Y-5803134D01*
X52347213Y-5738028D01*
X52181613Y-5617715D01*
X52181612Y-5617714D01*
X52181610Y-5617713D01*
X52124653Y-5588691D01*
X51999223Y-5524781D01*
X51804534Y-5461522D01*
X51629995Y-5433878D01*
X51602352Y-5429500D01*
X51397648Y-5429500D01*
X51373329Y-5433351D01*
X51195465Y-5461522D01*
X51000776Y-5524781D01*
X50818386Y-5617715D01*
X50652786Y-5738028D01*
X50652782Y-5738032D01*
X50587681Y-5803134D01*
X50526358Y-5836619D01*
X50456666Y-5831635D01*
X50412319Y-5803134D01*
X50347213Y-5738028D01*
X50181613Y-5617715D01*
X50181612Y-5617714D01*
X50181610Y-5617713D01*
X50124653Y-5588691D01*
X49999223Y-5524781D01*
X49804534Y-5461522D01*
X49629995Y-5433878D01*
X49602352Y-5429500D01*
X49397648Y-5429500D01*
X49373329Y-5433351D01*
X49195465Y-5461522D01*
X49000776Y-5524781D01*
X48818386Y-5617715D01*
X48652786Y-5738028D01*
X48508028Y-5882786D01*
X48387715Y-6048386D01*
X48294781Y-6230776D01*
X48231522Y-6425465D01*
X48199500Y-6627648D01*
X48199500Y-6832351D01*
X48231522Y-7034534D01*
X48294781Y-7229223D01*
X48387715Y-7411613D01*
X48508028Y-7577213D01*
X48652786Y-7721971D01*
X48773598Y-7809744D01*
X48818390Y-7842287D01*
X48934607Y-7901503D01*
X49000776Y-7935218D01*
X49000778Y-7935218D01*
X49000781Y-7935220D01*
X49062144Y-7955158D01*
X49195465Y-7998477D01*
X49214697Y-8001523D01*
X49397648Y-8030500D01*
X49397649Y-8030500D01*
X49602347Y-8030500D01*
X49602352Y-8030500D01*
X49602356Y-8030499D01*
X49602664Y-8030475D01*
X49602783Y-8030500D01*
X49607224Y-8030500D01*
X49607224Y-8031432D01*
X49671043Y-8044829D01*
X49720807Y-8093873D01*
X49736156Y-8162035D01*
X49712217Y-8227676D01*
X49685297Y-8254409D01*
X49652782Y-8278032D01*
X49508028Y-8422786D01*
X49387715Y-8588386D01*
X49294781Y-8770776D01*
X49231522Y-8965465D01*
X49199500Y-9167648D01*
X49199500Y-9372351D01*
X49231522Y-9574534D01*
X49294781Y-9769223D01*
X49387715Y-9951613D01*
X49508028Y-10117213D01*
X49652786Y-10261971D01*
X49807749Y-10374556D01*
X49818390Y-10382287D01*
X49899499Y-10423614D01*
X50000776Y-10475218D01*
X50000778Y-10475218D01*
X50000781Y-10475220D01*
X50075818Y-10499601D01*
X50195465Y-10538477D01*
X50296557Y-10554488D01*
X50397648Y-10570500D01*
X50397649Y-10570500D01*
X50602351Y-10570500D01*
X50602352Y-10570500D01*
X50804534Y-10538477D01*
X50999219Y-10475220D01*
X51181610Y-10382287D01*
X51274590Y-10314732D01*
X51347213Y-10261971D01*
X51347215Y-10261968D01*
X51347219Y-10261966D01*
X51412319Y-10196866D01*
X51473642Y-10163381D01*
X51543334Y-10168365D01*
X51587681Y-10196866D01*
X51652781Y-10261966D01*
X51818390Y-10382287D01*
X51831793Y-10389116D01*
X51882589Y-10437088D01*
X51899500Y-10499601D01*
X51899500Y-15238259D01*
X51879815Y-15305298D01*
X51827011Y-15351053D01*
X51757853Y-15360997D01*
X51694297Y-15331972D01*
X51687819Y-15325940D01*
X51615092Y-15253213D01*
X51615088Y-15253210D01*
X51483985Y-15165609D01*
X51483972Y-15165602D01*
X51338301Y-15105264D01*
X51338289Y-15105261D01*
X51183645Y-15074500D01*
X51183642Y-15074500D01*
X51025958Y-15074500D01*
X51025955Y-15074500D01*
X50871310Y-15105261D01*
X50871298Y-15105264D01*
X50725627Y-15165602D01*
X50725614Y-15165609D01*
X50594511Y-15253210D01*
X50594507Y-15253213D01*
X50483013Y-15364707D01*
X50483010Y-15364711D01*
X50395409Y-15495814D01*
X50395402Y-15495827D01*
X50335064Y-15641498D01*
X50335061Y-15641510D01*
X50304300Y-15796153D01*
X50304300Y-15953846D01*
X50335061Y-16108489D01*
X50335064Y-16108501D01*
X50395402Y-16254172D01*
X50395409Y-16254185D01*
X50483402Y-16385874D01*
X50504280Y-16452551D01*
X50504300Y-16454765D01*
X50504300Y-19943434D01*
X50484615Y-20010473D01*
X50483402Y-20012325D01*
X50395409Y-20144014D01*
X50395402Y-20144027D01*
X50335064Y-20289698D01*
X50335061Y-20289710D01*
X50304300Y-20444353D01*
X50304300Y-20602046D01*
X50335061Y-20756689D01*
X50335064Y-20756701D01*
X50395402Y-20902372D01*
X50395409Y-20902385D01*
X50483010Y-21033488D01*
X50483013Y-21033492D01*
X50594507Y-21144986D01*
X50594511Y-21144989D01*
X50725614Y-21232590D01*
X50725627Y-21232597D01*
X50871298Y-21292935D01*
X50871303Y-21292937D01*
X51025953Y-21323699D01*
X51025956Y-21323700D01*
X51025958Y-21323700D01*
X51183644Y-21323700D01*
X51183645Y-21323699D01*
X51338297Y-21292937D01*
X51483979Y-21232594D01*
X51615089Y-21144989D01*
X51726589Y-21033489D01*
X51814194Y-20902379D01*
X51874537Y-20756697D01*
X51905300Y-20602042D01*
X51905300Y-20444358D01*
X51905300Y-20444355D01*
X51905299Y-20444353D01*
X51874538Y-20289710D01*
X51874537Y-20289703D01*
X51863390Y-20262791D01*
X51814197Y-20144027D01*
X51814190Y-20144014D01*
X51768297Y-20075331D01*
X51747419Y-20008654D01*
X51765903Y-19941274D01*
X51817882Y-19894583D01*
X51886852Y-19883407D01*
X51950916Y-19911292D01*
X51959080Y-19918759D01*
X51989707Y-19949386D01*
X51989711Y-19949389D01*
X52120814Y-20036990D01*
X52120827Y-20036997D01*
X52264936Y-20096688D01*
X52266503Y-20097337D01*
X52386912Y-20121288D01*
X52421153Y-20128099D01*
X52421156Y-20128100D01*
X52421158Y-20128100D01*
X52578844Y-20128100D01*
X52578845Y-20128099D01*
X52733497Y-20097337D01*
X52733510Y-20097331D01*
X52735632Y-20096688D01*
X52736816Y-20096677D01*
X52739472Y-20096149D01*
X52739572Y-20096652D01*
X52805499Y-20096053D01*
X52864617Y-20133292D01*
X52894218Y-20196582D01*
X52886209Y-20262791D01*
X52875064Y-20289699D01*
X52875061Y-20289710D01*
X52844300Y-20444353D01*
X52844300Y-20602046D01*
X52875061Y-20756689D01*
X52875064Y-20756701D01*
X52935402Y-20902372D01*
X52935409Y-20902385D01*
X53023010Y-21033488D01*
X53023013Y-21033492D01*
X53134507Y-21144986D01*
X53134511Y-21144989D01*
X53265614Y-21232590D01*
X53265627Y-21232597D01*
X53411298Y-21292935D01*
X53411303Y-21292937D01*
X53565953Y-21323699D01*
X53565956Y-21323700D01*
X53565958Y-21323700D01*
X53723644Y-21323700D01*
X53723645Y-21323699D01*
X53878297Y-21292937D01*
X54023979Y-21232594D01*
X54155089Y-21144989D01*
X54266589Y-21033489D01*
X54354194Y-20902379D01*
X54414537Y-20756697D01*
X54445300Y-20602042D01*
X54445300Y-20444358D01*
X54445300Y-20444355D01*
X54445299Y-20444353D01*
X54414538Y-20289710D01*
X54414537Y-20289703D01*
X54403390Y-20262791D01*
X54354197Y-20144027D01*
X54354190Y-20144014D01*
X54266198Y-20012325D01*
X54245320Y-19945647D01*
X54245300Y-19943434D01*
X54245300Y-19070890D01*
X54264985Y-19003851D01*
X54317789Y-18958096D01*
X54386947Y-18948152D01*
X54393465Y-18949268D01*
X54437845Y-18958096D01*
X54454957Y-18961500D01*
X54454958Y-18961500D01*
X54612644Y-18961500D01*
X54612645Y-18961499D01*
X54767297Y-18930737D01*
X54912979Y-18870394D01*
X55044089Y-18782789D01*
X55155589Y-18671289D01*
X55243194Y-18540179D01*
X55303537Y-18394497D01*
X55334300Y-18239842D01*
X55334300Y-18082158D01*
X55334300Y-18082155D01*
X55334299Y-18082153D01*
X55321580Y-18018213D01*
X55303537Y-17927503D01*
X55300476Y-17920114D01*
X55243197Y-17781827D01*
X55243190Y-17781814D01*
X55155589Y-17650711D01*
X55155586Y-17650707D01*
X55136819Y-17631940D01*
X55103334Y-17570617D01*
X55100500Y-17544259D01*
X55100500Y-10499601D01*
X55120185Y-10432562D01*
X55168206Y-10389116D01*
X55181610Y-10382287D01*
X55347219Y-10261966D01*
X55412319Y-10196866D01*
X55473642Y-10163381D01*
X55543334Y-10168365D01*
X55587681Y-10196866D01*
X55652781Y-10261966D01*
X55818390Y-10382287D01*
X55831793Y-10389116D01*
X55882589Y-10437088D01*
X55899500Y-10499601D01*
X55899500Y-15317683D01*
X55879815Y-15384722D01*
X55878602Y-15386574D01*
X55805609Y-15495814D01*
X55805602Y-15495827D01*
X55745264Y-15641498D01*
X55745261Y-15641510D01*
X55714500Y-15796153D01*
X55714500Y-15953846D01*
X55745261Y-16108489D01*
X55745264Y-16108501D01*
X55805602Y-16254172D01*
X55805609Y-16254185D01*
X55893210Y-16385288D01*
X55893213Y-16385292D01*
X56004707Y-16496786D01*
X56004711Y-16496789D01*
X56135814Y-16584390D01*
X56135827Y-16584397D01*
X56267220Y-16638821D01*
X56281503Y-16644737D01*
X56436153Y-16675499D01*
X56436156Y-16675500D01*
X56436158Y-16675500D01*
X56593844Y-16675500D01*
X56593845Y-16675499D01*
X56748497Y-16644737D01*
X56894179Y-16584394D01*
X57025289Y-16496789D01*
X57136789Y-16385289D01*
X57224394Y-16254179D01*
X57226787Y-16248403D01*
X57284735Y-16108501D01*
X57284737Y-16108497D01*
X57315500Y-15953842D01*
X57315500Y-15796158D01*
X57315500Y-15796155D01*
X57315499Y-15796153D01*
X57284738Y-15641510D01*
X57284737Y-15641503D01*
X57224397Y-15495828D01*
X57224397Y-15495827D01*
X57224390Y-15495814D01*
X57136789Y-15364711D01*
X57132924Y-15360001D01*
X57133826Y-15359260D01*
X57103334Y-15303417D01*
X57100500Y-15277059D01*
X57100500Y-10499601D01*
X57120185Y-10432562D01*
X57168206Y-10389116D01*
X57181610Y-10382287D01*
X57347219Y-10261966D01*
X57480819Y-10128366D01*
X57542142Y-10094881D01*
X57611834Y-10099865D01*
X57667767Y-10141737D01*
X57692184Y-10207201D01*
X57692500Y-10216047D01*
X57692500Y-17464730D01*
X57692499Y-17464748D01*
X57692499Y-17630454D01*
X57692498Y-17630454D01*
X57733423Y-17783185D01*
X57762358Y-17833300D01*
X57762359Y-17833304D01*
X57762360Y-17833304D01*
X57812479Y-17920114D01*
X57812481Y-17920117D01*
X57931349Y-18038985D01*
X57931355Y-18038990D01*
X60430225Y-20537860D01*
X60463710Y-20599183D01*
X60464161Y-20601349D01*
X60495061Y-20756691D01*
X60495064Y-20756701D01*
X60555402Y-20902372D01*
X60555409Y-20902385D01*
X60643010Y-21033488D01*
X60643013Y-21033492D01*
X60754507Y-21144986D01*
X60754511Y-21144989D01*
X60885614Y-21232590D01*
X60885627Y-21232597D01*
X61031298Y-21292935D01*
X61031303Y-21292937D01*
X61185953Y-21323699D01*
X61185956Y-21323700D01*
X61185958Y-21323700D01*
X61343644Y-21323700D01*
X61343645Y-21323699D01*
X61498297Y-21292937D01*
X61643979Y-21232594D01*
X61775089Y-21144989D01*
X61886589Y-21033489D01*
X61974194Y-20902379D01*
X62034537Y-20756697D01*
X62065300Y-20602042D01*
X62065300Y-20444358D01*
X62065300Y-20444355D01*
X62065299Y-20444353D01*
X62034538Y-20289710D01*
X62034537Y-20289703D01*
X62023390Y-20262791D01*
X61974197Y-20144027D01*
X61974190Y-20144014D01*
X61886589Y-20012911D01*
X61886586Y-20012907D01*
X61775092Y-19901413D01*
X61775088Y-19901410D01*
X61643985Y-19813809D01*
X61643972Y-19813802D01*
X61498301Y-19753464D01*
X61498291Y-19753461D01*
X61342949Y-19722561D01*
X61281038Y-19690176D01*
X61279460Y-19688625D01*
X58929819Y-17338984D01*
X58896334Y-17277661D01*
X58893500Y-17251303D01*
X58893500Y-8369460D01*
X58893501Y-8369447D01*
X58893501Y-8201344D01*
X58882968Y-8162035D01*
X58852577Y-8048616D01*
X58806365Y-7968573D01*
X58773524Y-7911690D01*
X58773518Y-7911682D01*
X57230190Y-6368355D01*
X57230188Y-6368352D01*
X57111317Y-6249481D01*
X57111316Y-6249480D01*
X57024504Y-6199360D01*
X57024504Y-6199359D01*
X57024500Y-6199358D01*
X56974385Y-6170423D01*
X56821657Y-6129499D01*
X56729602Y-6129499D01*
X56662563Y-6109814D01*
X56619118Y-6061796D01*
X56612285Y-6048386D01*
X56491971Y-5882786D01*
X56347213Y-5738028D01*
X56181613Y-5617715D01*
X56181612Y-5617714D01*
X56181610Y-5617713D01*
X56124653Y-5588691D01*
X55999223Y-5524781D01*
X55804534Y-5461522D01*
X55629995Y-5433878D01*
X55602352Y-5429500D01*
X55397648Y-5429500D01*
X55373329Y-5433351D01*
X55195465Y-5461522D01*
X55000776Y-5524781D01*
X54818386Y-5617715D01*
X54652786Y-5738028D01*
X54652782Y-5738032D01*
X54587681Y-5803134D01*
X54526358Y-5836619D01*
X54456666Y-5831635D01*
X54412319Y-5803134D01*
X54347213Y-5738028D01*
X54181610Y-5617712D01*
X54168200Y-5610879D01*
X54117406Y-5562903D01*
X54100500Y-5500397D01*
X54100500Y-2111365D01*
X54120185Y-2044326D01*
X54121398Y-2042474D01*
X54123804Y-2038874D01*
X54208726Y-1911779D01*
X54209390Y-1910785D01*
X54209390Y-1910784D01*
X54209394Y-1910779D01*
X54269737Y-1765097D01*
X54300500Y-1610442D01*
X54300500Y-1452758D01*
X54300500Y-1452755D01*
X54300499Y-1452753D01*
X54287100Y-1385394D01*
X54269737Y-1298103D01*
X54227897Y-1197091D01*
X54209397Y-1152427D01*
X54209390Y-1152414D01*
X54121789Y-1021311D01*
X54121786Y-1021307D01*
X54010292Y-909813D01*
X54010288Y-909810D01*
X53879185Y-822209D01*
X53879172Y-822202D01*
X53733501Y-761864D01*
X53733489Y-761861D01*
X53654340Y-746117D01*
X53592429Y-713732D01*
X53557854Y-653016D01*
X53561594Y-583247D01*
X53602461Y-526575D01*
X53667479Y-500994D01*
X53678531Y-500500D01*
X60197810Y-500500D01*
X60264849Y-520185D01*
X60310604Y-572989D01*
X60320548Y-642147D01*
X60291523Y-705703D01*
X60245262Y-739061D01*
X60120827Y-790602D01*
X60120814Y-790609D01*
X59989711Y-878210D01*
X59989707Y-878213D01*
X59878213Y-989707D01*
X59878210Y-989711D01*
X59790609Y-1120814D01*
X59790602Y-1120827D01*
X59730264Y-1266498D01*
X59730261Y-1266510D01*
X59699500Y-1421153D01*
X59699500Y-1578846D01*
X59730261Y-1733489D01*
X59730264Y-1733501D01*
X59790602Y-1879172D01*
X59790609Y-1879185D01*
X59878602Y-2010874D01*
X59899480Y-2077551D01*
X59899500Y-2079765D01*
X59899500Y-13761859D01*
X59899499Y-13761877D01*
X59899499Y-13927583D01*
X59899498Y-13927583D01*
X59940423Y-14080314D01*
X59969358Y-14130429D01*
X59969359Y-14130433D01*
X59969360Y-14130433D01*
X60019479Y-14217243D01*
X60019481Y-14217246D01*
X60138349Y-14336114D01*
X60138355Y-14336119D01*
X63242997Y-17440761D01*
X63276482Y-17502084D01*
X63271498Y-17571776D01*
X63242998Y-17616123D01*
X63183010Y-17676111D01*
X63095409Y-17807214D01*
X63095402Y-17807227D01*
X63035064Y-17952898D01*
X63035061Y-17952910D01*
X63004300Y-18107553D01*
X63004300Y-18265246D01*
X63035061Y-18419889D01*
X63035064Y-18419901D01*
X63095402Y-18565572D01*
X63095409Y-18565585D01*
X63186395Y-18701754D01*
X63184810Y-18702812D01*
X63208666Y-18758974D01*
X63209500Y-18773334D01*
X63209500Y-19943434D01*
X63189815Y-20010473D01*
X63188602Y-20012325D01*
X63100609Y-20144014D01*
X63100602Y-20144027D01*
X63040264Y-20289698D01*
X63040261Y-20289710D01*
X63009500Y-20444353D01*
X63009500Y-20602046D01*
X63040261Y-20756689D01*
X63040264Y-20756701D01*
X63100602Y-20902372D01*
X63100609Y-20902385D01*
X63188210Y-21033488D01*
X63188213Y-21033492D01*
X63299707Y-21144986D01*
X63299711Y-21144989D01*
X63430814Y-21232590D01*
X63430827Y-21232597D01*
X63576498Y-21292935D01*
X63576503Y-21292937D01*
X63731153Y-21323699D01*
X63731156Y-21323700D01*
X63731158Y-21323700D01*
X63888844Y-21323700D01*
X63888845Y-21323699D01*
X64043497Y-21292937D01*
X64189179Y-21232594D01*
X64320289Y-21144989D01*
X64431789Y-21033489D01*
X64519394Y-20902379D01*
X64579737Y-20756697D01*
X64610500Y-20602042D01*
X64610500Y-20444358D01*
X64610500Y-20444355D01*
X64610499Y-20444353D01*
X64579738Y-20289710D01*
X64579737Y-20289703D01*
X64568590Y-20262791D01*
X64519397Y-20144027D01*
X64519390Y-20144014D01*
X64431398Y-20012325D01*
X64425747Y-19994278D01*
X64415523Y-19978369D01*
X64411071Y-19947407D01*
X64410520Y-19945647D01*
X64410500Y-19943434D01*
X64410500Y-19737497D01*
X64430185Y-19670458D01*
X64482989Y-19624703D01*
X64552147Y-19614759D01*
X64615703Y-19643784D01*
X64622181Y-19649816D01*
X65510225Y-20537860D01*
X65543710Y-20599183D01*
X65544161Y-20601349D01*
X65575061Y-20756691D01*
X65575064Y-20756701D01*
X65635402Y-20902372D01*
X65635409Y-20902385D01*
X65723010Y-21033488D01*
X65723013Y-21033492D01*
X65834507Y-21144986D01*
X65834511Y-21144989D01*
X65965614Y-21232590D01*
X65965627Y-21232597D01*
X66111298Y-21292935D01*
X66111303Y-21292937D01*
X66265953Y-21323699D01*
X66265956Y-21323700D01*
X66265958Y-21323700D01*
X66423644Y-21323700D01*
X66423645Y-21323699D01*
X66578297Y-21292937D01*
X66723979Y-21232594D01*
X66855089Y-21144989D01*
X66966589Y-21033489D01*
X67054194Y-20902379D01*
X67114537Y-20756697D01*
X67145300Y-20602042D01*
X67145300Y-20444358D01*
X67145300Y-20444355D01*
X67145299Y-20444353D01*
X67114538Y-20289710D01*
X67114537Y-20289703D01*
X67103390Y-20262791D01*
X67054197Y-20144027D01*
X67054190Y-20144014D01*
X67014786Y-20085042D01*
X66993908Y-20018365D01*
X67012392Y-19950984D01*
X67030204Y-19928473D01*
X67121789Y-19836889D01*
X67209394Y-19705779D01*
X67269737Y-19560097D01*
X67300500Y-19405442D01*
X67300500Y-19247758D01*
X67300500Y-19247755D01*
X67300499Y-19247753D01*
X67273596Y-19112503D01*
X67269737Y-19093103D01*
X67225747Y-18986900D01*
X67209397Y-18947427D01*
X67209390Y-18947414D01*
X67121398Y-18815725D01*
X67100520Y-18749047D01*
X67100500Y-18746834D01*
X67100500Y-10499601D01*
X67120185Y-10432562D01*
X67168206Y-10389116D01*
X67181610Y-10382287D01*
X67347219Y-10261966D01*
X67412319Y-10196866D01*
X67473642Y-10163381D01*
X67543334Y-10168365D01*
X67587681Y-10196866D01*
X67652781Y-10261966D01*
X67818390Y-10382287D01*
X67831793Y-10389116D01*
X67882589Y-10437088D01*
X67899500Y-10499601D01*
X67899500Y-17586921D01*
X67879815Y-17653960D01*
X67878602Y-17655812D01*
X67794409Y-17781814D01*
X67794402Y-17781827D01*
X67734064Y-17927498D01*
X67734061Y-17927510D01*
X67703300Y-18082153D01*
X67703300Y-18239846D01*
X67734061Y-18394489D01*
X67734064Y-18394501D01*
X67794402Y-18540172D01*
X67794409Y-18540185D01*
X67882010Y-18671288D01*
X67882013Y-18671292D01*
X67993507Y-18782786D01*
X67993511Y-18782789D01*
X68124614Y-18870390D01*
X68124627Y-18870397D01*
X68256711Y-18925107D01*
X68270303Y-18930737D01*
X68397987Y-18956135D01*
X68424953Y-18961499D01*
X68424956Y-18961500D01*
X68424958Y-18961500D01*
X68582644Y-18961500D01*
X68582645Y-18961499D01*
X68737297Y-18930737D01*
X68882979Y-18870394D01*
X69014089Y-18782789D01*
X69125589Y-18671289D01*
X69213194Y-18540179D01*
X69273537Y-18394497D01*
X69304300Y-18239842D01*
X69304300Y-18082158D01*
X69304300Y-18082155D01*
X69304299Y-18082153D01*
X69291580Y-18018213D01*
X69273537Y-17927503D01*
X69270476Y-17920114D01*
X69213197Y-17781827D01*
X69213190Y-17781814D01*
X69122205Y-17645646D01*
X69124308Y-17644240D01*
X69101329Y-17590085D01*
X69100500Y-17575771D01*
X69100500Y-10499601D01*
X69120185Y-10432562D01*
X69168206Y-10389116D01*
X69181610Y-10382287D01*
X69347219Y-10261966D01*
X69412319Y-10196866D01*
X69473642Y-10163381D01*
X69543334Y-10168365D01*
X69587681Y-10196866D01*
X69652781Y-10261966D01*
X69818390Y-10382287D01*
X69831793Y-10389116D01*
X69882589Y-10437088D01*
X69899500Y-10499601D01*
X69899500Y-16453798D01*
X69879815Y-16520837D01*
X69878602Y-16522689D01*
X69801009Y-16638814D01*
X69801002Y-16638827D01*
X69740664Y-16784498D01*
X69740661Y-16784510D01*
X69709900Y-16939153D01*
X69709900Y-17096846D01*
X69740661Y-17251489D01*
X69740664Y-17251501D01*
X69801002Y-17397172D01*
X69801009Y-17397185D01*
X69888610Y-17528288D01*
X69888613Y-17528292D01*
X70000107Y-17639786D01*
X70000111Y-17639789D01*
X70131214Y-17727390D01*
X70131227Y-17727397D01*
X70262620Y-17781821D01*
X70276903Y-17787737D01*
X70431553Y-17818499D01*
X70431556Y-17818500D01*
X70431558Y-17818500D01*
X70589244Y-17818500D01*
X70589245Y-17818499D01*
X70743897Y-17787737D01*
X70889579Y-17727394D01*
X71020689Y-17639789D01*
X71132189Y-17528289D01*
X71219794Y-17397179D01*
X71222245Y-17391263D01*
X71243040Y-17341057D01*
X71280137Y-17251497D01*
X71310900Y-17096842D01*
X71310900Y-16939158D01*
X71310900Y-16939155D01*
X71310899Y-16939153D01*
X71280138Y-16784510D01*
X71280137Y-16784503D01*
X71234987Y-16675500D01*
X71219797Y-16638827D01*
X71219790Y-16638814D01*
X71132190Y-16507712D01*
X71128644Y-16503391D01*
X71101333Y-16439080D01*
X71100500Y-16424729D01*
X71100500Y-10499601D01*
X71120185Y-10432562D01*
X71168206Y-10389116D01*
X71181610Y-10382287D01*
X71347219Y-10261966D01*
X71491966Y-10117219D01*
X71491968Y-10117215D01*
X71491971Y-10117213D01*
X71544732Y-10044590D01*
X71612287Y-9951610D01*
X71705220Y-9769219D01*
X71768477Y-9574534D01*
X71800500Y-9372352D01*
X71800500Y-9167648D01*
X71768477Y-8965466D01*
X71705220Y-8770781D01*
X71705218Y-8770778D01*
X71705218Y-8770776D01*
X71671503Y-8704607D01*
X71612287Y-8588390D01*
X71604556Y-8577749D01*
X71491971Y-8422786D01*
X71347213Y-8278028D01*
X71181613Y-8157715D01*
X71181612Y-8157714D01*
X71181610Y-8157713D01*
X71124653Y-8128691D01*
X70999223Y-8064781D01*
X70804534Y-8001522D01*
X70629995Y-7973878D01*
X70602352Y-7969500D01*
X70397648Y-7969500D01*
X70397641Y-7969500D01*
X70397310Y-7969526D01*
X70397186Y-7969500D01*
X70392776Y-7969500D01*
X70392776Y-7968573D01*
X70328933Y-7955158D01*
X70279179Y-7906104D01*
X70263844Y-7837938D01*
X70287797Y-7772302D01*
X70314702Y-7745590D01*
X70347219Y-7721966D01*
X70491966Y-7577219D01*
X70491968Y-7577215D01*
X70491971Y-7577213D01*
X70546591Y-7502033D01*
X70612287Y-7411610D01*
X70705220Y-7229219D01*
X70768477Y-7034534D01*
X70800500Y-6832352D01*
X70800500Y-6627648D01*
X70768477Y-6425466D01*
X70705220Y-6230781D01*
X70705218Y-6230778D01*
X70705218Y-6230776D01*
X70655548Y-6133295D01*
X70612287Y-6048390D01*
X70597414Y-6027919D01*
X70491971Y-5882786D01*
X70347213Y-5738028D01*
X70181613Y-5617715D01*
X70181612Y-5617714D01*
X70181610Y-5617713D01*
X70124653Y-5588691D01*
X69999223Y-5524781D01*
X69804534Y-5461522D01*
X69629995Y-5433878D01*
X69602352Y-5429500D01*
X69397648Y-5429500D01*
X69373329Y-5433351D01*
X69195465Y-5461522D01*
X69000776Y-5524781D01*
X68818386Y-5617715D01*
X68652786Y-5738028D01*
X68652782Y-5738032D01*
X68587681Y-5803134D01*
X68526358Y-5836619D01*
X68456666Y-5831635D01*
X68412319Y-5803134D01*
X68347213Y-5738028D01*
X68181610Y-5617712D01*
X68168200Y-5610879D01*
X68117406Y-5562903D01*
X68100500Y-5500397D01*
X68100500Y-2115965D01*
X68120185Y-2048926D01*
X68121398Y-2047074D01*
X68123804Y-2043474D01*
X68209394Y-1915379D01*
X68212794Y-1907172D01*
X68236993Y-1848748D01*
X68269737Y-1769697D01*
X68300500Y-1615042D01*
X68300500Y-1457358D01*
X68300500Y-1457355D01*
X68300499Y-1457353D01*
X68286185Y-1385394D01*
X68269737Y-1302703D01*
X68266343Y-1294510D01*
X68209397Y-1157027D01*
X68209390Y-1157014D01*
X68121789Y-1025911D01*
X68121786Y-1025907D01*
X68010292Y-914413D01*
X68010288Y-914410D01*
X67879185Y-826809D01*
X67879172Y-826802D01*
X67733501Y-766464D01*
X67733491Y-766461D01*
X67631214Y-746117D01*
X67569303Y-713732D01*
X67534729Y-653016D01*
X67538469Y-583247D01*
X67579336Y-526575D01*
X67644354Y-500994D01*
X67655406Y-500500D01*
X81326496Y-500500D01*
X81393535Y-520185D01*
X81439290Y-572989D01*
X81449234Y-642147D01*
X81420209Y-705703D01*
X81361431Y-743477D01*
X81350688Y-746117D01*
X81266508Y-762861D01*
X81266498Y-762864D01*
X81120827Y-823202D01*
X81120814Y-823209D01*
X80989711Y-910810D01*
X80989707Y-910813D01*
X80878213Y-1022307D01*
X80878210Y-1022311D01*
X80790609Y-1153414D01*
X80790602Y-1153427D01*
X80730264Y-1299098D01*
X80730261Y-1299110D01*
X80699500Y-1453753D01*
X80699500Y-1611446D01*
X80730261Y-1766089D01*
X80730264Y-1766101D01*
X80790602Y-1911772D01*
X80790609Y-1911785D01*
X80878602Y-2043474D01*
X80899480Y-2110151D01*
X80899500Y-2112365D01*
X80899500Y-5500397D01*
X80879815Y-5567436D01*
X80831800Y-5610879D01*
X80818389Y-5617712D01*
X80652786Y-5738028D01*
X80652782Y-5738032D01*
X80587681Y-5803134D01*
X80526358Y-5836619D01*
X80456666Y-5831635D01*
X80412319Y-5803134D01*
X80347213Y-5738028D01*
X80181613Y-5617715D01*
X80181612Y-5617714D01*
X80181610Y-5617713D01*
X80124653Y-5588691D01*
X79999223Y-5524781D01*
X79804534Y-5461522D01*
X79629995Y-5433878D01*
X79602352Y-5429500D01*
X79397648Y-5429500D01*
X79373329Y-5433351D01*
X79195465Y-5461522D01*
X79000776Y-5524781D01*
X78818386Y-5617715D01*
X78652786Y-5738028D01*
X78652782Y-5738032D01*
X78587681Y-5803134D01*
X78526358Y-5836619D01*
X78456666Y-5831635D01*
X78412319Y-5803134D01*
X78347213Y-5738028D01*
X78181613Y-5617715D01*
X78181612Y-5617714D01*
X78181610Y-5617713D01*
X78124653Y-5588691D01*
X77999223Y-5524781D01*
X77804534Y-5461522D01*
X77629995Y-5433878D01*
X77602352Y-5429500D01*
X77397648Y-5429500D01*
X77373329Y-5433351D01*
X77195465Y-5461522D01*
X77000776Y-5524781D01*
X76818386Y-5617715D01*
X76652786Y-5738028D01*
X76508028Y-5882786D01*
X76387715Y-6048386D01*
X76294781Y-6230776D01*
X76231522Y-6425465D01*
X76199500Y-6627648D01*
X76199500Y-6832351D01*
X76231522Y-7034534D01*
X76294781Y-7229223D01*
X76387715Y-7411613D01*
X76508028Y-7577213D01*
X76652786Y-7721971D01*
X76773598Y-7809744D01*
X76818390Y-7842287D01*
X76934607Y-7901503D01*
X77000776Y-7935218D01*
X77000778Y-7935218D01*
X77000781Y-7935220D01*
X77062144Y-7955158D01*
X77195465Y-7998477D01*
X77214697Y-8001523D01*
X77397648Y-8030500D01*
X77397649Y-8030500D01*
X77602347Y-8030500D01*
X77602352Y-8030500D01*
X77602356Y-8030499D01*
X77602664Y-8030475D01*
X77602783Y-8030500D01*
X77607224Y-8030500D01*
X77607224Y-8031432D01*
X77671043Y-8044829D01*
X77720807Y-8093873D01*
X77736156Y-8162035D01*
X77712217Y-8227676D01*
X77685297Y-8254409D01*
X77652782Y-8278032D01*
X77508028Y-8422786D01*
X77387715Y-8588386D01*
X77294781Y-8770776D01*
X77231522Y-8965465D01*
X77199500Y-9167648D01*
X77199500Y-9372351D01*
X77231522Y-9574534D01*
X77294781Y-9769223D01*
X77387715Y-9951613D01*
X77508028Y-10117213D01*
X77652786Y-10261971D01*
X77807749Y-10374556D01*
X77818390Y-10382287D01*
X77899499Y-10423614D01*
X78000776Y-10475218D01*
X78000778Y-10475218D01*
X78000781Y-10475220D01*
X78075818Y-10499601D01*
X78195465Y-10538477D01*
X78296557Y-10554488D01*
X78397648Y-10570500D01*
X78397649Y-10570500D01*
X78602351Y-10570500D01*
X78602352Y-10570500D01*
X78804534Y-10538477D01*
X78999219Y-10475220D01*
X79181610Y-10382287D01*
X79274590Y-10314732D01*
X79347213Y-10261971D01*
X79347215Y-10261968D01*
X79347219Y-10261966D01*
X79412319Y-10196866D01*
X79473642Y-10163381D01*
X79543334Y-10168365D01*
X79587681Y-10196866D01*
X79652781Y-10261966D01*
X79818390Y-10382287D01*
X79831793Y-10389116D01*
X79882589Y-10437088D01*
X79899500Y-10499601D01*
X79899500Y-18739784D01*
X79879815Y-18806823D01*
X79871361Y-18818440D01*
X79870811Y-18819109D01*
X79783209Y-18950214D01*
X79783202Y-18950227D01*
X79722864Y-19095898D01*
X79722861Y-19095910D01*
X79692100Y-19250553D01*
X79692100Y-19408246D01*
X79722861Y-19562889D01*
X79722864Y-19562901D01*
X79783202Y-19708572D01*
X79783209Y-19708585D01*
X79870810Y-19839688D01*
X79870813Y-19839692D01*
X79982307Y-19951186D01*
X79982311Y-19951189D01*
X80113414Y-20038790D01*
X80113427Y-20038797D01*
X80259098Y-20099135D01*
X80259103Y-20099137D01*
X80370463Y-20121288D01*
X80413753Y-20129899D01*
X80413756Y-20129900D01*
X80413758Y-20129900D01*
X80571444Y-20129900D01*
X80571445Y-20129899D01*
X80726097Y-20099137D01*
X80871779Y-20038794D01*
X81002889Y-19951189D01*
X81114389Y-19839689D01*
X81201994Y-19708579D01*
X81262337Y-19562897D01*
X81293100Y-19408242D01*
X81293100Y-19250558D01*
X81293100Y-19250555D01*
X81293099Y-19250553D01*
X81265639Y-19112503D01*
X81262337Y-19095903D01*
X81261175Y-19093098D01*
X81201997Y-18950227D01*
X81201990Y-18950214D01*
X81121398Y-18829600D01*
X81100520Y-18762922D01*
X81100500Y-18760709D01*
X81100500Y-10499601D01*
X81120185Y-10432562D01*
X81168206Y-10389116D01*
X81181610Y-10382287D01*
X81347219Y-10261966D01*
X81412319Y-10196866D01*
X81473642Y-10163381D01*
X81543334Y-10168365D01*
X81587681Y-10196866D01*
X81652781Y-10261966D01*
X81818390Y-10382287D01*
X81831793Y-10389116D01*
X81882589Y-10437088D01*
X81899500Y-10499601D01*
X81899500Y-17643450D01*
X81879815Y-17710489D01*
X81878602Y-17712341D01*
X81815209Y-17807214D01*
X81815202Y-17807227D01*
X81754864Y-17952898D01*
X81754861Y-17952910D01*
X81724100Y-18107553D01*
X81724100Y-18265246D01*
X81754861Y-18419889D01*
X81754864Y-18419901D01*
X81815202Y-18565572D01*
X81815209Y-18565585D01*
X81902810Y-18696688D01*
X81902813Y-18696692D01*
X82014307Y-18808186D01*
X82014311Y-18808189D01*
X82145414Y-18895790D01*
X82145427Y-18895797D01*
X82276820Y-18950221D01*
X82291103Y-18956137D01*
X82388965Y-18975603D01*
X82445753Y-18986899D01*
X82445756Y-18986900D01*
X82445758Y-18986900D01*
X82603444Y-18986900D01*
X82603445Y-18986899D01*
X82758097Y-18956137D01*
X82903779Y-18895794D01*
X83034889Y-18808189D01*
X83146389Y-18696689D01*
X83233994Y-18565579D01*
X83294337Y-18419897D01*
X83325100Y-18265242D01*
X83325100Y-18107558D01*
X83325100Y-18107555D01*
X83325099Y-18107553D01*
X83310055Y-18031921D01*
X83294337Y-17952903D01*
X83280756Y-17920116D01*
X83233997Y-17807227D01*
X83233990Y-17807214D01*
X83146389Y-17676111D01*
X83146386Y-17676107D01*
X83136819Y-17666540D01*
X83103334Y-17605217D01*
X83100500Y-17578859D01*
X83100500Y-10499601D01*
X83120185Y-10432562D01*
X83168206Y-10389116D01*
X83181610Y-10382287D01*
X83347219Y-10261966D01*
X83412319Y-10196866D01*
X83473642Y-10163381D01*
X83543334Y-10168365D01*
X83587681Y-10196866D01*
X83652781Y-10261966D01*
X83818390Y-10382287D01*
X83831793Y-10389116D01*
X83882589Y-10437088D01*
X83899500Y-10499601D01*
X83899500Y-15341928D01*
X83879815Y-15408967D01*
X83878603Y-15410818D01*
X83821808Y-15495817D01*
X83821802Y-15495828D01*
X83761464Y-15641498D01*
X83761461Y-15641510D01*
X83730700Y-15796153D01*
X83730700Y-15953846D01*
X83761461Y-16108489D01*
X83761464Y-16108501D01*
X83821802Y-16254172D01*
X83821809Y-16254185D01*
X83909410Y-16385288D01*
X83909413Y-16385292D01*
X84020907Y-16496786D01*
X84020911Y-16496789D01*
X84152014Y-16584390D01*
X84152027Y-16584397D01*
X84283420Y-16638821D01*
X84297703Y-16644737D01*
X84452353Y-16675499D01*
X84452356Y-16675500D01*
X84452358Y-16675500D01*
X84610044Y-16675500D01*
X84610045Y-16675499D01*
X84764697Y-16644737D01*
X84910379Y-16584394D01*
X85041489Y-16496789D01*
X85152989Y-16385289D01*
X85240594Y-16254179D01*
X85242987Y-16248403D01*
X85300935Y-16108501D01*
X85300937Y-16108497D01*
X85331700Y-15953842D01*
X85331700Y-15796158D01*
X85331700Y-15796155D01*
X85331699Y-15796153D01*
X85300938Y-15641510D01*
X85300937Y-15641503D01*
X85240597Y-15495828D01*
X85240597Y-15495827D01*
X85240590Y-15495814D01*
X85152989Y-15364711D01*
X85152986Y-15364707D01*
X85136819Y-15348540D01*
X85103334Y-15287217D01*
X85100500Y-15260859D01*
X85100500Y-10499601D01*
X85120185Y-10432562D01*
X85168206Y-10389116D01*
X85181610Y-10382287D01*
X85347219Y-10261966D01*
X85491966Y-10117219D01*
X85491968Y-10117215D01*
X85491971Y-10117213D01*
X85544732Y-10044590D01*
X85612287Y-9951610D01*
X85705220Y-9769219D01*
X85768477Y-9574534D01*
X85800500Y-9372352D01*
X85800500Y-9167648D01*
X85768477Y-8965466D01*
X85705220Y-8770781D01*
X85705218Y-8770778D01*
X85705218Y-8770776D01*
X85671503Y-8704607D01*
X85612287Y-8588390D01*
X85604556Y-8577749D01*
X85491971Y-8422786D01*
X85347213Y-8278028D01*
X85181613Y-8157715D01*
X85181612Y-8157714D01*
X85181610Y-8157713D01*
X85124653Y-8128691D01*
X84999223Y-8064781D01*
X84804534Y-8001522D01*
X84629995Y-7973878D01*
X84602352Y-7969500D01*
X84397648Y-7969500D01*
X84397641Y-7969500D01*
X84397310Y-7969526D01*
X84397186Y-7969500D01*
X84392776Y-7969500D01*
X84392776Y-7968573D01*
X84328933Y-7955158D01*
X84279179Y-7906104D01*
X84263844Y-7837938D01*
X84287797Y-7772302D01*
X84314702Y-7745590D01*
X84347219Y-7721966D01*
X84491966Y-7577219D01*
X84491968Y-7577215D01*
X84491971Y-7577213D01*
X84546591Y-7502033D01*
X84612287Y-7411610D01*
X84705220Y-7229219D01*
X84768477Y-7034534D01*
X84800500Y-6832352D01*
X84800500Y-6627648D01*
X84768477Y-6425466D01*
X84705220Y-6230781D01*
X84705218Y-6230778D01*
X84705218Y-6230776D01*
X84655548Y-6133295D01*
X84612287Y-6048390D01*
X84597414Y-6027919D01*
X84491971Y-5882786D01*
X84347213Y-5738028D01*
X84181613Y-5617715D01*
X84181612Y-5617714D01*
X84181610Y-5617713D01*
X84124653Y-5588691D01*
X83999223Y-5524781D01*
X83804534Y-5461522D01*
X83629995Y-5433878D01*
X83602352Y-5429500D01*
X83397648Y-5429500D01*
X83373329Y-5433351D01*
X83195465Y-5461522D01*
X83000776Y-5524781D01*
X82818386Y-5617715D01*
X82652786Y-5738028D01*
X82652782Y-5738032D01*
X82587681Y-5803134D01*
X82526358Y-5836619D01*
X82456666Y-5831635D01*
X82412319Y-5803134D01*
X82347213Y-5738028D01*
X82181610Y-5617712D01*
X82168200Y-5610879D01*
X82117406Y-5562903D01*
X82100500Y-5500397D01*
X82100500Y-2112365D01*
X82120185Y-2045326D01*
X82121398Y-2043474D01*
X82147489Y-2004427D01*
X82209394Y-1911779D01*
X82211717Y-1906172D01*
X82235502Y-1848748D01*
X82269737Y-1766097D01*
X82300500Y-1611442D01*
X82300500Y-1453758D01*
X82300500Y-1453755D01*
X82300499Y-1453753D01*
X82286901Y-1385394D01*
X82269737Y-1299103D01*
X82267420Y-1293510D01*
X82209397Y-1153427D01*
X82209390Y-1153414D01*
X82121789Y-1022311D01*
X82121786Y-1022307D01*
X82010292Y-910813D01*
X82010288Y-910810D01*
X81879185Y-823209D01*
X81879172Y-823202D01*
X81733501Y-762864D01*
X81733491Y-762861D01*
X81649312Y-746117D01*
X81587402Y-713732D01*
X81552827Y-653016D01*
X81556567Y-583247D01*
X81597434Y-526575D01*
X81662452Y-500994D01*
X81673504Y-500500D01*
X95303371Y-500500D01*
X95370410Y-520185D01*
X95416165Y-572989D01*
X95426109Y-642147D01*
X95397084Y-705703D01*
X95338306Y-743477D01*
X95327562Y-746117D01*
X95266510Y-758261D01*
X95266498Y-758264D01*
X95120827Y-818602D01*
X95120814Y-818609D01*
X94989711Y-906210D01*
X94989707Y-906213D01*
X94878213Y-1017707D01*
X94878210Y-1017711D01*
X94790609Y-1148814D01*
X94790602Y-1148827D01*
X94730264Y-1294498D01*
X94730261Y-1294510D01*
X94699500Y-1449153D01*
X94699500Y-1606846D01*
X94730261Y-1761489D01*
X94730264Y-1761501D01*
X94790602Y-1907172D01*
X94790609Y-1907185D01*
X94878602Y-2038874D01*
X94899480Y-2105551D01*
X94899500Y-2107765D01*
X94899500Y-5500397D01*
X94879815Y-5567436D01*
X94831800Y-5610879D01*
X94818389Y-5617712D01*
X94652786Y-5738028D01*
X94652782Y-5738032D01*
X94587681Y-5803134D01*
X94526358Y-5836619D01*
X94456666Y-5831635D01*
X94412319Y-5803134D01*
X94347213Y-5738028D01*
X94181613Y-5617715D01*
X94181612Y-5617714D01*
X94181610Y-5617713D01*
X94124653Y-5588691D01*
X93999223Y-5524781D01*
X93804534Y-5461522D01*
X93629995Y-5433878D01*
X93602352Y-5429500D01*
X93397648Y-5429500D01*
X93373329Y-5433351D01*
X93195465Y-5461522D01*
X93000776Y-5524781D01*
X92818386Y-5617715D01*
X92652786Y-5738028D01*
X92652782Y-5738032D01*
X92587681Y-5803134D01*
X92526358Y-5836619D01*
X92456666Y-5831635D01*
X92412319Y-5803134D01*
X92347213Y-5738028D01*
X92181613Y-5617715D01*
X92181612Y-5617714D01*
X92181610Y-5617713D01*
X92124653Y-5588691D01*
X91999223Y-5524781D01*
X91804534Y-5461522D01*
X91629995Y-5433878D01*
X91602352Y-5429500D01*
X91397648Y-5429500D01*
X91373329Y-5433351D01*
X91195465Y-5461522D01*
X91000776Y-5524781D01*
X90818386Y-5617715D01*
X90652786Y-5738028D01*
X90508028Y-5882786D01*
X90387715Y-6048386D01*
X90294781Y-6230776D01*
X90231522Y-6425465D01*
X90199500Y-6627648D01*
X90199500Y-6832351D01*
X90231522Y-7034534D01*
X90294781Y-7229223D01*
X90387715Y-7411613D01*
X90508028Y-7577213D01*
X90652786Y-7721971D01*
X90773598Y-7809744D01*
X90818390Y-7842287D01*
X90934607Y-7901503D01*
X91000776Y-7935218D01*
X91000778Y-7935218D01*
X91000781Y-7935220D01*
X91062144Y-7955158D01*
X91195465Y-7998477D01*
X91214697Y-8001523D01*
X91397648Y-8030500D01*
X91397649Y-8030500D01*
X91602347Y-8030500D01*
X91602352Y-8030500D01*
X91602356Y-8030499D01*
X91602664Y-8030475D01*
X91602783Y-8030500D01*
X91607224Y-8030500D01*
X91607224Y-8031432D01*
X91671043Y-8044829D01*
X91720807Y-8093873D01*
X91736156Y-8162035D01*
X91712217Y-8227676D01*
X91685297Y-8254409D01*
X91652782Y-8278032D01*
X91508028Y-8422786D01*
X91387715Y-8588386D01*
X91294781Y-8770776D01*
X91231522Y-8965465D01*
X91199500Y-9167648D01*
X91199500Y-9372351D01*
X91231522Y-9574534D01*
X91294781Y-9769223D01*
X91387715Y-9951613D01*
X91508028Y-10117213D01*
X91652786Y-10261971D01*
X91807749Y-10374556D01*
X91818390Y-10382287D01*
X91899499Y-10423614D01*
X92000776Y-10475218D01*
X92000778Y-10475218D01*
X92000781Y-10475220D01*
X92075818Y-10499601D01*
X92195465Y-10538477D01*
X92296557Y-10554488D01*
X92397648Y-10570500D01*
X92397649Y-10570500D01*
X92602351Y-10570500D01*
X92602352Y-10570500D01*
X92804534Y-10538477D01*
X92999219Y-10475220D01*
X93181610Y-10382287D01*
X93274590Y-10314732D01*
X93347213Y-10261971D01*
X93347215Y-10261968D01*
X93347219Y-10261966D01*
X93412319Y-10196866D01*
X93473642Y-10163381D01*
X93543334Y-10168365D01*
X93587681Y-10196866D01*
X93652781Y-10261966D01*
X93818390Y-10382287D01*
X93831793Y-10389116D01*
X93882589Y-10437088D01*
X93899500Y-10499601D01*
X93899500Y-18769688D01*
X93879815Y-18836727D01*
X93878602Y-18838579D01*
X93804009Y-18950214D01*
X93804002Y-18950227D01*
X93743664Y-19095898D01*
X93743661Y-19095910D01*
X93712900Y-19250553D01*
X93712900Y-19408246D01*
X93743661Y-19562889D01*
X93743664Y-19562901D01*
X93804002Y-19708572D01*
X93804009Y-19708585D01*
X93891610Y-19839688D01*
X93891613Y-19839692D01*
X94003107Y-19951186D01*
X94003111Y-19951189D01*
X94134214Y-20038790D01*
X94134227Y-20038797D01*
X94279898Y-20099135D01*
X94279903Y-20099137D01*
X94391263Y-20121288D01*
X94434553Y-20129899D01*
X94434556Y-20129900D01*
X94434558Y-20129900D01*
X94592244Y-20129900D01*
X94592245Y-20129899D01*
X94746897Y-20099137D01*
X94892579Y-20038794D01*
X95023689Y-19951189D01*
X95135189Y-19839689D01*
X95222794Y-19708579D01*
X95283137Y-19562897D01*
X95313900Y-19408242D01*
X95313900Y-19250558D01*
X95313900Y-19250555D01*
X95313899Y-19250553D01*
X95286439Y-19112503D01*
X95283137Y-19095903D01*
X95281975Y-19093098D01*
X95222797Y-18950227D01*
X95222790Y-18950214D01*
X95135189Y-18819111D01*
X95131324Y-18814401D01*
X95132728Y-18813248D01*
X95103334Y-18759417D01*
X95100500Y-18733059D01*
X95100500Y-10499601D01*
X95120185Y-10432562D01*
X95168206Y-10389116D01*
X95181610Y-10382287D01*
X95347219Y-10261966D01*
X95412319Y-10196866D01*
X95473642Y-10163381D01*
X95543334Y-10168365D01*
X95587681Y-10196866D01*
X95652781Y-10261966D01*
X95818390Y-10382287D01*
X95831793Y-10389116D01*
X95882589Y-10437088D01*
X95899500Y-10499601D01*
X95899500Y-17636566D01*
X95879815Y-17703605D01*
X95878602Y-17705457D01*
X95810609Y-17807214D01*
X95810602Y-17807227D01*
X95750264Y-17952898D01*
X95750261Y-17952910D01*
X95719500Y-18107553D01*
X95719500Y-18265246D01*
X95750261Y-18419889D01*
X95750264Y-18419901D01*
X95810602Y-18565572D01*
X95810609Y-18565585D01*
X95898210Y-18696688D01*
X95898213Y-18696692D01*
X96009707Y-18808186D01*
X96009711Y-18808189D01*
X96140814Y-18895790D01*
X96140827Y-18895797D01*
X96272220Y-18950221D01*
X96286503Y-18956137D01*
X96384365Y-18975603D01*
X96441153Y-18986899D01*
X96441156Y-18986900D01*
X96441158Y-18986900D01*
X96598844Y-18986900D01*
X96598845Y-18986899D01*
X96753497Y-18956137D01*
X96899179Y-18895794D01*
X97030289Y-18808189D01*
X97141789Y-18696689D01*
X97229394Y-18565579D01*
X97289737Y-18419897D01*
X97320500Y-18265242D01*
X97320500Y-18107558D01*
X97320500Y-18107555D01*
X97320499Y-18107553D01*
X97305455Y-18031921D01*
X97289737Y-17952903D01*
X97276156Y-17920116D01*
X97229397Y-17807227D01*
X97229390Y-17807214D01*
X97141789Y-17676111D01*
X97141786Y-17676107D01*
X97136819Y-17671140D01*
X97103334Y-17609817D01*
X97100500Y-17583459D01*
X97100500Y-10499601D01*
X97120185Y-10432562D01*
X97168206Y-10389116D01*
X97181610Y-10382287D01*
X97347219Y-10261966D01*
X97412319Y-10196866D01*
X97473642Y-10163381D01*
X97543334Y-10168365D01*
X97587681Y-10196866D01*
X97652781Y-10261966D01*
X97818390Y-10382287D01*
X97831793Y-10389116D01*
X97882589Y-10437088D01*
X97899500Y-10499601D01*
X97899500Y-16440030D01*
X97879815Y-16507069D01*
X97878602Y-16508921D01*
X97791809Y-16638814D01*
X97791802Y-16638827D01*
X97731464Y-16784498D01*
X97731461Y-16784510D01*
X97700700Y-16939153D01*
X97700700Y-17096846D01*
X97731461Y-17251489D01*
X97731464Y-17251501D01*
X97791802Y-17397172D01*
X97791809Y-17397185D01*
X97879410Y-17528288D01*
X97879413Y-17528292D01*
X97990907Y-17639786D01*
X97990911Y-17639789D01*
X98122014Y-17727390D01*
X98122027Y-17727397D01*
X98253420Y-17781821D01*
X98267703Y-17787737D01*
X98422353Y-17818499D01*
X98422356Y-17818500D01*
X98422358Y-17818500D01*
X98580044Y-17818500D01*
X98580045Y-17818499D01*
X98734697Y-17787737D01*
X98880379Y-17727394D01*
X99011489Y-17639789D01*
X99122989Y-17528289D01*
X99210594Y-17397179D01*
X99213045Y-17391263D01*
X99233840Y-17341057D01*
X99270937Y-17251497D01*
X99301700Y-17096842D01*
X99301700Y-16939158D01*
X99301700Y-16939155D01*
X99301699Y-16939153D01*
X99270938Y-16784510D01*
X99270937Y-16784503D01*
X99225787Y-16675500D01*
X99210597Y-16638827D01*
X99210590Y-16638814D01*
X99121398Y-16505329D01*
X99100520Y-16438651D01*
X99100500Y-16436438D01*
X99100500Y-10499601D01*
X99120185Y-10432562D01*
X99168206Y-10389116D01*
X99181610Y-10382287D01*
X99347219Y-10261966D01*
X99491966Y-10117219D01*
X99491968Y-10117215D01*
X99491971Y-10117213D01*
X99544732Y-10044590D01*
X99612287Y-9951610D01*
X99705220Y-9769219D01*
X99768477Y-9574534D01*
X99800500Y-9372352D01*
X99800500Y-9167648D01*
X99768477Y-8965466D01*
X99705220Y-8770781D01*
X99705218Y-8770778D01*
X99705218Y-8770776D01*
X99671503Y-8704607D01*
X99612287Y-8588390D01*
X99604556Y-8577749D01*
X99491971Y-8422786D01*
X99347213Y-8278028D01*
X99181613Y-8157715D01*
X99181612Y-8157714D01*
X99181610Y-8157713D01*
X99124653Y-8128691D01*
X98999223Y-8064781D01*
X98804534Y-8001522D01*
X98629995Y-7973878D01*
X98602352Y-7969500D01*
X98397648Y-7969500D01*
X98397641Y-7969500D01*
X98397310Y-7969526D01*
X98397186Y-7969500D01*
X98392776Y-7969500D01*
X98392776Y-7968573D01*
X98328933Y-7955158D01*
X98279179Y-7906104D01*
X98263844Y-7837938D01*
X98287797Y-7772302D01*
X98314702Y-7745590D01*
X98347219Y-7721966D01*
X98491966Y-7577219D01*
X98491968Y-7577215D01*
X98491971Y-7577213D01*
X98546591Y-7502033D01*
X98612287Y-7411610D01*
X98705220Y-7229219D01*
X98768477Y-7034534D01*
X98800500Y-6832352D01*
X98800500Y-6627648D01*
X104199500Y-6627648D01*
X104199500Y-6832351D01*
X104231522Y-7034534D01*
X104294781Y-7229223D01*
X104387715Y-7411613D01*
X104508028Y-7577213D01*
X104652786Y-7721971D01*
X104773598Y-7809744D01*
X104818390Y-7842287D01*
X104934607Y-7901503D01*
X105000776Y-7935218D01*
X105000778Y-7935218D01*
X105000781Y-7935220D01*
X105062144Y-7955158D01*
X105195465Y-7998477D01*
X105214697Y-8001523D01*
X105397648Y-8030500D01*
X105397649Y-8030500D01*
X105602347Y-8030500D01*
X105602352Y-8030500D01*
X105602356Y-8030499D01*
X105602664Y-8030475D01*
X105602783Y-8030500D01*
X105607224Y-8030500D01*
X105607224Y-8031432D01*
X105671043Y-8044829D01*
X105720807Y-8093873D01*
X105736156Y-8162035D01*
X105712217Y-8227676D01*
X105685297Y-8254409D01*
X105652782Y-8278032D01*
X105508028Y-8422786D01*
X105387715Y-8588386D01*
X105294781Y-8770776D01*
X105231522Y-8965465D01*
X105199500Y-9167648D01*
X105199500Y-9372351D01*
X105231522Y-9574534D01*
X105294781Y-9769223D01*
X105387715Y-9951613D01*
X105508028Y-10117213D01*
X105652786Y-10261971D01*
X105807749Y-10374556D01*
X105818390Y-10382287D01*
X105899499Y-10423614D01*
X106000776Y-10475218D01*
X106000778Y-10475218D01*
X106000781Y-10475220D01*
X106075818Y-10499601D01*
X106195465Y-10538477D01*
X106296557Y-10554488D01*
X106397648Y-10570500D01*
X106397649Y-10570500D01*
X106602351Y-10570500D01*
X106602352Y-10570500D01*
X106804534Y-10538477D01*
X106999219Y-10475220D01*
X107181610Y-10382287D01*
X107274590Y-10314732D01*
X107347213Y-10261971D01*
X107347215Y-10261968D01*
X107347219Y-10261966D01*
X107412319Y-10196866D01*
X107473642Y-10163381D01*
X107543334Y-10168365D01*
X107587681Y-10196866D01*
X107652781Y-10261966D01*
X107818390Y-10382287D01*
X107831793Y-10389116D01*
X107882589Y-10437088D01*
X107899500Y-10499601D01*
X107899500Y-18766234D01*
X107879815Y-18833273D01*
X107878602Y-18835125D01*
X107790609Y-18966814D01*
X107790602Y-18966827D01*
X107730264Y-19112498D01*
X107730261Y-19112510D01*
X107699500Y-19267153D01*
X107699500Y-19424846D01*
X107730261Y-19579489D01*
X107730264Y-19579501D01*
X107790602Y-19725172D01*
X107790609Y-19725185D01*
X107878210Y-19856288D01*
X107878213Y-19856292D01*
X107989707Y-19967786D01*
X107989711Y-19967789D01*
X108120814Y-20055390D01*
X108120827Y-20055397D01*
X108226429Y-20099138D01*
X108266503Y-20115737D01*
X108421153Y-20146499D01*
X108421156Y-20146500D01*
X108421158Y-20146500D01*
X108578844Y-20146500D01*
X108578845Y-20146499D01*
X108733497Y-20115737D01*
X108879179Y-20055394D01*
X109010289Y-19967789D01*
X109099367Y-19878711D01*
X113649500Y-19878711D01*
X113649500Y-20121288D01*
X113671672Y-20289710D01*
X113681162Y-20361789D01*
X113712554Y-20478944D01*
X113743947Y-20596104D01*
X113810464Y-20756689D01*
X113836776Y-20820212D01*
X113958064Y-21030289D01*
X113958066Y-21030292D01*
X113958067Y-21030293D01*
X114105733Y-21222736D01*
X114105739Y-21222743D01*
X114277256Y-21394260D01*
X114277262Y-21394265D01*
X114469711Y-21541936D01*
X114679788Y-21663224D01*
X114903900Y-21756054D01*
X115138211Y-21818838D01*
X115318586Y-21842584D01*
X115378711Y-21850500D01*
X115378712Y-21850500D01*
X115621289Y-21850500D01*
X115669388Y-21844167D01*
X115861789Y-21818838D01*
X116096100Y-21756054D01*
X116320212Y-21663224D01*
X116530289Y-21541936D01*
X116722738Y-21394265D01*
X116894265Y-21222738D01*
X117041936Y-21030289D01*
X117163224Y-20820212D01*
X117256054Y-20596100D01*
X117318838Y-20361789D01*
X117350500Y-20121288D01*
X117350500Y-19878712D01*
X117345362Y-19839688D01*
X117342584Y-19818586D01*
X117318838Y-19638211D01*
X117256054Y-19403900D01*
X117163224Y-19179788D01*
X117041936Y-18969711D01*
X116965728Y-18870394D01*
X116894266Y-18777263D01*
X116894260Y-18777256D01*
X116722743Y-18605739D01*
X116722736Y-18605733D01*
X116530293Y-18458067D01*
X116530292Y-18458066D01*
X116530289Y-18458064D01*
X116358661Y-18358974D01*
X116320214Y-18336777D01*
X116320205Y-18336773D01*
X116096104Y-18243947D01*
X115861785Y-18181161D01*
X115621289Y-18149500D01*
X115621288Y-18149500D01*
X115378712Y-18149500D01*
X115378711Y-18149500D01*
X115138214Y-18181161D01*
X114903895Y-18243947D01*
X114679794Y-18336773D01*
X114679785Y-18336777D01*
X114469706Y-18458067D01*
X114277263Y-18605733D01*
X114277256Y-18605739D01*
X114105739Y-18777256D01*
X114105733Y-18777263D01*
X113958067Y-18969706D01*
X113836777Y-19179785D01*
X113836773Y-19179794D01*
X113743947Y-19403895D01*
X113681161Y-19638214D01*
X113649500Y-19878711D01*
X109099367Y-19878711D01*
X109121789Y-19856289D01*
X109136175Y-19834758D01*
X109155551Y-19805762D01*
X109209390Y-19725185D01*
X109209390Y-19725184D01*
X109209394Y-19725179D01*
X109217016Y-19706779D01*
X109269735Y-19579501D01*
X109269737Y-19579497D01*
X109300500Y-19424842D01*
X109300500Y-19267158D01*
X109300500Y-19267155D01*
X109300499Y-19267153D01*
X109269738Y-19112510D01*
X109269737Y-19112503D01*
X109267685Y-19107551D01*
X109260217Y-19038083D01*
X109291492Y-18975603D01*
X109351581Y-18939951D01*
X109406439Y-18938482D01*
X109522155Y-18961500D01*
X109522158Y-18961500D01*
X109679844Y-18961500D01*
X109679845Y-18961499D01*
X109834497Y-18930737D01*
X109980179Y-18870394D01*
X110111289Y-18782789D01*
X110222789Y-18671289D01*
X110310394Y-18540179D01*
X110370737Y-18394497D01*
X110396448Y-18265242D01*
X110401638Y-18239150D01*
X110434023Y-18177239D01*
X110435522Y-18175712D01*
X110858506Y-17752727D01*
X110858511Y-17752724D01*
X110868714Y-17742520D01*
X110868716Y-17742520D01*
X110980520Y-17630716D01*
X111039657Y-17528288D01*
X111056841Y-17498524D01*
X111056842Y-17498522D01*
X111057265Y-17497789D01*
X111059577Y-17493785D01*
X111100501Y-17341057D01*
X111100501Y-17182943D01*
X111100501Y-17175348D01*
X111100500Y-17175330D01*
X111100500Y-10499601D01*
X111120185Y-10432562D01*
X111168206Y-10389116D01*
X111181610Y-10382287D01*
X111347219Y-10261966D01*
X111412319Y-10196866D01*
X111473642Y-10163381D01*
X111543334Y-10168365D01*
X111587681Y-10196866D01*
X111652786Y-10261971D01*
X111807749Y-10374556D01*
X111818390Y-10382287D01*
X111899499Y-10423614D01*
X112000776Y-10475218D01*
X112000778Y-10475218D01*
X112000781Y-10475220D01*
X112075818Y-10499601D01*
X112195465Y-10538477D01*
X112296557Y-10554488D01*
X112397648Y-10570500D01*
X112397649Y-10570500D01*
X112602351Y-10570500D01*
X112602352Y-10570500D01*
X112804534Y-10538477D01*
X112999219Y-10475220D01*
X113181610Y-10382287D01*
X113274590Y-10314732D01*
X113347213Y-10261971D01*
X113347215Y-10261968D01*
X113347219Y-10261966D01*
X113491966Y-10117219D01*
X113491968Y-10117215D01*
X113491971Y-10117213D01*
X113544732Y-10044590D01*
X113612287Y-9951610D01*
X113705220Y-9769219D01*
X113768477Y-9574534D01*
X113800500Y-9372352D01*
X113800500Y-9167648D01*
X113768477Y-8965466D01*
X113705220Y-8770781D01*
X113705218Y-8770778D01*
X113705218Y-8770776D01*
X113671503Y-8704607D01*
X113612287Y-8588390D01*
X113604556Y-8577749D01*
X113491971Y-8422786D01*
X113347213Y-8278028D01*
X113181613Y-8157715D01*
X113181612Y-8157714D01*
X113181610Y-8157713D01*
X113124653Y-8128691D01*
X112999223Y-8064781D01*
X112804534Y-8001522D01*
X112629995Y-7973878D01*
X112602352Y-7969500D01*
X112397648Y-7969500D01*
X112397641Y-7969500D01*
X112397310Y-7969526D01*
X112397186Y-7969500D01*
X112392776Y-7969500D01*
X112392776Y-7968573D01*
X112328933Y-7955158D01*
X112279179Y-7906104D01*
X112263844Y-7837938D01*
X112287797Y-7772302D01*
X112314702Y-7745590D01*
X112347219Y-7721966D01*
X112491966Y-7577219D01*
X112491968Y-7577215D01*
X112491971Y-7577213D01*
X112546591Y-7502033D01*
X112612287Y-7411610D01*
X112705220Y-7229219D01*
X112768477Y-7034534D01*
X112800500Y-6832352D01*
X112800500Y-6627648D01*
X112768477Y-6425466D01*
X112705220Y-6230781D01*
X112705218Y-6230778D01*
X112705218Y-6230776D01*
X112655548Y-6133295D01*
X112612287Y-6048390D01*
X112597414Y-6027919D01*
X112491971Y-5882786D01*
X112347213Y-5738028D01*
X112181613Y-5617715D01*
X112181612Y-5617714D01*
X112181610Y-5617713D01*
X112124653Y-5588691D01*
X111999223Y-5524781D01*
X111804534Y-5461522D01*
X111629995Y-5433878D01*
X111602352Y-5429500D01*
X111397648Y-5429500D01*
X111373329Y-5433351D01*
X111195465Y-5461522D01*
X111000776Y-5524781D01*
X110818386Y-5617715D01*
X110652786Y-5738028D01*
X110652782Y-5738032D01*
X110587681Y-5803134D01*
X110526358Y-5836619D01*
X110456666Y-5831635D01*
X110412319Y-5803134D01*
X110347213Y-5738028D01*
X110181610Y-5617712D01*
X110168200Y-5610879D01*
X110117406Y-5562903D01*
X110100500Y-5500397D01*
X110100500Y-4002332D01*
X112649500Y-4002332D01*
X112649500Y-4277667D01*
X112649501Y-4277684D01*
X112685438Y-4550655D01*
X112685439Y-4550660D01*
X112685440Y-4550666D01*
X112685441Y-4550668D01*
X112756704Y-4816630D01*
X112862075Y-5071017D01*
X112862080Y-5071028D01*
X112944861Y-5214407D01*
X112999751Y-5309479D01*
X112999753Y-5309482D01*
X112999754Y-5309483D01*
X113167370Y-5527926D01*
X113167376Y-5527933D01*
X113362066Y-5722623D01*
X113362073Y-5722629D01*
X113466990Y-5803134D01*
X113580521Y-5890249D01*
X113733778Y-5978732D01*
X113818971Y-6027919D01*
X113818976Y-6027921D01*
X113818979Y-6027923D01*
X114073368Y-6133295D01*
X114339334Y-6204560D01*
X114612326Y-6240500D01*
X114612333Y-6240500D01*
X114887667Y-6240500D01*
X114887674Y-6240500D01*
X115160666Y-6204560D01*
X115426632Y-6133295D01*
X115681021Y-6027923D01*
X115919479Y-5890249D01*
X116137928Y-5722628D01*
X116332628Y-5527928D01*
X116500249Y-5309479D01*
X116637923Y-5071021D01*
X116743295Y-4816632D01*
X116814560Y-4550666D01*
X116850500Y-4277674D01*
X116850500Y-4002326D01*
X116814560Y-3729334D01*
X116743295Y-3463368D01*
X116637923Y-3208979D01*
X116637921Y-3208976D01*
X116637919Y-3208971D01*
X116588732Y-3123778D01*
X116500249Y-2970521D01*
X116332628Y-2752072D01*
X116332623Y-2752066D01*
X116137933Y-2557376D01*
X116137926Y-2557370D01*
X115919483Y-2389754D01*
X115919482Y-2389753D01*
X115919479Y-2389751D01*
X115824407Y-2334861D01*
X115681028Y-2252080D01*
X115681017Y-2252075D01*
X115426630Y-2146704D01*
X115269310Y-2104551D01*
X115160666Y-2075440D01*
X115160660Y-2075439D01*
X115160655Y-2075438D01*
X114887684Y-2039501D01*
X114887679Y-2039500D01*
X114887674Y-2039500D01*
X114612326Y-2039500D01*
X114612320Y-2039500D01*
X114612315Y-2039501D01*
X114339344Y-2075438D01*
X114339337Y-2075439D01*
X114339334Y-2075440D01*
X114283125Y-2090500D01*
X114073369Y-2146704D01*
X113818982Y-2252075D01*
X113818971Y-2252080D01*
X113580516Y-2389754D01*
X113362073Y-2557370D01*
X113362066Y-2557376D01*
X113167376Y-2752066D01*
X113167370Y-2752073D01*
X112999754Y-2970516D01*
X112862080Y-3208971D01*
X112862075Y-3208982D01*
X112756704Y-3463369D01*
X112685441Y-3729331D01*
X112685438Y-3729344D01*
X112649501Y-4002315D01*
X112649500Y-4002332D01*
X110100500Y-4002332D01*
X110100500Y-2129765D01*
X110120185Y-2062726D01*
X110121398Y-2060874D01*
X110129382Y-2048926D01*
X110209394Y-1929179D01*
X110209646Y-1928572D01*
X110230102Y-1879185D01*
X110269737Y-1783497D01*
X110300500Y-1628842D01*
X110300500Y-1471158D01*
X110300500Y-1471155D01*
X110300499Y-1471153D01*
X110283440Y-1385394D01*
X110269737Y-1316503D01*
X110269491Y-1315910D01*
X110209397Y-1170827D01*
X110209390Y-1170814D01*
X110121789Y-1039711D01*
X110121786Y-1039707D01*
X110010292Y-928213D01*
X110010288Y-928210D01*
X109879185Y-840609D01*
X109879172Y-840602D01*
X109733501Y-780264D01*
X109733489Y-780261D01*
X109578845Y-749500D01*
X109578842Y-749500D01*
X109421158Y-749500D01*
X109421155Y-749500D01*
X109266510Y-780261D01*
X109266498Y-780264D01*
X109120827Y-840602D01*
X109120814Y-840609D01*
X108989711Y-928210D01*
X108989707Y-928213D01*
X108878213Y-1039707D01*
X108878210Y-1039711D01*
X108790609Y-1170814D01*
X108790602Y-1170827D01*
X108730264Y-1316498D01*
X108730261Y-1316510D01*
X108699500Y-1471153D01*
X108699500Y-1628846D01*
X108730261Y-1783489D01*
X108730264Y-1783501D01*
X108790602Y-1929172D01*
X108790609Y-1929185D01*
X108878602Y-2060874D01*
X108899480Y-2127551D01*
X108899500Y-2129765D01*
X108899500Y-5500397D01*
X108879815Y-5567436D01*
X108831800Y-5610879D01*
X108818389Y-5617712D01*
X108652786Y-5738028D01*
X108652782Y-5738032D01*
X108587681Y-5803134D01*
X108526358Y-5836619D01*
X108456666Y-5831635D01*
X108412319Y-5803134D01*
X108347213Y-5738028D01*
X108181613Y-5617715D01*
X108181612Y-5617714D01*
X108181610Y-5617713D01*
X108124653Y-5588691D01*
X107999223Y-5524781D01*
X107804534Y-5461522D01*
X107629995Y-5433878D01*
X107602352Y-5429500D01*
X107397648Y-5429500D01*
X107373329Y-5433351D01*
X107195465Y-5461522D01*
X107000776Y-5524781D01*
X106818386Y-5617715D01*
X106652786Y-5738028D01*
X106652782Y-5738032D01*
X106587681Y-5803134D01*
X106526358Y-5836619D01*
X106456666Y-5831635D01*
X106412319Y-5803134D01*
X106347213Y-5738028D01*
X106181613Y-5617715D01*
X106181612Y-5617714D01*
X106181610Y-5617713D01*
X106124653Y-5588691D01*
X105999223Y-5524781D01*
X105804534Y-5461522D01*
X105629995Y-5433878D01*
X105602352Y-5429500D01*
X105397648Y-5429500D01*
X105373329Y-5433351D01*
X105195465Y-5461522D01*
X105000776Y-5524781D01*
X104818386Y-5617715D01*
X104652786Y-5738028D01*
X104508028Y-5882786D01*
X104387715Y-6048386D01*
X104294781Y-6230776D01*
X104231522Y-6425465D01*
X104199500Y-6627648D01*
X98800500Y-6627648D01*
X98768477Y-6425466D01*
X98705220Y-6230781D01*
X98705218Y-6230778D01*
X98705218Y-6230776D01*
X98655548Y-6133295D01*
X98612287Y-6048390D01*
X98597414Y-6027919D01*
X98491971Y-5882786D01*
X98347213Y-5738028D01*
X98181613Y-5617715D01*
X98181612Y-5617714D01*
X98181610Y-5617713D01*
X98124653Y-5588691D01*
X97999223Y-5524781D01*
X97804534Y-5461522D01*
X97629995Y-5433878D01*
X97602352Y-5429500D01*
X97397648Y-5429500D01*
X97373329Y-5433351D01*
X97195465Y-5461522D01*
X97000776Y-5524781D01*
X96818386Y-5617715D01*
X96652786Y-5738028D01*
X96652782Y-5738032D01*
X96587681Y-5803134D01*
X96526358Y-5836619D01*
X96456666Y-5831635D01*
X96412319Y-5803134D01*
X96347213Y-5738028D01*
X96181610Y-5617712D01*
X96168200Y-5610879D01*
X96117406Y-5562903D01*
X96100500Y-5500397D01*
X96100500Y-2107765D01*
X96120185Y-2040726D01*
X96121398Y-2038874D01*
X96209390Y-1907185D01*
X96209390Y-1907184D01*
X96209394Y-1907179D01*
X96269737Y-1761497D01*
X96300500Y-1606842D01*
X96300500Y-1449158D01*
X96300500Y-1449155D01*
X96300499Y-1449153D01*
X96273995Y-1315910D01*
X96269737Y-1294503D01*
X96226165Y-1189309D01*
X96209397Y-1148827D01*
X96209390Y-1148814D01*
X96121789Y-1017711D01*
X96121786Y-1017707D01*
X96010292Y-906213D01*
X96010288Y-906210D01*
X95879185Y-818609D01*
X95879172Y-818602D01*
X95733501Y-758264D01*
X95733489Y-758261D01*
X95672438Y-746117D01*
X95610527Y-713732D01*
X95575953Y-653016D01*
X95579692Y-583247D01*
X95620559Y-526575D01*
X95685577Y-500994D01*
X95696629Y-500500D01*
X117934108Y-500500D01*
X117995572Y-500500D01*
X118004418Y-500816D01*
X118204561Y-515130D01*
X118222063Y-517647D01*
X118413795Y-559355D01*
X118430760Y-564336D01*
X118614611Y-632909D01*
X118630694Y-640253D01*
X118729945Y-694449D01*
X118802908Y-734290D01*
X118817791Y-743855D01*
X118974864Y-861438D01*
X118988235Y-873024D01*
X119126975Y-1011764D01*
X119138561Y-1025135D01*
X119256144Y-1182208D01*
X119265709Y-1197091D01*
X119359743Y-1369300D01*
X119367093Y-1385394D01*
X119435661Y-1569234D01*
X119440645Y-1586209D01*
X119482351Y-1777931D01*
X119484869Y-1795442D01*
X119499184Y-1995580D01*
X119499500Y-2004427D01*
X119499500Y-32995572D01*
X119499184Y-33004419D01*
X119484869Y-33204557D01*
X119482351Y-33222068D01*
X119440645Y-33413790D01*
X119435661Y-33430765D01*
X119367093Y-33614605D01*
X119359743Y-33630699D01*
X119265709Y-33802908D01*
X119256144Y-33817791D01*
X119138561Y-33974864D01*
X119126975Y-33988235D01*
X118988235Y-34126975D01*
X118974864Y-34138561D01*
X118817791Y-34256144D01*
X118802908Y-34265709D01*
X118630699Y-34359743D01*
X118614605Y-34367093D01*
X118430765Y-34435661D01*
X118413790Y-34440645D01*
X118222068Y-34482351D01*
X118204557Y-34484869D01*
X118023779Y-34497799D01*
X118004417Y-34499184D01*
X117995572Y-34499500D01*
X2004428Y-34499500D01*
X1995582Y-34499184D01*
X1973622Y-34497613D01*
X1795442Y-34484869D01*
X1777931Y-34482351D01*
X1586209Y-34440645D01*
X1569234Y-34435661D01*
X1385394Y-34367093D01*
X1369300Y-34359743D01*
X1197091Y-34265709D01*
X1182208Y-34256144D01*
X1025135Y-34138561D01*
X1011764Y-34126975D01*
X873024Y-33988235D01*
X861438Y-33974864D01*
X743855Y-33817791D01*
X734290Y-33802908D01*
X640256Y-33630699D01*
X632909Y-33614611D01*
X564336Y-33430760D01*
X559354Y-33413790D01*
X517648Y-33222068D01*
X515130Y-33204556D01*
X500816Y-33004418D01*
X500500Y-32995572D01*
X500500Y-29878711D01*
X38149500Y-29878711D01*
X38149500Y-30121288D01*
X38181161Y-30361785D01*
X38243947Y-30596104D01*
X38336773Y-30820205D01*
X38336776Y-30820212D01*
X38458064Y-31030289D01*
X38458066Y-31030292D01*
X38458067Y-31030293D01*
X38605733Y-31222736D01*
X38605739Y-31222743D01*
X38777256Y-31394260D01*
X38777262Y-31394265D01*
X38969711Y-31541936D01*
X39179788Y-31663224D01*
X39403900Y-31756054D01*
X39638211Y-31818838D01*
X39818586Y-31842584D01*
X39878711Y-31850500D01*
X39878712Y-31850500D01*
X40121289Y-31850500D01*
X40169388Y-31844167D01*
X40361789Y-31818838D01*
X40596100Y-31756054D01*
X40820212Y-31663224D01*
X41030289Y-31541936D01*
X41222738Y-31394265D01*
X41394265Y-31222738D01*
X41541936Y-31030289D01*
X41663224Y-30820212D01*
X41756054Y-30596100D01*
X41818838Y-30361789D01*
X41850500Y-30121288D01*
X41850500Y-29878712D01*
X41850500Y-29878711D01*
X78149500Y-29878711D01*
X78149500Y-30121288D01*
X78181161Y-30361785D01*
X78243947Y-30596104D01*
X78336773Y-30820205D01*
X78336776Y-30820212D01*
X78458064Y-31030289D01*
X78458066Y-31030292D01*
X78458067Y-31030293D01*
X78605733Y-31222736D01*
X78605739Y-31222743D01*
X78777256Y-31394260D01*
X78777262Y-31394265D01*
X78969711Y-31541936D01*
X79179788Y-31663224D01*
X79403900Y-31756054D01*
X79638211Y-31818838D01*
X79818586Y-31842584D01*
X79878711Y-31850500D01*
X79878712Y-31850500D01*
X80121289Y-31850500D01*
X80169388Y-31844167D01*
X80361789Y-31818838D01*
X80596100Y-31756054D01*
X80820212Y-31663224D01*
X81030289Y-31541936D01*
X81222738Y-31394265D01*
X81394265Y-31222738D01*
X81541936Y-31030289D01*
X81663224Y-30820212D01*
X81756054Y-30596100D01*
X81818838Y-30361789D01*
X81850500Y-30121288D01*
X81850500Y-29878712D01*
X81818838Y-29638211D01*
X81756054Y-29403900D01*
X81663224Y-29179788D01*
X81541936Y-28969711D01*
X81394265Y-28777262D01*
X81394260Y-28777256D01*
X81222743Y-28605739D01*
X81222736Y-28605733D01*
X81030293Y-28458067D01*
X81030292Y-28458066D01*
X81030289Y-28458064D01*
X80820212Y-28336776D01*
X80820205Y-28336773D01*
X80596104Y-28243947D01*
X80361785Y-28181161D01*
X80121289Y-28149500D01*
X80121288Y-28149500D01*
X79878712Y-28149500D01*
X79878711Y-28149500D01*
X79638214Y-28181161D01*
X79403895Y-28243947D01*
X79179794Y-28336773D01*
X79179785Y-28336777D01*
X78969706Y-28458067D01*
X78777263Y-28605733D01*
X78777256Y-28605739D01*
X78605739Y-28777256D01*
X78605733Y-28777263D01*
X78458067Y-28969706D01*
X78336777Y-29179785D01*
X78336773Y-29179794D01*
X78243947Y-29403895D01*
X78181161Y-29638214D01*
X78149500Y-29878711D01*
X41850500Y-29878711D01*
X41818838Y-29638211D01*
X41756054Y-29403900D01*
X41663224Y-29179788D01*
X41541936Y-28969711D01*
X41394265Y-28777262D01*
X41394260Y-28777256D01*
X41222743Y-28605739D01*
X41222736Y-28605733D01*
X41030293Y-28458067D01*
X41030292Y-28458066D01*
X41030289Y-28458064D01*
X40820212Y-28336776D01*
X40820205Y-28336773D01*
X40596104Y-28243947D01*
X40361785Y-28181161D01*
X40121289Y-28149500D01*
X40121288Y-28149500D01*
X39878712Y-28149500D01*
X39878711Y-28149500D01*
X39638214Y-28181161D01*
X39403895Y-28243947D01*
X39179794Y-28336773D01*
X39179785Y-28336777D01*
X38969706Y-28458067D01*
X38777263Y-28605733D01*
X38777256Y-28605739D01*
X38605739Y-28777256D01*
X38605733Y-28777263D01*
X38458067Y-28969706D01*
X38336777Y-29179785D01*
X38336773Y-29179794D01*
X38243947Y-29403895D01*
X38181161Y-29638214D01*
X38149500Y-29878711D01*
X500500Y-29878711D01*
X500500Y-19878711D01*
X2649500Y-19878711D01*
X2649500Y-20121288D01*
X2671672Y-20289710D01*
X2681162Y-20361789D01*
X2712554Y-20478944D01*
X2743947Y-20596104D01*
X2810464Y-20756689D01*
X2836776Y-20820212D01*
X2958064Y-21030289D01*
X2958066Y-21030292D01*
X2958067Y-21030293D01*
X3105733Y-21222736D01*
X3105739Y-21222743D01*
X3277256Y-21394260D01*
X3277262Y-21394265D01*
X3469711Y-21541936D01*
X3679788Y-21663224D01*
X3903900Y-21756054D01*
X4138211Y-21818838D01*
X4318586Y-21842584D01*
X4378711Y-21850500D01*
X4378712Y-21850500D01*
X4621289Y-21850500D01*
X4669388Y-21844167D01*
X4861789Y-21818838D01*
X5096100Y-21756054D01*
X5320212Y-21663224D01*
X5530289Y-21541936D01*
X5722738Y-21394265D01*
X5894265Y-21222738D01*
X6041936Y-21030289D01*
X6163224Y-20820212D01*
X6256054Y-20596100D01*
X6318838Y-20361789D01*
X6350500Y-20121288D01*
X6350500Y-19878712D01*
X6345362Y-19839688D01*
X6342584Y-19818586D01*
X6318838Y-19638211D01*
X6256054Y-19403900D01*
X6163224Y-19179788D01*
X6041936Y-18969711D01*
X5965728Y-18870394D01*
X5894266Y-18777263D01*
X5894260Y-18777256D01*
X5722743Y-18605739D01*
X5722736Y-18605733D01*
X5530293Y-18458067D01*
X5530292Y-18458066D01*
X5530289Y-18458064D01*
X5358661Y-18358974D01*
X5320214Y-18336777D01*
X5320205Y-18336773D01*
X5096104Y-18243947D01*
X4861785Y-18181161D01*
X4621289Y-18149500D01*
X4621288Y-18149500D01*
X4378712Y-18149500D01*
X4378711Y-18149500D01*
X4138214Y-18181161D01*
X3903895Y-18243947D01*
X3679794Y-18336773D01*
X3679785Y-18336777D01*
X3469706Y-18458067D01*
X3277263Y-18605733D01*
X3277256Y-18605739D01*
X3105739Y-18777256D01*
X3105733Y-18777263D01*
X2958067Y-18969706D01*
X2836777Y-19179785D01*
X2836773Y-19179794D01*
X2743947Y-19403895D01*
X2681161Y-19638214D01*
X2649500Y-19878711D01*
X500500Y-19878711D01*
X500500Y-4002332D01*
X3149500Y-4002332D01*
X3149500Y-4277667D01*
X3149501Y-4277684D01*
X3185438Y-4550655D01*
X3185439Y-4550660D01*
X3185440Y-4550666D01*
X3185441Y-4550668D01*
X3256704Y-4816630D01*
X3362075Y-5071017D01*
X3362080Y-5071028D01*
X3444861Y-5214407D01*
X3499751Y-5309479D01*
X3499753Y-5309482D01*
X3499754Y-5309483D01*
X3667370Y-5527926D01*
X3667376Y-5527933D01*
X3862066Y-5722623D01*
X3862073Y-5722629D01*
X3966990Y-5803134D01*
X4080521Y-5890249D01*
X4233778Y-5978732D01*
X4318971Y-6027919D01*
X4318976Y-6027921D01*
X4318979Y-6027923D01*
X4573368Y-6133295D01*
X4839334Y-6204560D01*
X5112326Y-6240500D01*
X5112333Y-6240500D01*
X5387667Y-6240500D01*
X5387674Y-6240500D01*
X5660666Y-6204560D01*
X5926632Y-6133295D01*
X6145691Y-6042556D01*
X6215160Y-6035088D01*
X6277640Y-6066363D01*
X6313292Y-6126452D01*
X6310798Y-6196277D01*
X6303629Y-6213412D01*
X6294782Y-6230773D01*
X6231522Y-6425465D01*
X6199500Y-6627648D01*
X6199500Y-6832351D01*
X6231522Y-7034534D01*
X6294781Y-7229223D01*
X6387715Y-7411613D01*
X6508028Y-7577213D01*
X6652786Y-7721971D01*
X6773598Y-7809744D01*
X6818390Y-7842287D01*
X6934607Y-7901503D01*
X7000776Y-7935218D01*
X7000778Y-7935218D01*
X7000781Y-7935220D01*
X7062144Y-7955158D01*
X7195465Y-7998477D01*
X7214697Y-8001523D01*
X7397648Y-8030500D01*
X7397649Y-8030500D01*
X7602347Y-8030500D01*
X7602352Y-8030500D01*
X7602356Y-8030499D01*
X7602664Y-8030475D01*
X7602783Y-8030500D01*
X7607224Y-8030500D01*
X7607224Y-8031432D01*
X7671043Y-8044829D01*
X7720807Y-8093873D01*
X7736156Y-8162035D01*
X7712217Y-8227676D01*
X7685297Y-8254409D01*
X7652782Y-8278032D01*
X7508028Y-8422786D01*
X7387715Y-8588386D01*
X7294781Y-8770776D01*
X7231522Y-8965465D01*
X7199500Y-9167648D01*
X7199500Y-9372351D01*
X7231522Y-9574534D01*
X7294781Y-9769223D01*
X7387715Y-9951613D01*
X7508028Y-10117213D01*
X7652786Y-10261971D01*
X7807749Y-10374556D01*
X7818390Y-10382287D01*
X7899499Y-10423614D01*
X8000776Y-10475218D01*
X8000778Y-10475218D01*
X8000781Y-10475220D01*
X8075818Y-10499601D01*
X8195465Y-10538477D01*
X8296557Y-10554488D01*
X8397648Y-10570500D01*
X8397649Y-10570500D01*
X8602351Y-10570500D01*
X8602352Y-10570500D01*
X8804534Y-10538477D01*
X8999219Y-10475220D01*
X9181610Y-10382287D01*
X9274590Y-10314732D01*
X9347213Y-10261971D01*
X9347215Y-10261968D01*
X9347219Y-10261966D01*
X9412319Y-10196866D01*
X9473642Y-10163381D01*
X9543334Y-10168365D01*
X9587681Y-10196866D01*
X9652786Y-10261971D01*
X9807749Y-10374556D01*
X9818390Y-10382287D01*
X9899499Y-10423614D01*
X10000776Y-10475218D01*
X10000778Y-10475218D01*
X10000781Y-10475220D01*
X10075818Y-10499601D01*
X10195465Y-10538477D01*
X10296557Y-10554488D01*
X10397648Y-10570500D01*
X10397649Y-10570500D01*
X10602351Y-10570500D01*
X10602352Y-10570500D01*
X10804534Y-10538477D01*
X10999219Y-10475220D01*
X11181610Y-10382287D01*
X11274590Y-10314732D01*
X11347213Y-10261971D01*
X11347215Y-10261968D01*
X11347219Y-10261966D01*
X11412319Y-10196866D01*
X11473642Y-10163381D01*
X11543334Y-10168365D01*
X11587681Y-10196866D01*
X11652786Y-10261971D01*
X11807749Y-10374556D01*
X11818390Y-10382287D01*
X11899499Y-10423614D01*
X12000776Y-10475218D01*
X12000778Y-10475218D01*
X12000781Y-10475220D01*
X12075818Y-10499601D01*
X12195465Y-10538477D01*
X12296557Y-10554488D01*
X12397648Y-10570500D01*
X12397649Y-10570500D01*
X12602351Y-10570500D01*
X12602352Y-10570500D01*
X12804534Y-10538477D01*
X12999219Y-10475220D01*
X13181610Y-10382287D01*
X13274590Y-10314732D01*
X13347213Y-10261971D01*
X13347215Y-10261968D01*
X13347219Y-10261966D01*
X13412319Y-10196866D01*
X13473642Y-10163381D01*
X13543334Y-10168365D01*
X13587681Y-10196866D01*
X13652786Y-10261971D01*
X13807749Y-10374556D01*
X13818390Y-10382287D01*
X13899499Y-10423614D01*
X14000776Y-10475218D01*
X14000778Y-10475218D01*
X14000781Y-10475220D01*
X14075818Y-10499601D01*
X14195465Y-10538477D01*
X14296557Y-10554488D01*
X14397648Y-10570500D01*
X14397649Y-10570500D01*
X14602351Y-10570500D01*
X14602352Y-10570500D01*
X14804534Y-10538477D01*
X14999219Y-10475220D01*
X15181610Y-10382287D01*
X15274590Y-10314732D01*
X15347213Y-10261971D01*
X15347215Y-10261968D01*
X15347219Y-10261966D01*
X15491966Y-10117219D01*
X15491968Y-10117215D01*
X15491971Y-10117213D01*
X15544732Y-10044590D01*
X15612287Y-9951610D01*
X15705220Y-9769219D01*
X15768477Y-9574534D01*
X15800500Y-9372352D01*
X15800500Y-9167648D01*
X15768477Y-8965466D01*
X15705220Y-8770781D01*
X15705218Y-8770778D01*
X15705218Y-8770776D01*
X15671503Y-8704607D01*
X15612287Y-8588390D01*
X15604556Y-8577749D01*
X15491971Y-8422786D01*
X15347213Y-8278028D01*
X15181613Y-8157715D01*
X15181612Y-8157714D01*
X15181610Y-8157713D01*
X15124653Y-8128691D01*
X14999223Y-8064781D01*
X14804534Y-8001522D01*
X14629995Y-7973878D01*
X14602352Y-7969500D01*
X14397648Y-7969500D01*
X14397641Y-7969500D01*
X14397310Y-7969526D01*
X14397186Y-7969500D01*
X14392776Y-7969500D01*
X14392776Y-7968573D01*
X14328933Y-7955158D01*
X14279179Y-7906104D01*
X14263844Y-7837938D01*
X14287797Y-7772302D01*
X14314702Y-7745590D01*
X14347219Y-7721966D01*
X14491966Y-7577219D01*
X14491968Y-7577215D01*
X14491971Y-7577213D01*
X14546591Y-7502033D01*
X14612287Y-7411610D01*
X14705220Y-7229219D01*
X14768477Y-7034534D01*
X14800500Y-6832352D01*
X14800500Y-6627648D01*
X20199500Y-6627648D01*
X20199500Y-6832351D01*
X20231522Y-7034534D01*
X20294781Y-7229223D01*
X20387715Y-7411613D01*
X20508028Y-7577213D01*
X20652786Y-7721971D01*
X20773598Y-7809744D01*
X20818390Y-7842287D01*
X20934607Y-7901503D01*
X21000776Y-7935218D01*
X21000778Y-7935218D01*
X21000781Y-7935220D01*
X21062144Y-7955158D01*
X21195465Y-7998477D01*
X21214697Y-8001523D01*
X21397648Y-8030500D01*
X21397649Y-8030500D01*
X21602347Y-8030500D01*
X21602352Y-8030500D01*
X21602356Y-8030499D01*
X21602664Y-8030475D01*
X21602783Y-8030500D01*
X21607224Y-8030500D01*
X21607224Y-8031432D01*
X21671043Y-8044829D01*
X21720807Y-8093873D01*
X21736156Y-8162035D01*
X21712217Y-8227676D01*
X21685297Y-8254409D01*
X21652782Y-8278032D01*
X21508028Y-8422786D01*
X21387715Y-8588386D01*
X21294781Y-8770776D01*
X21231522Y-8965465D01*
X21199500Y-9167648D01*
X21199500Y-9372351D01*
X21231522Y-9574534D01*
X21294781Y-9769223D01*
X21387715Y-9951613D01*
X21508028Y-10117213D01*
X21652786Y-10261971D01*
X21807749Y-10374556D01*
X21818390Y-10382287D01*
X21899499Y-10423614D01*
X22000776Y-10475218D01*
X22000778Y-10475218D01*
X22000781Y-10475220D01*
X22075818Y-10499601D01*
X22195465Y-10538477D01*
X22296557Y-10554488D01*
X22397648Y-10570500D01*
X22397649Y-10570500D01*
X22602351Y-10570500D01*
X22602352Y-10570500D01*
X22804534Y-10538477D01*
X22999219Y-10475220D01*
X23181610Y-10382287D01*
X23274590Y-10314732D01*
X23347213Y-10261971D01*
X23347215Y-10261968D01*
X23347219Y-10261966D01*
X23412319Y-10196866D01*
X23473642Y-10163381D01*
X23543334Y-10168365D01*
X23587681Y-10196866D01*
X23652781Y-10261966D01*
X23818390Y-10382287D01*
X23831793Y-10389116D01*
X23882589Y-10437088D01*
X23899500Y-10499601D01*
X23899500Y-18766096D01*
X23879815Y-18833135D01*
X23878602Y-18834987D01*
X23801609Y-18950214D01*
X23801602Y-18950227D01*
X23741264Y-19095898D01*
X23741261Y-19095910D01*
X23710500Y-19250553D01*
X23710500Y-19408246D01*
X23741261Y-19562889D01*
X23741264Y-19562901D01*
X23801602Y-19708572D01*
X23801609Y-19708585D01*
X23889210Y-19839688D01*
X23889213Y-19839692D01*
X24000707Y-19951186D01*
X24000711Y-19951189D01*
X24131814Y-20038790D01*
X24131827Y-20038797D01*
X24277498Y-20099135D01*
X24277503Y-20099137D01*
X24388863Y-20121288D01*
X24432153Y-20129899D01*
X24432156Y-20129900D01*
X24432158Y-20129900D01*
X24589844Y-20129900D01*
X24589845Y-20129899D01*
X24744497Y-20099137D01*
X24890179Y-20038794D01*
X25021289Y-19951189D01*
X25132789Y-19839689D01*
X25220394Y-19708579D01*
X25280737Y-19562897D01*
X25311500Y-19408242D01*
X25311500Y-19250558D01*
X25311500Y-19250555D01*
X25311499Y-19250553D01*
X25284039Y-19112503D01*
X25280737Y-19095903D01*
X25279575Y-19093098D01*
X25220397Y-18950227D01*
X25220390Y-18950214D01*
X25132789Y-18819111D01*
X25128924Y-18814401D01*
X25131080Y-18812631D01*
X25103334Y-18761817D01*
X25100500Y-18735459D01*
X25100500Y-10499601D01*
X25120185Y-10432562D01*
X25168206Y-10389116D01*
X25181610Y-10382287D01*
X25347219Y-10261966D01*
X25412319Y-10196866D01*
X25473642Y-10163381D01*
X25543334Y-10168365D01*
X25587681Y-10196866D01*
X25652781Y-10261966D01*
X25818390Y-10382287D01*
X25831793Y-10389116D01*
X25882589Y-10437088D01*
X25899500Y-10499601D01*
X25899500Y-17632974D01*
X25879815Y-17700013D01*
X25878602Y-17701865D01*
X25808209Y-17807214D01*
X25808202Y-17807227D01*
X25747864Y-17952898D01*
X25747861Y-17952910D01*
X25717100Y-18107553D01*
X25717100Y-18265246D01*
X25747861Y-18419889D01*
X25747864Y-18419901D01*
X25808202Y-18565572D01*
X25808209Y-18565585D01*
X25895810Y-18696688D01*
X25895813Y-18696692D01*
X26007307Y-18808186D01*
X26007311Y-18808189D01*
X26138414Y-18895790D01*
X26138427Y-18895797D01*
X26269820Y-18950221D01*
X26284103Y-18956137D01*
X26381965Y-18975603D01*
X26438753Y-18986899D01*
X26438756Y-18986900D01*
X26438758Y-18986900D01*
X26596444Y-18986900D01*
X26596445Y-18986899D01*
X26751097Y-18956137D01*
X26896779Y-18895794D01*
X27027889Y-18808189D01*
X27139389Y-18696689D01*
X27226994Y-18565579D01*
X27287337Y-18419897D01*
X27318100Y-18265242D01*
X27318100Y-18107558D01*
X27318100Y-18107555D01*
X27318099Y-18107553D01*
X27303055Y-18031921D01*
X27287337Y-17952903D01*
X27273756Y-17920116D01*
X27226997Y-17807227D01*
X27226990Y-17807214D01*
X27139389Y-17676111D01*
X27139386Y-17676107D01*
X27136819Y-17673540D01*
X27135903Y-17671863D01*
X27135524Y-17671401D01*
X27135611Y-17671329D01*
X27103334Y-17612217D01*
X27100500Y-17585859D01*
X27100500Y-10499601D01*
X27120185Y-10432562D01*
X27168206Y-10389116D01*
X27181610Y-10382287D01*
X27347219Y-10261966D01*
X27412319Y-10196866D01*
X27473642Y-10163381D01*
X27543334Y-10168365D01*
X27587681Y-10196866D01*
X27652786Y-10261971D01*
X27807749Y-10374556D01*
X27818390Y-10382287D01*
X27899499Y-10423614D01*
X28000776Y-10475218D01*
X28000778Y-10475218D01*
X28000781Y-10475220D01*
X28075818Y-10499601D01*
X28195465Y-10538477D01*
X28296557Y-10554488D01*
X28397648Y-10570500D01*
X28397649Y-10570500D01*
X28602351Y-10570500D01*
X28602352Y-10570500D01*
X28804534Y-10538477D01*
X28999219Y-10475220D01*
X29181610Y-10382287D01*
X29274590Y-10314732D01*
X29347213Y-10261971D01*
X29347215Y-10261968D01*
X29347219Y-10261966D01*
X29491966Y-10117219D01*
X29491968Y-10117215D01*
X29491971Y-10117213D01*
X29544732Y-10044590D01*
X29612287Y-9951610D01*
X29705220Y-9769219D01*
X29768477Y-9574534D01*
X29800500Y-9372352D01*
X29800500Y-9167648D01*
X29768477Y-8965466D01*
X29705220Y-8770781D01*
X29705218Y-8770778D01*
X29705218Y-8770776D01*
X29671503Y-8704607D01*
X29612287Y-8588390D01*
X29604556Y-8577749D01*
X29491971Y-8422786D01*
X29347213Y-8278028D01*
X29181613Y-8157715D01*
X29181612Y-8157714D01*
X29181610Y-8157713D01*
X29124653Y-8128691D01*
X28999223Y-8064781D01*
X28804534Y-8001522D01*
X28629995Y-7973878D01*
X28602352Y-7969500D01*
X28397648Y-7969500D01*
X28397641Y-7969500D01*
X28397310Y-7969526D01*
X28397186Y-7969500D01*
X28392776Y-7969500D01*
X28392776Y-7968573D01*
X28328933Y-7955158D01*
X28279179Y-7906104D01*
X28263844Y-7837938D01*
X28287797Y-7772302D01*
X28314702Y-7745590D01*
X28347219Y-7721966D01*
X28491966Y-7577219D01*
X28491968Y-7577215D01*
X28491971Y-7577213D01*
X28546591Y-7502033D01*
X28612287Y-7411610D01*
X28705220Y-7229219D01*
X28768477Y-7034534D01*
X28800500Y-6832352D01*
X28800500Y-6627648D01*
X28768477Y-6425466D01*
X28705220Y-6230781D01*
X28705218Y-6230778D01*
X28705218Y-6230776D01*
X28655548Y-6133295D01*
X28612287Y-6048390D01*
X28597414Y-6027919D01*
X28491971Y-5882786D01*
X28347213Y-5738028D01*
X28181613Y-5617715D01*
X28181612Y-5617714D01*
X28181610Y-5617713D01*
X28124653Y-5588691D01*
X27999223Y-5524781D01*
X27804534Y-5461522D01*
X27629995Y-5433878D01*
X27602352Y-5429500D01*
X27397648Y-5429500D01*
X27373329Y-5433351D01*
X27195465Y-5461522D01*
X27000776Y-5524781D01*
X26818386Y-5617715D01*
X26652786Y-5738028D01*
X26652782Y-5738032D01*
X26587681Y-5803134D01*
X26526358Y-5836619D01*
X26456666Y-5831635D01*
X26412319Y-5803134D01*
X26347213Y-5738028D01*
X26181610Y-5617712D01*
X26168200Y-5610879D01*
X26117406Y-5562903D01*
X26100500Y-5500397D01*
X26100500Y-2131560D01*
X26120185Y-2064521D01*
X26121398Y-2062669D01*
X26210990Y-1928585D01*
X26210990Y-1928584D01*
X26210994Y-1928579D01*
X26216465Y-1915372D01*
X26224667Y-1895566D01*
X26271337Y-1782897D01*
X26302100Y-1628242D01*
X26302100Y-1470558D01*
X26302100Y-1470555D01*
X26302099Y-1470553D01*
X26292273Y-1421153D01*
X26271337Y-1315903D01*
X26265872Y-1302710D01*
X26210997Y-1170227D01*
X26210990Y-1170214D01*
X26123389Y-1039111D01*
X26123386Y-1039107D01*
X26011892Y-927613D01*
X26011888Y-927610D01*
X25880785Y-840009D01*
X25880772Y-840002D01*
X25735101Y-779664D01*
X25735089Y-779661D01*
X25580445Y-748900D01*
X25580442Y-748900D01*
X25422758Y-748900D01*
X25422755Y-748900D01*
X25268110Y-779661D01*
X25268098Y-779664D01*
X25122427Y-840002D01*
X25122414Y-840009D01*
X24991311Y-927610D01*
X24991307Y-927613D01*
X24879813Y-1039107D01*
X24879810Y-1039111D01*
X24792209Y-1170214D01*
X24792202Y-1170227D01*
X24731864Y-1315898D01*
X24731861Y-1315910D01*
X24701100Y-1470553D01*
X24701100Y-1628246D01*
X24731861Y-1782889D01*
X24731864Y-1782901D01*
X24792202Y-1928572D01*
X24792209Y-1928585D01*
X24878602Y-2057880D01*
X24899480Y-2124557D01*
X24899500Y-2126771D01*
X24899500Y-5500397D01*
X24879815Y-5567436D01*
X24831800Y-5610879D01*
X24818389Y-5617712D01*
X24652786Y-5738028D01*
X24652782Y-5738032D01*
X24587681Y-5803134D01*
X24526358Y-5836619D01*
X24456666Y-5831635D01*
X24412319Y-5803134D01*
X24347213Y-5738028D01*
X24181613Y-5617715D01*
X24181612Y-5617714D01*
X24181610Y-5617713D01*
X24124653Y-5588691D01*
X23999223Y-5524781D01*
X23804534Y-5461522D01*
X23629995Y-5433878D01*
X23602352Y-5429500D01*
X23397648Y-5429500D01*
X23373329Y-5433351D01*
X23195465Y-5461522D01*
X23000776Y-5524781D01*
X22818386Y-5617715D01*
X22652786Y-5738028D01*
X22652782Y-5738032D01*
X22587681Y-5803134D01*
X22526358Y-5836619D01*
X22456666Y-5831635D01*
X22412319Y-5803134D01*
X22347213Y-5738028D01*
X22181613Y-5617715D01*
X22181612Y-5617714D01*
X22181610Y-5617713D01*
X22124653Y-5588691D01*
X21999223Y-5524781D01*
X21804534Y-5461522D01*
X21629995Y-5433878D01*
X21602352Y-5429500D01*
X21397648Y-5429500D01*
X21373329Y-5433351D01*
X21195465Y-5461522D01*
X21000776Y-5524781D01*
X20818386Y-5617715D01*
X20652786Y-5738028D01*
X20508028Y-5882786D01*
X20387715Y-6048386D01*
X20294781Y-6230776D01*
X20231522Y-6425465D01*
X20199500Y-6627648D01*
X14800500Y-6627648D01*
X14768477Y-6425466D01*
X14705220Y-6230781D01*
X14705218Y-6230778D01*
X14705218Y-6230776D01*
X14655548Y-6133295D01*
X14612287Y-6048390D01*
X14597414Y-6027919D01*
X14491971Y-5882786D01*
X14347213Y-5738028D01*
X14181613Y-5617715D01*
X14181612Y-5617714D01*
X14181610Y-5617713D01*
X14124653Y-5588691D01*
X13999223Y-5524781D01*
X13804534Y-5461522D01*
X13629995Y-5433878D01*
X13602352Y-5429500D01*
X13397648Y-5429500D01*
X13373329Y-5433351D01*
X13195465Y-5461522D01*
X13000776Y-5524781D01*
X12818386Y-5617715D01*
X12652786Y-5738028D01*
X12652782Y-5738032D01*
X12587681Y-5803134D01*
X12526358Y-5836619D01*
X12456666Y-5831635D01*
X12412319Y-5803134D01*
X12347213Y-5738028D01*
X12181613Y-5617715D01*
X12181612Y-5617714D01*
X12181610Y-5617713D01*
X12124653Y-5588691D01*
X11999223Y-5524781D01*
X11804534Y-5461522D01*
X11629995Y-5433878D01*
X11602352Y-5429500D01*
X11397648Y-5429500D01*
X11373329Y-5433351D01*
X11195465Y-5461522D01*
X11000776Y-5524781D01*
X10818386Y-5617715D01*
X10652786Y-5738028D01*
X10652782Y-5738032D01*
X10587681Y-5803134D01*
X10526358Y-5836619D01*
X10456666Y-5831635D01*
X10412319Y-5803134D01*
X10347213Y-5738028D01*
X10181613Y-5617715D01*
X10181612Y-5617714D01*
X10181610Y-5617713D01*
X10124653Y-5588691D01*
X9999223Y-5524781D01*
X9804534Y-5461522D01*
X9629995Y-5433878D01*
X9602352Y-5429500D01*
X9397648Y-5429500D01*
X9373329Y-5433351D01*
X9195465Y-5461522D01*
X9000776Y-5524781D01*
X8818386Y-5617715D01*
X8652786Y-5738028D01*
X8652782Y-5738032D01*
X8587681Y-5803134D01*
X8526358Y-5836619D01*
X8456666Y-5831635D01*
X8412319Y-5803134D01*
X8347213Y-5738028D01*
X8181613Y-5617715D01*
X8181612Y-5617714D01*
X8181610Y-5617713D01*
X8124653Y-5588691D01*
X7999223Y-5524781D01*
X7804534Y-5461522D01*
X7629995Y-5433878D01*
X7602352Y-5429500D01*
X7397648Y-5429500D01*
X7330254Y-5440174D01*
X7195464Y-5461523D01*
X7195457Y-5461524D01*
X7154338Y-5474885D01*
X7084497Y-5476880D01*
X7024665Y-5440799D01*
X6993837Y-5378098D01*
X7001802Y-5308684D01*
X7008624Y-5294973D01*
X7137923Y-5071021D01*
X7243295Y-4816632D01*
X7314560Y-4550666D01*
X7350500Y-4277674D01*
X7350500Y-4002326D01*
X7314560Y-3729334D01*
X7243295Y-3463368D01*
X7137923Y-3208979D01*
X7137921Y-3208976D01*
X7137919Y-3208971D01*
X7088732Y-3123778D01*
X7000249Y-2970521D01*
X6832628Y-2752072D01*
X6832623Y-2752066D01*
X6637933Y-2557376D01*
X6637926Y-2557370D01*
X6419483Y-2389754D01*
X6419482Y-2389753D01*
X6419479Y-2389751D01*
X6324407Y-2334861D01*
X6181028Y-2252080D01*
X6181017Y-2252075D01*
X5926630Y-2146704D01*
X5769310Y-2104551D01*
X5660666Y-2075440D01*
X5660660Y-2075439D01*
X5660655Y-2075438D01*
X5387684Y-2039501D01*
X5387679Y-2039500D01*
X5387674Y-2039500D01*
X5112326Y-2039500D01*
X5112320Y-2039500D01*
X5112315Y-2039501D01*
X4839344Y-2075438D01*
X4839337Y-2075439D01*
X4839334Y-2075440D01*
X4783125Y-2090500D01*
X4573369Y-2146704D01*
X4318982Y-2252075D01*
X4318971Y-2252080D01*
X4080516Y-2389754D01*
X3862073Y-2557370D01*
X3862066Y-2557376D01*
X3667376Y-2752066D01*
X3667370Y-2752073D01*
X3499754Y-2970516D01*
X3362080Y-3208971D01*
X3362075Y-3208982D01*
X3256704Y-3463369D01*
X3185441Y-3729331D01*
X3185438Y-3729344D01*
X3149501Y-4002315D01*
X3149500Y-4002332D01*
X500500Y-4002332D01*
X500500Y-2004427D01*
X500816Y-1995581D01*
X515130Y-1795443D01*
X515131Y-1795434D01*
X517646Y-1777938D01*
X559356Y-1586200D01*
X564335Y-1569242D01*
X632911Y-1385382D01*
X640251Y-1369310D01*
X734294Y-1197083D01*
X743850Y-1182214D01*
X861443Y-1025128D01*
X873017Y-1011771D01*
X1011771Y-873017D01*
X1025128Y-861443D01*
X1182214Y-743850D01*
X1197083Y-734294D01*
X1369310Y-640251D01*
X1385382Y-632911D01*
X1569242Y-564335D01*
X1586200Y-559356D01*
X1777938Y-517646D01*
X1795436Y-515130D01*
X1995582Y-500816D01*
X2004428Y-500500D01*
X2065892Y-500500D01*
X39298343Y-500500D01*
X39365382Y-520185D01*
G37*
%TD.AperFunction*%
%TA.AperFunction,Conductor*%
G36*
X67366869Y-507040D02*
G01*
X67389994Y-509110D01*
X67399764Y-516699D01*
X67411633Y-520185D01*
X67426835Y-537729D01*
X67445171Y-551973D01*
X67449286Y-563639D01*
X67457388Y-572989D01*
X67460692Y-595969D01*
X67468416Y-617863D01*
X67465571Y-629901D01*
X67467332Y-642147D01*
X67457686Y-663267D01*
X67452348Y-685860D01*
X67443446Y-694449D01*
X67438307Y-705703D01*
X67418774Y-718255D01*
X67402069Y-734375D01*
X67383496Y-740927D01*
X67379529Y-743477D01*
X67368786Y-746117D01*
X67266508Y-766461D01*
X67266498Y-766464D01*
X67120827Y-826802D01*
X67120814Y-826809D01*
X66989711Y-914410D01*
X66989707Y-914413D01*
X66878213Y-1025907D01*
X66878210Y-1025911D01*
X66790609Y-1157014D01*
X66790602Y-1157027D01*
X66730264Y-1302698D01*
X66730261Y-1302710D01*
X66699500Y-1457353D01*
X66699500Y-1615046D01*
X66730261Y-1769689D01*
X66730264Y-1769701D01*
X66790602Y-1915372D01*
X66790609Y-1915385D01*
X66844195Y-1995581D01*
X66876196Y-2043474D01*
X66878602Y-2047074D01*
X66899480Y-2113751D01*
X66899500Y-2115965D01*
X66899500Y-5500397D01*
X66879815Y-5567436D01*
X66831800Y-5610879D01*
X66818389Y-5617712D01*
X66652786Y-5738028D01*
X66652782Y-5738032D01*
X66587681Y-5803134D01*
X66526358Y-5836619D01*
X66456666Y-5831635D01*
X66412319Y-5803134D01*
X66347213Y-5738028D01*
X66181613Y-5617715D01*
X66181612Y-5617714D01*
X66181610Y-5617713D01*
X66124653Y-5588691D01*
X65999223Y-5524781D01*
X65804534Y-5461522D01*
X65629995Y-5433878D01*
X65602352Y-5429500D01*
X65397648Y-5429500D01*
X65373329Y-5433351D01*
X65195465Y-5461522D01*
X65000776Y-5524781D01*
X64818386Y-5617715D01*
X64652786Y-5738028D01*
X64652782Y-5738032D01*
X64587681Y-5803134D01*
X64526358Y-5836619D01*
X64456666Y-5831635D01*
X64412319Y-5803134D01*
X64347213Y-5738028D01*
X64181613Y-5617715D01*
X64181612Y-5617714D01*
X64181610Y-5617713D01*
X64124653Y-5588691D01*
X63999223Y-5524781D01*
X63804534Y-5461522D01*
X63629995Y-5433878D01*
X63602352Y-5429500D01*
X63397648Y-5429500D01*
X63373329Y-5433351D01*
X63195465Y-5461522D01*
X63000776Y-5524781D01*
X62818386Y-5617715D01*
X62652786Y-5738028D01*
X62508028Y-5882786D01*
X62387715Y-6048386D01*
X62294781Y-6230776D01*
X62231522Y-6425465D01*
X62199500Y-6627648D01*
X62199500Y-6832351D01*
X62231522Y-7034534D01*
X62294781Y-7229223D01*
X62387715Y-7411613D01*
X62508028Y-7577213D01*
X62652786Y-7721971D01*
X62773598Y-7809744D01*
X62818390Y-7842287D01*
X62934607Y-7901503D01*
X63000776Y-7935218D01*
X63000778Y-7935218D01*
X63000781Y-7935220D01*
X63062144Y-7955158D01*
X63195465Y-7998477D01*
X63214697Y-8001523D01*
X63397648Y-8030500D01*
X63397649Y-8030500D01*
X63602347Y-8030500D01*
X63602352Y-8030500D01*
X63602356Y-8030499D01*
X63602664Y-8030475D01*
X63602783Y-8030500D01*
X63607224Y-8030500D01*
X63607224Y-8031432D01*
X63671043Y-8044829D01*
X63720807Y-8093873D01*
X63736156Y-8162035D01*
X63712217Y-8227676D01*
X63685297Y-8254409D01*
X63652782Y-8278032D01*
X63508028Y-8422786D01*
X63387715Y-8588386D01*
X63294781Y-8770776D01*
X63231522Y-8965465D01*
X63199500Y-9167648D01*
X63199500Y-9372351D01*
X63231522Y-9574534D01*
X63294781Y-9769223D01*
X63387715Y-9951613D01*
X63508028Y-10117213D01*
X63652786Y-10261971D01*
X63807749Y-10374556D01*
X63818390Y-10382287D01*
X63899499Y-10423614D01*
X64000776Y-10475218D01*
X64000778Y-10475218D01*
X64000781Y-10475220D01*
X64075818Y-10499601D01*
X64195465Y-10538477D01*
X64296557Y-10554488D01*
X64397648Y-10570500D01*
X64397649Y-10570500D01*
X64602351Y-10570500D01*
X64602352Y-10570500D01*
X64804534Y-10538477D01*
X64999219Y-10475220D01*
X65181610Y-10382287D01*
X65274590Y-10314732D01*
X65347213Y-10261971D01*
X65347215Y-10261968D01*
X65347219Y-10261966D01*
X65412319Y-10196866D01*
X65473642Y-10163381D01*
X65543334Y-10168365D01*
X65587681Y-10196866D01*
X65652781Y-10261966D01*
X65818390Y-10382287D01*
X65831793Y-10389116D01*
X65882589Y-10437088D01*
X65899500Y-10499601D01*
X65899500Y-18746834D01*
X65894172Y-18764977D01*
X65893835Y-18783887D01*
X65880334Y-18812104D01*
X65879815Y-18813873D01*
X65878602Y-18815725D01*
X65805515Y-18925107D01*
X65751903Y-18969912D01*
X65682578Y-18978619D01*
X65619550Y-18948464D01*
X65614732Y-18943897D01*
X65538290Y-18867455D01*
X65504805Y-18806132D01*
X65501971Y-18779774D01*
X65501971Y-18339059D01*
X65501972Y-18339046D01*
X65501972Y-18170945D01*
X65501972Y-18170943D01*
X65461048Y-18018215D01*
X65423340Y-17952903D01*
X65381991Y-17881284D01*
X65270187Y-17769480D01*
X65270186Y-17769479D01*
X65265856Y-17765149D01*
X65265845Y-17765139D01*
X61136819Y-13636113D01*
X61103334Y-13574790D01*
X61100500Y-13548432D01*
X61100500Y-2079765D01*
X61120185Y-2012726D01*
X61121398Y-2010874D01*
X61131617Y-1995581D01*
X61209394Y-1879179D01*
X61269737Y-1733497D01*
X61300500Y-1578842D01*
X61300500Y-1421158D01*
X61300500Y-1421155D01*
X61300499Y-1421153D01*
X61279684Y-1316510D01*
X61269737Y-1266503D01*
X61240986Y-1197091D01*
X61209397Y-1120827D01*
X61209390Y-1120814D01*
X61121789Y-989711D01*
X61121786Y-989707D01*
X61010292Y-878213D01*
X61010288Y-878210D01*
X60879185Y-790609D01*
X60879172Y-790602D01*
X60754738Y-739061D01*
X60700334Y-695221D01*
X60678269Y-628926D01*
X60695548Y-561227D01*
X60746685Y-513616D01*
X60802190Y-500500D01*
X67344594Y-500500D01*
X67366869Y-507040D01*
G37*
%TD.AperFunction*%
%TD*%
M02*
