%TF.GenerationSoftware,KiCad,Pcbnew,10.0.1*%
%TF.CreationDate,2026-04-30T16:36:20+02:00*%
%TF.ProjectId,Id_Board,49645f42-6f61-4726-942e-6b696361645f,rev?*%
%TF.SameCoordinates,Original*%
%TF.FileFunction,Legend,Bot*%
%TF.FilePolarity,Positive*%
%FSLAX46Y46*%
G04 Gerber Fmt 4.6, Leading zero omitted, Abs format (unit mm)*
G04 Created by KiCad (PCBNEW 10.0.1) date 2026-04-30 16:36:20*
%MOMM*%
%LPD*%
G01*
G04 APERTURE LIST*
%ADD10C,3.200000*%
%ADD11C,1.600000*%
G04 APERTURE END LIST*
%LPC*%
D10*
%TO.C,H3*%
X40000000Y-30000000D03*
%TD*%
%TO.C,J1*%
X114750000Y-4140000D03*
X5250000Y-4140000D03*
D11*
X105500000Y-6730000D03*
X106500000Y-9270000D03*
X107500000Y-6730000D03*
X108500000Y-9270000D03*
X109500000Y-6730000D03*
X110500000Y-9270000D03*
X111500000Y-6730000D03*
X112500000Y-9270000D03*
X91500000Y-6730000D03*
X92500000Y-9270000D03*
X93500000Y-6730000D03*
X94500000Y-9270000D03*
X95500000Y-6730000D03*
X96500000Y-9270000D03*
X97500000Y-6730000D03*
X98500000Y-9270000D03*
X77500000Y-6730000D03*
X78500000Y-9270000D03*
X79500000Y-6730000D03*
X80500000Y-9270000D03*
X81500000Y-6730000D03*
X82500000Y-9270000D03*
X83500000Y-6730000D03*
X84500000Y-9270000D03*
X63500000Y-6730000D03*
X64500000Y-9270000D03*
X65500000Y-6730000D03*
X66500000Y-9270000D03*
X67500000Y-6730000D03*
X68500000Y-9270000D03*
X69500000Y-6730000D03*
X70500000Y-9270000D03*
X49500000Y-6730000D03*
X50500000Y-9270000D03*
X51500000Y-6730000D03*
X52500000Y-9270000D03*
X53500000Y-6730000D03*
X54500000Y-9270000D03*
X55500000Y-6730000D03*
X56500000Y-9270000D03*
X35500000Y-6730000D03*
X36500000Y-9270000D03*
X37500000Y-6730000D03*
X38500000Y-9270000D03*
X39500000Y-6730000D03*
X40500000Y-9270000D03*
X41500000Y-6730000D03*
X42500000Y-9270000D03*
X21500000Y-6730000D03*
X22500000Y-9270000D03*
X23500000Y-6730000D03*
X24500000Y-9270000D03*
X25500000Y-6730000D03*
X26500000Y-9270000D03*
X27500000Y-6730000D03*
X28500000Y-9270000D03*
X7500000Y-6730000D03*
X8500000Y-9270000D03*
X9500000Y-6730000D03*
X10500000Y-9270000D03*
X11500000Y-6730000D03*
X12500000Y-9270000D03*
X13500000Y-6730000D03*
X14500000Y-9270000D03*
%TD*%
D10*
%TO.C,H2*%
X115500000Y-20000000D03*
%TD*%
%TO.C,H4*%
X80000000Y-30000000D03*
%TD*%
%TO.C,H1*%
X4500000Y-20000000D03*
%TD*%
%LPD*%
M02*
