%TF.GenerationSoftware,KiCad,Pcbnew,10.0.1*%
%TF.CreationDate,2026-05-08T20:08:20+02:00*%
%TF.ProjectId,Sens_Board,53656e73-5f42-46f6-9172-642e6b696361,rev?*%
%TF.SameCoordinates,Original*%
%TF.FileFunction,Soldermask,Top*%
%TF.FilePolarity,Negative*%
%FSLAX46Y46*%
G04 Gerber Fmt 4.6, Leading zero omitted, Abs format (unit mm)*
G04 Created by KiCad (PCBNEW 10.0.1) date 2026-05-08 20:08:20*
%MOMM*%
%LPD*%
G01*
G04 APERTURE LIST*
G04 Aperture macros list*
%AMRoundRect*
0 Rectangle with rounded corners*
0 $1 Rounding radius*
0 $2 $3 $4 $5 $6 $7 $8 $9 X,Y pos of 4 corners*
0 Add a 4 corners polygon primitive as box body*
4,1,4,$2,$3,$4,$5,$6,$7,$8,$9,$2,$3,0*
0 Add four circle primitives for the rounded corners*
1,1,$1+$1,$2,$3*
1,1,$1+$1,$4,$5*
1,1,$1+$1,$6,$7*
1,1,$1+$1,$8,$9*
0 Add four rect primitives between the rounded corners*
20,1,$1+$1,$2,$3,$4,$5,0*
20,1,$1+$1,$4,$5,$6,$7,0*
20,1,$1+$1,$6,$7,$8,$9,0*
20,1,$1+$1,$8,$9,$2,$3,0*%
G04 Aperture macros list end*
%ADD10RoundRect,0.135000X-0.185000X0.135000X-0.185000X-0.135000X0.185000X-0.135000X0.185000X0.135000X0*%
%ADD11RoundRect,0.135000X0.185000X-0.135000X0.185000X0.135000X-0.185000X0.135000X-0.185000X-0.135000X0*%
%ADD12RoundRect,0.137500X0.662500X0.137500X-0.662500X0.137500X-0.662500X-0.137500X0.662500X-0.137500X0*%
%ADD13RoundRect,0.137500X-0.137500X0.662500X-0.137500X-0.662500X0.137500X-0.662500X0.137500X0.662500X0*%
%ADD14RoundRect,0.137500X-0.662500X-0.137500X0.662500X-0.137500X0.662500X0.137500X-0.662500X0.137500X0*%
%ADD15RoundRect,0.140000X-0.140000X-0.170000X0.140000X-0.170000X0.140000X0.170000X-0.140000X0.170000X0*%
%ADD16RoundRect,0.140000X0.140000X0.170000X-0.140000X0.170000X-0.140000X-0.170000X0.140000X-0.170000X0*%
%ADD17RoundRect,0.250000X2.500000X-0.250000X2.500000X0.250000X-2.500000X0.250000X-2.500000X-0.250000X0*%
%ADD18RoundRect,0.250000X1.250000X-0.550000X1.250000X0.550000X-1.250000X0.550000X-1.250000X-0.550000X0*%
%ADD19RoundRect,0.140000X0.170000X-0.140000X0.170000X0.140000X-0.170000X0.140000X-0.170000X-0.140000X0*%
%ADD20RoundRect,0.135000X0.135000X0.185000X-0.135000X0.185000X-0.135000X-0.185000X0.135000X-0.185000X0*%
%ADD21RoundRect,0.140000X-0.170000X0.140000X-0.170000X-0.140000X0.170000X-0.140000X0.170000X0.140000X0*%
%ADD22C,1.600000*%
%ADD23C,1.500000*%
%ADD24RoundRect,0.250000X-2.500000X0.250000X-2.500000X-0.250000X2.500000X-0.250000X2.500000X0.250000X0*%
%ADD25RoundRect,0.250000X-1.250000X0.550000X-1.250000X-0.550000X1.250000X-0.550000X1.250000X0.550000X0*%
G04 APERTURE END LIST*
D10*
%TO.C,R133*%
X40386000Y-73277000D03*
X40386000Y-74297000D03*
%TD*%
D11*
%TO.C,R22*%
X61595000Y-63261000D03*
X61595000Y-62241000D03*
%TD*%
%TO.C,R24*%
X59055000Y-63261000D03*
X59055000Y-62241000D03*
%TD*%
D10*
%TO.C,R109*%
X13510696Y-29970000D03*
X13510696Y-30990000D03*
%TD*%
D11*
%TO.C,R44*%
X82985696Y-51693000D03*
X82985696Y-50673000D03*
%TD*%
D12*
%TO.C,U5*%
X81339696Y-52191000D03*
X81339696Y-50921000D03*
X81339696Y-49651000D03*
X81339696Y-48381000D03*
X81339696Y-47111000D03*
X81339696Y-45841000D03*
X81339696Y-44571000D03*
X81339696Y-43301000D03*
X74839696Y-43301000D03*
X74839696Y-44571000D03*
X74839696Y-45841000D03*
X74839696Y-47111000D03*
X74839696Y-48381000D03*
X74839696Y-49651000D03*
X74839696Y-50921000D03*
X74839696Y-52191000D03*
%TD*%
D11*
%TO.C,R68*%
X55420696Y-51691000D03*
X55420696Y-50671000D03*
%TD*%
%TO.C,R57*%
X45260696Y-37842000D03*
X45260696Y-36822000D03*
%TD*%
D10*
%TO.C,R30*%
X82973696Y-32250000D03*
X82973696Y-33270000D03*
%TD*%
D11*
%TO.C,R7*%
X40386000Y-63213000D03*
X40386000Y-62193000D03*
%TD*%
D10*
%TO.C,R66*%
X55420696Y-46097000D03*
X55420696Y-47117000D03*
%TD*%
D11*
%TO.C,R2*%
X46736000Y-63213000D03*
X46736000Y-62193000D03*
%TD*%
D13*
%TO.C,U1*%
X48006000Y-65203000D03*
X46736000Y-65203000D03*
X45466000Y-65203000D03*
X44196000Y-65203000D03*
X42926000Y-65203000D03*
X41656000Y-65203000D03*
X40386000Y-65203000D03*
X39116000Y-65203000D03*
X39116000Y-71703000D03*
X40386000Y-71703000D03*
X41656000Y-71703000D03*
X42926000Y-71703000D03*
X44196000Y-71703000D03*
X45466000Y-71703000D03*
X46736000Y-71703000D03*
X48006000Y-71703000D03*
%TD*%
D11*
%TO.C,R9*%
X28448000Y-62959000D03*
X28448000Y-61939000D03*
%TD*%
D14*
%TO.C,U12*%
X19404696Y-29458000D03*
X19404696Y-30728000D03*
X19404696Y-31998000D03*
X19404696Y-33268000D03*
X19404696Y-34538000D03*
X19404696Y-35808000D03*
X19404696Y-37078000D03*
X19404696Y-38348000D03*
X25904696Y-38348000D03*
X25904696Y-37078000D03*
X25904696Y-35808000D03*
X25904696Y-34538000D03*
X25904696Y-33268000D03*
X25904696Y-31998000D03*
X25904696Y-30728000D03*
X25904696Y-29458000D03*
%TD*%
D10*
%TO.C,R93*%
X27734696Y-29970000D03*
X27734696Y-30990000D03*
%TD*%
D12*
%TO.C,U13*%
X25904696Y-52191000D03*
X25904696Y-50921000D03*
X25904696Y-49651000D03*
X25904696Y-48381000D03*
X25904696Y-47111000D03*
X25904696Y-45841000D03*
X25904696Y-44571000D03*
X25904696Y-43301000D03*
X19404696Y-43301000D03*
X19404696Y-44571000D03*
X19404696Y-45841000D03*
X19404696Y-47111000D03*
X19404696Y-48381000D03*
X19404696Y-49651000D03*
X19404696Y-50921000D03*
X19404696Y-52191000D03*
%TD*%
D11*
%TO.C,R85*%
X31544696Y-51691000D03*
X31544696Y-50671000D03*
%TD*%
D10*
%TO.C,R48*%
X73079696Y-43813000D03*
X73079696Y-44833000D03*
%TD*%
D11*
%TO.C,R90*%
X17701696Y-35562000D03*
X17701696Y-34542000D03*
%TD*%
D10*
%TO.C,R114*%
X13510696Y-46097000D03*
X13510696Y-47117000D03*
%TD*%
D11*
%TO.C,R15*%
X20828000Y-62959000D03*
X20828000Y-61939000D03*
%TD*%
D10*
%TO.C,R71*%
X45260696Y-46097000D03*
X45260696Y-47117000D03*
%TD*%
%TO.C,R50*%
X69644696Y-46097000D03*
X69644696Y-47117000D03*
%TD*%
%TO.C,R36*%
X59484696Y-29964000D03*
X59484696Y-30984000D03*
%TD*%
D11*
%TO.C,R79*%
X41704696Y-35556000D03*
X41704696Y-34536000D03*
%TD*%
D15*
%TO.C,C13*%
X61270000Y-53975000D03*
X62230000Y-53975000D03*
%TD*%
D10*
%TO.C,R108*%
X3477696Y-29964000D03*
X3477696Y-30984000D03*
%TD*%
%TO.C,R82*%
X41704696Y-46097000D03*
X41704696Y-47117000D03*
%TD*%
D15*
%TO.C,C103*%
X5156696Y-53975000D03*
X6116696Y-53975000D03*
%TD*%
D11*
%TO.C,R11*%
X25908000Y-62959000D03*
X25908000Y-61939000D03*
%TD*%
D16*
%TO.C,C1*%
X47978000Y-73406000D03*
X47018000Y-73406000D03*
%TD*%
D11*
%TO.C,R83*%
X41704696Y-49405000D03*
X41704696Y-48385000D03*
%TD*%
D10*
%TO.C,R55*%
X59484696Y-46097000D03*
X59484696Y-47117000D03*
%TD*%
D13*
%TO.C,U2*%
X28448000Y-64949000D03*
X27178000Y-64949000D03*
X25908000Y-64949000D03*
X24638000Y-64949000D03*
X23368000Y-64949000D03*
X22098000Y-64949000D03*
X20828000Y-64949000D03*
X19558000Y-64949000D03*
X19558000Y-71449000D03*
X20828000Y-71449000D03*
X22098000Y-71449000D03*
X23368000Y-71449000D03*
X24638000Y-71449000D03*
X25908000Y-71449000D03*
X27178000Y-71449000D03*
X28448000Y-71449000D03*
%TD*%
D11*
%TO.C,R34*%
X59484696Y-35556000D03*
X59484696Y-34536000D03*
%TD*%
D10*
%TO.C,R94*%
X27734696Y-32256000D03*
X27734696Y-33276000D03*
%TD*%
D15*
%TO.C,C76*%
X25984696Y-28067000D03*
X26944696Y-28067000D03*
%TD*%
D11*
%TO.C,R80*%
X41704696Y-37842000D03*
X41704696Y-36822000D03*
%TD*%
%TO.C,R53*%
X59484696Y-51691000D03*
X59484696Y-50671000D03*
%TD*%
D14*
%TO.C,U8*%
X47090696Y-29458000D03*
X47090696Y-30728000D03*
X47090696Y-31998000D03*
X47090696Y-33268000D03*
X47090696Y-34538000D03*
X47090696Y-35808000D03*
X47090696Y-37078000D03*
X47090696Y-38348000D03*
X53590696Y-38348000D03*
X53590696Y-37078000D03*
X53590696Y-35808000D03*
X53590696Y-34538000D03*
X53590696Y-33268000D03*
X53590696Y-31998000D03*
X53590696Y-30728000D03*
X53590696Y-29458000D03*
%TD*%
D11*
%TO.C,R32*%
X82973696Y-37842000D03*
X82973696Y-36822000D03*
%TD*%
D14*
%TO.C,U6*%
X61314696Y-29458000D03*
X61314696Y-30728000D03*
X61314696Y-31998000D03*
X61314696Y-33268000D03*
X61314696Y-34538000D03*
X61314696Y-35808000D03*
X61314696Y-37078000D03*
X61314696Y-38348000D03*
X67814696Y-38348000D03*
X67814696Y-37078000D03*
X67814696Y-35808000D03*
X67814696Y-34538000D03*
X67814696Y-33268000D03*
X67814696Y-31998000D03*
X67814696Y-30728000D03*
X67814696Y-29458000D03*
%TD*%
D11*
%TO.C,R118*%
X3477696Y-49405000D03*
X3477696Y-48385000D03*
%TD*%
D10*
%TO.C,R78*%
X41704696Y-32250000D03*
X41704696Y-33270000D03*
%TD*%
D17*
%TO.C,J2*%
X6500000Y-78000000D03*
X6500000Y-76000000D03*
X6500000Y-74000000D03*
X6500000Y-72000000D03*
X6500000Y-70000000D03*
X6500000Y-68000000D03*
X6500000Y-66000000D03*
X6500000Y-64000000D03*
X6500000Y-62000000D03*
D18*
X4250000Y-80400000D03*
X4250000Y-59600000D03*
%TD*%
D10*
%TO.C,R103*%
X17701696Y-46097000D03*
X17701696Y-47117000D03*
%TD*%
%TO.C,R122*%
X70739000Y-29970000D03*
X70739000Y-30990000D03*
%TD*%
%TO.C,R29*%
X82973696Y-29964000D03*
X82973696Y-30984000D03*
%TD*%
D11*
%TO.C,R105*%
X3477696Y-37842000D03*
X3477696Y-36822000D03*
%TD*%
D10*
%TO.C,R65*%
X55420696Y-43813000D03*
X55420696Y-44833000D03*
%TD*%
D11*
%TO.C,R20*%
X64135000Y-63261000D03*
X64135000Y-62241000D03*
%TD*%
%TO.C,R116*%
X13510696Y-51691000D03*
X13510696Y-50671000D03*
%TD*%
%TO.C,R67*%
X55420696Y-49405000D03*
X55420696Y-48385000D03*
%TD*%
D10*
%TO.C,R59*%
X45260696Y-32250000D03*
X45260696Y-33270000D03*
%TD*%
D11*
%TO.C,R58*%
X45260696Y-35556000D03*
X45260696Y-34536000D03*
%TD*%
D10*
%TO.C,R28*%
X73067696Y-29964000D03*
X73067696Y-30984000D03*
%TD*%
D11*
%TO.C,R74*%
X31544696Y-35556000D03*
X31544696Y-34536000D03*
%TD*%
D15*
%TO.C,C94*%
X11760696Y-28067000D03*
X12720696Y-28067000D03*
%TD*%
D11*
%TO.C,R52*%
X69644696Y-51691000D03*
X69644696Y-50671000D03*
%TD*%
D19*
%TO.C,C3*%
X69825000Y-71481000D03*
X69825000Y-70521000D03*
%TD*%
D10*
%TO.C,R127*%
X42799000Y-29970000D03*
X42799000Y-30990000D03*
%TD*%
D12*
%TO.C,U7*%
X67814696Y-52191000D03*
X67814696Y-50921000D03*
X67814696Y-49651000D03*
X67814696Y-48381000D03*
X67814696Y-47111000D03*
X67814696Y-45841000D03*
X67814696Y-44571000D03*
X67814696Y-43301000D03*
X61314696Y-43301000D03*
X61314696Y-44571000D03*
X61314696Y-45841000D03*
X61314696Y-47111000D03*
X61314696Y-48381000D03*
X61314696Y-49651000D03*
X61314696Y-50921000D03*
X61314696Y-52191000D03*
%TD*%
D11*
%TO.C,R21*%
X62865000Y-63261000D03*
X62865000Y-62241000D03*
%TD*%
D16*
%TO.C,C4*%
X81929696Y-27934000D03*
X80969696Y-27934000D03*
%TD*%
D10*
%TO.C,R62*%
X55420696Y-32250000D03*
X55420696Y-33270000D03*
%TD*%
D11*
%TO.C,R84*%
X41704696Y-51691000D03*
X41704696Y-50671000D03*
%TD*%
%TO.C,R100*%
X27734696Y-51691000D03*
X27734696Y-50671000D03*
%TD*%
D20*
%TO.C,R126*%
X50675000Y-53975000D03*
X49655000Y-53975000D03*
%TD*%
D11*
%TO.C,R51*%
X69644696Y-49405000D03*
X69644696Y-48385000D03*
%TD*%
D10*
%TO.C,R121*%
X84074000Y-29970000D03*
X84074000Y-30990000D03*
%TD*%
D11*
%TO.C,R14*%
X22098000Y-62959000D03*
X22098000Y-61939000D03*
%TD*%
D10*
%TO.C,R37*%
X69644696Y-29970000D03*
X69644696Y-30990000D03*
%TD*%
%TO.C,R110*%
X13510696Y-32256000D03*
X13510696Y-33276000D03*
%TD*%
%TO.C,R35*%
X59484696Y-32250000D03*
X59484696Y-33270000D03*
%TD*%
%TO.C,R98*%
X27734696Y-46097000D03*
X27734696Y-47117000D03*
%TD*%
D20*
%TO.C,R132*%
X8763000Y-53975000D03*
X7743000Y-53975000D03*
%TD*%
D11*
%TO.C,R99*%
X27734696Y-49405000D03*
X27734696Y-48385000D03*
%TD*%
D10*
%TO.C,R113*%
X13510696Y-43813000D03*
X13510696Y-44833000D03*
%TD*%
D21*
%TO.C,C2*%
X29845000Y-71402000D03*
X29845000Y-72362000D03*
%TD*%
D11*
%TO.C,R101*%
X17701696Y-51691000D03*
X17701696Y-50671000D03*
%TD*%
%TO.C,R33*%
X59484696Y-37842000D03*
X59484696Y-36822000D03*
%TD*%
%TO.C,R17*%
X67945000Y-63261000D03*
X67945000Y-62241000D03*
%TD*%
D10*
%TO.C,R60*%
X45260696Y-29964000D03*
X45260696Y-30984000D03*
%TD*%
D11*
%TO.C,R40*%
X69644696Y-37842000D03*
X69644696Y-36822000D03*
%TD*%
%TO.C,R111*%
X13510696Y-35556000D03*
X13510696Y-34536000D03*
%TD*%
%TO.C,R117*%
X3477696Y-51691000D03*
X3477696Y-50671000D03*
%TD*%
%TO.C,R45*%
X73079696Y-51691000D03*
X73079696Y-50671000D03*
%TD*%
%TO.C,R43*%
X82985696Y-49405000D03*
X82985696Y-48385000D03*
%TD*%
D10*
%TO.C,R27*%
X73067696Y-32250000D03*
X73067696Y-33270000D03*
%TD*%
D11*
%TO.C,R26*%
X73067696Y-35556000D03*
X73067696Y-34536000D03*
%TD*%
%TO.C,R46*%
X73079696Y-49405000D03*
X73079696Y-48385000D03*
%TD*%
D10*
%TO.C,R61*%
X55420696Y-29964000D03*
X55420696Y-30984000D03*
%TD*%
D11*
%TO.C,R102*%
X17701696Y-49405000D03*
X17701696Y-48385000D03*
%TD*%
D14*
%TO.C,U4*%
X74713696Y-29458000D03*
X74713696Y-30728000D03*
X74713696Y-31998000D03*
X74713696Y-33268000D03*
X74713696Y-34538000D03*
X74713696Y-35808000D03*
X74713696Y-37078000D03*
X74713696Y-38348000D03*
X81213696Y-38348000D03*
X81213696Y-37078000D03*
X81213696Y-35808000D03*
X81213696Y-34538000D03*
X81213696Y-33268000D03*
X81213696Y-31998000D03*
X81213696Y-30728000D03*
X81213696Y-29458000D03*
%TD*%
D22*
%TO.C,J3*%
X86930000Y-16357000D03*
X86930000Y-7987000D03*
X70000Y-16357000D03*
X70000Y-7987000D03*
D23*
X73980000Y-17897000D03*
X75250000Y-15357000D03*
X76520000Y-17897000D03*
X77790000Y-15357000D03*
X79060000Y-17897000D03*
X80330000Y-15357000D03*
X81600000Y-17897000D03*
X82870000Y-15357000D03*
X72330000Y-21817000D03*
X74870000Y-21817000D03*
X81980000Y-21817000D03*
X84520000Y-21817000D03*
X82870000Y-9117000D03*
X81600000Y-11657000D03*
X80330000Y-9117000D03*
X79060000Y-11657000D03*
X77790000Y-9117000D03*
X76520000Y-11657000D03*
X75250000Y-9117000D03*
X73980000Y-11657000D03*
X71960000Y-3957000D03*
X74500000Y-3957000D03*
X82350000Y-2177000D03*
X84890000Y-2177000D03*
X60010000Y-17897000D03*
X61280000Y-15357000D03*
X62550000Y-17897000D03*
X63820000Y-15357000D03*
X65090000Y-17897000D03*
X66360000Y-15357000D03*
X67630000Y-17897000D03*
X68900000Y-15357000D03*
X58360000Y-21817000D03*
X60900000Y-21817000D03*
X68010000Y-21817000D03*
X70550000Y-21817000D03*
X68900000Y-9117000D03*
X67630000Y-11657000D03*
X66360000Y-9117000D03*
X65090000Y-11657000D03*
X63820000Y-9117000D03*
X62550000Y-11657000D03*
X61280000Y-9117000D03*
X60010000Y-11657000D03*
X57990000Y-3957000D03*
X60530000Y-3957000D03*
X68380000Y-2177000D03*
X70920000Y-2177000D03*
X46040000Y-17897000D03*
X47310000Y-15357000D03*
X48580000Y-17897000D03*
X49850000Y-15357000D03*
X51120000Y-17897000D03*
X52390000Y-15357000D03*
X53660000Y-17897000D03*
X54930000Y-15357000D03*
X44390000Y-21817000D03*
X46930000Y-21817000D03*
X54040000Y-21817000D03*
X56580000Y-21817000D03*
X54930000Y-9117000D03*
X53660000Y-11657000D03*
X52390000Y-9117000D03*
X51120000Y-11657000D03*
X49850000Y-9117000D03*
X48580000Y-11657000D03*
X47310000Y-9117000D03*
X46040000Y-11657000D03*
X40440000Y-2177000D03*
X42980000Y-2177000D03*
X54410000Y-2177000D03*
X56950000Y-2177000D03*
X32070000Y-17897000D03*
X33340000Y-15357000D03*
X34610000Y-17897000D03*
X35880000Y-15357000D03*
X37150000Y-17897000D03*
X38420000Y-15357000D03*
X39690000Y-17897000D03*
X40960000Y-15357000D03*
X30420000Y-21817000D03*
X32960000Y-21817000D03*
X40070000Y-21817000D03*
X42610000Y-21817000D03*
X40960000Y-9117000D03*
X39690000Y-11657000D03*
X38420000Y-9117000D03*
X37150000Y-11657000D03*
X35880000Y-9117000D03*
X34610000Y-11657000D03*
X33340000Y-9117000D03*
X32070000Y-11657000D03*
X30050000Y-3957000D03*
X32590000Y-3957000D03*
X44020000Y-3957000D03*
X46560000Y-3957000D03*
X18100000Y-17897000D03*
X19370000Y-15357000D03*
X20640000Y-17897000D03*
X21910000Y-15357000D03*
X23180000Y-17897000D03*
X24450000Y-15357000D03*
X25720000Y-17897000D03*
X26990000Y-15357000D03*
X16450000Y-21817000D03*
X18990000Y-21817000D03*
X26100000Y-21817000D03*
X28640000Y-21817000D03*
X26990000Y-9117000D03*
X25720000Y-11657000D03*
X24450000Y-9117000D03*
X23180000Y-11657000D03*
X21910000Y-9117000D03*
X20640000Y-11657000D03*
X19370000Y-9117000D03*
X18100000Y-11657000D03*
X12500000Y-2177000D03*
X15040000Y-2177000D03*
X26470000Y-2177000D03*
X29010000Y-2177000D03*
X4130000Y-17897000D03*
X5400000Y-15357000D03*
X6670000Y-17897000D03*
X7940000Y-15357000D03*
X9210000Y-17897000D03*
X10480000Y-15357000D03*
X11750000Y-17897000D03*
X13020000Y-15357000D03*
X2480000Y-21817000D03*
X5020000Y-21817000D03*
X12130000Y-21817000D03*
X14670000Y-21817000D03*
X13020000Y-9117000D03*
X11750000Y-11657000D03*
X10480000Y-9117000D03*
X9210000Y-11657000D03*
X7940000Y-9117000D03*
X6670000Y-11657000D03*
X5400000Y-9117000D03*
X4130000Y-11657000D03*
X2110000Y-3957000D03*
X4650000Y-3957000D03*
X16080000Y-3957000D03*
X18620000Y-3957000D03*
%TD*%
D10*
%TO.C,R129*%
X28829000Y-29970000D03*
X28829000Y-30990000D03*
%TD*%
D11*
%TO.C,R106*%
X3477696Y-35556000D03*
X3477696Y-34536000D03*
%TD*%
%TO.C,R86*%
X31544696Y-49405000D03*
X31544696Y-48385000D03*
%TD*%
D10*
%TO.C,R119*%
X3477696Y-46097000D03*
X3477696Y-47117000D03*
%TD*%
D11*
%TO.C,R3*%
X45466000Y-63213000D03*
X45466000Y-62193000D03*
%TD*%
%TO.C,R69*%
X45260696Y-51691000D03*
X45260696Y-50671000D03*
%TD*%
D12*
%TO.C,U15*%
X11732696Y-52191000D03*
X11732696Y-50921000D03*
X11732696Y-49651000D03*
X11732696Y-48381000D03*
X11732696Y-47111000D03*
X11732696Y-45841000D03*
X11732696Y-44571000D03*
X11732696Y-43301000D03*
X5232696Y-43301000D03*
X5232696Y-44571000D03*
X5232696Y-45841000D03*
X5232696Y-47111000D03*
X5232696Y-48381000D03*
X5232696Y-49651000D03*
X5232696Y-50921000D03*
X5232696Y-52191000D03*
%TD*%
D11*
%TO.C,R23*%
X60325000Y-63261000D03*
X60325000Y-62241000D03*
%TD*%
D10*
%TO.C,R107*%
X3477696Y-32250000D03*
X3477696Y-33270000D03*
%TD*%
D11*
%TO.C,R112*%
X13510696Y-37842000D03*
X13510696Y-36822000D03*
%TD*%
%TO.C,R73*%
X31544696Y-37842000D03*
X31544696Y-36822000D03*
%TD*%
D13*
%TO.C,U3*%
X67945000Y-65251000D03*
X66675000Y-65251000D03*
X65405000Y-65251000D03*
X64135000Y-65251000D03*
X62865000Y-65251000D03*
X61595000Y-65251000D03*
X60325000Y-65251000D03*
X59055000Y-65251000D03*
X59055000Y-71751000D03*
X60325000Y-71751000D03*
X61595000Y-71751000D03*
X62865000Y-71751000D03*
X64135000Y-71751000D03*
X65405000Y-71751000D03*
X66675000Y-71751000D03*
X67945000Y-71751000D03*
%TD*%
D10*
%TO.C,R42*%
X82985696Y-46099000D03*
X82985696Y-47119000D03*
%TD*%
D11*
%TO.C,R6*%
X41656000Y-63213000D03*
X41656000Y-62193000D03*
%TD*%
D10*
%TO.C,R47*%
X73079696Y-46097000D03*
X73079696Y-47117000D03*
%TD*%
%TO.C,R88*%
X31544696Y-43813000D03*
X31544696Y-44833000D03*
%TD*%
D15*
%TO.C,C67*%
X33401000Y-53975000D03*
X34361000Y-53975000D03*
%TD*%
D11*
%TO.C,R25*%
X73067696Y-37842000D03*
X73067696Y-36822000D03*
%TD*%
D10*
%TO.C,R135*%
X60325000Y-73404000D03*
X60325000Y-74424000D03*
%TD*%
%TO.C,R134*%
X20828000Y-73023000D03*
X20828000Y-74043000D03*
%TD*%
D11*
%TO.C,R89*%
X17701696Y-37848000D03*
X17701696Y-36828000D03*
%TD*%
D10*
%TO.C,R38*%
X69644696Y-32250000D03*
X69644696Y-33270000D03*
%TD*%
D11*
%TO.C,R115*%
X13510696Y-49405000D03*
X13510696Y-48385000D03*
%TD*%
D15*
%TO.C,C31*%
X47018000Y-53975000D03*
X47978000Y-53975000D03*
%TD*%
D24*
%TO.C,J1*%
X80500000Y-62000000D03*
X80500000Y-64000000D03*
X80500000Y-66000000D03*
X80500000Y-68000000D03*
X80500000Y-70000000D03*
X80500000Y-72000000D03*
X80500000Y-74000000D03*
X80500000Y-76000000D03*
X80500000Y-78000000D03*
D25*
X82750000Y-59600000D03*
X82750000Y-80400000D03*
%TD*%
D10*
%TO.C,R92*%
X17701696Y-29970000D03*
X17701696Y-30990000D03*
%TD*%
D11*
%TO.C,R95*%
X27734696Y-35562000D03*
X27734696Y-34542000D03*
%TD*%
D10*
%TO.C,R81*%
X41704696Y-43813000D03*
X41704696Y-44833000D03*
%TD*%
D20*
%TO.C,R128*%
X36959000Y-53975000D03*
X35939000Y-53975000D03*
%TD*%
D15*
%TO.C,C22*%
X74780696Y-53975000D03*
X75740696Y-53975000D03*
%TD*%
D11*
%TO.C,R70*%
X45260696Y-49405000D03*
X45260696Y-48385000D03*
%TD*%
D15*
%TO.C,C58*%
X39954696Y-28067000D03*
X40914696Y-28067000D03*
%TD*%
D11*
%TO.C,R10*%
X27178000Y-62959000D03*
X27178000Y-61939000D03*
%TD*%
D12*
%TO.C,U9*%
X53590696Y-52191000D03*
X53590696Y-50921000D03*
X53590696Y-49651000D03*
X53590696Y-48381000D03*
X53590696Y-47111000D03*
X53590696Y-45841000D03*
X53590696Y-44571000D03*
X53590696Y-43301000D03*
X47090696Y-43301000D03*
X47090696Y-44571000D03*
X47090696Y-45841000D03*
X47090696Y-47111000D03*
X47090696Y-48381000D03*
X47090696Y-49651000D03*
X47090696Y-50921000D03*
X47090696Y-52191000D03*
%TD*%
D11*
%TO.C,R13*%
X23368000Y-62959000D03*
X23368000Y-61939000D03*
%TD*%
D10*
%TO.C,R77*%
X41704696Y-29964000D03*
X41704696Y-30984000D03*
%TD*%
%TO.C,R125*%
X56515000Y-29970000D03*
X56515000Y-30990000D03*
%TD*%
D11*
%TO.C,R5*%
X42926000Y-63213000D03*
X42926000Y-62193000D03*
%TD*%
%TO.C,R8*%
X39116000Y-63213000D03*
X39116000Y-62193000D03*
%TD*%
D10*
%TO.C,R104*%
X17701696Y-43813000D03*
X17701696Y-44833000D03*
%TD*%
D14*
%TO.C,U10*%
X33374696Y-29458000D03*
X33374696Y-30728000D03*
X33374696Y-31998000D03*
X33374696Y-33268000D03*
X33374696Y-34538000D03*
X33374696Y-35808000D03*
X33374696Y-37078000D03*
X33374696Y-38348000D03*
X39874696Y-38348000D03*
X39874696Y-37078000D03*
X39874696Y-35808000D03*
X39874696Y-34538000D03*
X39874696Y-33268000D03*
X39874696Y-31998000D03*
X39874696Y-30728000D03*
X39874696Y-29458000D03*
%TD*%
D10*
%TO.C,R87*%
X31544696Y-46097000D03*
X31544696Y-47117000D03*
%TD*%
%TO.C,R49*%
X69644696Y-43813000D03*
X69644696Y-44833000D03*
%TD*%
D11*
%TO.C,R31*%
X82973696Y-35556000D03*
X82973696Y-34536000D03*
%TD*%
%TO.C,R16*%
X19558000Y-62959000D03*
X19558000Y-61939000D03*
%TD*%
%TO.C,R4*%
X44196000Y-63213000D03*
X44196000Y-62193000D03*
%TD*%
D15*
%TO.C,C40*%
X67818000Y-27934000D03*
X68778000Y-27934000D03*
%TD*%
D11*
%TO.C,R12*%
X24638000Y-62959000D03*
X24638000Y-61939000D03*
%TD*%
D20*
%TO.C,R124*%
X64899000Y-53975000D03*
X63879000Y-53975000D03*
%TD*%
D10*
%TO.C,R120*%
X3477696Y-43813000D03*
X3477696Y-44833000D03*
%TD*%
D12*
%TO.C,U11*%
X39874696Y-52191000D03*
X39874696Y-50921000D03*
X39874696Y-49651000D03*
X39874696Y-48381000D03*
X39874696Y-47111000D03*
X39874696Y-45841000D03*
X39874696Y-44571000D03*
X39874696Y-43301000D03*
X33374696Y-43301000D03*
X33374696Y-44571000D03*
X33374696Y-45841000D03*
X33374696Y-47111000D03*
X33374696Y-48381000D03*
X33374696Y-49651000D03*
X33374696Y-50921000D03*
X33374696Y-52191000D03*
%TD*%
D10*
%TO.C,R131*%
X14605000Y-29970000D03*
X14605000Y-30990000D03*
%TD*%
%TO.C,R76*%
X31544696Y-29964000D03*
X31544696Y-30984000D03*
%TD*%
%TO.C,R41*%
X82985696Y-43813000D03*
X82985696Y-44833000D03*
%TD*%
D20*
%TO.C,R123*%
X75821000Y-55626000D03*
X74801000Y-55626000D03*
%TD*%
D11*
%TO.C,R63*%
X55420696Y-35556000D03*
X55420696Y-34536000D03*
%TD*%
D10*
%TO.C,R56*%
X59484696Y-43813000D03*
X59484696Y-44833000D03*
%TD*%
D11*
%TO.C,R39*%
X69644696Y-35556000D03*
X69644696Y-34536000D03*
%TD*%
%TO.C,R1*%
X48006000Y-63213000D03*
X48006000Y-62193000D03*
%TD*%
D10*
%TO.C,R72*%
X45260696Y-43813000D03*
X45260696Y-44833000D03*
%TD*%
D11*
%TO.C,R64*%
X55420696Y-37842000D03*
X55420696Y-36822000D03*
%TD*%
D15*
%TO.C,C85*%
X19380696Y-53975000D03*
X20340696Y-53975000D03*
%TD*%
D10*
%TO.C,R75*%
X31544696Y-32250000D03*
X31544696Y-33270000D03*
%TD*%
D20*
%TO.C,R130*%
X22989000Y-53975000D03*
X21969000Y-53975000D03*
%TD*%
D11*
%TO.C,R96*%
X27734696Y-37848000D03*
X27734696Y-36828000D03*
%TD*%
%TO.C,R18*%
X66675000Y-63261000D03*
X66675000Y-62241000D03*
%TD*%
D10*
%TO.C,R91*%
X17701696Y-32256000D03*
X17701696Y-33276000D03*
%TD*%
D11*
%TO.C,R19*%
X65405000Y-63261000D03*
X65405000Y-62241000D03*
%TD*%
D10*
%TO.C,R97*%
X27734696Y-43813000D03*
X27734696Y-44833000D03*
%TD*%
D15*
%TO.C,C49*%
X53594000Y-27934000D03*
X54554000Y-27934000D03*
%TD*%
D11*
%TO.C,R54*%
X59484696Y-49405000D03*
X59484696Y-48385000D03*
%TD*%
D14*
%TO.C,U14*%
X5232696Y-29458000D03*
X5232696Y-30728000D03*
X5232696Y-31998000D03*
X5232696Y-33268000D03*
X5232696Y-34538000D03*
X5232696Y-35808000D03*
X5232696Y-37078000D03*
X5232696Y-38348000D03*
X11732696Y-38348000D03*
X11732696Y-37078000D03*
X11732696Y-35808000D03*
X11732696Y-34538000D03*
X11732696Y-33268000D03*
X11732696Y-31998000D03*
X11732696Y-30728000D03*
X11732696Y-29458000D03*
%TD*%
M02*
