M48
; DRILL file KiCad 10.0.1 date 2026-05-08T20:08:20
; FORMAT={-:-/ absolute / inch / decimal}
; #@! TF.CreationDate,2026-05-08T20:08:20+02:00
; #@! TF.GenerationSoftware,Kicad,Pcbnew,10.0.1
; #@! TF.FileFunction,Plated,1,4,PTH
FMAT,2
INCH
; #@! TA.AperFunction,Plated,PTH,ViaDrill
T1C0.0079
; #@! TA.AperFunction,Plated,PTH,ViaDrill
T2C0.0118
; #@! TA.AperFunction,Plated,PTH,ComponentDrill
T3C0.0354
%
G90
G05
T1
X0.1368Y-1.4194
X0.1369Y-1.155
X0.1369Y-1.515
X0.1369Y-1.705
X0.1369Y-1.7954
X0.1369Y-2.065
X0.1374Y-1.2502
X0.1387Y-1.9646
X0.165Y-1.16
X0.1658Y-1.2099
X0.2019Y-2.155
X0.206Y-1.5409
X0.258Y-1.955
X0.2719Y-2.125
X0.2787Y-1.905
X0.285Y-2.385
X0.2993Y-1.855
X0.32Y-1.8051
X0.3456Y-1.8047
X0.3663Y-1.855
X0.385Y-3.07
X0.3869Y-1.905
X0.405Y-2.835
X0.4076Y-1.955
X0.4119Y-2.005
X0.4119Y-2.055
X0.415Y-2.915
X0.4619Y-1.075
X0.4619Y-1.675
X0.5269Y-1.105
X0.5319Y-1.515
X0.5319Y-1.7
X0.5319Y-1.7954
X0.5319Y-2.0786
X0.5322Y-1.2504
X0.5337Y-1.9646
X0.5339Y-1.4194
X0.575Y-1.245
X0.58Y-1.13
X0.6969Y-1.135
X0.6969Y-1.2504
X0.6969Y-1.515
X0.6969Y-1.7
X0.6969Y-1.7954
X0.6969Y-2.0786
X0.6987Y-1.4196
X0.6987Y-1.9646
X0.7205Y-1.1596
X0.7257Y-1.2098
X0.7428Y-2.557
X0.77Y-2.3073
X0.77Y-2.89
X0.775Y-1.535
X0.7949Y-2.9151
X0.8093Y-1.9541
X0.82Y-2.39
X0.83Y-1.9048
X0.8319Y-2.125
X0.855Y-1.8548
X0.87Y-2.328
X0.88Y-1.805
X0.9056Y-1.805
X0.9193Y-2.3693
X0.92Y-2.9693
X0.9263Y-1.855
X0.9469Y-1.905
X0.9676Y-1.955
X0.97Y-2.395
X0.97Y-2.945
X0.9719Y-2.005
X0.9719Y-2.055
X1.02Y-2.35
X1.0219Y-1.07
X1.0219Y-1.68
X1.07Y-2.395
X1.0869Y-1.105
X1.0869Y-1.2504
X1.0869Y-1.4196
X1.0919Y-1.705
X1.0919Y-1.7954
X1.0919Y-1.9646
X1.0919Y-2.0786
X1.1169Y-1.49
X1.12Y-2.25
X1.135Y-1.245
X1.195Y-2.85
X1.2Y-2.8139
X1.2395Y-1.2509
X1.2401Y-1.7954
X1.2419Y-1.135
X1.2419Y-1.52
X1.2419Y-1.7
X1.2419Y-2.08
X1.2431Y-1.4151
X1.2437Y-1.9646
X1.27Y-1.1598
X1.2707Y-1.2096
X1.314Y-1.531
X1.3674Y-1.955
X1.3881Y-1.905
X1.4087Y-1.855
X1.4294Y-1.8048
X1.455Y-1.8048
X1.4757Y-1.855
X1.4963Y-1.905
X1.5083Y-2.567
X1.517Y-1.955
X1.5219Y-2.005
X1.5219Y-2.055
X1.54Y-2.915
X1.56Y-2.8737
X1.57Y-1.68
X1.5719Y-1.07
X1.59Y-2.415
X1.61Y-2.335
X1.6319Y-1.105
X1.64Y-2.3693
X1.6401Y-1.7954
X1.6416Y-1.9646
X1.6419Y-1.135
X1.6419Y-1.525
X1.6419Y-1.695
X1.6419Y-2.0786
X1.6435Y-1.2517
X1.6444Y-1.4188
X1.69Y-2.39
X1.69Y-2.9693
X1.705Y-1.24
X1.74Y-2.39
X1.74Y-2.945
X1.755Y-2.31
X1.7801Y-1.4181
X1.7801Y-1.7954
X1.7806Y-1.2519
X1.7819Y-1.1361
X1.7819Y-1.52
X1.7819Y-1.7
X1.7819Y-1.9646
X1.7819Y-2.0786
X1.79Y-2.89
X1.81Y-1.1598
X1.8108Y-1.2099
X1.835Y-2.89
X1.84Y-2.415
X1.855Y-1.535
X1.89Y-2.365
X1.9Y-1.9548
X1.905Y-2.89
X1.925Y-1.905
X1.9487Y-1.855
X1.9694Y-1.8053
X1.995Y-1.805
X2.0157Y-1.855
X2.0363Y-1.905
X2.06Y-1.955
X2.0619Y-2.005
X2.0619Y-2.055
X2.11Y-1.68
X2.1819Y-1.1361
X2.1819Y-1.515
X2.1819Y-1.7
X2.1819Y-1.7954
X2.1819Y-2.0786
X2.1835Y-1.2516
X2.1837Y-1.9646
X2.1844Y-1.4188
X2.2439Y-1.245
X2.29Y-2.895
X2.3Y-2.57
X2.325Y-2.305
X2.325Y-2.885
X2.3403Y-1.2516
X2.3413Y-1.4169
X2.3419Y-1.1361
X2.3419Y-1.515
X2.3419Y-1.705
X2.3419Y-1.7954
X2.3419Y-1.9646
X2.3419Y-2.0786
X2.37Y-1.1598
X2.3707Y-1.2096
X2.375Y-2.25
X2.414Y-1.531
X2.425Y-2.28
X2.4598Y-1.9048
X2.46Y-2.225
X2.475Y-2.9693
X2.485Y-1.955
X2.5087Y-1.855
X2.525Y-2.395
X2.525Y-2.945
X2.5294Y-1.805
X2.555Y-1.805
X2.575Y-2.3257
X2.575Y-2.915
X2.5757Y-1.855
X2.5963Y-1.905
X2.6219Y-2.005
X2.6219Y-2.055
X2.625Y-1.9548
X2.625Y-2.3743
X2.67Y-1.68
X2.675Y-2.3463
X2.7416Y-1.9646
X2.7419Y-1.1361
X2.7419Y-1.515
X2.7419Y-1.7
X2.7419Y-2.0786
X2.7422Y-1.7954
X2.7426Y-1.2528
X2.7438Y-1.4181
X2.748Y-2.7461
X2.7854Y-2.8248
X2.805Y-1.24
X2.8767Y-1.135
X2.8767Y-1.2448
X2.8767Y-1.425
X2.8767Y-1.5152
X2.8769Y-2.0786
X2.8772Y-1.705
X2.8772Y-1.795
X2.8772Y-1.9676
X2.9441Y-2.1528
X2.945Y-2.215
X2.9707Y-1.54
X2.985Y-2.155
X2.9867Y-1.1598
X2.9867Y-1.2098
X2.9917Y-1.9048
X2.9919Y-1.955
X3.015Y-2.915
X3.025Y-2.755
X3.0254Y-2.8346
X3.0281Y-1.855
X3.04Y-3.0709
X3.0488Y-1.805
X3.077Y-1.805
X3.0977Y-1.845
X3.1519Y-2.005
X3.1519Y-2.055
X3.1528Y-1.955
X3.1622Y-1.9048
X3.165Y-2.4
X3.1668Y-1.0998
X3.2019Y-1.685
X3.2256Y-1.0762
X3.2667Y-1.155
X3.2667Y-1.245
X3.2667Y-1.415
X3.2667Y-1.5098
X3.2672Y-1.705
X3.2672Y-1.795
X3.2672Y-1.965
X3.2672Y-2.055
X3.31Y-1.24
T2
X0.724Y-2.125
X1.2678Y-2.125
X1.385Y-2.125
X1.825Y-2.125
X1.92Y-2.125
X2.11Y-1.075
X2.17Y-1.08
X2.3697Y-2.125
X2.48Y-2.125
X2.67Y-1.075
X2.735Y-1.1
T3
X0.0831Y-0.1558
X0.0976Y-0.8589
X0.1626Y-0.4589
X0.1626Y-0.7046
X0.1831Y-0.1558
X0.1976Y-0.8589
X0.2126Y-0.3589
X0.2126Y-0.6046
X0.2626Y-0.4589
X0.2626Y-0.7046
X0.3126Y-0.3589
X0.3126Y-0.6046
X0.3626Y-0.4589
X0.3626Y-0.7046
X0.4126Y-0.3589
X0.4126Y-0.6046
X0.4626Y-0.4589
X0.4626Y-0.7046
X0.4776Y-0.8589
X0.4921Y-0.0857
X0.5126Y-0.3589
X0.5126Y-0.6046
X0.5776Y-0.8589
X0.5921Y-0.0857
X0.6331Y-0.1558
X0.6476Y-0.8589
X0.7126Y-0.4589
X0.7126Y-0.7046
X0.7331Y-0.1558
X0.7476Y-0.8589
X0.7626Y-0.3589
X0.7626Y-0.6046
X0.8126Y-0.4589
X0.8126Y-0.7046
X0.8626Y-0.3589
X0.8626Y-0.6046
X0.9126Y-0.4589
X0.9126Y-0.7046
X0.9626Y-0.3589
X0.9626Y-0.6046
X1.0126Y-0.4589
X1.0126Y-0.7046
X1.0276Y-0.8589
X1.0421Y-0.0857
X1.0626Y-0.3589
X1.0626Y-0.6046
X1.1276Y-0.8589
X1.1421Y-0.0857
X1.1831Y-0.1558
X1.1976Y-0.8589
X1.2626Y-0.4589
X1.2626Y-0.7046
X1.2831Y-0.1558
X1.2976Y-0.8589
X1.3126Y-0.3589
X1.3126Y-0.6046
X1.3626Y-0.4589
X1.3626Y-0.7046
X1.4126Y-0.3589
X1.4126Y-0.6046
X1.4626Y-0.4589
X1.4626Y-0.7046
X1.5126Y-0.3589
X1.5126Y-0.6046
X1.5626Y-0.4589
X1.5626Y-0.7046
X1.5776Y-0.8589
X1.5921Y-0.0857
X1.6126Y-0.3589
X1.6126Y-0.6046
X1.6776Y-0.8589
X1.6921Y-0.0857
X1.7331Y-0.1558
X1.7476Y-0.8589
X1.8126Y-0.4589
X1.8126Y-0.7046
X1.8331Y-0.1558
X1.8476Y-0.8589
X1.8626Y-0.3589
X1.8626Y-0.6046
X1.9126Y-0.4589
X1.9126Y-0.7046
X1.9626Y-0.3589
X1.9626Y-0.6046
X2.0126Y-0.4589
X2.0126Y-0.7046
X2.0626Y-0.3589
X2.0626Y-0.6046
X2.1126Y-0.4589
X2.1126Y-0.7046
X2.1276Y-0.8589
X2.1421Y-0.0857
X2.1626Y-0.3589
X2.1626Y-0.6046
X2.2276Y-0.8589
X2.2421Y-0.0857
X2.2831Y-0.1558
X2.2976Y-0.8589
X2.3626Y-0.4589
X2.3626Y-0.7046
X2.3831Y-0.1558
X2.3976Y-0.8589
X2.4126Y-0.3589
X2.4126Y-0.6046
X2.4626Y-0.4589
X2.4626Y-0.7046
X2.5126Y-0.3589
X2.5126Y-0.6046
X2.5626Y-0.4589
X2.5626Y-0.7046
X2.6126Y-0.3589
X2.6126Y-0.6046
X2.6626Y-0.4589
X2.6626Y-0.7046
X2.6776Y-0.8589
X2.6921Y-0.0857
X2.7126Y-0.3589
X2.7126Y-0.6046
X2.7776Y-0.8589
X2.7921Y-0.0857
X2.8331Y-0.1558
X2.8476Y-0.8589
X2.9126Y-0.4589
X2.9126Y-0.7046
X2.9331Y-0.1558
X2.9476Y-0.8589
X2.9626Y-0.3589
X2.9626Y-0.6046
X3.0126Y-0.4589
X3.0126Y-0.7046
X3.0626Y-0.3589
X3.0626Y-0.6046
X3.1126Y-0.4589
X3.1126Y-0.7046
X3.1626Y-0.3589
X3.1626Y-0.6046
X3.2126Y-0.4589
X3.2126Y-0.7046
X3.2276Y-0.8589
X3.2421Y-0.0857
X3.2626Y-0.3589
X3.2626Y-0.6046
X3.3276Y-0.8589
X3.3421Y-0.0857
M30
