%TF.GenerationSoftware,KiCad,Pcbnew,10.0.1*%
%TF.CreationDate,2026-05-08T19:50:04+02:00*%
%TF.ProjectId,Sens_Board,53656e73-5f42-46f6-9172-642e6b696361,rev?*%
%TF.SameCoordinates,Original*%
%TF.FileFunction,Copper,L1,Top*%
%TF.FilePolarity,Positive*%
%FSLAX46Y46*%
G04 Gerber Fmt 4.6, Leading zero omitted, Abs format (unit mm)*
G04 Created by KiCad (PCBNEW 10.0.1) date 2026-05-08 19:50:04*
%MOMM*%
%LPD*%
G01*
G04 APERTURE LIST*
G04 Aperture macros list*
%AMRoundRect*
0 Rectangle with rounded corners*
0 $1 Rounding radius*
0 $2 $3 $4 $5 $6 $7 $8 $9 X,Y pos of 4 corners*
0 Add a 4 corners polygon primitive as box body*
4,1,4,$2,$3,$4,$5,$6,$7,$8,$9,$2,$3,0*
0 Add four circle primitives for the rounded corners*
1,1,$1+$1,$2,$3*
1,1,$1+$1,$4,$5*
1,1,$1+$1,$6,$7*
1,1,$1+$1,$8,$9*
0 Add four rect primitives between the rounded corners*
20,1,$1+$1,$2,$3,$4,$5,0*
20,1,$1+$1,$4,$5,$6,$7,0*
20,1,$1+$1,$6,$7,$8,$9,0*
20,1,$1+$1,$8,$9,$2,$3,0*%
G04 Aperture macros list end*
%TA.AperFunction,SMDPad,CuDef*%
%ADD10RoundRect,0.135000X-0.185000X0.135000X-0.185000X-0.135000X0.185000X-0.135000X0.185000X0.135000X0*%
%TD*%
%TA.AperFunction,SMDPad,CuDef*%
%ADD11RoundRect,0.135000X0.185000X-0.135000X0.185000X0.135000X-0.185000X0.135000X-0.185000X-0.135000X0*%
%TD*%
%TA.AperFunction,SMDPad,CuDef*%
%ADD12RoundRect,0.137500X0.662500X0.137500X-0.662500X0.137500X-0.662500X-0.137500X0.662500X-0.137500X0*%
%TD*%
%TA.AperFunction,SMDPad,CuDef*%
%ADD13RoundRect,0.137500X-0.137500X0.662500X-0.137500X-0.662500X0.137500X-0.662500X0.137500X0.662500X0*%
%TD*%
%TA.AperFunction,SMDPad,CuDef*%
%ADD14RoundRect,0.137500X-0.662500X-0.137500X0.662500X-0.137500X0.662500X0.137500X-0.662500X0.137500X0*%
%TD*%
%TA.AperFunction,SMDPad,CuDef*%
%ADD15RoundRect,0.140000X-0.140000X-0.170000X0.140000X-0.170000X0.140000X0.170000X-0.140000X0.170000X0*%
%TD*%
%TA.AperFunction,SMDPad,CuDef*%
%ADD16RoundRect,0.140000X0.140000X0.170000X-0.140000X0.170000X-0.140000X-0.170000X0.140000X-0.170000X0*%
%TD*%
%TA.AperFunction,SMDPad,CuDef*%
%ADD17RoundRect,0.250000X2.500000X-0.250000X2.500000X0.250000X-2.500000X0.250000X-2.500000X-0.250000X0*%
%TD*%
%TA.AperFunction,SMDPad,CuDef*%
%ADD18RoundRect,0.250000X1.250000X-0.550000X1.250000X0.550000X-1.250000X0.550000X-1.250000X-0.550000X0*%
%TD*%
%TA.AperFunction,SMDPad,CuDef*%
%ADD19RoundRect,0.140000X0.170000X-0.140000X0.170000X0.140000X-0.170000X0.140000X-0.170000X-0.140000X0*%
%TD*%
%TA.AperFunction,SMDPad,CuDef*%
%ADD20RoundRect,0.135000X0.135000X0.185000X-0.135000X0.185000X-0.135000X-0.185000X0.135000X-0.185000X0*%
%TD*%
%TA.AperFunction,SMDPad,CuDef*%
%ADD21RoundRect,0.140000X-0.170000X0.140000X-0.170000X-0.140000X0.170000X-0.140000X0.170000X0.140000X0*%
%TD*%
%TA.AperFunction,WasherPad*%
%ADD22C,1.600000*%
%TD*%
%TA.AperFunction,ComponentPad*%
%ADD23C,1.500000*%
%TD*%
%TA.AperFunction,SMDPad,CuDef*%
%ADD24RoundRect,0.250000X-2.500000X0.250000X-2.500000X-0.250000X2.500000X-0.250000X2.500000X0.250000X0*%
%TD*%
%TA.AperFunction,SMDPad,CuDef*%
%ADD25RoundRect,0.250000X-1.250000X0.550000X-1.250000X-0.550000X1.250000X-0.550000X1.250000X0.550000X0*%
%TD*%
%TA.AperFunction,ViaPad*%
%ADD26C,0.450000*%
%TD*%
%TA.AperFunction,ViaPad*%
%ADD27C,0.600000*%
%TD*%
%TA.AperFunction,Conductor*%
%ADD28C,0.152400*%
%TD*%
%TA.AperFunction,Conductor*%
%ADD29C,0.200000*%
%TD*%
G04 APERTURE END LIST*
D10*
%TO.P,R133,1*%
%TO.N,Net-(U1-~{SRCLR})*%
X40386000Y-73277000D03*
%TO.P,R133,2*%
%TO.N,+5V*%
X40386000Y-74297000D03*
%TD*%
D11*
%TO.P,R22,1*%
%TO.N,Net-(U3-QF)*%
X61595000Y-63261000D03*
%TO.P,R22,2*%
%TO.N,/OutputShift2/Out5*%
X61595000Y-62241000D03*
%TD*%
%TO.P,R24,1*%
%TO.N,Net-(U3-QH)*%
X59055000Y-63261000D03*
%TO.P,R24,2*%
%TO.N,/OutputShift2/Out7*%
X59055000Y-62241000D03*
%TD*%
D10*
%TO.P,R109,1*%
%TO.N,+5V*%
X13510696Y-29970000D03*
%TO.P,R109,2*%
%TO.N,/RJ45/SchieberegisterInput10/D3*%
X13510696Y-30990000D03*
%TD*%
D11*
%TO.P,R44,1*%
%TO.N,+5V*%
X82985696Y-51693000D03*
%TO.P,R44,2*%
%TO.N,/RJ45/SchieberegisterInput1/D4*%
X82985696Y-50673000D03*
%TD*%
D12*
%TO.P,U5,1,~{PL}_1*%
%TO.N,Data_Latch*%
X81339696Y-52191000D03*
%TO.P,U5,2,CP_2*%
%TO.N,Data_Clk*%
X81339696Y-50921000D03*
%TO.P,U5,3,D4_3*%
%TO.N,/RJ45/SchieberegisterInput1/D4*%
X81339696Y-49651000D03*
%TO.P,U5,4,D5_4*%
%TO.N,/RJ45/SchieberegisterInput1/D5*%
X81339696Y-48381000D03*
%TO.P,U5,5,D6_5*%
%TO.N,/RJ45/SchieberegisterInput1/D6*%
X81339696Y-47111000D03*
%TO.P,U5,6,D7_6*%
%TO.N,/RJ45/SchieberegisterInput1/D7*%
X81339696Y-45841000D03*
%TO.P,U5,7,~{Q7}_7*%
%TO.N,unconnected-(U5-~{Q7}-Pad7)*%
X81339696Y-44571000D03*
%TO.P,U5,8,GND_8*%
%TO.N,GND*%
X81339696Y-43301000D03*
%TO.P,U5,9,Q7_9*%
%TO.N,/RJ45/SchieberegisterInput1/Out*%
X74839696Y-43301000D03*
%TO.P,U5,10,DS_10*%
%TO.N,/RJ45/SchieberegisterInput/Out*%
X74839696Y-44571000D03*
%TO.P,U5,11,D0_11*%
%TO.N,/RJ45/SchieberegisterInput1/D0*%
X74839696Y-45841000D03*
%TO.P,U5,12,D1_12*%
%TO.N,/RJ45/SchieberegisterInput1/D1*%
X74839696Y-47111000D03*
%TO.P,U5,13,D2_13*%
%TO.N,/RJ45/SchieberegisterInput1/D2*%
X74839696Y-48381000D03*
%TO.P,U5,14,D3_14*%
%TO.N,/RJ45/SchieberegisterInput1/D3*%
X74839696Y-49651000D03*
%TO.P,U5,15,~{CE}_15*%
%TO.N,Net-(U5-~{CE})*%
X74839696Y-50921000D03*
%TO.P,U5,16,VCC_16*%
%TO.N,+5V*%
X74839696Y-52191000D03*
%TD*%
D11*
%TO.P,R68,1*%
%TO.N,+5V*%
X55420696Y-51691000D03*
%TO.P,R68,2*%
%TO.N,/RJ45/SchieberegisterInput5/D4*%
X55420696Y-50671000D03*
%TD*%
%TO.P,R57,1*%
%TO.N,+5V*%
X45260696Y-37842000D03*
%TO.P,R57,2*%
%TO.N,/RJ45/SchieberegisterInput4/D7*%
X45260696Y-36822000D03*
%TD*%
D10*
%TO.P,R30,1*%
%TO.N,+5V*%
X82973696Y-32250000D03*
%TO.P,R30,2*%
%TO.N,/RJ45/SchieberegisterInput/D2*%
X82973696Y-33270000D03*
%TD*%
D11*
%TO.P,R7,1*%
%TO.N,Net-(U1-QG)*%
X40386000Y-63213000D03*
%TO.P,R7,2*%
%TO.N,/OutputShift1/Out6*%
X40386000Y-62193000D03*
%TD*%
D10*
%TO.P,R66,1*%
%TO.N,+5V*%
X55420696Y-46097000D03*
%TO.P,R66,2*%
%TO.N,/RJ45/SchieberegisterInput5/D6*%
X55420696Y-47117000D03*
%TD*%
D11*
%TO.P,R2,1*%
%TO.N,Net-(U1-QB)*%
X46736000Y-63213000D03*
%TO.P,R2,2*%
%TO.N,/OutputShift1/Out1*%
X46736000Y-62193000D03*
%TD*%
D13*
%TO.P,U1,1,QB_1*%
%TO.N,Net-(U1-QB)*%
X48006000Y-65203000D03*
%TO.P,U1,2,QC_2*%
%TO.N,Net-(U1-QC)*%
X46736000Y-65203000D03*
%TO.P,U1,3,QD_3*%
%TO.N,Net-(U1-QD)*%
X45466000Y-65203000D03*
%TO.P,U1,4,QE_4*%
%TO.N,Net-(U1-QE)*%
X44196000Y-65203000D03*
%TO.P,U1,5,QF_5*%
%TO.N,Net-(U1-QF)*%
X42926000Y-65203000D03*
%TO.P,U1,6,QG_6*%
%TO.N,Net-(U1-QG)*%
X41656000Y-65203000D03*
%TO.P,U1,7,QH_7*%
%TO.N,Net-(U1-QH)*%
X40386000Y-65203000D03*
%TO.P,U1,8,GND_8*%
%TO.N,GND*%
X39116000Y-65203000D03*
%TO.P,U1,9,QH'_9*%
%TO.N,/OutputShift1/out*%
X39116000Y-71703000D03*
%TO.P,U1,10,~{SRCLR}_10*%
%TO.N,Net-(U1-~{SRCLR})*%
X40386000Y-71703000D03*
%TO.P,U1,11,SRCLK_11*%
%TO.N,Led_Clk*%
X41656000Y-71703000D03*
%TO.P,U1,12,RCLK_12*%
%TO.N,Led_Latch*%
X42926000Y-71703000D03*
%TO.P,U1,13,~{OE}_13*%
%TO.N,Led_OE*%
X44196000Y-71703000D03*
%TO.P,U1,14,SER_14*%
%TO.N,/OutputShift/out*%
X45466000Y-71703000D03*
%TO.P,U1,15,QA_15*%
%TO.N,Net-(U1-QA)*%
X46736000Y-71703000D03*
%TO.P,U1,16,VCC_16*%
%TO.N,+5V*%
X48006000Y-71703000D03*
%TD*%
D11*
%TO.P,R9,1*%
%TO.N,Net-(U2-QA)*%
X28448000Y-62959000D03*
%TO.P,R9,2*%
%TO.N,/OutputShift/Out0*%
X28448000Y-61939000D03*
%TD*%
D14*
%TO.P,U12,1,~{PL}_1*%
%TO.N,Data_Latch*%
X19404696Y-29458000D03*
%TO.P,U12,2,CP_2*%
%TO.N,Data_Clk*%
X19404696Y-30728000D03*
%TO.P,U12,3,D4_3*%
%TO.N,/RJ45/SchieberegisterInput8/D4*%
X19404696Y-31998000D03*
%TO.P,U12,4,D5_4*%
%TO.N,/RJ45/SchieberegisterInput8/D5*%
X19404696Y-33268000D03*
%TO.P,U12,5,D6_5*%
%TO.N,/RJ45/SchieberegisterInput8/D6*%
X19404696Y-34538000D03*
%TO.P,U12,6,D7_6*%
%TO.N,/RJ45/SchieberegisterInput8/D7*%
X19404696Y-35808000D03*
%TO.P,U12,7,~{Q7}_7*%
%TO.N,unconnected-(U12-~{Q7}-Pad7)*%
X19404696Y-37078000D03*
%TO.P,U12,8,GND_8*%
%TO.N,GND*%
X19404696Y-38348000D03*
%TO.P,U12,9,Q7_9*%
%TO.N,/RJ45/SchieberegisterInput8/Out*%
X25904696Y-38348000D03*
%TO.P,U12,10,DS_10*%
%TO.N,/RJ45/SchieberegisterInput7/Out*%
X25904696Y-37078000D03*
%TO.P,U12,11,D0_11*%
%TO.N,/RJ45/SchieberegisterInput8/D0*%
X25904696Y-35808000D03*
%TO.P,U12,12,D1_12*%
%TO.N,/RJ45/SchieberegisterInput8/D1*%
X25904696Y-34538000D03*
%TO.P,U12,13,D2_13*%
%TO.N,/RJ45/SchieberegisterInput8/D2*%
X25904696Y-33268000D03*
%TO.P,U12,14,D3_14*%
%TO.N,/RJ45/SchieberegisterInput8/D3*%
X25904696Y-31998000D03*
%TO.P,U12,15,~{CE}_15*%
%TO.N,Net-(U12-~{CE})*%
X25904696Y-30728000D03*
%TO.P,U12,16,VCC_16*%
%TO.N,+5V*%
X25904696Y-29458000D03*
%TD*%
D10*
%TO.P,R93,1*%
%TO.N,+5V*%
X27734696Y-29970000D03*
%TO.P,R93,2*%
%TO.N,/RJ45/SchieberegisterInput8/D3*%
X27734696Y-30990000D03*
%TD*%
D12*
%TO.P,U13,1,~{PL}_1*%
%TO.N,Data_Latch*%
X25904696Y-52191000D03*
%TO.P,U13,2,CP_2*%
%TO.N,Data_Clk*%
X25904696Y-50921000D03*
%TO.P,U13,3,D4_3*%
%TO.N,/RJ45/SchieberegisterInput9/D4*%
X25904696Y-49651000D03*
%TO.P,U13,4,D5_4*%
%TO.N,/RJ45/SchieberegisterInput9/D5*%
X25904696Y-48381000D03*
%TO.P,U13,5,D6_5*%
%TO.N,/RJ45/SchieberegisterInput9/D6*%
X25904696Y-47111000D03*
%TO.P,U13,6,D7_6*%
%TO.N,/RJ45/SchieberegisterInput9/D7*%
X25904696Y-45841000D03*
%TO.P,U13,7,~{Q7}_7*%
%TO.N,unconnected-(U13-~{Q7}-Pad7)*%
X25904696Y-44571000D03*
%TO.P,U13,8,GND_8*%
%TO.N,GND*%
X25904696Y-43301000D03*
%TO.P,U13,9,Q7_9*%
%TO.N,/RJ45/SchieberegisterInput10/In*%
X19404696Y-43301000D03*
%TO.P,U13,10,DS_10*%
%TO.N,/RJ45/SchieberegisterInput8/Out*%
X19404696Y-44571000D03*
%TO.P,U13,11,D0_11*%
%TO.N,/RJ45/SchieberegisterInput9/D0*%
X19404696Y-45841000D03*
%TO.P,U13,12,D1_12*%
%TO.N,/RJ45/SchieberegisterInput9/D1*%
X19404696Y-47111000D03*
%TO.P,U13,13,D2_13*%
%TO.N,/RJ45/SchieberegisterInput9/D2*%
X19404696Y-48381000D03*
%TO.P,U13,14,D3_14*%
%TO.N,/RJ45/SchieberegisterInput9/D3*%
X19404696Y-49651000D03*
%TO.P,U13,15,~{CE}_15*%
%TO.N,Net-(U13-~{CE})*%
X19404696Y-50921000D03*
%TO.P,U13,16,VCC_16*%
%TO.N,+5V*%
X19404696Y-52191000D03*
%TD*%
D11*
%TO.P,R85,1*%
%TO.N,+5V*%
X31544696Y-51691000D03*
%TO.P,R85,2*%
%TO.N,/RJ45/SchieberegisterInput7/D3*%
X31544696Y-50671000D03*
%TD*%
D10*
%TO.P,R48,1*%
%TO.N,+5V*%
X73079696Y-43813000D03*
%TO.P,R48,2*%
%TO.N,/RJ45/SchieberegisterInput1/D0*%
X73079696Y-44833000D03*
%TD*%
D11*
%TO.P,R90,1*%
%TO.N,+5V*%
X17701696Y-35562000D03*
%TO.P,R90,2*%
%TO.N,/RJ45/SchieberegisterInput8/D6*%
X17701696Y-34542000D03*
%TD*%
D10*
%TO.P,R114,1*%
%TO.N,+5V*%
X13510696Y-46097000D03*
%TO.P,R114,2*%
%TO.N,/RJ45/SchieberegisterInput11/D6*%
X13510696Y-47117000D03*
%TD*%
D11*
%TO.P,R15,1*%
%TO.N,Net-(U2-QG)*%
X20828000Y-62959000D03*
%TO.P,R15,2*%
%TO.N,/OutputShift/Out6*%
X20828000Y-61939000D03*
%TD*%
D10*
%TO.P,R71,1*%
%TO.N,+5V*%
X45260696Y-46097000D03*
%TO.P,R71,2*%
%TO.N,/RJ45/SchieberegisterInput5/D1*%
X45260696Y-47117000D03*
%TD*%
%TO.P,R50,1*%
%TO.N,+5V*%
X69644696Y-46097000D03*
%TO.P,R50,2*%
%TO.N,/RJ45/SchieberegisterInput3/D6*%
X69644696Y-47117000D03*
%TD*%
%TO.P,R36,1*%
%TO.N,+5V*%
X59484696Y-29964000D03*
%TO.P,R36,2*%
%TO.N,/RJ45/SchieberegisterInput2/D4*%
X59484696Y-30984000D03*
%TD*%
D11*
%TO.P,R79,1*%
%TO.N,+5V*%
X41704696Y-35556000D03*
%TO.P,R79,2*%
%TO.N,/RJ45/SchieberegisterInput6/D1*%
X41704696Y-34536000D03*
%TD*%
D15*
%TO.P,C13,1*%
%TO.N,+5V*%
X61270000Y-53975000D03*
%TO.P,C13,2*%
%TO.N,GND*%
X62230000Y-53975000D03*
%TD*%
D10*
%TO.P,R108,1*%
%TO.N,+5V*%
X3477696Y-29964000D03*
%TO.P,R108,2*%
%TO.N,/RJ45/SchieberegisterInput10/D4*%
X3477696Y-30984000D03*
%TD*%
%TO.P,R82,1*%
%TO.N,+5V*%
X41704696Y-46097000D03*
%TO.P,R82,2*%
%TO.N,/RJ45/SchieberegisterInput7/D6*%
X41704696Y-47117000D03*
%TD*%
D15*
%TO.P,C103,1*%
%TO.N,+5V*%
X5156696Y-53975000D03*
%TO.P,C103,2*%
%TO.N,GND*%
X6116696Y-53975000D03*
%TD*%
D11*
%TO.P,R11,1*%
%TO.N,Net-(U2-QC)*%
X25908000Y-62959000D03*
%TO.P,R11,2*%
%TO.N,/OutputShift/Out2*%
X25908000Y-61939000D03*
%TD*%
D16*
%TO.P,C1,1*%
%TO.N,+5V*%
X47978000Y-73406000D03*
%TO.P,C1,2*%
%TO.N,GND*%
X47018000Y-73406000D03*
%TD*%
D11*
%TO.P,R83,1*%
%TO.N,+5V*%
X41704696Y-49405000D03*
%TO.P,R83,2*%
%TO.N,/RJ45/SchieberegisterInput7/D5*%
X41704696Y-48385000D03*
%TD*%
D10*
%TO.P,R55,1*%
%TO.N,+5V*%
X59484696Y-46097000D03*
%TO.P,R55,2*%
%TO.N,/RJ45/SchieberegisterInput3/D1*%
X59484696Y-47117000D03*
%TD*%
D13*
%TO.P,U2,1,QB_1*%
%TO.N,Net-(U2-QB)*%
X28448000Y-64949000D03*
%TO.P,U2,2,QC_2*%
%TO.N,Net-(U2-QC)*%
X27178000Y-64949000D03*
%TO.P,U2,3,QD_3*%
%TO.N,Net-(U2-QD)*%
X25908000Y-64949000D03*
%TO.P,U2,4,QE_4*%
%TO.N,Net-(U2-QE)*%
X24638000Y-64949000D03*
%TO.P,U2,5,QF_5*%
%TO.N,Net-(U2-QF)*%
X23368000Y-64949000D03*
%TO.P,U2,6,QG_6*%
%TO.N,Net-(U2-QG)*%
X22098000Y-64949000D03*
%TO.P,U2,7,QH_7*%
%TO.N,Net-(U2-QH)*%
X20828000Y-64949000D03*
%TO.P,U2,8,GND_8*%
%TO.N,GND*%
X19558000Y-64949000D03*
%TO.P,U2,9,QH'_9*%
%TO.N,/OutputShift/out*%
X19558000Y-71449000D03*
%TO.P,U2,10,~{SRCLR}_10*%
%TO.N,Net-(U2-~{SRCLR})*%
X20828000Y-71449000D03*
%TO.P,U2,11,SRCLK_11*%
%TO.N,Led_Clk*%
X22098000Y-71449000D03*
%TO.P,U2,12,RCLK_12*%
%TO.N,Led_Latch*%
X23368000Y-71449000D03*
%TO.P,U2,13,~{OE}_13*%
%TO.N,Led_OE*%
X24638000Y-71449000D03*
%TO.P,U2,14,SER_14*%
%TO.N,Led_In*%
X25908000Y-71449000D03*
%TO.P,U2,15,QA_15*%
%TO.N,Net-(U2-QA)*%
X27178000Y-71449000D03*
%TO.P,U2,16,VCC_16*%
%TO.N,+5V*%
X28448000Y-71449000D03*
%TD*%
D11*
%TO.P,R34,1*%
%TO.N,+5V*%
X59484696Y-35556000D03*
%TO.P,R34,2*%
%TO.N,/RJ45/SchieberegisterInput2/D6*%
X59484696Y-34536000D03*
%TD*%
D10*
%TO.P,R94,1*%
%TO.N,+5V*%
X27734696Y-32256000D03*
%TO.P,R94,2*%
%TO.N,/RJ45/SchieberegisterInput8/D2*%
X27734696Y-33276000D03*
%TD*%
D15*
%TO.P,C76,1*%
%TO.N,+5V*%
X25984696Y-28067000D03*
%TO.P,C76,2*%
%TO.N,GND*%
X26944696Y-28067000D03*
%TD*%
D11*
%TO.P,R80,1*%
%TO.N,+5V*%
X41704696Y-37842000D03*
%TO.P,R80,2*%
%TO.N,/RJ45/SchieberegisterInput6/D0*%
X41704696Y-36822000D03*
%TD*%
%TO.P,R53,1*%
%TO.N,+5V*%
X59484696Y-51691000D03*
%TO.P,R53,2*%
%TO.N,/RJ45/SchieberegisterInput3/D3*%
X59484696Y-50671000D03*
%TD*%
D14*
%TO.P,U8,1,~{PL}_1*%
%TO.N,Data_Latch*%
X47090696Y-29458000D03*
%TO.P,U8,2,CP_2*%
%TO.N,Data_Clk*%
X47090696Y-30728000D03*
%TO.P,U8,3,D4_3*%
%TO.N,/RJ45/SchieberegisterInput4/D4*%
X47090696Y-31998000D03*
%TO.P,U8,4,D5_4*%
%TO.N,/RJ45/SchieberegisterInput4/D5*%
X47090696Y-33268000D03*
%TO.P,U8,5,D6_5*%
%TO.N,/RJ45/SchieberegisterInput4/D6*%
X47090696Y-34538000D03*
%TO.P,U8,6,D7_6*%
%TO.N,/RJ45/SchieberegisterInput4/D7*%
X47090696Y-35808000D03*
%TO.P,U8,7,~{Q7}_7*%
%TO.N,unconnected-(U8-~{Q7}-Pad7)*%
X47090696Y-37078000D03*
%TO.P,U8,8,GND_8*%
%TO.N,GND*%
X47090696Y-38348000D03*
%TO.P,U8,9,Q7_9*%
%TO.N,/RJ45/SchieberegisterInput4/Out*%
X53590696Y-38348000D03*
%TO.P,U8,10,DS_10*%
%TO.N,/RJ45/SchieberegisterInput3/Out*%
X53590696Y-37078000D03*
%TO.P,U8,11,D0_11*%
%TO.N,/RJ45/SchieberegisterInput4/D0*%
X53590696Y-35808000D03*
%TO.P,U8,12,D1_12*%
%TO.N,/RJ45/SchieberegisterInput4/D1*%
X53590696Y-34538000D03*
%TO.P,U8,13,D2_13*%
%TO.N,/RJ45/SchieberegisterInput4/D2*%
X53590696Y-33268000D03*
%TO.P,U8,14,D3_14*%
%TO.N,/RJ45/SchieberegisterInput4/D3*%
X53590696Y-31998000D03*
%TO.P,U8,15,~{CE}_15*%
%TO.N,Net-(U8-~{CE})*%
X53590696Y-30728000D03*
%TO.P,U8,16,VCC_16*%
%TO.N,+5V*%
X53590696Y-29458000D03*
%TD*%
D11*
%TO.P,R32,1*%
%TO.N,+5V*%
X82973696Y-37842000D03*
%TO.P,R32,2*%
%TO.N,/RJ45/SchieberegisterInput/D0*%
X82973696Y-36822000D03*
%TD*%
D14*
%TO.P,U6,1,~{PL}_1*%
%TO.N,Data_Latch*%
X61314696Y-29458000D03*
%TO.P,U6,2,CP_2*%
%TO.N,Data_Clk*%
X61314696Y-30728000D03*
%TO.P,U6,3,D4_3*%
%TO.N,/RJ45/SchieberegisterInput2/D4*%
X61314696Y-31998000D03*
%TO.P,U6,4,D5_4*%
%TO.N,/RJ45/SchieberegisterInput2/D5*%
X61314696Y-33268000D03*
%TO.P,U6,5,D6_5*%
%TO.N,/RJ45/SchieberegisterInput2/D6*%
X61314696Y-34538000D03*
%TO.P,U6,6,D7_6*%
%TO.N,/RJ45/SchieberegisterInput2/D7*%
X61314696Y-35808000D03*
%TO.P,U6,7,~{Q7}_7*%
%TO.N,unconnected-(U6-~{Q7}-Pad7)*%
X61314696Y-37078000D03*
%TO.P,U6,8,GND_8*%
%TO.N,GND*%
X61314696Y-38348000D03*
%TO.P,U6,9,Q7_9*%
%TO.N,/RJ45/SchieberegisterInput2/Out*%
X67814696Y-38348000D03*
%TO.P,U6,10,DS_10*%
%TO.N,/RJ45/SchieberegisterInput1/Out*%
X67814696Y-37078000D03*
%TO.P,U6,11,D0_11*%
%TO.N,/RJ45/SchieberegisterInput2/D0*%
X67814696Y-35808000D03*
%TO.P,U6,12,D1_12*%
%TO.N,/RJ45/SchieberegisterInput2/D1*%
X67814696Y-34538000D03*
%TO.P,U6,13,D2_13*%
%TO.N,/RJ45/SchieberegisterInput2/D2*%
X67814696Y-33268000D03*
%TO.P,U6,14,D3_14*%
%TO.N,/RJ45/SchieberegisterInput2/D3*%
X67814696Y-31998000D03*
%TO.P,U6,15,~{CE}_15*%
%TO.N,Net-(U6-~{CE})*%
X67814696Y-30728000D03*
%TO.P,U6,16,VCC_16*%
%TO.N,+5V*%
X67814696Y-29458000D03*
%TD*%
D11*
%TO.P,R118,1*%
%TO.N,+5V*%
X3477696Y-49405000D03*
%TO.P,R118,2*%
%TO.N,/RJ45/SchieberegisterInput11/D2*%
X3477696Y-48385000D03*
%TD*%
D10*
%TO.P,R78,1*%
%TO.N,+5V*%
X41704696Y-32250000D03*
%TO.P,R78,2*%
%TO.N,/RJ45/SchieberegisterInput6/D2*%
X41704696Y-33270000D03*
%TD*%
D17*
%TO.P,J2,1,Pin_1_1*%
%TO.N,GND*%
X6500000Y-78000000D03*
%TO.P,J2,2,Pin_2_2*%
%TO.N,Led_Clk*%
X6500000Y-76000000D03*
%TO.P,J2,3,Pin_3_3*%
%TO.N,Led_Latch*%
X6500000Y-74000000D03*
%TO.P,J2,4,Pin_4_4*%
%TO.N,Led_OE*%
X6500000Y-72000000D03*
%TO.P,J2,5,Pin_5_5*%
%TO.N,Led_In*%
X6500000Y-70000000D03*
%TO.P,J2,6,Pin_6_6*%
%TO.N,Data_Clk*%
X6500000Y-68000000D03*
%TO.P,J2,7,Pin_7_7*%
%TO.N,Data_Latch*%
X6500000Y-66000000D03*
%TO.P,J2,8,Pin_8_8*%
%TO.N,Data_Output*%
X6500000Y-64000000D03*
%TO.P,J2,9,Pin_9_9*%
%TO.N,+5V*%
X6500000Y-62000000D03*
D18*
%TO.P,J2,MP*%
%TO.N,N/C*%
X4250000Y-80400000D03*
X4250000Y-59600000D03*
%TD*%
D10*
%TO.P,R103,1*%
%TO.N,+5V*%
X17701696Y-46097000D03*
%TO.P,R103,2*%
%TO.N,/RJ45/SchieberegisterInput9/D1*%
X17701696Y-47117000D03*
%TD*%
%TO.P,R122,1*%
%TO.N,Net-(U6-~{CE})*%
X70739000Y-29970000D03*
%TO.P,R122,2*%
%TO.N,GND*%
X70739000Y-30990000D03*
%TD*%
%TO.P,R29,1*%
%TO.N,+5V*%
X82973696Y-29964000D03*
%TO.P,R29,2*%
%TO.N,/RJ45/SchieberegisterInput/D3*%
X82973696Y-30984000D03*
%TD*%
D11*
%TO.P,R105,1*%
%TO.N,+5V*%
X3477696Y-37842000D03*
%TO.P,R105,2*%
%TO.N,/RJ45/SchieberegisterInput10/D7*%
X3477696Y-36822000D03*
%TD*%
D10*
%TO.P,R65,1*%
%TO.N,+5V*%
X55420696Y-43813000D03*
%TO.P,R65,2*%
%TO.N,/RJ45/SchieberegisterInput5/D7*%
X55420696Y-44833000D03*
%TD*%
D11*
%TO.P,R20,1*%
%TO.N,Net-(U3-QD)*%
X64135000Y-63261000D03*
%TO.P,R20,2*%
%TO.N,/OutputShift2/Out3*%
X64135000Y-62241000D03*
%TD*%
%TO.P,R116,1*%
%TO.N,+5V*%
X13510696Y-51691000D03*
%TO.P,R116,2*%
%TO.N,/RJ45/SchieberegisterInput11/D4*%
X13510696Y-50671000D03*
%TD*%
%TO.P,R67,1*%
%TO.N,+5V*%
X55420696Y-49405000D03*
%TO.P,R67,2*%
%TO.N,/RJ45/SchieberegisterInput5/D5*%
X55420696Y-48385000D03*
%TD*%
D10*
%TO.P,R59,1*%
%TO.N,+5V*%
X45260696Y-32250000D03*
%TO.P,R59,2*%
%TO.N,/RJ45/SchieberegisterInput4/D5*%
X45260696Y-33270000D03*
%TD*%
D11*
%TO.P,R58,1*%
%TO.N,+5V*%
X45260696Y-35556000D03*
%TO.P,R58,2*%
%TO.N,/RJ45/SchieberegisterInput4/D6*%
X45260696Y-34536000D03*
%TD*%
D10*
%TO.P,R28,1*%
%TO.N,+5V*%
X73067696Y-29964000D03*
%TO.P,R28,2*%
%TO.N,/RJ45/SchieberegisterInput/D4*%
X73067696Y-30984000D03*
%TD*%
D11*
%TO.P,R74,1*%
%TO.N,+5V*%
X31544696Y-35556000D03*
%TO.P,R74,2*%
%TO.N,/RJ45/SchieberegisterInput6/D6*%
X31544696Y-34536000D03*
%TD*%
D15*
%TO.P,C94,1*%
%TO.N,+5V*%
X11760696Y-28067000D03*
%TO.P,C94,2*%
%TO.N,GND*%
X12720696Y-28067000D03*
%TD*%
D11*
%TO.P,R52,1*%
%TO.N,+5V*%
X69644696Y-51691000D03*
%TO.P,R52,2*%
%TO.N,/RJ45/SchieberegisterInput3/D4*%
X69644696Y-50671000D03*
%TD*%
D19*
%TO.P,C3,1*%
%TO.N,+5V*%
X69825000Y-71481000D03*
%TO.P,C3,2*%
%TO.N,GND*%
X69825000Y-70521000D03*
%TD*%
D10*
%TO.P,R127,1*%
%TO.N,Net-(U10-~{CE})*%
X42799000Y-29970000D03*
%TO.P,R127,2*%
%TO.N,GND*%
X42799000Y-30990000D03*
%TD*%
D12*
%TO.P,U7,1,~{PL}_1*%
%TO.N,Data_Latch*%
X67814696Y-52191000D03*
%TO.P,U7,2,CP_2*%
%TO.N,Data_Clk*%
X67814696Y-50921000D03*
%TO.P,U7,3,D4_3*%
%TO.N,/RJ45/SchieberegisterInput3/D4*%
X67814696Y-49651000D03*
%TO.P,U7,4,D5_4*%
%TO.N,/RJ45/SchieberegisterInput3/D5*%
X67814696Y-48381000D03*
%TO.P,U7,5,D6_5*%
%TO.N,/RJ45/SchieberegisterInput3/D6*%
X67814696Y-47111000D03*
%TO.P,U7,6,D7_6*%
%TO.N,/RJ45/SchieberegisterInput3/D7*%
X67814696Y-45841000D03*
%TO.P,U7,7,~{Q7}_7*%
%TO.N,unconnected-(U7-~{Q7}-Pad7)*%
X67814696Y-44571000D03*
%TO.P,U7,8,GND_8*%
%TO.N,GND*%
X67814696Y-43301000D03*
%TO.P,U7,9,Q7_9*%
%TO.N,/RJ45/SchieberegisterInput3/Out*%
X61314696Y-43301000D03*
%TO.P,U7,10,DS_10*%
%TO.N,/RJ45/SchieberegisterInput2/Out*%
X61314696Y-44571000D03*
%TO.P,U7,11,D0_11*%
%TO.N,/RJ45/SchieberegisterInput3/D0*%
X61314696Y-45841000D03*
%TO.P,U7,12,D1_12*%
%TO.N,/RJ45/SchieberegisterInput3/D1*%
X61314696Y-47111000D03*
%TO.P,U7,13,D2_13*%
%TO.N,/RJ45/SchieberegisterInput3/D2*%
X61314696Y-48381000D03*
%TO.P,U7,14,D3_14*%
%TO.N,/RJ45/SchieberegisterInput3/D3*%
X61314696Y-49651000D03*
%TO.P,U7,15,~{CE}_15*%
%TO.N,Net-(U7-~{CE})*%
X61314696Y-50921000D03*
%TO.P,U7,16,VCC_16*%
%TO.N,+5V*%
X61314696Y-52191000D03*
%TD*%
D11*
%TO.P,R21,1*%
%TO.N,Net-(U3-QE)*%
X62865000Y-63261000D03*
%TO.P,R21,2*%
%TO.N,/OutputShift2/Out4*%
X62865000Y-62241000D03*
%TD*%
D16*
%TO.P,C4,1*%
%TO.N,+5V*%
X81929696Y-27934000D03*
%TO.P,C4,2*%
%TO.N,GND*%
X80969696Y-27934000D03*
%TD*%
D10*
%TO.P,R62,1*%
%TO.N,+5V*%
X55420696Y-32250000D03*
%TO.P,R62,2*%
%TO.N,/RJ45/SchieberegisterInput4/D2*%
X55420696Y-33270000D03*
%TD*%
D11*
%TO.P,R84,1*%
%TO.N,+5V*%
X41704696Y-51691000D03*
%TO.P,R84,2*%
%TO.N,/RJ45/SchieberegisterInput7/D4*%
X41704696Y-50671000D03*
%TD*%
%TO.P,R100,1*%
%TO.N,+5V*%
X27734696Y-51691000D03*
%TO.P,R100,2*%
%TO.N,/RJ45/SchieberegisterInput9/D4*%
X27734696Y-50671000D03*
%TD*%
D20*
%TO.P,R126,1*%
%TO.N,Net-(U9-~{CE})*%
X50675000Y-53975000D03*
%TO.P,R126,2*%
%TO.N,GND*%
X49655000Y-53975000D03*
%TD*%
D11*
%TO.P,R51,1*%
%TO.N,+5V*%
X69644696Y-49405000D03*
%TO.P,R51,2*%
%TO.N,/RJ45/SchieberegisterInput3/D5*%
X69644696Y-48385000D03*
%TD*%
D10*
%TO.P,R121,1*%
%TO.N,Net-(U4-~{CE})*%
X84074000Y-29970000D03*
%TO.P,R121,2*%
%TO.N,GND*%
X84074000Y-30990000D03*
%TD*%
D11*
%TO.P,R14,1*%
%TO.N,Net-(U2-QF)*%
X22098000Y-62959000D03*
%TO.P,R14,2*%
%TO.N,/OutputShift/Out5*%
X22098000Y-61939000D03*
%TD*%
D10*
%TO.P,R37,1*%
%TO.N,+5V*%
X69644696Y-29970000D03*
%TO.P,R37,2*%
%TO.N,/RJ45/SchieberegisterInput2/D3*%
X69644696Y-30990000D03*
%TD*%
%TO.P,R110,1*%
%TO.N,+5V*%
X13510696Y-32256000D03*
%TO.P,R110,2*%
%TO.N,/RJ45/SchieberegisterInput10/D2*%
X13510696Y-33276000D03*
%TD*%
%TO.P,R35,1*%
%TO.N,+5V*%
X59484696Y-32250000D03*
%TO.P,R35,2*%
%TO.N,/RJ45/SchieberegisterInput2/D5*%
X59484696Y-33270000D03*
%TD*%
%TO.P,R98,1*%
%TO.N,+5V*%
X27734696Y-46097000D03*
%TO.P,R98,2*%
%TO.N,/RJ45/SchieberegisterInput9/D6*%
X27734696Y-47117000D03*
%TD*%
D20*
%TO.P,R132,1*%
%TO.N,Net-(U15-~{CE})*%
X8763000Y-53975000D03*
%TO.P,R132,2*%
%TO.N,GND*%
X7743000Y-53975000D03*
%TD*%
D11*
%TO.P,R99,1*%
%TO.N,+5V*%
X27734696Y-49405000D03*
%TO.P,R99,2*%
%TO.N,/RJ45/SchieberegisterInput9/D5*%
X27734696Y-48385000D03*
%TD*%
D10*
%TO.P,R113,1*%
%TO.N,+5V*%
X13510696Y-43813000D03*
%TO.P,R113,2*%
%TO.N,/RJ45/SchieberegisterInput11/D7*%
X13510696Y-44833000D03*
%TD*%
D21*
%TO.P,C2,1*%
%TO.N,+5V*%
X29845000Y-71402000D03*
%TO.P,C2,2*%
%TO.N,GND*%
X29845000Y-72362000D03*
%TD*%
D11*
%TO.P,R101,1*%
%TO.N,+5V*%
X17701696Y-51691000D03*
%TO.P,R101,2*%
%TO.N,/RJ45/SchieberegisterInput9/D3*%
X17701696Y-50671000D03*
%TD*%
%TO.P,R33,1*%
%TO.N,+5V*%
X59484696Y-37842000D03*
%TO.P,R33,2*%
%TO.N,/RJ45/SchieberegisterInput2/D7*%
X59484696Y-36822000D03*
%TD*%
%TO.P,R17,1*%
%TO.N,Net-(U3-QA)*%
X67945000Y-63261000D03*
%TO.P,R17,2*%
%TO.N,/OutputShift2/Out0*%
X67945000Y-62241000D03*
%TD*%
D10*
%TO.P,R60,1*%
%TO.N,+5V*%
X45260696Y-29964000D03*
%TO.P,R60,2*%
%TO.N,/RJ45/SchieberegisterInput4/D4*%
X45260696Y-30984000D03*
%TD*%
D11*
%TO.P,R40,1*%
%TO.N,+5V*%
X69644696Y-37842000D03*
%TO.P,R40,2*%
%TO.N,/RJ45/SchieberegisterInput2/D0*%
X69644696Y-36822000D03*
%TD*%
%TO.P,R111,1*%
%TO.N,+5V*%
X13510696Y-35556000D03*
%TO.P,R111,2*%
%TO.N,/RJ45/SchieberegisterInput10/D1*%
X13510696Y-34536000D03*
%TD*%
%TO.P,R117,1*%
%TO.N,+5V*%
X3477696Y-51691000D03*
%TO.P,R117,2*%
%TO.N,/RJ45/SchieberegisterInput11/D3*%
X3477696Y-50671000D03*
%TD*%
%TO.P,R45,1*%
%TO.N,+5V*%
X73079696Y-51691000D03*
%TO.P,R45,2*%
%TO.N,/RJ45/SchieberegisterInput1/D3*%
X73079696Y-50671000D03*
%TD*%
%TO.P,R43,1*%
%TO.N,+5V*%
X82985696Y-49405000D03*
%TO.P,R43,2*%
%TO.N,/RJ45/SchieberegisterInput1/D5*%
X82985696Y-48385000D03*
%TD*%
D10*
%TO.P,R27,1*%
%TO.N,+5V*%
X73067696Y-32250000D03*
%TO.P,R27,2*%
%TO.N,/RJ45/SchieberegisterInput/D5*%
X73067696Y-33270000D03*
%TD*%
D11*
%TO.P,R26,1*%
%TO.N,+5V*%
X73067696Y-35556000D03*
%TO.P,R26,2*%
%TO.N,/RJ45/SchieberegisterInput/D6*%
X73067696Y-34536000D03*
%TD*%
%TO.P,R46,1*%
%TO.N,+5V*%
X73079696Y-49405000D03*
%TO.P,R46,2*%
%TO.N,/RJ45/SchieberegisterInput1/D2*%
X73079696Y-48385000D03*
%TD*%
D10*
%TO.P,R61,1*%
%TO.N,+5V*%
X55420696Y-29964000D03*
%TO.P,R61,2*%
%TO.N,/RJ45/SchieberegisterInput4/D3*%
X55420696Y-30984000D03*
%TD*%
D11*
%TO.P,R102,1*%
%TO.N,+5V*%
X17701696Y-49405000D03*
%TO.P,R102,2*%
%TO.N,/RJ45/SchieberegisterInput9/D2*%
X17701696Y-48385000D03*
%TD*%
D14*
%TO.P,U4,1,~{PL}_1*%
%TO.N,Data_Latch*%
X74713696Y-29458000D03*
%TO.P,U4,2,CP_2*%
%TO.N,Data_Clk*%
X74713696Y-30728000D03*
%TO.P,U4,3,D4_3*%
%TO.N,/RJ45/SchieberegisterInput/D4*%
X74713696Y-31998000D03*
%TO.P,U4,4,D5_4*%
%TO.N,/RJ45/SchieberegisterInput/D5*%
X74713696Y-33268000D03*
%TO.P,U4,5,D6_5*%
%TO.N,/RJ45/SchieberegisterInput/D6*%
X74713696Y-34538000D03*
%TO.P,U4,6,D7_6*%
%TO.N,/RJ45/SchieberegisterInput/D7*%
X74713696Y-35808000D03*
%TO.P,U4,7,~{Q7}_7*%
%TO.N,unconnected-(U4-~{Q7}-Pad7)*%
X74713696Y-37078000D03*
%TO.P,U4,8,GND_8*%
%TO.N,GND*%
X74713696Y-38348000D03*
%TO.P,U4,9,Q7_9*%
%TO.N,/RJ45/SchieberegisterInput/Out*%
X81213696Y-38348000D03*
%TO.P,U4,10,DS_10*%
%TO.N,Data_Input*%
X81213696Y-37078000D03*
%TO.P,U4,11,D0_11*%
%TO.N,/RJ45/SchieberegisterInput/D0*%
X81213696Y-35808000D03*
%TO.P,U4,12,D1_12*%
%TO.N,/RJ45/SchieberegisterInput/D1*%
X81213696Y-34538000D03*
%TO.P,U4,13,D2_13*%
%TO.N,/RJ45/SchieberegisterInput/D2*%
X81213696Y-33268000D03*
%TO.P,U4,14,D3_14*%
%TO.N,/RJ45/SchieberegisterInput/D3*%
X81213696Y-31998000D03*
%TO.P,U4,15,~{CE}_15*%
%TO.N,Net-(U4-~{CE})*%
X81213696Y-30728000D03*
%TO.P,U4,16,VCC_16*%
%TO.N,+5V*%
X81213696Y-29458000D03*
%TD*%
D22*
%TO.P,J3,*%
%TO.N,*%
X86930000Y-16357000D03*
X86930000Y-7987000D03*
X70000Y-16357000D03*
X70000Y-7987000D03*
D23*
%TO.P,J3,A1*%
%TO.N,/RJ45/SchieberegisterInput/D4*%
X73980000Y-17897000D03*
%TO.P,J3,A2*%
%TO.N,/RJ45/SchieberegisterInput/D5*%
X75250000Y-15357000D03*
%TO.P,J3,A3*%
%TO.N,/RJ45/SchieberegisterInput/D6*%
X76520000Y-17897000D03*
%TO.P,J3,A4*%
%TO.N,/RJ45/SchieberegisterInput/D7*%
X77790000Y-15357000D03*
%TO.P,J3,A5*%
%TO.N,/RJ45/SchieberegisterInput/D0*%
X79060000Y-17897000D03*
%TO.P,J3,A6*%
%TO.N,/RJ45/SchieberegisterInput/D1*%
X80330000Y-15357000D03*
%TO.P,J3,A7*%
%TO.N,/RJ45/SchieberegisterInput/D2*%
X81600000Y-17897000D03*
%TO.P,J3,A8*%
%TO.N,/RJ45/SchieberegisterInput/D3*%
X82870000Y-15357000D03*
%TO.P,J3,A9*%
%TO.N,GND*%
X72330000Y-21817000D03*
%TO.P,J3,A10*%
%TO.N,/OutputShift2/Out0*%
X74870000Y-21817000D03*
%TO.P,J3,A11*%
%TO.N,GND*%
X81980000Y-21817000D03*
%TO.P,J3,A12*%
%TO.N,/OutputShift2/Out1*%
X84520000Y-21817000D03*
%TO.P,J3,B1*%
%TO.N,/RJ45/SchieberegisterInput1/D4*%
X82870000Y-9117000D03*
%TO.P,J3,B2*%
%TO.N,/RJ45/SchieberegisterInput1/D5*%
X81600000Y-11657000D03*
%TO.P,J3,B3*%
%TO.N,/RJ45/SchieberegisterInput1/D6*%
X80330000Y-9117000D03*
%TO.P,J3,B4*%
%TO.N,/RJ45/SchieberegisterInput1/D7*%
X79060000Y-11657000D03*
%TO.P,J3,B5*%
%TO.N,/RJ45/SchieberegisterInput1/D0*%
X77790000Y-9117000D03*
%TO.P,J3,B6*%
%TO.N,/RJ45/SchieberegisterInput1/D1*%
X76520000Y-11657000D03*
%TO.P,J3,B7*%
%TO.N,/RJ45/SchieberegisterInput1/D2*%
X75250000Y-9117000D03*
%TO.P,J3,B8*%
%TO.N,/RJ45/SchieberegisterInput1/D3*%
X73980000Y-11657000D03*
%TO.P,J3,B9*%
%TO.N,GND*%
X71960000Y-3957000D03*
%TO.P,J3,B10*%
%TO.N,/OutputShift2/Out2*%
X74500000Y-3957000D03*
%TO.P,J3,B11*%
%TO.N,GND*%
X82350000Y-2177000D03*
%TO.P,J3,B12*%
%TO.N,/OutputShift2/Out3*%
X84890000Y-2177000D03*
%TO.P,J3,C1*%
%TO.N,/RJ45/SchieberegisterInput2/D4*%
X60010000Y-17897000D03*
%TO.P,J3,C2*%
%TO.N,/RJ45/SchieberegisterInput2/D5*%
X61280000Y-15357000D03*
%TO.P,J3,C3*%
%TO.N,/RJ45/SchieberegisterInput2/D6*%
X62550000Y-17897000D03*
%TO.P,J3,C4*%
%TO.N,/RJ45/SchieberegisterInput2/D7*%
X63820000Y-15357000D03*
%TO.P,J3,C5*%
%TO.N,/RJ45/SchieberegisterInput2/D0*%
X65090000Y-17897000D03*
%TO.P,J3,C6*%
%TO.N,/RJ45/SchieberegisterInput2/D1*%
X66360000Y-15357000D03*
%TO.P,J3,C7*%
%TO.N,/RJ45/SchieberegisterInput2/D2*%
X67630000Y-17897000D03*
%TO.P,J3,C8*%
%TO.N,/RJ45/SchieberegisterInput2/D3*%
X68900000Y-15357000D03*
%TO.P,J3,C9*%
%TO.N,GND*%
X58360000Y-21817000D03*
%TO.P,J3,C10*%
%TO.N,/OutputShift2/Out4*%
X60900000Y-21817000D03*
%TO.P,J3,C11*%
%TO.N,GND*%
X68010000Y-21817000D03*
%TO.P,J3,C12*%
%TO.N,/OutputShift2/Out5*%
X70550000Y-21817000D03*
%TO.P,J3,D1*%
%TO.N,/RJ45/SchieberegisterInput3/D4*%
X68900000Y-9117000D03*
%TO.P,J3,D2*%
%TO.N,/RJ45/SchieberegisterInput3/D5*%
X67630000Y-11657000D03*
%TO.P,J3,D3*%
%TO.N,/RJ45/SchieberegisterInput3/D6*%
X66360000Y-9117000D03*
%TO.P,J3,D4*%
%TO.N,/RJ45/SchieberegisterInput3/D7*%
X65090000Y-11657000D03*
%TO.P,J3,D5*%
%TO.N,/RJ45/SchieberegisterInput3/D0*%
X63820000Y-9117000D03*
%TO.P,J3,D6*%
%TO.N,/RJ45/SchieberegisterInput3/D1*%
X62550000Y-11657000D03*
%TO.P,J3,D7*%
%TO.N,/RJ45/SchieberegisterInput3/D2*%
X61280000Y-9117000D03*
%TO.P,J3,D8*%
%TO.N,/RJ45/SchieberegisterInput3/D3*%
X60010000Y-11657000D03*
%TO.P,J3,D9*%
%TO.N,GND*%
X57990000Y-3957000D03*
%TO.P,J3,D10*%
%TO.N,/OutputShift2/Out6*%
X60530000Y-3957000D03*
%TO.P,J3,D11*%
%TO.N,GND*%
X68380000Y-2177000D03*
%TO.P,J3,D12*%
%TO.N,/OutputShift2/Out7*%
X70920000Y-2177000D03*
%TO.P,J3,E1*%
%TO.N,/RJ45/SchieberegisterInput4/D4*%
X46040000Y-17897000D03*
%TO.P,J3,E2*%
%TO.N,/RJ45/SchieberegisterInput4/D5*%
X47310000Y-15357000D03*
%TO.P,J3,E3*%
%TO.N,/RJ45/SchieberegisterInput4/D6*%
X48580000Y-17897000D03*
%TO.P,J3,E4*%
%TO.N,/RJ45/SchieberegisterInput4/D7*%
X49850000Y-15357000D03*
%TO.P,J3,E5*%
%TO.N,/RJ45/SchieberegisterInput4/D0*%
X51120000Y-17897000D03*
%TO.P,J3,E6*%
%TO.N,/RJ45/SchieberegisterInput4/D1*%
X52390000Y-15357000D03*
%TO.P,J3,E7*%
%TO.N,/RJ45/SchieberegisterInput4/D2*%
X53660000Y-17897000D03*
%TO.P,J3,E8*%
%TO.N,/RJ45/SchieberegisterInput4/D3*%
X54930000Y-15357000D03*
%TO.P,J3,E9*%
%TO.N,GND*%
X44390000Y-21817000D03*
%TO.P,J3,E10*%
%TO.N,/OutputShift1/Out0*%
X46930000Y-21817000D03*
%TO.P,J3,E11*%
%TO.N,GND*%
X54040000Y-21817000D03*
%TO.P,J3,E12*%
%TO.N,/OutputShift1/Out1*%
X56580000Y-21817000D03*
%TO.P,J3,F1*%
%TO.N,/RJ45/SchieberegisterInput5/D4*%
X54930000Y-9117000D03*
%TO.P,J3,F2*%
%TO.N,/RJ45/SchieberegisterInput5/D5*%
X53660000Y-11657000D03*
%TO.P,J3,F3*%
%TO.N,/RJ45/SchieberegisterInput5/D6*%
X52390000Y-9117000D03*
%TO.P,J3,F4*%
%TO.N,/RJ45/SchieberegisterInput5/D7*%
X51120000Y-11657000D03*
%TO.P,J3,F5*%
%TO.N,/RJ45/SchieberegisterInput5/D0*%
X49850000Y-9117000D03*
%TO.P,J3,F6*%
%TO.N,/RJ45/SchieberegisterInput5/D1*%
X48580000Y-11657000D03*
%TO.P,J3,F7*%
%TO.N,/RJ45/SchieberegisterInput5/D2*%
X47310000Y-9117000D03*
%TO.P,J3,F8*%
%TO.N,/RJ45/SchieberegisterInput5/D3*%
X46040000Y-11657000D03*
%TO.P,J3,F9*%
%TO.N,GND*%
X40440000Y-2177000D03*
%TO.P,J3,F10*%
%TO.N,/OutputShift1/Out2*%
X42980000Y-2177000D03*
%TO.P,J3,F11*%
%TO.N,GND*%
X54410000Y-2177000D03*
%TO.P,J3,F12*%
%TO.N,/OutputShift1/Out3*%
X56950000Y-2177000D03*
%TO.P,J3,G1*%
%TO.N,/RJ45/SchieberegisterInput6/D4*%
X32070000Y-17897000D03*
%TO.P,J3,G2*%
%TO.N,/RJ45/SchieberegisterInput6/D5*%
X33340000Y-15357000D03*
%TO.P,J3,G3*%
%TO.N,/RJ45/SchieberegisterInput6/D6*%
X34610000Y-17897000D03*
%TO.P,J3,G4*%
%TO.N,/RJ45/SchieberegisterInput6/D7*%
X35880000Y-15357000D03*
%TO.P,J3,G5*%
%TO.N,/RJ45/SchieberegisterInput6/D0*%
X37150000Y-17897000D03*
%TO.P,J3,G6*%
%TO.N,/RJ45/SchieberegisterInput6/D1*%
X38420000Y-15357000D03*
%TO.P,J3,G7*%
%TO.N,/RJ45/SchieberegisterInput6/D2*%
X39690000Y-17897000D03*
%TO.P,J3,G8*%
%TO.N,/RJ45/SchieberegisterInput6/D3*%
X40960000Y-15357000D03*
%TO.P,J3,G9*%
%TO.N,GND*%
X30420000Y-21817000D03*
%TO.P,J3,G10*%
%TO.N,/OutputShift1/Out4*%
X32960000Y-21817000D03*
%TO.P,J3,G11*%
%TO.N,GND*%
X40070000Y-21817000D03*
%TO.P,J3,G12*%
%TO.N,/OutputShift1/Out5*%
X42610000Y-21817000D03*
%TO.P,J3,H1*%
%TO.N,/RJ45/SchieberegisterInput7/D4*%
X40960000Y-9117000D03*
%TO.P,J3,H2*%
%TO.N,/RJ45/SchieberegisterInput7/D5*%
X39690000Y-11657000D03*
%TO.P,J3,H3*%
%TO.N,/RJ45/SchieberegisterInput7/D6*%
X38420000Y-9117000D03*
%TO.P,J3,H4*%
%TO.N,/RJ45/SchieberegisterInput7/D7*%
X37150000Y-11657000D03*
%TO.P,J3,H5*%
%TO.N,/RJ45/SchieberegisterInput7/D0*%
X35880000Y-9117000D03*
%TO.P,J3,H6*%
%TO.N,/RJ45/SchieberegisterInput7/D1*%
X34610000Y-11657000D03*
%TO.P,J3,H7*%
%TO.N,/RJ45/SchieberegisterInput7/D2*%
X33340000Y-9117000D03*
%TO.P,J3,H8*%
%TO.N,/RJ45/SchieberegisterInput7/D3*%
X32070000Y-11657000D03*
%TO.P,J3,H9*%
%TO.N,GND*%
X30050000Y-3957000D03*
%TO.P,J3,H10*%
%TO.N,/OutputShift1/Out6*%
X32590000Y-3957000D03*
%TO.P,J3,H11*%
%TO.N,GND*%
X44020000Y-3957000D03*
%TO.P,J3,H12*%
%TO.N,/OutputShift1/Out7*%
X46560000Y-3957000D03*
%TO.P,J3,I1*%
%TO.N,/RJ45/SchieberegisterInput8/D4*%
X18100000Y-17897000D03*
%TO.P,J3,I2*%
%TO.N,/RJ45/SchieberegisterInput8/D5*%
X19370000Y-15357000D03*
%TO.P,J3,I3*%
%TO.N,/RJ45/SchieberegisterInput8/D6*%
X20640000Y-17897000D03*
%TO.P,J3,I4*%
%TO.N,/RJ45/SchieberegisterInput8/D7*%
X21910000Y-15357000D03*
%TO.P,J3,I5*%
%TO.N,/RJ45/SchieberegisterInput8/D0*%
X23180000Y-17897000D03*
%TO.P,J3,I6*%
%TO.N,/RJ45/SchieberegisterInput8/D1*%
X24450000Y-15357000D03*
%TO.P,J3,I7*%
%TO.N,/RJ45/SchieberegisterInput8/D2*%
X25720000Y-17897000D03*
%TO.P,J3,I8*%
%TO.N,/RJ45/SchieberegisterInput8/D3*%
X26990000Y-15357000D03*
%TO.P,J3,I9*%
%TO.N,GND*%
X16450000Y-21817000D03*
%TO.P,J3,I10*%
%TO.N,/OutputShift/Out0*%
X18990000Y-21817000D03*
%TO.P,J3,I11*%
%TO.N,GND*%
X26100000Y-21817000D03*
%TO.P,J3,I12*%
%TO.N,/OutputShift/Out1*%
X28640000Y-21817000D03*
%TO.P,J3,J1*%
%TO.N,/RJ45/SchieberegisterInput9/D4*%
X26990000Y-9117000D03*
%TO.P,J3,J2*%
%TO.N,/RJ45/SchieberegisterInput9/D5*%
X25720000Y-11657000D03*
%TO.P,J3,J3*%
%TO.N,/RJ45/SchieberegisterInput9/D6*%
X24450000Y-9117000D03*
%TO.P,J3,J4*%
%TO.N,/RJ45/SchieberegisterInput9/D7*%
X23180000Y-11657000D03*
%TO.P,J3,J5*%
%TO.N,/RJ45/SchieberegisterInput9/D0*%
X21910000Y-9117000D03*
%TO.P,J3,J6*%
%TO.N,/RJ45/SchieberegisterInput9/D1*%
X20640000Y-11657000D03*
%TO.P,J3,J7*%
%TO.N,/RJ45/SchieberegisterInput9/D2*%
X19370000Y-9117000D03*
%TO.P,J3,J8*%
%TO.N,/RJ45/SchieberegisterInput9/D3*%
X18100000Y-11657000D03*
%TO.P,J3,J9*%
%TO.N,GND*%
X12500000Y-2177000D03*
%TO.P,J3,J10*%
%TO.N,/OutputShift/Out2*%
X15040000Y-2177000D03*
%TO.P,J3,J11*%
%TO.N,GND*%
X26470000Y-2177000D03*
%TO.P,J3,J12*%
%TO.N,/OutputShift/Out3*%
X29010000Y-2177000D03*
%TO.P,J3,K1*%
%TO.N,/RJ45/SchieberegisterInput10/D4*%
X4130000Y-17897000D03*
%TO.P,J3,K2*%
%TO.N,/RJ45/SchieberegisterInput10/D5*%
X5400000Y-15357000D03*
%TO.P,J3,K3*%
%TO.N,/RJ45/SchieberegisterInput10/D6*%
X6670000Y-17897000D03*
%TO.P,J3,K4*%
%TO.N,/RJ45/SchieberegisterInput10/D7*%
X7940000Y-15357000D03*
%TO.P,J3,K5*%
%TO.N,/RJ45/SchieberegisterInput10/D0*%
X9210000Y-17897000D03*
%TO.P,J3,K6*%
%TO.N,/RJ45/SchieberegisterInput10/D1*%
X10480000Y-15357000D03*
%TO.P,J3,K7*%
%TO.N,/RJ45/SchieberegisterInput10/D2*%
X11750000Y-17897000D03*
%TO.P,J3,K8*%
%TO.N,/RJ45/SchieberegisterInput10/D3*%
X13020000Y-15357000D03*
%TO.P,J3,K9*%
%TO.N,GND*%
X2480000Y-21817000D03*
%TO.P,J3,K10*%
%TO.N,/OutputShift/Out4*%
X5020000Y-21817000D03*
%TO.P,J3,K11*%
%TO.N,GND*%
X12130000Y-21817000D03*
%TO.P,J3,K12*%
%TO.N,/OutputShift/Out5*%
X14670000Y-21817000D03*
%TO.P,J3,L1*%
%TO.N,/RJ45/SchieberegisterInput11/D4*%
X13020000Y-9117000D03*
%TO.P,J3,L2*%
%TO.N,/RJ45/SchieberegisterInput11/D5*%
X11750000Y-11657000D03*
%TO.P,J3,L3*%
%TO.N,/RJ45/SchieberegisterInput11/D6*%
X10480000Y-9117000D03*
%TO.P,J3,L4*%
%TO.N,/RJ45/SchieberegisterInput11/D7*%
X9210000Y-11657000D03*
%TO.P,J3,L5*%
%TO.N,/RJ45/SchieberegisterInput11/D0*%
X7940000Y-9117000D03*
%TO.P,J3,L6*%
%TO.N,/RJ45/SchieberegisterInput11/D1*%
X6670000Y-11657000D03*
%TO.P,J3,L7*%
%TO.N,/RJ45/SchieberegisterInput11/D2*%
X5400000Y-9117000D03*
%TO.P,J3,L8*%
%TO.N,/RJ45/SchieberegisterInput11/D3*%
X4130000Y-11657000D03*
%TO.P,J3,L9*%
%TO.N,GND*%
X2110000Y-3957000D03*
%TO.P,J3,L10*%
%TO.N,/OutputShift/Out6*%
X4650000Y-3957000D03*
%TO.P,J3,L11*%
%TO.N,GND*%
X16080000Y-3957000D03*
%TO.P,J3,L12*%
%TO.N,/OutputShift/Out7*%
X18620000Y-3957000D03*
%TD*%
D10*
%TO.P,R129,1*%
%TO.N,Net-(U12-~{CE})*%
X28829000Y-29970000D03*
%TO.P,R129,2*%
%TO.N,GND*%
X28829000Y-30990000D03*
%TD*%
D11*
%TO.P,R106,1*%
%TO.N,+5V*%
X3477696Y-35556000D03*
%TO.P,R106,2*%
%TO.N,/RJ45/SchieberegisterInput10/D6*%
X3477696Y-34536000D03*
%TD*%
%TO.P,R86,1*%
%TO.N,+5V*%
X31544696Y-49405000D03*
%TO.P,R86,2*%
%TO.N,/RJ45/SchieberegisterInput7/D2*%
X31544696Y-48385000D03*
%TD*%
D10*
%TO.P,R119,1*%
%TO.N,+5V*%
X3477696Y-46097000D03*
%TO.P,R119,2*%
%TO.N,/RJ45/SchieberegisterInput11/D1*%
X3477696Y-47117000D03*
%TD*%
D11*
%TO.P,R3,1*%
%TO.N,Net-(U1-QC)*%
X45466000Y-63213000D03*
%TO.P,R3,2*%
%TO.N,/OutputShift1/Out2*%
X45466000Y-62193000D03*
%TD*%
%TO.P,R69,1*%
%TO.N,+5V*%
X45260696Y-51691000D03*
%TO.P,R69,2*%
%TO.N,/RJ45/SchieberegisterInput5/D3*%
X45260696Y-50671000D03*
%TD*%
D12*
%TO.P,U15,1,~{PL}_1*%
%TO.N,Data_Latch*%
X11732696Y-52191000D03*
%TO.P,U15,2,CP_2*%
%TO.N,Data_Clk*%
X11732696Y-50921000D03*
%TO.P,U15,3,D4_3*%
%TO.N,/RJ45/SchieberegisterInput11/D4*%
X11732696Y-49651000D03*
%TO.P,U15,4,D5_4*%
%TO.N,/RJ45/SchieberegisterInput11/D5*%
X11732696Y-48381000D03*
%TO.P,U15,5,D6_5*%
%TO.N,/RJ45/SchieberegisterInput11/D6*%
X11732696Y-47111000D03*
%TO.P,U15,6,D7_6*%
%TO.N,/RJ45/SchieberegisterInput11/D7*%
X11732696Y-45841000D03*
%TO.P,U15,7,~{Q7}_7*%
%TO.N,unconnected-(U15-~{Q7}-Pad7)*%
X11732696Y-44571000D03*
%TO.P,U15,8,GND_8*%
%TO.N,GND*%
X11732696Y-43301000D03*
%TO.P,U15,9,Q7_9*%
%TO.N,Data_Output*%
X5232696Y-43301000D03*
%TO.P,U15,10,DS_10*%
%TO.N,/RJ45/SchieberegisterInput10/Out*%
X5232696Y-44571000D03*
%TO.P,U15,11,D0_11*%
%TO.N,/RJ45/SchieberegisterInput11/D0*%
X5232696Y-45841000D03*
%TO.P,U15,12,D1_12*%
%TO.N,/RJ45/SchieberegisterInput11/D1*%
X5232696Y-47111000D03*
%TO.P,U15,13,D2_13*%
%TO.N,/RJ45/SchieberegisterInput11/D2*%
X5232696Y-48381000D03*
%TO.P,U15,14,D3_14*%
%TO.N,/RJ45/SchieberegisterInput11/D3*%
X5232696Y-49651000D03*
%TO.P,U15,15,~{CE}_15*%
%TO.N,Net-(U15-~{CE})*%
X5232696Y-50921000D03*
%TO.P,U15,16,VCC_16*%
%TO.N,+5V*%
X5232696Y-52191000D03*
%TD*%
D11*
%TO.P,R23,1*%
%TO.N,Net-(U3-QG)*%
X60325000Y-63261000D03*
%TO.P,R23,2*%
%TO.N,/OutputShift2/Out6*%
X60325000Y-62241000D03*
%TD*%
D10*
%TO.P,R107,1*%
%TO.N,+5V*%
X3477696Y-32250000D03*
%TO.P,R107,2*%
%TO.N,/RJ45/SchieberegisterInput10/D5*%
X3477696Y-33270000D03*
%TD*%
D11*
%TO.P,R112,1*%
%TO.N,+5V*%
X13510696Y-37842000D03*
%TO.P,R112,2*%
%TO.N,/RJ45/SchieberegisterInput10/D0*%
X13510696Y-36822000D03*
%TD*%
%TO.P,R73,1*%
%TO.N,+5V*%
X31544696Y-37842000D03*
%TO.P,R73,2*%
%TO.N,/RJ45/SchieberegisterInput6/D7*%
X31544696Y-36822000D03*
%TD*%
D13*
%TO.P,U3,1,QB_1*%
%TO.N,Net-(U3-QB)*%
X67945000Y-65251000D03*
%TO.P,U3,2,QC_2*%
%TO.N,Net-(U3-QC)*%
X66675000Y-65251000D03*
%TO.P,U3,3,QD_3*%
%TO.N,Net-(U3-QD)*%
X65405000Y-65251000D03*
%TO.P,U3,4,QE_4*%
%TO.N,Net-(U3-QE)*%
X64135000Y-65251000D03*
%TO.P,U3,5,QF_5*%
%TO.N,Net-(U3-QF)*%
X62865000Y-65251000D03*
%TO.P,U3,6,QG_6*%
%TO.N,Net-(U3-QG)*%
X61595000Y-65251000D03*
%TO.P,U3,7,QH_7*%
%TO.N,Net-(U3-QH)*%
X60325000Y-65251000D03*
%TO.P,U3,8,GND_8*%
%TO.N,GND*%
X59055000Y-65251000D03*
%TO.P,U3,9,QH'_9*%
%TO.N,Led_Out*%
X59055000Y-71751000D03*
%TO.P,U3,10,~{SRCLR}_10*%
%TO.N,Net-(U3-~{SRCLR})*%
X60325000Y-71751000D03*
%TO.P,U3,11,SRCLK_11*%
%TO.N,Led_Clk*%
X61595000Y-71751000D03*
%TO.P,U3,12,RCLK_12*%
%TO.N,Led_Latch*%
X62865000Y-71751000D03*
%TO.P,U3,13,~{OE}_13*%
%TO.N,Led_OE*%
X64135000Y-71751000D03*
%TO.P,U3,14,SER_14*%
%TO.N,/OutputShift1/out*%
X65405000Y-71751000D03*
%TO.P,U3,15,QA_15*%
%TO.N,Net-(U3-QA)*%
X66675000Y-71751000D03*
%TO.P,U3,16,VCC_16*%
%TO.N,+5V*%
X67945000Y-71751000D03*
%TD*%
D10*
%TO.P,R42,1*%
%TO.N,+5V*%
X82985696Y-46099000D03*
%TO.P,R42,2*%
%TO.N,/RJ45/SchieberegisterInput1/D6*%
X82985696Y-47119000D03*
%TD*%
D11*
%TO.P,R6,1*%
%TO.N,Net-(U1-QF)*%
X41656000Y-63213000D03*
%TO.P,R6,2*%
%TO.N,/OutputShift1/Out5*%
X41656000Y-62193000D03*
%TD*%
D10*
%TO.P,R47,1*%
%TO.N,+5V*%
X73079696Y-46097000D03*
%TO.P,R47,2*%
%TO.N,/RJ45/SchieberegisterInput1/D1*%
X73079696Y-47117000D03*
%TD*%
%TO.P,R88,1*%
%TO.N,+5V*%
X31544696Y-43813000D03*
%TO.P,R88,2*%
%TO.N,/RJ45/SchieberegisterInput7/D0*%
X31544696Y-44833000D03*
%TD*%
D15*
%TO.P,C67,1*%
%TO.N,+5V*%
X33401000Y-53975000D03*
%TO.P,C67,2*%
%TO.N,GND*%
X34361000Y-53975000D03*
%TD*%
D11*
%TO.P,R25,1*%
%TO.N,+5V*%
X73067696Y-37842000D03*
%TO.P,R25,2*%
%TO.N,/RJ45/SchieberegisterInput/D7*%
X73067696Y-36822000D03*
%TD*%
D10*
%TO.P,R135,1*%
%TO.N,Net-(U3-~{SRCLR})*%
X60325000Y-73404000D03*
%TO.P,R135,2*%
%TO.N,+5V*%
X60325000Y-74424000D03*
%TD*%
%TO.P,R134,1*%
%TO.N,Net-(U2-~{SRCLR})*%
X20828000Y-73023000D03*
%TO.P,R134,2*%
%TO.N,+5V*%
X20828000Y-74043000D03*
%TD*%
D11*
%TO.P,R89,1*%
%TO.N,+5V*%
X17701696Y-37848000D03*
%TO.P,R89,2*%
%TO.N,/RJ45/SchieberegisterInput8/D7*%
X17701696Y-36828000D03*
%TD*%
D10*
%TO.P,R38,1*%
%TO.N,+5V*%
X69644696Y-32250000D03*
%TO.P,R38,2*%
%TO.N,/RJ45/SchieberegisterInput2/D2*%
X69644696Y-33270000D03*
%TD*%
D11*
%TO.P,R115,1*%
%TO.N,+5V*%
X13510696Y-49405000D03*
%TO.P,R115,2*%
%TO.N,/RJ45/SchieberegisterInput11/D5*%
X13510696Y-48385000D03*
%TD*%
D15*
%TO.P,C31,1*%
%TO.N,+5V*%
X47018000Y-53975000D03*
%TO.P,C31,2*%
%TO.N,GND*%
X47978000Y-53975000D03*
%TD*%
D24*
%TO.P,J1,1,Pin_1_1*%
%TO.N,+5V*%
X80500000Y-62000000D03*
%TO.P,J1,2,Pin_2_2*%
%TO.N,Data_Input*%
X80500000Y-64000000D03*
%TO.P,J1,3,Pin_3_3*%
%TO.N,Data_Latch*%
X80500000Y-66000000D03*
%TO.P,J1,4,Pin_4_4*%
%TO.N,Data_Clk*%
X80500000Y-68000000D03*
%TO.P,J1,5,Pin_5_5*%
%TO.N,Led_Out*%
X80500000Y-70000000D03*
%TO.P,J1,6,Pin_6_6*%
%TO.N,Led_OE*%
X80500000Y-72000000D03*
%TO.P,J1,7,Pin_7_7*%
%TO.N,Led_Latch*%
X80500000Y-74000000D03*
%TO.P,J1,8,Pin_8_8*%
%TO.N,Led_Clk*%
X80500000Y-76000000D03*
%TO.P,J1,9,Pin_9_9*%
%TO.N,GND*%
X80500000Y-78000000D03*
D25*
%TO.P,J1,MP*%
%TO.N,N/C*%
X82750000Y-59600000D03*
X82750000Y-80400000D03*
%TD*%
D10*
%TO.P,R92,1*%
%TO.N,+5V*%
X17701696Y-29970000D03*
%TO.P,R92,2*%
%TO.N,/RJ45/SchieberegisterInput8/D4*%
X17701696Y-30990000D03*
%TD*%
D11*
%TO.P,R95,1*%
%TO.N,+5V*%
X27734696Y-35562000D03*
%TO.P,R95,2*%
%TO.N,/RJ45/SchieberegisterInput8/D1*%
X27734696Y-34542000D03*
%TD*%
D10*
%TO.P,R81,1*%
%TO.N,+5V*%
X41704696Y-43813000D03*
%TO.P,R81,2*%
%TO.N,/RJ45/SchieberegisterInput7/D7*%
X41704696Y-44833000D03*
%TD*%
D20*
%TO.P,R128,1*%
%TO.N,Net-(U11-~{CE})*%
X36959000Y-53975000D03*
%TO.P,R128,2*%
%TO.N,GND*%
X35939000Y-53975000D03*
%TD*%
D15*
%TO.P,C22,1*%
%TO.N,+5V*%
X74780696Y-53975000D03*
%TO.P,C22,2*%
%TO.N,GND*%
X75740696Y-53975000D03*
%TD*%
D11*
%TO.P,R70,1*%
%TO.N,+5V*%
X45260696Y-49405000D03*
%TO.P,R70,2*%
%TO.N,/RJ45/SchieberegisterInput5/D2*%
X45260696Y-48385000D03*
%TD*%
D15*
%TO.P,C58,1*%
%TO.N,+5V*%
X39954696Y-28067000D03*
%TO.P,C58,2*%
%TO.N,GND*%
X40914696Y-28067000D03*
%TD*%
D11*
%TO.P,R10,1*%
%TO.N,Net-(U2-QB)*%
X27178000Y-62959000D03*
%TO.P,R10,2*%
%TO.N,/OutputShift/Out1*%
X27178000Y-61939000D03*
%TD*%
D12*
%TO.P,U9,1,~{PL}_1*%
%TO.N,Data_Latch*%
X53590696Y-52191000D03*
%TO.P,U9,2,CP_2*%
%TO.N,Data_Clk*%
X53590696Y-50921000D03*
%TO.P,U9,3,D4_3*%
%TO.N,/RJ45/SchieberegisterInput5/D4*%
X53590696Y-49651000D03*
%TO.P,U9,4,D5_4*%
%TO.N,/RJ45/SchieberegisterInput5/D5*%
X53590696Y-48381000D03*
%TO.P,U9,5,D6_5*%
%TO.N,/RJ45/SchieberegisterInput5/D6*%
X53590696Y-47111000D03*
%TO.P,U9,6,D7_6*%
%TO.N,/RJ45/SchieberegisterInput5/D7*%
X53590696Y-45841000D03*
%TO.P,U9,7,~{Q7}_7*%
%TO.N,unconnected-(U9-~{Q7}-Pad7)*%
X53590696Y-44571000D03*
%TO.P,U9,8,GND_8*%
%TO.N,GND*%
X53590696Y-43301000D03*
%TO.P,U9,9,Q7_9*%
%TO.N,/RJ45/SchieberegisterInput5/Out*%
X47090696Y-43301000D03*
%TO.P,U9,10,DS_10*%
%TO.N,/RJ45/SchieberegisterInput4/Out*%
X47090696Y-44571000D03*
%TO.P,U9,11,D0_11*%
%TO.N,/RJ45/SchieberegisterInput5/D0*%
X47090696Y-45841000D03*
%TO.P,U9,12,D1_12*%
%TO.N,/RJ45/SchieberegisterInput5/D1*%
X47090696Y-47111000D03*
%TO.P,U9,13,D2_13*%
%TO.N,/RJ45/SchieberegisterInput5/D2*%
X47090696Y-48381000D03*
%TO.P,U9,14,D3_14*%
%TO.N,/RJ45/SchieberegisterInput5/D3*%
X47090696Y-49651000D03*
%TO.P,U9,15,~{CE}_15*%
%TO.N,Net-(U9-~{CE})*%
X47090696Y-50921000D03*
%TO.P,U9,16,VCC_16*%
%TO.N,+5V*%
X47090696Y-52191000D03*
%TD*%
D11*
%TO.P,R13,1*%
%TO.N,Net-(U2-QE)*%
X23368000Y-62959000D03*
%TO.P,R13,2*%
%TO.N,/OutputShift/Out4*%
X23368000Y-61939000D03*
%TD*%
D10*
%TO.P,R77,1*%
%TO.N,+5V*%
X41704696Y-29964000D03*
%TO.P,R77,2*%
%TO.N,/RJ45/SchieberegisterInput6/D3*%
X41704696Y-30984000D03*
%TD*%
%TO.P,R125,1*%
%TO.N,Net-(U8-~{CE})*%
X56515000Y-29970000D03*
%TO.P,R125,2*%
%TO.N,GND*%
X56515000Y-30990000D03*
%TD*%
D11*
%TO.P,R5,1*%
%TO.N,Net-(U1-QE)*%
X42926000Y-63213000D03*
%TO.P,R5,2*%
%TO.N,/OutputShift1/Out4*%
X42926000Y-62193000D03*
%TD*%
%TO.P,R8,1*%
%TO.N,Net-(U1-QH)*%
X39116000Y-63213000D03*
%TO.P,R8,2*%
%TO.N,/OutputShift1/Out7*%
X39116000Y-62193000D03*
%TD*%
D10*
%TO.P,R104,1*%
%TO.N,+5V*%
X17701696Y-43813000D03*
%TO.P,R104,2*%
%TO.N,/RJ45/SchieberegisterInput9/D0*%
X17701696Y-44833000D03*
%TD*%
D14*
%TO.P,U10,1,~{PL}_1*%
%TO.N,Data_Latch*%
X33374696Y-29458000D03*
%TO.P,U10,2,CP_2*%
%TO.N,Data_Clk*%
X33374696Y-30728000D03*
%TO.P,U10,3,D4_3*%
%TO.N,/RJ45/SchieberegisterInput6/D4*%
X33374696Y-31998000D03*
%TO.P,U10,4,D5_4*%
%TO.N,/RJ45/SchieberegisterInput6/D5*%
X33374696Y-33268000D03*
%TO.P,U10,5,D6_5*%
%TO.N,/RJ45/SchieberegisterInput6/D6*%
X33374696Y-34538000D03*
%TO.P,U10,6,D7_6*%
%TO.N,/RJ45/SchieberegisterInput6/D7*%
X33374696Y-35808000D03*
%TO.P,U10,7,~{Q7}_7*%
%TO.N,unconnected-(U10-~{Q7}-Pad7)*%
X33374696Y-37078000D03*
%TO.P,U10,8,GND_8*%
%TO.N,GND*%
X33374696Y-38348000D03*
%TO.P,U10,9,Q7_9*%
%TO.N,/RJ45/SchieberegisterInput6/Out*%
X39874696Y-38348000D03*
%TO.P,U10,10,DS_10*%
%TO.N,/RJ45/SchieberegisterInput5/Out*%
X39874696Y-37078000D03*
%TO.P,U10,11,D0_11*%
%TO.N,/RJ45/SchieberegisterInput6/D0*%
X39874696Y-35808000D03*
%TO.P,U10,12,D1_12*%
%TO.N,/RJ45/SchieberegisterInput6/D1*%
X39874696Y-34538000D03*
%TO.P,U10,13,D2_13*%
%TO.N,/RJ45/SchieberegisterInput6/D2*%
X39874696Y-33268000D03*
%TO.P,U10,14,D3_14*%
%TO.N,/RJ45/SchieberegisterInput6/D3*%
X39874696Y-31998000D03*
%TO.P,U10,15,~{CE}_15*%
%TO.N,Net-(U10-~{CE})*%
X39874696Y-30728000D03*
%TO.P,U10,16,VCC_16*%
%TO.N,+5V*%
X39874696Y-29458000D03*
%TD*%
D10*
%TO.P,R87,1*%
%TO.N,+5V*%
X31544696Y-46097000D03*
%TO.P,R87,2*%
%TO.N,/RJ45/SchieberegisterInput7/D1*%
X31544696Y-47117000D03*
%TD*%
%TO.P,R49,1*%
%TO.N,+5V*%
X69644696Y-43813000D03*
%TO.P,R49,2*%
%TO.N,/RJ45/SchieberegisterInput3/D7*%
X69644696Y-44833000D03*
%TD*%
D11*
%TO.P,R31,1*%
%TO.N,+5V*%
X82973696Y-35556000D03*
%TO.P,R31,2*%
%TO.N,/RJ45/SchieberegisterInput/D1*%
X82973696Y-34536000D03*
%TD*%
%TO.P,R16,1*%
%TO.N,Net-(U2-QH)*%
X19558000Y-62959000D03*
%TO.P,R16,2*%
%TO.N,/OutputShift/Out7*%
X19558000Y-61939000D03*
%TD*%
%TO.P,R4,1*%
%TO.N,Net-(U1-QD)*%
X44196000Y-63213000D03*
%TO.P,R4,2*%
%TO.N,/OutputShift1/Out3*%
X44196000Y-62193000D03*
%TD*%
D15*
%TO.P,C40,1*%
%TO.N,+5V*%
X67818000Y-27934000D03*
%TO.P,C40,2*%
%TO.N,GND*%
X68778000Y-27934000D03*
%TD*%
D11*
%TO.P,R12,1*%
%TO.N,Net-(U2-QD)*%
X24638000Y-62959000D03*
%TO.P,R12,2*%
%TO.N,/OutputShift/Out3*%
X24638000Y-61939000D03*
%TD*%
D20*
%TO.P,R124,1*%
%TO.N,Net-(U7-~{CE})*%
X64899000Y-53975000D03*
%TO.P,R124,2*%
%TO.N,GND*%
X63879000Y-53975000D03*
%TD*%
D10*
%TO.P,R120,1*%
%TO.N,+5V*%
X3477696Y-43813000D03*
%TO.P,R120,2*%
%TO.N,/RJ45/SchieberegisterInput11/D0*%
X3477696Y-44833000D03*
%TD*%
D12*
%TO.P,U11,1,~{PL}_1*%
%TO.N,Data_Latch*%
X39874696Y-52191000D03*
%TO.P,U11,2,CP_2*%
%TO.N,Data_Clk*%
X39874696Y-50921000D03*
%TO.P,U11,3,D4_3*%
%TO.N,/RJ45/SchieberegisterInput7/D4*%
X39874696Y-49651000D03*
%TO.P,U11,4,D5_4*%
%TO.N,/RJ45/SchieberegisterInput7/D5*%
X39874696Y-48381000D03*
%TO.P,U11,5,D6_5*%
%TO.N,/RJ45/SchieberegisterInput7/D6*%
X39874696Y-47111000D03*
%TO.P,U11,6,D7_6*%
%TO.N,/RJ45/SchieberegisterInput7/D7*%
X39874696Y-45841000D03*
%TO.P,U11,7,~{Q7}_7*%
%TO.N,unconnected-(U11-~{Q7}-Pad7)*%
X39874696Y-44571000D03*
%TO.P,U11,8,GND_8*%
%TO.N,GND*%
X39874696Y-43301000D03*
%TO.P,U11,9,Q7_9*%
%TO.N,/RJ45/SchieberegisterInput7/Out*%
X33374696Y-43301000D03*
%TO.P,U11,10,DS_10*%
%TO.N,/RJ45/SchieberegisterInput6/Out*%
X33374696Y-44571000D03*
%TO.P,U11,11,D0_11*%
%TO.N,/RJ45/SchieberegisterInput7/D0*%
X33374696Y-45841000D03*
%TO.P,U11,12,D1_12*%
%TO.N,/RJ45/SchieberegisterInput7/D1*%
X33374696Y-47111000D03*
%TO.P,U11,13,D2_13*%
%TO.N,/RJ45/SchieberegisterInput7/D2*%
X33374696Y-48381000D03*
%TO.P,U11,14,D3_14*%
%TO.N,/RJ45/SchieberegisterInput7/D3*%
X33374696Y-49651000D03*
%TO.P,U11,15,~{CE}_15*%
%TO.N,Net-(U11-~{CE})*%
X33374696Y-50921000D03*
%TO.P,U11,16,VCC_16*%
%TO.N,+5V*%
X33374696Y-52191000D03*
%TD*%
D10*
%TO.P,R131,1*%
%TO.N,Net-(U14-~{CE})*%
X14605000Y-29970000D03*
%TO.P,R131,2*%
%TO.N,GND*%
X14605000Y-30990000D03*
%TD*%
%TO.P,R76,1*%
%TO.N,+5V*%
X31544696Y-29964000D03*
%TO.P,R76,2*%
%TO.N,/RJ45/SchieberegisterInput6/D4*%
X31544696Y-30984000D03*
%TD*%
%TO.P,R41,1*%
%TO.N,+5V*%
X82985696Y-43813000D03*
%TO.P,R41,2*%
%TO.N,/RJ45/SchieberegisterInput1/D7*%
X82985696Y-44833000D03*
%TD*%
D20*
%TO.P,R123,1*%
%TO.N,Net-(U5-~{CE})*%
X75821000Y-55626000D03*
%TO.P,R123,2*%
%TO.N,GND*%
X74801000Y-55626000D03*
%TD*%
D11*
%TO.P,R63,1*%
%TO.N,+5V*%
X55420696Y-35556000D03*
%TO.P,R63,2*%
%TO.N,/RJ45/SchieberegisterInput4/D1*%
X55420696Y-34536000D03*
%TD*%
D10*
%TO.P,R56,1*%
%TO.N,+5V*%
X59484696Y-43813000D03*
%TO.P,R56,2*%
%TO.N,/RJ45/SchieberegisterInput3/D0*%
X59484696Y-44833000D03*
%TD*%
D11*
%TO.P,R39,1*%
%TO.N,+5V*%
X69644696Y-35556000D03*
%TO.P,R39,2*%
%TO.N,/RJ45/SchieberegisterInput2/D1*%
X69644696Y-34536000D03*
%TD*%
%TO.P,R1,1*%
%TO.N,Net-(U1-QA)*%
X48006000Y-63213000D03*
%TO.P,R1,2*%
%TO.N,/OutputShift1/Out0*%
X48006000Y-62193000D03*
%TD*%
D10*
%TO.P,R72,1*%
%TO.N,+5V*%
X45260696Y-43813000D03*
%TO.P,R72,2*%
%TO.N,/RJ45/SchieberegisterInput5/D0*%
X45260696Y-44833000D03*
%TD*%
D11*
%TO.P,R64,1*%
%TO.N,+5V*%
X55420696Y-37842000D03*
%TO.P,R64,2*%
%TO.N,/RJ45/SchieberegisterInput4/D0*%
X55420696Y-36822000D03*
%TD*%
D15*
%TO.P,C85,1*%
%TO.N,+5V*%
X19380696Y-53975000D03*
%TO.P,C85,2*%
%TO.N,GND*%
X20340696Y-53975000D03*
%TD*%
D10*
%TO.P,R75,1*%
%TO.N,+5V*%
X31544696Y-32250000D03*
%TO.P,R75,2*%
%TO.N,/RJ45/SchieberegisterInput6/D5*%
X31544696Y-33270000D03*
%TD*%
D20*
%TO.P,R130,1*%
%TO.N,Net-(U13-~{CE})*%
X22989000Y-53975000D03*
%TO.P,R130,2*%
%TO.N,GND*%
X21969000Y-53975000D03*
%TD*%
D11*
%TO.P,R96,1*%
%TO.N,+5V*%
X27734696Y-37848000D03*
%TO.P,R96,2*%
%TO.N,/RJ45/SchieberegisterInput8/D0*%
X27734696Y-36828000D03*
%TD*%
%TO.P,R18,1*%
%TO.N,Net-(U3-QB)*%
X66675000Y-63261000D03*
%TO.P,R18,2*%
%TO.N,/OutputShift2/Out1*%
X66675000Y-62241000D03*
%TD*%
D10*
%TO.P,R91,1*%
%TO.N,+5V*%
X17701696Y-32256000D03*
%TO.P,R91,2*%
%TO.N,/RJ45/SchieberegisterInput8/D5*%
X17701696Y-33276000D03*
%TD*%
D11*
%TO.P,R19,1*%
%TO.N,Net-(U3-QC)*%
X65405000Y-63261000D03*
%TO.P,R19,2*%
%TO.N,/OutputShift2/Out2*%
X65405000Y-62241000D03*
%TD*%
D10*
%TO.P,R97,1*%
%TO.N,+5V*%
X27734696Y-43813000D03*
%TO.P,R97,2*%
%TO.N,/RJ45/SchieberegisterInput9/D7*%
X27734696Y-44833000D03*
%TD*%
D15*
%TO.P,C49,1*%
%TO.N,+5V*%
X53594000Y-27934000D03*
%TO.P,C49,2*%
%TO.N,GND*%
X54554000Y-27934000D03*
%TD*%
D11*
%TO.P,R54,1*%
%TO.N,+5V*%
X59484696Y-49405000D03*
%TO.P,R54,2*%
%TO.N,/RJ45/SchieberegisterInput3/D2*%
X59484696Y-48385000D03*
%TD*%
D14*
%TO.P,U14,1,~{PL}_1*%
%TO.N,Data_Latch*%
X5232696Y-29458000D03*
%TO.P,U14,2,CP_2*%
%TO.N,Data_Clk*%
X5232696Y-30728000D03*
%TO.P,U14,3,D4_3*%
%TO.N,/RJ45/SchieberegisterInput10/D4*%
X5232696Y-31998000D03*
%TO.P,U14,4,D5_4*%
%TO.N,/RJ45/SchieberegisterInput10/D5*%
X5232696Y-33268000D03*
%TO.P,U14,5,D6_5*%
%TO.N,/RJ45/SchieberegisterInput10/D6*%
X5232696Y-34538000D03*
%TO.P,U14,6,D7_6*%
%TO.N,/RJ45/SchieberegisterInput10/D7*%
X5232696Y-35808000D03*
%TO.P,U14,7,~{Q7}_7*%
%TO.N,unconnected-(U14-~{Q7}-Pad7)*%
X5232696Y-37078000D03*
%TO.P,U14,8,GND_8*%
%TO.N,GND*%
X5232696Y-38348000D03*
%TO.P,U14,9,Q7_9*%
%TO.N,/RJ45/SchieberegisterInput10/Out*%
X11732696Y-38348000D03*
%TO.P,U14,10,DS_10*%
%TO.N,/RJ45/SchieberegisterInput10/In*%
X11732696Y-37078000D03*
%TO.P,U14,11,D0_11*%
%TO.N,/RJ45/SchieberegisterInput10/D0*%
X11732696Y-35808000D03*
%TO.P,U14,12,D1_12*%
%TO.N,/RJ45/SchieberegisterInput10/D1*%
X11732696Y-34538000D03*
%TO.P,U14,13,D2_13*%
%TO.N,/RJ45/SchieberegisterInput10/D2*%
X11732696Y-33268000D03*
%TO.P,U14,14,D3_14*%
%TO.N,/RJ45/SchieberegisterInput10/D3*%
X11732696Y-31998000D03*
%TO.P,U14,15,~{CE}_15*%
%TO.N,Net-(U14-~{CE})*%
X11732696Y-30728000D03*
%TO.P,U14,16,VCC_16*%
%TO.N,+5V*%
X11732696Y-29458000D03*
%TD*%
D26*
%TO.N,+5V*%
X82985696Y-45593000D03*
X55420696Y-28858000D03*
X59443431Y-31791265D03*
X3477696Y-52451000D03*
X74780696Y-54681000D03*
X27607696Y-31760000D03*
X73067696Y-38484915D03*
X73073696Y-52797000D03*
X31590396Y-49901000D03*
X82973696Y-31623000D03*
X55461961Y-31791265D03*
X25956696Y-27178000D03*
X17747396Y-49901000D03*
X73067696Y-28829000D03*
D27*
X67818000Y-27305000D03*
D26*
X27734696Y-52797000D03*
X55420696Y-38481000D03*
X73067696Y-36195000D03*
X55466396Y-49901000D03*
X3477696Y-38481000D03*
X13510696Y-52797000D03*
X3477696Y-45603000D03*
X41704696Y-43053000D03*
X31544696Y-52832000D03*
X3474781Y-36052000D03*
X82985696Y-43307000D03*
X82985696Y-49911000D03*
X69637196Y-49901000D03*
D27*
X46355000Y-53975000D03*
D26*
X73079696Y-43307000D03*
X5128696Y-54737000D03*
X69644696Y-43180000D03*
X17701696Y-52797000D03*
X45227422Y-31799255D03*
X59484696Y-52797000D03*
X14732000Y-28702000D03*
X3477696Y-43307000D03*
X70750000Y-71751000D03*
X41704696Y-52797000D03*
X73067696Y-31617509D03*
X82973696Y-29337000D03*
X45260696Y-38608000D03*
X41697196Y-49901000D03*
X27734696Y-45603000D03*
X31574290Y-35943876D03*
X13560028Y-36052000D03*
X41768627Y-36037401D03*
X3489677Y-31754000D03*
X31544696Y-28829000D03*
X59484696Y-28858000D03*
X13510696Y-43180000D03*
X59484696Y-49901000D03*
X55484627Y-36037401D03*
X17747396Y-36058000D03*
X58166000Y-73533000D03*
X73079696Y-49976000D03*
X55420696Y-45603000D03*
X17701696Y-31760000D03*
X45260696Y-43180000D03*
X3477696Y-29337000D03*
X81929696Y-27336000D03*
X69652196Y-45603000D03*
X73079696Y-45593000D03*
X30480000Y-71474000D03*
X27734696Y-43307000D03*
X45260696Y-52797000D03*
X59484696Y-38481000D03*
X82973696Y-35941000D03*
X3523396Y-49901000D03*
D27*
X32200988Y-53975000D03*
D26*
X69661111Y-31822115D03*
X17701696Y-45603000D03*
X13510696Y-45603000D03*
X7239000Y-60579000D03*
X27734696Y-49901000D03*
X17701696Y-28829000D03*
X59484696Y-43307000D03*
X45214996Y-45603000D03*
X13510696Y-38481000D03*
X31498996Y-45603000D03*
X11732696Y-27305000D03*
X82973696Y-38348000D03*
X17701696Y-43180000D03*
D27*
X53594000Y-27305000D03*
D26*
X55420696Y-52797000D03*
X69644696Y-52797000D03*
X17701696Y-38481000D03*
X45260696Y-49901000D03*
X45260696Y-28858000D03*
X41743961Y-31793265D03*
X41658996Y-45603000D03*
X20191000Y-74043000D03*
X41704696Y-28829000D03*
X80391000Y-60960000D03*
X82985696Y-52197000D03*
X13518196Y-31760000D03*
D27*
X60189696Y-53975000D03*
D26*
X31484367Y-31772201D03*
X45213431Y-36020735D03*
X69644696Y-38481000D03*
X31544696Y-43180000D03*
X27607696Y-36058000D03*
X41704696Y-38735000D03*
X39624000Y-72992100D03*
X48387000Y-73406000D03*
X59470097Y-35988069D03*
X31544696Y-38608000D03*
D27*
X18390000Y-53975000D03*
D26*
X59484696Y-45603000D03*
X55420696Y-43180000D03*
X69691961Y-36020735D03*
X39926696Y-27178000D03*
X69644696Y-28858000D03*
X13556396Y-49901000D03*
X28369696Y-37846000D03*
%TO.N,/OutputShift2/Out5*%
X61595000Y-57912000D03*
%TO.N,/OutputShift2/Out7*%
X59055000Y-58547000D03*
%TO.N,/RJ45/SchieberegisterInput1/D4*%
X80081659Y-49656726D03*
%TO.N,Data_Latch*%
X38656696Y-52197000D03*
X66596696Y-52197000D03*
X24686696Y-52197000D03*
X75861696Y-29458000D03*
X10462696Y-52197000D03*
X4191000Y-29464000D03*
X60198000Y-29458000D03*
X32258000Y-29458000D03*
X52372696Y-52197000D03*
X80058696Y-52197000D03*
X45974000Y-29458000D03*
X18299878Y-29453306D03*
%TO.N,Data_Clk*%
X32275988Y-30724931D03*
X52372696Y-50927000D03*
X80058696Y-50927000D03*
X75861696Y-30728000D03*
X4210178Y-30730914D03*
X10462696Y-50927000D03*
X38656696Y-50927000D03*
X60215988Y-30724931D03*
X24686696Y-50927000D03*
X66596696Y-50927000D03*
X18432504Y-30728496D03*
X45993196Y-30731001D03*
%TO.N,/RJ45/SchieberegisterInput1/D5*%
X80318696Y-48381000D03*
%TO.N,/RJ45/SchieberegisterInput1/D6*%
X78680696Y-46863000D03*
%TO.N,/RJ45/SchieberegisterInput1/D7*%
X78155696Y-45847000D03*
D27*
%TO.N,GND*%
X55118000Y-27432000D03*
X62992000Y-53975000D03*
D26*
X39878000Y-42672000D03*
X33374696Y-38888304D03*
X69800000Y-69751000D03*
X53594000Y-42672000D03*
X11732696Y-42545000D03*
X56993900Y-31623000D03*
X21130696Y-53975000D03*
X71247000Y-31496000D03*
X28829000Y-31623000D03*
X61314696Y-38888304D03*
X81328696Y-42799000D03*
X5232696Y-39139000D03*
X46609000Y-73406000D03*
X84074000Y-31496000D03*
X43307000Y-31496000D03*
X80435696Y-27934000D03*
X9779000Y-77978000D03*
X38311000Y-65203000D03*
X27607696Y-28067000D03*
D27*
X35179000Y-53975000D03*
D26*
X47117000Y-38989000D03*
X58420000Y-65278000D03*
X74803000Y-56261000D03*
X6906696Y-53975000D03*
X13383696Y-28067000D03*
X18868000Y-64949000D03*
X25956696Y-42672000D03*
X75455000Y-39116000D03*
X77216000Y-78000000D03*
X14605000Y-31623000D03*
X67818000Y-42672000D03*
X41450696Y-28067000D03*
D27*
X69469000Y-27940000D03*
D26*
X19685000Y-38989000D03*
X30353000Y-72390000D03*
X75819000Y-54737000D03*
D27*
X48768000Y-53975000D03*
D26*
%TO.N,/RJ45/SchieberegisterInput1/D0*%
X77438696Y-45847000D03*
%TO.N,/RJ45/SchieberegisterInput1/D1*%
X76913696Y-47117000D03*
%TO.N,/RJ45/SchieberegisterInput1/D2*%
X75988696Y-48381000D03*
%TO.N,/RJ45/SchieberegisterInput1/D3*%
X75994696Y-49657000D03*
%TO.N,/RJ45/SchieberegisterInput5/D4*%
X52324000Y-49657000D03*
%TO.N,/OutputShift1/Out6*%
X40386000Y-61341000D03*
%TO.N,/RJ45/SchieberegisterInput5/D6*%
X51198000Y-47117000D03*
%TO.N,/OutputShift1/Out1*%
X46736000Y-61341000D03*
%TO.N,/OutputShift1/out*%
X39116000Y-74041000D03*
X65405000Y-74041000D03*
%TO.N,Led_Latch*%
X42926000Y-75421000D03*
X10541000Y-74041000D03*
X23368000Y-75421000D03*
X76581000Y-74041000D03*
X62865000Y-75421000D03*
%TO.N,Led_OE*%
X24638000Y-74803000D03*
X64135000Y-74803000D03*
X44196000Y-74803000D03*
X76844000Y-72000000D03*
X10287000Y-72009000D03*
%TO.N,/OutputShift/out*%
X19558000Y-73406000D03*
X45466000Y-73406000D03*
%TO.N,/OutputShift/Out0*%
X28448000Y-57150000D03*
%TO.N,/RJ45/SchieberegisterInput9/D4*%
X24577003Y-49657000D03*
%TO.N,/RJ45/SchieberegisterInput9/D5*%
X24052003Y-48387000D03*
%TO.N,/RJ45/SchieberegisterInput9/D6*%
X23527003Y-47117000D03*
%TO.N,/RJ45/SchieberegisterInput9/D7*%
X23002003Y-45847000D03*
%TO.N,/RJ45/SchieberegisterInput9/D0*%
X22352000Y-45847000D03*
%TO.N,/RJ45/SchieberegisterInput9/D1*%
X21717000Y-47111000D03*
%TO.N,/RJ45/SchieberegisterInput9/D2*%
X21082000Y-48381000D03*
%TO.N,/RJ45/SchieberegisterInput9/D3*%
X20557000Y-49634000D03*
%TO.N,/RJ45/SchieberegisterInput7/D3*%
X34732043Y-49657000D03*
%TO.N,/RJ45/SchieberegisterInput11/D6*%
X9302928Y-47117000D03*
%TO.N,/OutputShift/Out6*%
X20828000Y-60706000D03*
%TO.N,/RJ45/SchieberegisterInput5/D1*%
X49498042Y-47117000D03*
%TO.N,/RJ45/SchieberegisterInput3/D6*%
X65422000Y-47117000D03*
%TO.N,/RJ45/SchieberegisterInput7/D6*%
X37482000Y-47117000D03*
%TO.N,/OutputShift/Out2*%
X25908000Y-59690000D03*
%TO.N,/RJ45/SchieberegisterInput7/D5*%
X38007000Y-48387000D03*
%TO.N,/RJ45/SchieberegisterInput3/D1*%
X63721997Y-47117000D03*
%TO.N,/RJ45/SchieberegisterInput3/D3*%
X63119000Y-49657000D03*
%TO.N,/RJ45/SchieberegisterInput11/D2*%
X7078000Y-48387000D03*
%TO.N,/RJ45/SchieberegisterInput5/D7*%
X50673000Y-45847000D03*
%TO.N,/OutputShift2/Out3*%
X64135000Y-60833000D03*
%TO.N,/RJ45/SchieberegisterInput11/D4*%
X10352928Y-49657000D03*
%TO.N,/RJ45/SchieberegisterInput5/D5*%
X51723000Y-48387000D03*
%TO.N,/RJ45/SchieberegisterInput3/D4*%
X66675000Y-49651000D03*
%TO.N,/RJ45/SchieberegisterInput3/D5*%
X65947000Y-48387000D03*
%TO.N,/RJ45/SchieberegisterInput3/D7*%
X64897000Y-45847000D03*
%TO.N,/RJ45/SchieberegisterInput3/D0*%
X64246997Y-45847000D03*
%TO.N,/RJ45/SchieberegisterInput3/D2*%
X62478000Y-48381000D03*
%TO.N,/OutputShift2/Out4*%
X62484000Y-56515000D03*
%TO.N,/RJ45/SchieberegisterInput7/D4*%
X38532000Y-49657000D03*
%TO.N,/OutputShift/Out5*%
X22098000Y-59131000D03*
%TO.N,/RJ45/SchieberegisterInput11/D7*%
X8777928Y-45838856D03*
%TO.N,/OutputShift2/Out0*%
X67945000Y-59597000D03*
%TO.N,/RJ45/SchieberegisterInput11/D3*%
X6553000Y-49657000D03*
%TO.N,/OutputShift2/Out1*%
X66675000Y-60308000D03*
%TO.N,/OutputShift2/Out2*%
X65405000Y-59072000D03*
%TO.N,/OutputShift2/Out6*%
X60325000Y-57150000D03*
%TO.N,/OutputShift1/Out0*%
X48006000Y-60071000D03*
%TO.N,/RJ45/SchieberegisterInput5/D0*%
X50023042Y-45854656D03*
%TO.N,/RJ45/SchieberegisterInput5/D2*%
X48895000Y-48387000D03*
%TO.N,/RJ45/SchieberegisterInput5/D3*%
X48260000Y-49651000D03*
%TO.N,/OutputShift1/Out2*%
X40894000Y-59309000D03*
%TO.N,/OutputShift1/Out3*%
X44196000Y-60706000D03*
%TO.N,/OutputShift1/Out4*%
X42926000Y-60706000D03*
%TO.N,/OutputShift1/Out5*%
X41656000Y-60181000D03*
%TO.N,/RJ45/SchieberegisterInput7/D7*%
X36957000Y-45841000D03*
%TO.N,/RJ45/SchieberegisterInput7/D0*%
X36307043Y-45841000D03*
%TO.N,/RJ45/SchieberegisterInput7/D1*%
X35782043Y-47117000D03*
%TO.N,/RJ45/SchieberegisterInput7/D2*%
X35257043Y-48387000D03*
%TO.N,/OutputShift1/Out7*%
X44577000Y-58674000D03*
%TO.N,/OutputShift/Out1*%
X27178000Y-60833000D03*
%TO.N,/OutputShift/Out3*%
X24638000Y-60833000D03*
%TO.N,/OutputShift/Out4*%
X23351000Y-60181000D03*
%TO.N,/RJ45/SchieberegisterInput11/D5*%
X9827928Y-48387000D03*
%TO.N,/RJ45/SchieberegisterInput11/D0*%
X8128000Y-45848676D03*
%TO.N,/RJ45/SchieberegisterInput11/D1*%
X7603000Y-47117000D03*
%TO.N,/OutputShift/Out7*%
X19558000Y-58606000D03*
%TO.N,Led_Out*%
X59055000Y-73279000D03*
X76835000Y-69977000D03*
%TD*%
%TO.N,Net-(U1-~{SRCLR})*%
D28*
X40386000Y-71703000D02*
X40386000Y-73277000D01*
%TO.N,+5V*%
D29*
X30368000Y-71474000D02*
X30343000Y-71449000D01*
X25984696Y-28067000D02*
X25984696Y-27206000D01*
X59484696Y-31832530D02*
X59443431Y-31791265D01*
X39954696Y-27206000D02*
X39926696Y-27178000D01*
X45260696Y-46097000D02*
X45260696Y-45648700D01*
X55420696Y-49405000D02*
X55420696Y-49855300D01*
X31544696Y-51691000D02*
X31544696Y-52832000D01*
X27734696Y-43813000D02*
X27734696Y-43307000D01*
X59484696Y-51691000D02*
X59484696Y-52797000D01*
X82985696Y-46099000D02*
X82985696Y-45714000D01*
X27734696Y-49405000D02*
X27734696Y-49901000D01*
X55420696Y-51691000D02*
X55420696Y-52797000D01*
X13510696Y-31875118D02*
X13510696Y-32256000D01*
X17701696Y-46097000D02*
X17701696Y-45603000D01*
X69644696Y-49405000D02*
X69644696Y-49893500D01*
X3477696Y-31832530D02*
X3477696Y-32250000D01*
X45260696Y-32250000D02*
X45260696Y-31832529D01*
X11732696Y-28095000D02*
X11760696Y-28067000D01*
X69644696Y-31838530D02*
X69661111Y-31822115D01*
X69825000Y-71776000D02*
X70725000Y-71776000D01*
X45260696Y-37842000D02*
X45260696Y-38608000D01*
X73079696Y-51691000D02*
X73079696Y-52064000D01*
X73067696Y-36195000D02*
X73067696Y-35556000D01*
X61270000Y-52235696D02*
X61314696Y-52191000D01*
X13510696Y-35556000D02*
X13510696Y-36002668D01*
X31544696Y-46097000D02*
X31544696Y-45648700D01*
X55420696Y-29964000D02*
X55420696Y-28858000D01*
X59484696Y-35556000D02*
X59484696Y-35973470D01*
X59484696Y-46097000D02*
X59484696Y-45603000D01*
X13518196Y-31760000D02*
X13518196Y-31867618D01*
X59484696Y-29964000D02*
X59484696Y-28858000D01*
X33401000Y-52217304D02*
X33374696Y-52191000D01*
D28*
X59057000Y-74424000D02*
X58166000Y-73533000D01*
D29*
X31544696Y-37842000D02*
X31544696Y-38608000D01*
X13510696Y-29970000D02*
X13510696Y-29923304D01*
X61270000Y-53975000D02*
X61270000Y-52235696D01*
X45260696Y-29964000D02*
X45260696Y-28858000D01*
X11760696Y-28067000D02*
X11760696Y-27333000D01*
X69644696Y-37842000D02*
X69644696Y-38481000D01*
X27607696Y-32256000D02*
X27607696Y-31760000D01*
X82985696Y-45714000D02*
X83106696Y-45593000D01*
X3477696Y-51691000D02*
X3477696Y-52451000D01*
X28367696Y-37848000D02*
X28369696Y-37846000D01*
D28*
X40386000Y-74297000D02*
X39624000Y-73535000D01*
D29*
X74780696Y-54681000D02*
X74780696Y-53975000D01*
X27734696Y-51691000D02*
X27734696Y-52797000D01*
X17701696Y-36012300D02*
X17747396Y-36058000D01*
X31544696Y-45648700D02*
X31498996Y-45603000D01*
X41704696Y-32250000D02*
X41704696Y-31832530D01*
X45260696Y-43813000D02*
X45260696Y-43180000D01*
X13510696Y-51691000D02*
X13510696Y-52797000D01*
X82985696Y-51693000D02*
X82985696Y-52076000D01*
X39954696Y-28067000D02*
X39954696Y-27206000D01*
X41704696Y-37842000D02*
X41704696Y-38735000D01*
X47018000Y-52263696D02*
X47090696Y-52191000D01*
X31544696Y-31832530D02*
X31484367Y-31772201D01*
X13510696Y-37842000D02*
X13510696Y-38481000D01*
X55420696Y-36101332D02*
X55484627Y-36037401D01*
X73079696Y-52064000D02*
X73073696Y-52070000D01*
X41704696Y-51691000D02*
X41704696Y-52797000D01*
X82985696Y-43428000D02*
X83106696Y-43307000D01*
X55420696Y-31832530D02*
X55461961Y-31791265D01*
X17701696Y-49855300D02*
X17747396Y-49901000D01*
X41704696Y-49405000D02*
X41704696Y-49893500D01*
D28*
X39624000Y-73535000D02*
X39624000Y-72992100D01*
D29*
X69644696Y-29970000D02*
X69644696Y-28858000D01*
X17701696Y-51691000D02*
X17701696Y-52797000D01*
X70725000Y-71776000D02*
X70750000Y-71751000D01*
X82852696Y-35941000D02*
X82973696Y-35820000D01*
X45260696Y-35556000D02*
X45260696Y-35973470D01*
X3474781Y-35976385D02*
X3477696Y-35973470D01*
X17701696Y-35562000D02*
X17701696Y-36012300D01*
X47018000Y-53975000D02*
X47018000Y-52263696D01*
X17701696Y-37848000D02*
X17701696Y-38481000D01*
X73067696Y-28829000D02*
X73067696Y-29964000D01*
X82985696Y-43813000D02*
X82985696Y-43428000D01*
X41704696Y-46097000D02*
X41704696Y-45648700D01*
X45260696Y-31832529D02*
X45227422Y-31799255D01*
X17701696Y-49405000D02*
X17701696Y-49855300D01*
X74780696Y-53975000D02*
X74780696Y-52250000D01*
X73067696Y-31617509D02*
X73067696Y-32250000D01*
X73067696Y-38484915D02*
X73067696Y-37842000D01*
X69644696Y-45610500D02*
X69652196Y-45603000D01*
X80391000Y-61891000D02*
X80500000Y-62000000D01*
X11732696Y-29458000D02*
X11732696Y-28095000D01*
X3489677Y-31754000D02*
X3489677Y-31820549D01*
X41704696Y-29964000D02*
X41704696Y-28829000D01*
X45260696Y-51691000D02*
X45260696Y-52797000D01*
X82973696Y-29337000D02*
X82973696Y-29964000D01*
X55420696Y-37842000D02*
X55420696Y-38481000D01*
X31544696Y-49855300D02*
X31590396Y-49901000D01*
X17701696Y-43813000D02*
X17701696Y-43180000D01*
X73079696Y-49405000D02*
X73079696Y-49924683D01*
X31544696Y-49405000D02*
X31544696Y-49855300D01*
X39954696Y-29378000D02*
X39874696Y-29458000D01*
X69644696Y-51691000D02*
X69644696Y-52797000D01*
X61270000Y-53975000D02*
X60189696Y-53975000D01*
X25984696Y-28067000D02*
X25984696Y-29378000D01*
X13510696Y-46097000D02*
X13510696Y-45603000D01*
X31544696Y-35556000D02*
X31544696Y-35914282D01*
X69644696Y-32250000D02*
X69644696Y-31838530D01*
X27607696Y-35562000D02*
X27607696Y-36058000D01*
X48006000Y-71703000D02*
X48006000Y-73378000D01*
X25984696Y-29378000D02*
X25904696Y-29458000D01*
X3489677Y-31820549D02*
X3477696Y-31832530D01*
X41704696Y-45648700D02*
X41658996Y-45603000D01*
X31544696Y-29964000D02*
X31544696Y-28829000D01*
X80391000Y-60960000D02*
X80391000Y-61891000D01*
X53594000Y-27305000D02*
X53594000Y-29454696D01*
X11760696Y-27333000D02*
X11732696Y-27305000D01*
X19380696Y-53975000D02*
X18390000Y-53975000D01*
X17701696Y-32256000D02*
X17701696Y-31760000D01*
X48006000Y-73378000D02*
X47978000Y-73406000D01*
X3477696Y-46097000D02*
X3477696Y-45603000D01*
X55420696Y-32250000D02*
X55420696Y-31832530D01*
X31544696Y-35914282D02*
X31574290Y-35943876D01*
X74780696Y-52250000D02*
X74839696Y-52191000D01*
X81929696Y-27336000D02*
X81929696Y-27934000D01*
X69644696Y-35556000D02*
X69644696Y-35973470D01*
X73079696Y-49924683D02*
X73028379Y-49976000D01*
X82973696Y-31623000D02*
X82973696Y-32250000D01*
X81225696Y-29430000D02*
X81265696Y-29470000D01*
X82985696Y-49790000D02*
X83106696Y-49911000D01*
X59484696Y-49405000D02*
X59484696Y-49901000D01*
X19380696Y-53975000D02*
X19380696Y-52215000D01*
X33401000Y-53975000D02*
X32200988Y-53975000D01*
X53594000Y-29454696D02*
X53590696Y-29458000D01*
X82973696Y-37842000D02*
X82973696Y-38348000D01*
D28*
X60325000Y-74424000D02*
X59057000Y-74424000D01*
D29*
X13510696Y-43813000D02*
X13510696Y-43180000D01*
X25984696Y-27206000D02*
X25956696Y-27178000D01*
X6500000Y-62000000D02*
X6500000Y-61318000D01*
X82985696Y-49405000D02*
X82985696Y-49790000D01*
X45260696Y-49405000D02*
X45260696Y-49901000D01*
X3477696Y-35973470D02*
X3477696Y-35556000D01*
X59484696Y-37842000D02*
X59484696Y-38481000D01*
D28*
X20191000Y-74043000D02*
X20828000Y-74043000D01*
D29*
X27607696Y-37848000D02*
X28367696Y-37848000D01*
X59484696Y-43813000D02*
X59484696Y-43307000D01*
X5156696Y-53975000D02*
X5156696Y-54709000D01*
X67818000Y-27305000D02*
X67818000Y-29454696D01*
X41704696Y-49893500D02*
X41697196Y-49901000D01*
X3474781Y-36052000D02*
X3474781Y-35976385D01*
X39954696Y-28067000D02*
X39954696Y-29378000D01*
X59484696Y-32250000D02*
X59484696Y-31832530D01*
X13510696Y-29923304D02*
X14732000Y-28702000D01*
X27222696Y-29458000D02*
X27734696Y-29970000D01*
X55420696Y-46097000D02*
X55420696Y-45603000D01*
X5156696Y-52267000D02*
X5232696Y-52191000D01*
X30480000Y-71474000D02*
X30368000Y-71474000D01*
X30343000Y-71449000D02*
X28448000Y-71449000D01*
X3477696Y-43813000D02*
X3477696Y-43307000D01*
X41704696Y-35973470D02*
X41768627Y-36037401D01*
X69644696Y-46097000D02*
X69644696Y-45610500D01*
X73079696Y-43813000D02*
X73079696Y-43307000D01*
X41704696Y-43813000D02*
X41704696Y-43053000D01*
X45260696Y-35973470D02*
X45213431Y-36020735D01*
X5156696Y-53975000D02*
X5156696Y-52267000D01*
X69644696Y-49893500D02*
X69637196Y-49901000D01*
X67818000Y-29454696D02*
X67814696Y-29458000D01*
X31544696Y-32250000D02*
X31544696Y-31832530D01*
X69644696Y-35973470D02*
X69691961Y-36020735D01*
X82985696Y-52076000D02*
X83106696Y-52197000D01*
X19380696Y-52215000D02*
X19404696Y-52191000D01*
X55420696Y-35556000D02*
X55420696Y-36101332D01*
X59484696Y-35973470D02*
X59470097Y-35988069D01*
X3477696Y-49405000D02*
X3477696Y-49855300D01*
X17701696Y-29970000D02*
X17701696Y-28829000D01*
X5156696Y-54709000D02*
X5128696Y-54737000D01*
X13510696Y-36002668D02*
X13560028Y-36052000D01*
X69644696Y-43813000D02*
X69644696Y-43180000D01*
X41704696Y-31832530D02*
X41743961Y-31793265D01*
X47018000Y-53975000D02*
X46355000Y-53975000D01*
X69800000Y-71751000D02*
X69825000Y-71776000D01*
X13510696Y-49405000D02*
X13510696Y-49855300D01*
X3477696Y-29964000D02*
X3477696Y-29337000D01*
X31544696Y-43813000D02*
X31544696Y-43180000D01*
X6500000Y-61318000D02*
X7239000Y-60579000D01*
X55420696Y-49855300D02*
X55466396Y-49901000D01*
X82973696Y-35556000D02*
X82973696Y-35820000D01*
X27734696Y-46097000D02*
X27734696Y-45603000D01*
X3477696Y-37842000D02*
X3477696Y-38481000D01*
X45260696Y-45648700D02*
X45214996Y-45603000D01*
X3477696Y-49855300D02*
X3523396Y-49901000D01*
X47978000Y-73406000D02*
X48387000Y-73406000D01*
X33401000Y-53975000D02*
X33401000Y-52217304D01*
X73073696Y-52070000D02*
X73073696Y-52797000D01*
X13510696Y-49855300D02*
X13556396Y-49901000D01*
X13518196Y-31867618D02*
X13510696Y-31875118D01*
X55420696Y-43813000D02*
X55420696Y-43180000D01*
X73079696Y-46097000D02*
X73079696Y-45726000D01*
X81929696Y-27934000D02*
X81929696Y-29624000D01*
X25904696Y-29458000D02*
X27222696Y-29458000D01*
X67945000Y-71751000D02*
X69800000Y-71751000D01*
X41704696Y-35556000D02*
X41704696Y-35973470D01*
%TO.N,Net-(U3-QF)*%
X62865000Y-64531000D02*
X62865000Y-65251000D01*
X61595000Y-63261000D02*
X62865000Y-64531000D01*
%TO.N,/OutputShift2/Out5*%
X61595000Y-62241000D02*
X61595000Y-57912000D01*
%TO.N,Net-(U3-QH)*%
X59055000Y-63261000D02*
X60325000Y-64531000D01*
X60325000Y-64531000D02*
X60325000Y-65251000D01*
%TO.N,/OutputShift2/Out7*%
X59055000Y-58547000D02*
X59055000Y-62241000D01*
%TO.N,/RJ45/SchieberegisterInput10/D3*%
X10462696Y-20955000D02*
X13006696Y-18411000D01*
X12627696Y-31998000D02*
X12748696Y-31877000D01*
X13000696Y-30990000D02*
X13510696Y-30990000D01*
X13006696Y-18411000D02*
X13006696Y-15357000D01*
X12748696Y-31877000D02*
X12748696Y-31242000D01*
X11732696Y-31998000D02*
X10710696Y-31998000D01*
X11732696Y-31998000D02*
X12627696Y-31998000D01*
X10462696Y-31750000D02*
X10462696Y-20955000D01*
X10710696Y-31998000D02*
X10462696Y-31750000D01*
X12748696Y-31242000D02*
X13000696Y-30990000D01*
%TO.N,/RJ45/SchieberegisterInput1/D4*%
X81333970Y-49656726D02*
X81339696Y-49651000D01*
X81963696Y-49651000D02*
X81339696Y-49651000D01*
X83015696Y-50703000D02*
X82985696Y-50673000D01*
X82985696Y-50673000D02*
X81963696Y-49651000D01*
X80081659Y-49656726D02*
X81333970Y-49656726D01*
%TO.N,Data_Latch*%
X81339696Y-52191000D02*
X80064696Y-52191000D01*
X32258000Y-29458000D02*
X33374696Y-29458000D01*
X38662696Y-52191000D02*
X38656696Y-52197000D01*
X53590696Y-52191000D02*
X52378696Y-52191000D01*
X45974000Y-29458000D02*
X47090696Y-29458000D01*
X5232696Y-29458000D02*
X4197000Y-29458000D01*
X80064696Y-52191000D02*
X80058696Y-52197000D01*
X60198000Y-29458000D02*
X61314696Y-29458000D01*
X74765696Y-29470000D02*
X75849696Y-29470000D01*
X67814696Y-52191000D02*
X66602696Y-52191000D01*
X9250000Y-66000000D02*
X11732696Y-63517304D01*
X18299878Y-29453306D02*
X18304572Y-29458000D01*
X80058696Y-52197000D02*
X77343000Y-54912696D01*
X11732696Y-63517304D02*
X11732696Y-52191000D01*
X11732696Y-52191000D02*
X10468696Y-52191000D01*
X10468696Y-52191000D02*
X10462696Y-52197000D01*
X6500000Y-66000000D02*
X9250000Y-66000000D01*
X77343000Y-54912696D02*
X77343000Y-65593000D01*
X77343000Y-65593000D02*
X77750000Y-66000000D01*
X24692696Y-52191000D02*
X24686696Y-52197000D01*
X39874696Y-52191000D02*
X38662696Y-52191000D01*
X52378696Y-52191000D02*
X52372696Y-52197000D01*
X4197000Y-29458000D02*
X4191000Y-29464000D01*
X18304572Y-29458000D02*
X19404696Y-29458000D01*
X25904696Y-52191000D02*
X24692696Y-52191000D01*
X77750000Y-66000000D02*
X80500000Y-66000000D01*
X75849696Y-29470000D02*
X75861696Y-29458000D01*
X66602696Y-52191000D02*
X66596696Y-52197000D01*
%TO.N,Data_Clk*%
X4210178Y-30730914D02*
X4338245Y-30730914D01*
X60215988Y-30724931D02*
X60219057Y-30728000D01*
X24692696Y-50921000D02*
X24686696Y-50927000D01*
X9250000Y-68000000D02*
X12832696Y-64417304D01*
X80500000Y-68000000D02*
X77750000Y-68000000D01*
X80064696Y-50921000D02*
X80058696Y-50927000D01*
X74765696Y-30740000D02*
X75849696Y-30740000D01*
X32275988Y-30724931D02*
X32279057Y-30728000D01*
X32279057Y-30728000D02*
X33374696Y-30728000D01*
X45993196Y-30731001D02*
X46091999Y-30731001D01*
X76962000Y-54023696D02*
X80058696Y-50927000D01*
X53590696Y-50921000D02*
X52378696Y-50921000D01*
X12532695Y-50921000D02*
X11732696Y-50921000D01*
X12832696Y-64417304D02*
X12832696Y-51221001D01*
X52378696Y-50921000D02*
X52372696Y-50927000D01*
X6500000Y-68000000D02*
X9250000Y-68000000D01*
X38662696Y-50921000D02*
X38656696Y-50927000D01*
X4338245Y-30730914D02*
X4341159Y-30728000D01*
X12832696Y-51221001D02*
X12532695Y-50921000D01*
X39874696Y-50921000D02*
X38662696Y-50921000D01*
X60219057Y-30728000D02*
X61314696Y-30728000D01*
X76962000Y-67212000D02*
X76962000Y-54023696D01*
X81339696Y-50921000D02*
X80064696Y-50921000D01*
X75849696Y-30740000D02*
X75861696Y-30728000D01*
X11732696Y-50921000D02*
X10468696Y-50921000D01*
X77750000Y-68000000D02*
X76962000Y-67212000D01*
X66602696Y-50921000D02*
X66596696Y-50927000D01*
X46091999Y-30731001D02*
X46095000Y-30728000D01*
X4341159Y-30728000D02*
X5232696Y-30728000D01*
X18432504Y-30728496D02*
X18433000Y-30728000D01*
X46095000Y-30728000D02*
X47090696Y-30728000D01*
X18433000Y-30728000D02*
X19404696Y-30728000D01*
X25904696Y-50921000D02*
X24692696Y-50921000D01*
X67814696Y-50921000D02*
X66602696Y-50921000D01*
X10468696Y-50921000D02*
X10462696Y-50927000D01*
X4210178Y-30730914D02*
X4266727Y-30674365D01*
%TO.N,/RJ45/SchieberegisterInput1/D5*%
X80064696Y-48393000D02*
X80058696Y-48387000D01*
X83015696Y-48415000D02*
X82985696Y-48385000D01*
X81213696Y-48393000D02*
X80064696Y-48393000D01*
X81339696Y-48381000D02*
X82981696Y-48381000D01*
X82981696Y-48381000D02*
X82985696Y-48385000D01*
%TO.N,/RJ45/SchieberegisterInput1/D6*%
X81213696Y-47123000D02*
X80064696Y-47123000D01*
X82977696Y-47111000D02*
X82985696Y-47119000D01*
X81339696Y-47111000D02*
X82977696Y-47111000D01*
X78940696Y-47123000D02*
X80064696Y-47123000D01*
X78680696Y-46863000D02*
X78940696Y-47123000D01*
X83015696Y-47089000D02*
X82985696Y-47119000D01*
X80058696Y-47117000D02*
X80064696Y-47123000D01*
%TO.N,/RJ45/SchieberegisterInput1/D7*%
X81977696Y-45841000D02*
X81339696Y-45841000D01*
X82985696Y-44833000D02*
X81977696Y-45841000D01*
X78161696Y-45841000D02*
X78155696Y-45847000D01*
X81339696Y-45841000D02*
X78161696Y-45841000D01*
X83015696Y-44803000D02*
X82985696Y-44833000D01*
%TO.N,GND*%
D28*
X56515000Y-30990000D02*
X56515000Y-31144100D01*
D29*
X67814696Y-43301000D02*
X67814696Y-42675304D01*
X11732696Y-43301000D02*
X11732696Y-42545000D01*
X75178000Y-38348000D02*
X75455000Y-38625000D01*
X6500000Y-78000000D02*
X9757000Y-78000000D01*
D28*
X84074000Y-30990000D02*
X84074000Y-31496000D01*
X42799000Y-30990000D02*
X42801000Y-30990000D01*
D29*
X40914696Y-28067000D02*
X41450696Y-28067000D01*
X34361000Y-53975000D02*
X35179000Y-53975000D01*
X81339696Y-42810000D02*
X81328696Y-42799000D01*
X39874696Y-43301000D02*
X39874696Y-42675304D01*
X5232696Y-38348000D02*
X5232696Y-39139000D01*
X55118000Y-27432000D02*
X54610000Y-27940000D01*
D28*
X70739000Y-30990000D02*
X70741000Y-30990000D01*
D29*
X58447000Y-65251000D02*
X58420000Y-65278000D01*
X6906696Y-53975000D02*
X7743000Y-53975000D01*
X48768000Y-53975000D02*
X49655000Y-53975000D01*
X39874696Y-42675304D02*
X39878000Y-42672000D01*
X74713696Y-38348000D02*
X75178000Y-38348000D01*
X20340696Y-53975000D02*
X21130696Y-53975000D01*
X25904696Y-42724000D02*
X25956696Y-42672000D01*
X75821000Y-54055304D02*
X75740696Y-53975000D01*
X33374696Y-38888304D02*
X33374696Y-38348000D01*
X59055000Y-65251000D02*
X58447000Y-65251000D01*
X77216000Y-78000000D02*
X80500000Y-78000000D01*
D28*
X42801000Y-30990000D02*
X43307000Y-31496000D01*
D29*
X5230296Y-39141400D02*
X5232696Y-39139000D01*
X69800000Y-69751000D02*
X69825000Y-69776000D01*
X53590696Y-42675304D02*
X53594000Y-42672000D01*
X75740696Y-54658696D02*
X75819000Y-54737000D01*
X12720696Y-28067000D02*
X13383696Y-28067000D01*
X47090696Y-38962696D02*
X47117000Y-38989000D01*
X26944696Y-28067000D02*
X27607696Y-28067000D01*
X9757000Y-78000000D02*
X9779000Y-77978000D01*
D28*
X14605000Y-30990000D02*
X14605000Y-31623000D01*
X28829000Y-30990000D02*
X28829000Y-31623000D01*
D29*
X19558000Y-64949000D02*
X18868000Y-64949000D01*
X54560000Y-27940000D02*
X54554000Y-27934000D01*
X75455000Y-38625000D02*
X75455000Y-39116000D01*
X25904696Y-43301000D02*
X25904696Y-42724000D01*
X61314696Y-38348000D02*
X61314696Y-38888304D01*
D28*
X56515000Y-31144100D02*
X56993900Y-31623000D01*
D29*
X35179000Y-53975000D02*
X35939000Y-53975000D01*
D28*
X70741000Y-30990000D02*
X71247000Y-31496000D01*
D29*
X19685000Y-38628304D02*
X19404696Y-38348000D01*
X69469000Y-27940000D02*
X68784000Y-27940000D01*
X21130696Y-53975000D02*
X21969000Y-53975000D01*
X29845000Y-72362000D02*
X30325000Y-72362000D01*
X62230000Y-53975000D02*
X62992000Y-53975000D01*
X74801000Y-55626000D02*
X74801000Y-56259000D01*
X6116696Y-53975000D02*
X6906696Y-53975000D01*
X47978000Y-53975000D02*
X48768000Y-53975000D01*
X47090696Y-38348000D02*
X47090696Y-38962696D01*
X30325000Y-72362000D02*
X30353000Y-72390000D01*
X68784000Y-27940000D02*
X68778000Y-27934000D01*
X75740696Y-53975000D02*
X75740696Y-54658696D01*
X80435696Y-27934000D02*
X80969696Y-27934000D01*
X19685000Y-38989000D02*
X19685000Y-38628304D01*
X47018000Y-73406000D02*
X46609000Y-73406000D01*
X53590696Y-43301000D02*
X53590696Y-42675304D01*
X81339696Y-43301000D02*
X81339696Y-42810000D01*
X67814696Y-42675304D02*
X67818000Y-42672000D01*
X74801000Y-56259000D02*
X74803000Y-56261000D01*
X69825000Y-69776000D02*
X69825000Y-70226000D01*
X62992000Y-53975000D02*
X63879000Y-53975000D01*
X39116000Y-65203000D02*
X38311000Y-65203000D01*
X54610000Y-27940000D02*
X54560000Y-27940000D01*
%TO.N,/RJ45/SchieberegisterInput1/Out*%
X67814696Y-37078000D02*
X68614695Y-37078000D01*
X74839696Y-41819696D02*
X74839696Y-43301000D01*
X68614695Y-37078000D02*
X69024696Y-37488001D01*
X69977000Y-41021000D02*
X74041000Y-41021000D01*
X69024696Y-37488001D02*
X69024696Y-40068696D01*
X74041000Y-41021000D02*
X74839696Y-41819696D01*
X69024696Y-40068696D02*
X69977000Y-41021000D01*
%TO.N,/RJ45/SchieberegisterInput/Out*%
X74839696Y-44571000D02*
X76508696Y-44571000D01*
X78026696Y-43053000D02*
X78026696Y-39497000D01*
X79163696Y-38360000D02*
X81213696Y-38360000D01*
X78026696Y-39497000D02*
X79163696Y-38360000D01*
X76508696Y-44571000D02*
X78026696Y-43053000D01*
%TO.N,/RJ45/SchieberegisterInput1/D0*%
X73079696Y-44833000D02*
X74087696Y-45841000D01*
X74087696Y-45841000D02*
X74839696Y-45841000D01*
X77432696Y-45841000D02*
X77438696Y-45847000D01*
X73049696Y-44803000D02*
X73079696Y-44833000D01*
X74839696Y-45841000D02*
X77432696Y-45841000D01*
%TO.N,/RJ45/SchieberegisterInput1/D1*%
X76907696Y-47111000D02*
X76913696Y-47117000D01*
X73079696Y-47117000D02*
X74833696Y-47117000D01*
X74839696Y-47111000D02*
X76907696Y-47111000D01*
X74833696Y-47117000D02*
X74839696Y-47111000D01*
%TO.N,/RJ45/SchieberegisterInput1/D2*%
X74713696Y-48393000D02*
X75734696Y-48393000D01*
X75734696Y-48393000D02*
X75740696Y-48387000D01*
X73049696Y-48415000D02*
X73079696Y-48385000D01*
X73079696Y-48385000D02*
X74835696Y-48385000D01*
X74835696Y-48385000D02*
X74839696Y-48381000D01*
%TO.N,/RJ45/SchieberegisterInput1/D3*%
X73049696Y-50701000D02*
X73079696Y-50671000D01*
X74839696Y-49651000D02*
X75988696Y-49651000D01*
X73079696Y-50671000D02*
X74099696Y-49651000D01*
X75988696Y-49651000D02*
X75994696Y-49657000D01*
X74099696Y-49651000D02*
X74839696Y-49651000D01*
%TO.N,Net-(U5-~{CE})*%
X74839696Y-50921000D02*
X75813000Y-50921000D01*
X76454000Y-51562000D02*
X76454000Y-54993000D01*
X76454000Y-54993000D02*
X75821000Y-55626000D01*
X75813000Y-50921000D02*
X76454000Y-51562000D01*
%TO.N,/RJ45/SchieberegisterInput5/D4*%
X52330000Y-49651000D02*
X52324000Y-49657000D01*
X54080697Y-49651000D02*
X55100697Y-50671000D01*
X53590696Y-49651000D02*
X52330000Y-49651000D01*
X55100697Y-50671000D02*
X55420696Y-50671000D01*
X53590696Y-49651000D02*
X54080697Y-49651000D01*
%TO.N,/RJ45/SchieberegisterInput4/D7*%
X47890695Y-35808000D02*
X50340696Y-33357999D01*
X49832696Y-18415000D02*
X49832696Y-15361000D01*
X50340696Y-18923000D02*
X49832696Y-18415000D01*
X47090696Y-35808000D02*
X47890695Y-35808000D01*
X50340696Y-33357999D02*
X50340696Y-18923000D01*
X45260696Y-36822000D02*
X46274696Y-35808000D01*
X49832696Y-15361000D02*
X49836696Y-15357000D01*
X46274696Y-35808000D02*
X47090696Y-35808000D01*
%TO.N,/RJ45/SchieberegisterInput/D2*%
X80413697Y-33280000D02*
X79296696Y-32162999D01*
X83003696Y-33240000D02*
X82973696Y-33270000D01*
X79296696Y-32162999D02*
X79296696Y-20187000D01*
X81213696Y-33280000D02*
X80413697Y-33280000D01*
X79296696Y-20187000D02*
X81586696Y-17897000D01*
X82963696Y-33280000D02*
X82973696Y-33270000D01*
X81265696Y-33280000D02*
X82963696Y-33280000D01*
X80699696Y-33280000D02*
X81265696Y-33280000D01*
%TO.N,Net-(U1-QG)*%
X41656000Y-64483000D02*
X41656000Y-65203000D01*
X40386000Y-63213000D02*
X41656000Y-64483000D01*
%TO.N,/OutputShift1/Out6*%
X40386000Y-61341000D02*
X40386000Y-62193000D01*
%TO.N,/RJ45/SchieberegisterInput5/D6*%
X55414696Y-47111000D02*
X55420696Y-47117000D01*
X53590696Y-47111000D02*
X51204000Y-47111000D01*
X53590696Y-47111000D02*
X55414696Y-47111000D01*
X51204000Y-47111000D02*
X51198000Y-47117000D01*
%TO.N,Net-(U1-QB)*%
X46736000Y-63213000D02*
X48006000Y-64483000D01*
X48006000Y-64483000D02*
X48006000Y-65203000D01*
%TO.N,/OutputShift1/Out1*%
X46736000Y-62193000D02*
X46736000Y-61341000D01*
%TO.N,Net-(U1-QC)*%
X46736000Y-64483000D02*
X46736000Y-65203000D01*
X45466000Y-63213000D02*
X46736000Y-64483000D01*
%TO.N,Net-(U1-QD)*%
X45466000Y-64483000D02*
X45466000Y-65203000D01*
X44196000Y-63213000D02*
X45466000Y-64483000D01*
%TO.N,Net-(U1-QE)*%
X42926000Y-63213000D02*
X44196000Y-64483000D01*
X44196000Y-64483000D02*
X44196000Y-65203000D01*
%TO.N,Net-(U1-QF)*%
X41656000Y-63213000D02*
X42926000Y-64483000D01*
X42926000Y-64483000D02*
X42926000Y-65203000D01*
%TO.N,Net-(U1-QH)*%
X39116000Y-63213000D02*
X40386000Y-64483000D01*
X40386000Y-64483000D02*
X40386000Y-65203000D01*
%TO.N,/OutputShift1/out*%
X65405000Y-71751000D02*
X65405000Y-74041000D01*
X39116000Y-71703000D02*
X39116000Y-74041000D01*
%TO.N,Led_Clk*%
X22098000Y-71449000D02*
X22098000Y-75946000D01*
X61595000Y-75946000D02*
X75384000Y-75946000D01*
X61595000Y-71751000D02*
X61595000Y-75946000D01*
X75438000Y-76000000D02*
X83004000Y-76000000D01*
X41656000Y-71703000D02*
X41656000Y-76000000D01*
X22098000Y-75946000D02*
X42418000Y-75946000D01*
X41656000Y-76000000D02*
X6500000Y-76000000D01*
X75384000Y-75946000D02*
X75438000Y-76000000D01*
X6500000Y-76000000D02*
X10849000Y-76000000D01*
X10849000Y-76000000D02*
X10903000Y-75946000D01*
X80500000Y-76000000D02*
X41656000Y-76000000D01*
X10903000Y-75946000D02*
X22098000Y-75946000D01*
X42418000Y-75946000D02*
X61595000Y-75946000D01*
%TO.N,Led_Latch*%
X76601500Y-74000000D02*
X80500000Y-74000000D01*
X42926000Y-75421000D02*
X42926000Y-71703000D01*
X23368000Y-71449000D02*
X23368000Y-75421000D01*
X6500000Y-74000000D02*
X10541000Y-74000000D01*
X62865000Y-71751000D02*
X62865000Y-75421000D01*
%TO.N,Led_OE*%
X6500000Y-72000000D02*
X10278000Y-72000000D01*
X24638000Y-71449000D02*
X24638000Y-74803000D01*
X64135000Y-71751000D02*
X64135000Y-74803000D01*
X76844000Y-72000000D02*
X80500000Y-72000000D01*
X77606000Y-72000000D02*
X80500000Y-72000000D01*
X44196000Y-71703000D02*
X44196000Y-74803000D01*
%TO.N,/OutputShift/out*%
X19558000Y-71449000D02*
X19558000Y-73406000D01*
X45466000Y-71703000D02*
X45466000Y-73406000D01*
%TO.N,Net-(U1-QA)*%
X48811000Y-66203000D02*
X46736000Y-68278000D01*
X48006000Y-63213000D02*
X48811000Y-64018000D01*
X48811000Y-64018000D02*
X48811000Y-66203000D01*
X46736000Y-68278000D02*
X46736000Y-71703000D01*
%TO.N,Net-(U2-QA)*%
X27178000Y-71449000D02*
X27178000Y-67889000D01*
X29118000Y-63629000D02*
X28448000Y-62959000D01*
X29118000Y-65949000D02*
X29118000Y-63629000D01*
X27178000Y-67889000D02*
X29118000Y-65949000D01*
%TO.N,/OutputShift/Out0*%
X28448000Y-57150000D02*
X28448000Y-61939000D01*
%TO.N,/RJ45/SchieberegisterInput8/D4*%
X19404696Y-31998000D02*
X20501696Y-31998000D01*
X21566696Y-21448686D02*
X18086696Y-17968686D01*
X18709696Y-31998000D02*
X19404696Y-31998000D01*
X21566696Y-30933000D02*
X21566696Y-21448686D01*
X17701696Y-30990000D02*
X18709696Y-31998000D01*
X18086696Y-17968686D02*
X18086696Y-17897000D01*
X20501696Y-31998000D02*
X21566696Y-30933000D01*
%TO.N,/RJ45/SchieberegisterInput8/D5*%
X20501696Y-33268000D02*
X21966696Y-31803000D01*
X19404696Y-33268000D02*
X17576696Y-33268000D01*
X17703696Y-33274000D02*
X17701696Y-33276000D01*
X19356696Y-18419000D02*
X19356696Y-15357000D01*
X21966696Y-31803000D02*
X21966696Y-21029000D01*
X21966696Y-21029000D02*
X19356696Y-18419000D01*
X19404696Y-33268000D02*
X20501696Y-33268000D01*
%TO.N,/RJ45/SchieberegisterInput8/D6*%
X19404696Y-34538000D02*
X20501696Y-34538000D01*
X20501696Y-34538000D02*
X22366696Y-32673000D01*
X22366696Y-32673000D02*
X22366696Y-19637000D01*
X19402696Y-34536000D02*
X19404696Y-34538000D01*
X17574696Y-34536000D02*
X19402696Y-34536000D01*
X22366696Y-19637000D02*
X20626696Y-17897000D01*
%TO.N,/RJ45/SchieberegisterInput8/D7*%
X19404696Y-35808000D02*
X20501696Y-35808000D01*
X18331925Y-36322000D02*
X18336696Y-36322000D01*
X22766696Y-19035000D02*
X21896696Y-18165000D01*
X17746696Y-36658000D02*
X17995925Y-36658000D01*
X20501696Y-35808000D02*
X22766696Y-33543000D01*
X22766696Y-33543000D02*
X22766696Y-19035000D01*
X17701696Y-36828000D02*
X17701696Y-36703000D01*
X18336696Y-36322000D02*
X18850696Y-35808000D01*
X17701696Y-36703000D02*
X17746696Y-36658000D01*
X21896696Y-18165000D02*
X21896696Y-15357000D01*
X18850696Y-35808000D02*
X19404696Y-35808000D01*
X17995925Y-36658000D02*
X18331925Y-36322000D01*
%TO.N,/RJ45/SchieberegisterInput8/Out*%
X22527696Y-40126000D02*
X24305696Y-38348000D01*
X19404696Y-44571000D02*
X21263696Y-44571000D01*
X21263696Y-44571000D02*
X22527696Y-43307000D01*
X22527696Y-43307000D02*
X22527696Y-40126000D01*
X24305696Y-38348000D02*
X25904696Y-38348000D01*
%TO.N,/RJ45/SchieberegisterInput7/Out*%
X25904696Y-37078000D02*
X26458696Y-37078000D01*
X26458696Y-37078000D02*
X27099696Y-37719000D01*
X32935696Y-43301000D02*
X33374696Y-43301000D01*
X28496696Y-41021000D02*
X30655696Y-41021000D01*
X30655696Y-41021000D02*
X32935696Y-43301000D01*
X27099696Y-39624000D02*
X28496696Y-41021000D01*
X27099696Y-37719000D02*
X27099696Y-39624000D01*
%TO.N,/RJ45/SchieberegisterInput8/D0*%
X23166696Y-33659000D02*
X25315696Y-35808000D01*
X25315696Y-35808000D02*
X25904696Y-35808000D01*
X27734696Y-36822000D02*
X27472696Y-36822000D01*
X26458696Y-35808000D02*
X25904696Y-35808000D01*
X23166696Y-17897000D02*
X23166696Y-33659000D01*
X27472696Y-36822000D02*
X26458696Y-35808000D01*
%TO.N,/RJ45/SchieberegisterInput8/D1*%
X25906696Y-34536000D02*
X25904696Y-34538000D01*
X24436696Y-15357000D02*
X24436696Y-18258000D01*
X27734696Y-34536000D02*
X25906696Y-34536000D01*
X25315696Y-34538000D02*
X25904696Y-34538000D01*
X23566696Y-19128000D02*
X23566696Y-32789000D01*
X23566696Y-32789000D02*
X25315696Y-34538000D01*
X24436696Y-18258000D02*
X23566696Y-19128000D01*
%TO.N,/RJ45/SchieberegisterInput8/D2*%
X24836696Y-18773000D02*
X25706696Y-17903000D01*
X25706696Y-17903000D02*
X25706696Y-17897000D01*
X24836696Y-18778685D02*
X24836696Y-18773000D01*
X23966696Y-19648686D02*
X24836696Y-18778685D01*
X25315696Y-33268000D02*
X23966696Y-31919000D01*
X27734696Y-33270000D02*
X25906696Y-33270000D01*
X25904696Y-33268000D02*
X25315696Y-33268000D01*
X23966696Y-31919000D02*
X23966696Y-19648686D01*
X25906696Y-33270000D02*
X25904696Y-33268000D01*
%TO.N,/RJ45/SchieberegisterInput8/D3*%
X27484696Y-30984000D02*
X26470696Y-31998000D01*
X25210197Y-31998000D02*
X24432696Y-31220499D01*
X26470696Y-31998000D02*
X25904696Y-31998000D01*
X24432696Y-20963000D02*
X26976696Y-18419000D01*
X27734696Y-30984000D02*
X27484696Y-30984000D01*
X24432696Y-31220499D02*
X24432696Y-20963000D01*
X25904696Y-31998000D02*
X25210197Y-31998000D01*
X26976696Y-18419000D02*
X26976696Y-15357000D01*
%TO.N,Net-(U12-~{CE})*%
D28*
X26670000Y-30480000D02*
X28319000Y-30480000D01*
X25904696Y-30728000D02*
X26422000Y-30728000D01*
X28319000Y-30480000D02*
X28829000Y-29970000D01*
X26422000Y-30728000D02*
X26670000Y-30480000D01*
%TO.N,/RJ45/SchieberegisterInput9/D4*%
D29*
X26394697Y-49651000D02*
X27414697Y-50671000D01*
X25904696Y-49651000D02*
X24583003Y-49651000D01*
X27414697Y-50671000D02*
X27734696Y-50671000D01*
X24583003Y-49651000D02*
X24577003Y-49657000D01*
X25904696Y-49651000D02*
X26394697Y-49651000D01*
%TO.N,/RJ45/SchieberegisterInput9/D5*%
X25904696Y-48381000D02*
X27730696Y-48381000D01*
X27730696Y-48381000D02*
X27734696Y-48385000D01*
X24058003Y-48381000D02*
X24052003Y-48387000D01*
X25904696Y-48381000D02*
X24058003Y-48381000D01*
%TO.N,/RJ45/SchieberegisterInput9/D6*%
X23533003Y-47111000D02*
X23527003Y-47117000D01*
X25904696Y-47111000D02*
X27728696Y-47111000D01*
X25904696Y-47111000D02*
X23533003Y-47111000D01*
X27728696Y-47111000D02*
X27734696Y-47117000D01*
%TO.N,/RJ45/SchieberegisterInput9/D7*%
X27414697Y-44833000D02*
X27734696Y-44833000D01*
X26406697Y-45841000D02*
X27414697Y-44833000D01*
X23002003Y-45847000D02*
X23114000Y-45847000D01*
X23114000Y-45847000D02*
X23120000Y-45841000D01*
X25904696Y-45841000D02*
X26406697Y-45841000D01*
X23120000Y-45841000D02*
X25904696Y-45841000D01*
%TO.N,/RJ45/SchieberegisterInput10/In*%
X16743696Y-40640000D02*
X14526696Y-40640000D01*
X19404696Y-43301000D02*
X16743696Y-40640000D01*
X12532695Y-37078000D02*
X11732696Y-37078000D01*
X14526696Y-40640000D02*
X12832696Y-38946000D01*
X12832696Y-38946000D02*
X12832696Y-37378001D01*
X12832696Y-37378001D02*
X12532695Y-37078000D01*
%TO.N,/RJ45/SchieberegisterInput9/D0*%
X17701696Y-44833000D02*
X18021695Y-44833000D01*
X22346000Y-45841000D02*
X19404696Y-45841000D01*
X18021695Y-44833000D02*
X19029695Y-45841000D01*
X19029695Y-45841000D02*
X19404696Y-45841000D01*
X22352000Y-45847000D02*
X22346000Y-45841000D01*
%TO.N,/RJ45/SchieberegisterInput9/D1*%
X21717000Y-47111000D02*
X19404696Y-47111000D01*
X21717000Y-47111000D02*
X21821000Y-47111000D01*
X21821000Y-47111000D02*
X21844000Y-47134000D01*
X19398696Y-47117000D02*
X19404696Y-47111000D01*
X17701696Y-47117000D02*
X19398696Y-47117000D01*
%TO.N,/RJ45/SchieberegisterInput9/D2*%
X17701696Y-48385000D02*
X19400696Y-48385000D01*
X21082000Y-48381000D02*
X19404696Y-48381000D01*
X19400696Y-48385000D02*
X19404696Y-48381000D01*
%TO.N,/RJ45/SchieberegisterInput9/D3*%
X20540000Y-49651000D02*
X19404696Y-49651000D01*
X20557000Y-49634000D02*
X20540000Y-49651000D01*
X17701696Y-50671000D02*
X18021695Y-50671000D01*
X19041695Y-49651000D02*
X19404696Y-49651000D01*
X18021695Y-50671000D02*
X19041695Y-49651000D01*
%TO.N,Net-(U13-~{CE})*%
X19404696Y-50921000D02*
X20695000Y-50921000D01*
X20695000Y-50921000D02*
X22989000Y-53215000D01*
X22989000Y-53215000D02*
X22989000Y-53975000D01*
%TO.N,/RJ45/SchieberegisterInput7/D3*%
X31544696Y-50671000D02*
X32202168Y-50671000D01*
X33222168Y-49651000D02*
X33374696Y-49651000D01*
X34726043Y-49651000D02*
X34732043Y-49657000D01*
X32202168Y-50671000D02*
X33222168Y-49651000D01*
X33374696Y-49651000D02*
X34726043Y-49651000D01*
%TO.N,/RJ45/SchieberegisterInput11/D6*%
X13510696Y-47117000D02*
X11738696Y-47117000D01*
X11732696Y-47111000D02*
X9308928Y-47111000D01*
X11738696Y-47117000D02*
X11732696Y-47111000D01*
X9308928Y-47111000D02*
X9302928Y-47117000D01*
%TO.N,Net-(U2-QG)*%
X20828000Y-62959000D02*
X22098000Y-64229000D01*
X22098000Y-64229000D02*
X22098000Y-64949000D01*
%TO.N,/OutputShift/Out6*%
X20828000Y-60706000D02*
X20828000Y-61939000D01*
%TO.N,/RJ45/SchieberegisterInput5/D1*%
X49492042Y-47111000D02*
X49498042Y-47117000D01*
X47084696Y-47117000D02*
X47090696Y-47111000D01*
X45260696Y-47117000D02*
X47084696Y-47117000D01*
X47090696Y-47111000D02*
X49492042Y-47111000D01*
%TO.N,/RJ45/SchieberegisterInput3/D6*%
X67808696Y-47117000D02*
X65422000Y-47117000D01*
X67814696Y-47111000D02*
X67808696Y-47117000D01*
X67814696Y-47111000D02*
X69638696Y-47111000D01*
X69638696Y-47111000D02*
X69644696Y-47117000D01*
%TO.N,/RJ45/SchieberegisterInput2/D4*%
X59484696Y-30984000D02*
X60498696Y-31998000D01*
X63040696Y-31369000D02*
X63040696Y-20941000D01*
X60498696Y-31998000D02*
X61314696Y-31998000D01*
X63040696Y-20941000D02*
X59996696Y-17897000D01*
X62411696Y-31998000D02*
X63040696Y-31369000D01*
X61314696Y-31998000D02*
X62411696Y-31998000D01*
%TO.N,/RJ45/SchieberegisterInput6/D1*%
X38406696Y-18157000D02*
X38406696Y-15357000D01*
X39074697Y-34538000D02*
X37558696Y-33021999D01*
X41704696Y-34536000D02*
X39876696Y-34536000D01*
X39876696Y-34536000D02*
X39874696Y-34538000D01*
X37558696Y-33021999D02*
X37558696Y-19005000D01*
X39874696Y-34538000D02*
X39074697Y-34538000D01*
X37558696Y-19005000D02*
X38406696Y-18157000D01*
%TO.N,/RJ45/SchieberegisterInput10/D4*%
X7596696Y-21377000D02*
X7596696Y-30933000D01*
X7596696Y-30933000D02*
X6531696Y-31998000D01*
X4112696Y-31544696D02*
X4112696Y-31877000D01*
X4233696Y-31998000D02*
X5232696Y-31998000D01*
X6531696Y-31998000D02*
X5232696Y-31998000D01*
X3552000Y-30984000D02*
X4112696Y-31544696D01*
X3477696Y-30984000D02*
X3552000Y-30984000D01*
X4112696Y-31877000D02*
X4233696Y-31998000D01*
X4116696Y-17897000D02*
X7596696Y-21377000D01*
%TO.N,/RJ45/SchieberegisterInput7/D6*%
X41698696Y-47111000D02*
X41704696Y-47117000D01*
X39874696Y-47111000D02*
X37488000Y-47111000D01*
X37488000Y-47111000D02*
X37482000Y-47117000D01*
X39874696Y-47111000D02*
X41698696Y-47111000D01*
%TO.N,Net-(U2-QC)*%
X27178000Y-64229000D02*
X27178000Y-64949000D01*
X25908000Y-62959000D02*
X27178000Y-64229000D01*
%TO.N,/OutputShift/Out2*%
X25908000Y-59690000D02*
X25908000Y-61939000D01*
%TO.N,/RJ45/SchieberegisterInput7/D5*%
X39874696Y-48381000D02*
X41700696Y-48381000D01*
X41700696Y-48381000D02*
X41704696Y-48385000D01*
X38013000Y-48381000D02*
X38007000Y-48387000D01*
X39874696Y-48381000D02*
X38013000Y-48381000D01*
%TO.N,/RJ45/SchieberegisterInput3/D1*%
X59484696Y-47117000D02*
X61308696Y-47117000D01*
X63715997Y-47111000D02*
X63721997Y-47117000D01*
X61314696Y-47111000D02*
X63715997Y-47111000D01*
X61308696Y-47117000D02*
X61314696Y-47111000D01*
%TO.N,Net-(U2-QB)*%
X28448000Y-64229000D02*
X28448000Y-64949000D01*
X27178000Y-62959000D02*
X28448000Y-64229000D01*
%TO.N,Net-(U2-QD)*%
X25908000Y-64229000D02*
X25908000Y-64949000D01*
X24638000Y-62959000D02*
X25908000Y-64229000D01*
%TO.N,Net-(U2-QE)*%
X23368000Y-62959000D02*
X24638000Y-64229000D01*
X24638000Y-64229000D02*
X24638000Y-64949000D01*
%TO.N,Net-(U2-QF)*%
X23368000Y-64229000D02*
X23368000Y-64949000D01*
X22098000Y-62959000D02*
X23368000Y-64229000D01*
%TO.N,Net-(U2-QH)*%
X20828000Y-64229000D02*
X20828000Y-64949000D01*
X19558000Y-62959000D02*
X20828000Y-64229000D01*
%TO.N,Net-(U2-~{SRCLR})*%
D28*
X20828000Y-71449000D02*
X20828000Y-73023000D01*
%TO.N,Led_In*%
D29*
X6500000Y-70000000D02*
X25550000Y-70000000D01*
X25908000Y-70358000D02*
X25908000Y-71449000D01*
X25550000Y-70000000D02*
X25908000Y-70358000D01*
%TO.N,/RJ45/SchieberegisterInput2/D6*%
X64056696Y-19417000D02*
X62536696Y-17897000D01*
X59484696Y-34536000D02*
X61312696Y-34536000D01*
X62114695Y-34538000D02*
X64056696Y-32595999D01*
X64056696Y-32595999D02*
X64056696Y-19417000D01*
X61312696Y-34536000D02*
X61314696Y-34538000D01*
X61314696Y-34538000D02*
X62114695Y-34538000D01*
%TO.N,/RJ45/SchieberegisterInput6/D0*%
X41704696Y-36822000D02*
X40690696Y-35808000D01*
X37136696Y-33869999D02*
X37136696Y-17897000D01*
X39074697Y-35808000D02*
X37136696Y-33869999D01*
X39874696Y-35808000D02*
X39074697Y-35808000D01*
X40690696Y-35808000D02*
X39874696Y-35808000D01*
%TO.N,/RJ45/SchieberegisterInput3/D3*%
X60142168Y-50671000D02*
X61162168Y-49651000D01*
X62478000Y-49651000D02*
X61314696Y-49651000D01*
X63119000Y-49657000D02*
X62484000Y-49657000D01*
X59484696Y-50671000D02*
X60142168Y-50671000D01*
X62484000Y-49657000D02*
X62478000Y-49651000D01*
X61162168Y-49651000D02*
X61314696Y-49651000D01*
%TO.N,/RJ45/SchieberegisterInput4/D4*%
X48816696Y-31071999D02*
X48816696Y-20687000D01*
X45260696Y-30984000D02*
X46274696Y-31998000D01*
X48816696Y-20687000D02*
X46026696Y-17897000D01*
X47090696Y-31998000D02*
X47890695Y-31998000D01*
X47890695Y-31998000D02*
X48816696Y-31071999D01*
X46274696Y-31998000D02*
X47090696Y-31998000D01*
%TO.N,/RJ45/SchieberegisterInput4/D5*%
X49324696Y-20447000D02*
X47296696Y-18419000D01*
X47090696Y-33268000D02*
X47890695Y-33268000D01*
X45260696Y-33270000D02*
X47088696Y-33270000D01*
X47890695Y-33268000D02*
X49324696Y-31833999D01*
X47296696Y-18419000D02*
X47296696Y-15357000D01*
X47088696Y-33270000D02*
X47090696Y-33268000D01*
X49324696Y-31833999D02*
X49324696Y-20447000D01*
%TO.N,/RJ45/SchieberegisterInput4/D6*%
X49832696Y-32595999D02*
X49832696Y-19163000D01*
X45260696Y-34536000D02*
X47088696Y-34536000D01*
X47090696Y-34538000D02*
X47890695Y-34538000D01*
X47088696Y-34536000D02*
X47090696Y-34538000D01*
X49832696Y-19163000D02*
X48566696Y-17897000D01*
X47890695Y-34538000D02*
X49832696Y-32595999D01*
%TO.N,/RJ45/SchieberegisterInput4/Out*%
X51737696Y-38348000D02*
X53590696Y-38348000D01*
X50086696Y-39999000D02*
X51737696Y-38348000D01*
X50086696Y-43180000D02*
X50086696Y-39999000D01*
X47090696Y-44571000D02*
X48695696Y-44571000D01*
X48695696Y-44571000D02*
X50086696Y-43180000D01*
%TO.N,/RJ45/SchieberegisterInput3/Out*%
X54390695Y-37078000D02*
X54800696Y-37488001D01*
X54800696Y-37488001D02*
X54800696Y-39004000D01*
X54800696Y-39004000D02*
X56944696Y-41148000D01*
X56944696Y-41148000D02*
X59161696Y-41148000D01*
X59161696Y-41148000D02*
X61314696Y-43301000D01*
X53590696Y-37078000D02*
X54390695Y-37078000D01*
%TO.N,/RJ45/SchieberegisterInput4/D0*%
X55420696Y-36822000D02*
X54406696Y-35808000D01*
X52790697Y-35808000D02*
X51106696Y-34123999D01*
X53590696Y-35808000D02*
X52790697Y-35808000D01*
X54406696Y-35808000D02*
X53590696Y-35808000D01*
X51106696Y-34123999D02*
X51106696Y-17897000D01*
%TO.N,/RJ45/SchieberegisterInput4/D1*%
X53590696Y-34538000D02*
X52790697Y-34538000D01*
X55420696Y-34536000D02*
X53592696Y-34536000D01*
X52376696Y-18411000D02*
X52376696Y-15357000D01*
X53592696Y-34536000D02*
X53590696Y-34538000D01*
X51610696Y-33357999D02*
X51610696Y-19177000D01*
X51610696Y-19177000D02*
X52376696Y-18411000D01*
X52790697Y-34538000D02*
X51610696Y-33357999D01*
%TO.N,/RJ45/SchieberegisterInput4/D2*%
X53592696Y-33270000D02*
X53590696Y-33268000D01*
X55420696Y-33270000D02*
X53592696Y-33270000D01*
X52790697Y-33268000D02*
X52090696Y-32567999D01*
X52090696Y-19453000D02*
X53646696Y-17897000D01*
X53590696Y-33268000D02*
X52790697Y-33268000D01*
X52090696Y-32567999D02*
X52090696Y-19453000D01*
%TO.N,/RJ45/SchieberegisterInput4/D3*%
X52490696Y-21091000D02*
X54916696Y-18665000D01*
X54406696Y-31998000D02*
X55420696Y-30984000D01*
X52790697Y-31998000D02*
X52490696Y-31697999D01*
X53590696Y-31998000D02*
X54406696Y-31998000D01*
X54916696Y-18665000D02*
X54916696Y-15357000D01*
X53590696Y-31998000D02*
X52790697Y-31998000D01*
X52490696Y-31697999D02*
X52490696Y-21091000D01*
%TO.N,Net-(U8-~{CE})*%
D28*
X53590696Y-30728000D02*
X54108000Y-30728000D01*
X54108000Y-30728000D02*
X54356000Y-30480000D01*
X56005000Y-30480000D02*
X56515000Y-29970000D01*
X54356000Y-30480000D02*
X56005000Y-30480000D01*
%TO.N,/RJ45/SchieberegisterInput/D0*%
D29*
X81971696Y-35820000D02*
X82973696Y-36822000D01*
X81265696Y-35820000D02*
X80699696Y-35820000D01*
X78280696Y-18663000D02*
X79046696Y-17897000D01*
X81213696Y-35820000D02*
X81061168Y-35820000D01*
X78635696Y-18308000D02*
X79046696Y-17897000D01*
X81265696Y-35820000D02*
X81971696Y-35820000D01*
X78280696Y-33039528D02*
X78280696Y-18663000D01*
X83003696Y-36852000D02*
X82973696Y-36822000D01*
X81061168Y-35820000D02*
X78280696Y-33039528D01*
%TO.N,/RJ45/SchieberegisterInput2/D5*%
X61266696Y-18419000D02*
X61266696Y-15357000D01*
X62114695Y-33268000D02*
X63548696Y-31833999D01*
X61314696Y-33268000D02*
X62114695Y-33268000D01*
X63548696Y-20701000D02*
X61266696Y-18419000D01*
X59484696Y-33270000D02*
X61312696Y-33270000D01*
X61312696Y-33270000D02*
X61314696Y-33268000D01*
X63548696Y-31833999D02*
X63548696Y-20701000D01*
%TO.N,/RJ45/SchieberegisterInput2/D7*%
X64564696Y-19177000D02*
X63802696Y-18415000D01*
X64564696Y-33357999D02*
X64564696Y-19177000D01*
X59484696Y-36822000D02*
X60498696Y-35808000D01*
X60498696Y-35808000D02*
X61314696Y-35808000D01*
X63806696Y-18111925D02*
X63806696Y-15357000D01*
X63802696Y-18415000D02*
X63802696Y-18115925D01*
X63802696Y-18115925D02*
X63806696Y-18111925D01*
X61314696Y-35808000D02*
X62114695Y-35808000D01*
X62114695Y-35808000D02*
X64564696Y-33357999D01*
%TO.N,/RJ45/SchieberegisterInput2/Out*%
X64564696Y-39751000D02*
X65967696Y-38348000D01*
X62792696Y-44571000D02*
X64564696Y-42799000D01*
X65967696Y-38348000D02*
X67814696Y-38348000D01*
X64564696Y-42799000D02*
X64564696Y-39751000D01*
X61314696Y-44571000D02*
X62792696Y-44571000D01*
%TO.N,/RJ45/SchieberegisterInput2/D0*%
X67014697Y-35808000D02*
X65076696Y-33869999D01*
X67814696Y-35808000D02*
X68630696Y-35808000D01*
X65076696Y-33869999D02*
X65076696Y-17897000D01*
X67814696Y-35808000D02*
X67014697Y-35808000D01*
X68630696Y-35808000D02*
X69644696Y-36822000D01*
%TO.N,/RJ45/SchieberegisterInput2/D1*%
X69644696Y-34536000D02*
X67816696Y-34536000D01*
X65580696Y-33103999D02*
X65580696Y-19177000D01*
X65580696Y-19177000D02*
X66346696Y-18411000D01*
X67014697Y-34538000D02*
X65580696Y-33103999D01*
X66346696Y-18411000D02*
X66346696Y-15357000D01*
X67816696Y-34536000D02*
X67814696Y-34538000D01*
X67814696Y-34538000D02*
X67014697Y-34538000D01*
%TO.N,/RJ45/SchieberegisterInput2/D2*%
X66088696Y-32341999D02*
X66088696Y-19425000D01*
X67816696Y-33270000D02*
X67814696Y-33268000D01*
X69644696Y-33270000D02*
X67816696Y-33270000D01*
X67014697Y-33268000D02*
X66088696Y-32341999D01*
X66088696Y-19425000D02*
X67616696Y-17897000D01*
X67814696Y-33268000D02*
X67014697Y-33268000D01*
%TO.N,/RJ45/SchieberegisterInput2/D3*%
X67814696Y-31998000D02*
X67014697Y-31998000D01*
X66596696Y-31579999D02*
X66596696Y-20701000D01*
X68636696Y-31998000D02*
X67814696Y-31998000D01*
X67014697Y-31998000D02*
X66596696Y-31579999D01*
X68886696Y-18411000D02*
X68886696Y-15357000D01*
X66596696Y-20701000D02*
X68886696Y-18411000D01*
X69644696Y-30990000D02*
X68636696Y-31998000D01*
%TO.N,Net-(U6-~{CE})*%
D28*
X68580000Y-30480000D02*
X70229000Y-30480000D01*
X70229000Y-30480000D02*
X70739000Y-29970000D01*
X68326000Y-30734000D02*
X68580000Y-30480000D01*
X67814696Y-30728000D02*
X68320000Y-30728000D01*
X68320000Y-30728000D02*
X68326000Y-30734000D01*
%TO.N,/RJ45/SchieberegisterInput11/D2*%
D29*
X5232696Y-48381000D02*
X7072000Y-48381000D01*
X5228696Y-48385000D02*
X5232696Y-48381000D01*
X7072000Y-48381000D02*
X7078000Y-48387000D01*
X3477696Y-48385000D02*
X5228696Y-48385000D01*
%TO.N,/RJ45/SchieberegisterInput6/D2*%
X37958696Y-19615000D02*
X39676696Y-17897000D01*
X37958696Y-32151999D02*
X37958696Y-19615000D01*
X39074697Y-33268000D02*
X37958696Y-32151999D01*
X41702696Y-33268000D02*
X41704696Y-33270000D01*
X39874696Y-33268000D02*
X39074697Y-33268000D01*
X39874696Y-33268000D02*
X41702696Y-33268000D01*
%TO.N,Data_Output*%
X1905000Y-52578000D02*
X1905000Y-43180000D01*
X10287000Y-60960000D02*
X1905000Y-52578000D01*
X10287000Y-62484000D02*
X10287000Y-60960000D01*
X2303000Y-42782000D02*
X4713696Y-42782000D01*
X8771000Y-64000000D02*
X10287000Y-62484000D01*
X6500000Y-64000000D02*
X8771000Y-64000000D01*
X1905000Y-43180000D02*
X2303000Y-42782000D01*
X4713696Y-42782000D02*
X5232696Y-43301000D01*
%TO.N,/RJ45/SchieberegisterInput/D3*%
X81582696Y-19681000D02*
X82856696Y-18407000D01*
X81265696Y-32010000D02*
X81947696Y-32010000D01*
X83003696Y-30954000D02*
X82973696Y-30984000D01*
X79835696Y-31431999D02*
X79835696Y-21432000D01*
X81582696Y-19685000D02*
X81582696Y-19681000D01*
X82856696Y-18407000D02*
X82856696Y-15357000D01*
X81947696Y-32010000D02*
X82973696Y-30984000D01*
X81265696Y-32010000D02*
X80699696Y-32010000D01*
X79835696Y-21432000D02*
X81582696Y-19685000D01*
X81213696Y-32010000D02*
X80413697Y-32010000D01*
X80413697Y-32010000D02*
X79835696Y-31431999D01*
%TO.N,/RJ45/SchieberegisterInput10/D7*%
X8796696Y-19289000D02*
X7926696Y-18419000D01*
X4372696Y-35808000D02*
X5232696Y-35808000D01*
X5232696Y-35808000D02*
X6032695Y-35808000D01*
X7926696Y-18419000D02*
X7926696Y-15357000D01*
X3866696Y-36822000D02*
X4112696Y-36576000D01*
X6032695Y-35808000D02*
X8796696Y-33043999D01*
X8796696Y-33043999D02*
X8796696Y-19289000D01*
X3477696Y-36822000D02*
X3866696Y-36822000D01*
X4112696Y-36576000D02*
X4112696Y-36068000D01*
X4112696Y-36068000D02*
X4372696Y-35808000D01*
%TO.N,/RJ45/SchieberegisterInput5/D7*%
X53590696Y-45841000D02*
X54092697Y-45841000D01*
X50673000Y-45847000D02*
X50679000Y-45841000D01*
X54092697Y-45841000D02*
X55100697Y-44833000D01*
X55100697Y-44833000D02*
X55420696Y-44833000D01*
X50679000Y-45841000D02*
X53590696Y-45841000D01*
%TO.N,Net-(U3-QD)*%
X64135000Y-63261000D02*
X65405000Y-64531000D01*
X65405000Y-64531000D02*
X65405000Y-65251000D01*
%TO.N,/OutputShift2/Out3*%
X64135000Y-60833000D02*
X64135000Y-62241000D01*
%TO.N,/RJ45/SchieberegisterInput11/D4*%
X12170697Y-49651000D02*
X11732696Y-49651000D01*
X10358928Y-49651000D02*
X10352928Y-49657000D01*
X13510696Y-50671000D02*
X13190697Y-50671000D01*
X11732696Y-49651000D02*
X10358928Y-49651000D01*
X13190697Y-50671000D02*
X12170697Y-49651000D01*
%TO.N,/RJ45/SchieberegisterInput5/D5*%
X55416696Y-48381000D02*
X55420696Y-48385000D01*
X53590696Y-48381000D02*
X55416696Y-48381000D01*
X53590696Y-48381000D02*
X51729000Y-48381000D01*
X51729000Y-48381000D02*
X51723000Y-48387000D01*
%TO.N,/RJ45/SchieberegisterInput/D4*%
X74713696Y-32010000D02*
X75607696Y-32010000D01*
X76502696Y-31115000D02*
X76502696Y-20447000D01*
X74093696Y-32010000D02*
X75595696Y-32010000D01*
X76502696Y-20447000D02*
X73966696Y-17911000D01*
X73966696Y-17911000D02*
X73966696Y-17897000D01*
X73067696Y-30984000D02*
X74093696Y-32010000D01*
X73037696Y-30954000D02*
X73067696Y-30984000D01*
X75607696Y-32010000D02*
X76502696Y-31115000D01*
%TO.N,/RJ45/SchieberegisterInput6/D6*%
X33372696Y-34536000D02*
X33374696Y-34538000D01*
X33374696Y-34538000D02*
X34174695Y-34538000D01*
X31544696Y-34536000D02*
X33372696Y-34536000D01*
X34174695Y-34538000D02*
X36116696Y-32595999D01*
X36116696Y-32595999D02*
X36116696Y-19417000D01*
X36116696Y-19417000D02*
X34596696Y-17897000D01*
%TO.N,/RJ45/SchieberegisterInput3/D4*%
X68304697Y-49651000D02*
X69324697Y-50671000D01*
X67814696Y-49651000D02*
X68304697Y-49651000D01*
X66675000Y-49651000D02*
X67814696Y-49651000D01*
X69324697Y-50671000D02*
X69644696Y-50671000D01*
%TO.N,Net-(U10-~{CE})*%
D28*
X40380000Y-30728000D02*
X40386000Y-30734000D01*
X42799000Y-29972000D02*
X42799000Y-29970000D01*
X40386000Y-30722000D02*
X40628000Y-30480000D01*
X40628000Y-30480000D02*
X42291000Y-30480000D01*
X40386000Y-30734000D02*
X40386000Y-30722000D01*
X42291000Y-30480000D02*
X42799000Y-29972000D01*
X39874696Y-30728000D02*
X40380000Y-30728000D01*
%TO.N,/RJ45/SchieberegisterInput3/D5*%
D29*
X65953000Y-48381000D02*
X67814696Y-48381000D01*
X69640696Y-48381000D02*
X69644696Y-48385000D01*
X65947000Y-48387000D02*
X65953000Y-48381000D01*
X67814696Y-48381000D02*
X69640696Y-48381000D01*
%TO.N,/RJ45/SchieberegisterInput3/D7*%
X68316697Y-45841000D02*
X69324697Y-44833000D01*
X67814696Y-45841000D02*
X64903000Y-45841000D01*
X64903000Y-45841000D02*
X64897000Y-45847000D01*
X69324697Y-44833000D02*
X69644696Y-44833000D01*
X67814696Y-45841000D02*
X68316697Y-45841000D01*
%TO.N,/RJ45/SchieberegisterInput3/D0*%
X60154168Y-44833000D02*
X61162168Y-45841000D01*
X64246997Y-45847000D02*
X64240997Y-45841000D01*
X59484696Y-44833000D02*
X60154168Y-44833000D01*
X61162168Y-45841000D02*
X61314696Y-45841000D01*
X64240997Y-45841000D02*
X61314696Y-45841000D01*
%TO.N,/RJ45/SchieberegisterInput3/D2*%
X62478000Y-48381000D02*
X61314696Y-48381000D01*
X59484696Y-48385000D02*
X61310696Y-48385000D01*
X61310696Y-48385000D02*
X61314696Y-48381000D01*
%TO.N,Net-(U7-~{CE})*%
X61314696Y-50921000D02*
X62732000Y-50921000D01*
X64899000Y-53088000D02*
X64899000Y-53975000D01*
X62732000Y-50921000D02*
X64899000Y-53088000D01*
%TO.N,Net-(U3-QE)*%
X62865000Y-63261000D02*
X64135000Y-64531000D01*
X64135000Y-64531000D02*
X64135000Y-65251000D01*
%TO.N,/OutputShift2/Out4*%
X62865000Y-56896000D02*
X62484000Y-56515000D01*
X62865000Y-62241000D02*
X62865000Y-56896000D01*
%TO.N,/RJ45/SchieberegisterInput7/D4*%
X38538000Y-49651000D02*
X38532000Y-49657000D01*
X41384697Y-50671000D02*
X41704696Y-50671000D01*
X39874696Y-49651000D02*
X38538000Y-49651000D01*
X39874696Y-49651000D02*
X40364697Y-49651000D01*
X40364697Y-49651000D02*
X41384697Y-50671000D01*
%TO.N,Net-(U9-~{CE})*%
X48889000Y-50921000D02*
X50675000Y-52707000D01*
X50675000Y-52707000D02*
X50675000Y-53975000D01*
X47090696Y-50921000D02*
X48889000Y-50921000D01*
%TO.N,Net-(U4-~{CE})*%
D28*
X82042000Y-30453000D02*
X83591000Y-30453000D01*
X81761000Y-30734000D02*
X82042000Y-30453000D01*
X83591000Y-30453000D02*
X84074000Y-29970000D01*
X81213696Y-30728000D02*
X81219696Y-30734000D01*
X81219696Y-30734000D02*
X81761000Y-30734000D01*
%TO.N,/OutputShift/Out5*%
D29*
X22098000Y-59131000D02*
X22098000Y-61939000D01*
%TO.N,/RJ45/SchieberegisterInput10/D2*%
X13762696Y-33268000D02*
X13764696Y-33270000D01*
X10710696Y-33268000D02*
X11732696Y-33268000D01*
X9996696Y-19643000D02*
X9996696Y-32554000D01*
X9996696Y-32554000D02*
X10710696Y-33268000D01*
X11736696Y-17897000D02*
X11736696Y-17903000D01*
X11732696Y-33268000D02*
X13762696Y-33268000D01*
X11736696Y-17903000D02*
X9996696Y-19643000D01*
%TO.N,Net-(U15-~{CE})*%
X6598000Y-50921000D02*
X8763000Y-53086000D01*
X5232696Y-50921000D02*
X6598000Y-50921000D01*
X8763000Y-53086000D02*
X8763000Y-53975000D01*
%TO.N,/RJ45/SchieberegisterInput11/D7*%
X12424167Y-45841000D02*
X13432167Y-44833000D01*
X13432167Y-44833000D02*
X13510696Y-44833000D01*
X11732696Y-45841000D02*
X12424167Y-45841000D01*
X8780072Y-45841000D02*
X11732696Y-45841000D01*
X8777928Y-45838856D02*
X8780072Y-45841000D01*
%TO.N,Net-(U3-QA)*%
X66675000Y-68326000D02*
X66675000Y-71751000D01*
X68750000Y-64066000D02*
X68750000Y-66251000D01*
X67945000Y-63261000D02*
X68750000Y-64066000D01*
X68750000Y-66251000D02*
X66675000Y-68326000D01*
%TO.N,/OutputShift2/Out0*%
X67945000Y-59597000D02*
X67945000Y-62241000D01*
%TO.N,/RJ45/SchieberegisterInput10/D1*%
X9596696Y-19217500D02*
X10466696Y-18347500D01*
X10710696Y-34538000D02*
X9596696Y-33424000D01*
X10466696Y-18347500D02*
X10466696Y-15357000D01*
X11734696Y-34536000D02*
X11732696Y-34538000D01*
X9596696Y-33424000D02*
X9596696Y-19217500D01*
X11732696Y-34538000D02*
X10710696Y-34538000D01*
X13510696Y-34536000D02*
X11734696Y-34536000D01*
%TO.N,/RJ45/SchieberegisterInput11/D3*%
X5080168Y-49651000D02*
X5232696Y-49651000D01*
X5232696Y-49651000D02*
X6547000Y-49651000D01*
X6547000Y-49651000D02*
X6553000Y-49657000D01*
X4060168Y-50671000D02*
X5080168Y-49651000D01*
X3477696Y-50671000D02*
X4060168Y-50671000D01*
%TO.N,/RJ45/SchieberegisterInput/D5*%
X76902696Y-19958000D02*
X75236696Y-18292000D01*
X74755696Y-33270000D02*
X74765696Y-33280000D01*
X76902696Y-31890999D02*
X76902696Y-19958000D01*
X73067696Y-33270000D02*
X74755696Y-33270000D01*
X74765696Y-33280000D02*
X75326695Y-33280000D01*
X73037696Y-33240000D02*
X73067696Y-33270000D01*
X74713696Y-33280000D02*
X75513695Y-33280000D01*
X75513695Y-33280000D02*
X76902696Y-31890999D01*
X75236696Y-18292000D02*
X75236696Y-15357000D01*
%TO.N,/RJ45/SchieberegisterInput/D6*%
X73037696Y-34566000D02*
X73067696Y-34536000D01*
X77302696Y-18693000D02*
X76506696Y-17897000D01*
X74765696Y-34550000D02*
X75341696Y-34550000D01*
X74713696Y-34550000D02*
X75513695Y-34550000D01*
X74751696Y-34536000D02*
X74765696Y-34550000D01*
X77302696Y-32760999D02*
X77302696Y-18693000D01*
X75513695Y-34550000D02*
X77302696Y-32760999D01*
X73067696Y-34536000D02*
X74751696Y-34536000D01*
%TO.N,/RJ45/SchieberegisterInput/D7*%
X75513695Y-35820000D02*
X77772696Y-33560999D01*
X77772696Y-15361000D02*
X77776696Y-15357000D01*
X74713696Y-35820000D02*
X75513695Y-35820000D01*
X74765696Y-35820000D02*
X75341696Y-35820000D01*
X73037696Y-36852000D02*
X73067696Y-36822000D01*
X77772696Y-33560999D02*
X77772696Y-26289000D01*
X74069696Y-35820000D02*
X74765696Y-35820000D01*
X77772696Y-26289000D02*
X77772696Y-15361000D01*
X73067696Y-36822000D02*
X74069696Y-35820000D01*
%TO.N,Data_Input*%
X83447000Y-64000000D02*
X80500000Y-64000000D01*
X82353696Y-39554696D02*
X85344000Y-42545000D01*
X85344000Y-42545000D02*
X85344000Y-62103000D01*
X81213696Y-37078000D02*
X82013695Y-37078000D01*
X85344000Y-62103000D02*
X83447000Y-64000000D01*
X82013695Y-37078000D02*
X82353696Y-37418001D01*
X82353696Y-37418001D02*
X82353696Y-39554696D01*
%TO.N,/RJ45/SchieberegisterInput/D1*%
X80413697Y-34550000D02*
X78788696Y-32924999D01*
X80699696Y-34550000D02*
X81265696Y-34550000D01*
X80312696Y-16637000D02*
X80316696Y-16633000D01*
X81213696Y-34550000D02*
X80413697Y-34550000D01*
X78788696Y-19939000D02*
X80312696Y-18415000D01*
X80312696Y-18415000D02*
X80312696Y-16637000D01*
X80316696Y-16633000D02*
X80316696Y-15357000D01*
X83003696Y-34566000D02*
X82973696Y-34536000D01*
X82959696Y-34550000D02*
X82973696Y-34536000D01*
X78788696Y-32924999D02*
X78788696Y-19939000D01*
X80312696Y-16637000D02*
X80312696Y-16407000D01*
X81265696Y-34550000D02*
X82959696Y-34550000D01*
%TO.N,/OutputShift2/Out1*%
X66675000Y-60308000D02*
X66675000Y-62241000D01*
%TO.N,/OutputShift2/Out2*%
X65405000Y-59072000D02*
X65405000Y-62241000D01*
%TO.N,/OutputShift2/Out6*%
X60325000Y-62241000D02*
X60325000Y-57150000D01*
%TO.N,/OutputShift1/Out0*%
X48006000Y-62193000D02*
X48006000Y-60071000D01*
%TO.N,/RJ45/SchieberegisterInput5/D0*%
X46651696Y-45841000D02*
X47090696Y-45841000D01*
X45643696Y-44833000D02*
X46651696Y-45841000D01*
X45260696Y-44833000D02*
X45643696Y-44833000D01*
X47090696Y-45841000D02*
X50009386Y-45841000D01*
X50009386Y-45841000D02*
X50023042Y-45854656D01*
%TO.N,/RJ45/SchieberegisterInput5/D2*%
X48895000Y-48387000D02*
X48133000Y-48387000D01*
X48133000Y-48387000D02*
X48127000Y-48381000D01*
X45260696Y-48385000D02*
X47086696Y-48385000D01*
X47086696Y-48385000D02*
X47090696Y-48381000D01*
X48127000Y-48381000D02*
X47090696Y-48381000D01*
%TO.N,/RJ45/SchieberegisterInput5/D3*%
X45918168Y-50671000D02*
X46938168Y-49651000D01*
X48260000Y-49651000D02*
X47090696Y-49651000D01*
X46938168Y-49651000D02*
X47090696Y-49651000D01*
X45260696Y-50671000D02*
X45918168Y-50671000D01*
%TO.N,/OutputShift1/Out2*%
X40894000Y-59309000D02*
X44196000Y-59309000D01*
X45466000Y-60579000D02*
X45466000Y-62193000D01*
X44196000Y-59309000D02*
X45466000Y-60579000D01*
%TO.N,/OutputShift1/Out3*%
D28*
X44196000Y-60706000D02*
X44196000Y-62193000D01*
%TO.N,/RJ45/SchieberegisterInput6/D4*%
D29*
X33374696Y-31998000D02*
X34174695Y-31998000D01*
X35100696Y-31071999D02*
X35100696Y-20941000D01*
X32558696Y-31998000D02*
X33374696Y-31998000D01*
X34174695Y-31998000D02*
X35100696Y-31071999D01*
X35100696Y-20941000D02*
X32056696Y-17897000D01*
X31544696Y-30984000D02*
X32558696Y-31998000D01*
%TO.N,/RJ45/SchieberegisterInput6/D5*%
X33372696Y-33270000D02*
X33374696Y-33268000D01*
X34174695Y-33268000D02*
X35608696Y-31833999D01*
X35608696Y-20409000D02*
X33326696Y-18127000D01*
X31544696Y-33270000D02*
X33372696Y-33270000D01*
X35608696Y-31833999D02*
X35608696Y-20409000D01*
X33326696Y-18127000D02*
X33326696Y-15357000D01*
X33374696Y-33268000D02*
X34174695Y-33268000D01*
%TO.N,/RJ45/SchieberegisterInput6/D7*%
X35862696Y-18388462D02*
X35862696Y-15361000D01*
X36624696Y-19150462D02*
X35862696Y-18388462D01*
X33374696Y-35808000D02*
X34174695Y-35808000D01*
X35862696Y-15361000D02*
X35866696Y-15357000D01*
X34174695Y-35808000D02*
X36624696Y-33357999D01*
X36624696Y-33357999D02*
X36624696Y-19150462D01*
X31544696Y-36822000D02*
X32558696Y-35808000D01*
X32558696Y-35808000D02*
X33374696Y-35808000D01*
%TO.N,/RJ45/SchieberegisterInput6/D3*%
X40690696Y-31998000D02*
X41704696Y-30984000D01*
X38402696Y-31325999D02*
X38402696Y-20655925D01*
X39874696Y-31998000D02*
X40690696Y-31998000D01*
X38402696Y-20655925D02*
X40946696Y-18111925D01*
X39074697Y-31998000D02*
X38402696Y-31325999D01*
X39874696Y-31998000D02*
X39074697Y-31998000D01*
X40946696Y-18111925D02*
X40946696Y-15357000D01*
%TO.N,/OutputShift1/Out4*%
X42926000Y-60706000D02*
X42926000Y-62193000D01*
%TO.N,/OutputShift1/Out5*%
X41656000Y-62193000D02*
X41656000Y-60181000D01*
%TO.N,/RJ45/SchieberegisterInput7/D7*%
X39874696Y-45841000D02*
X40376697Y-45841000D01*
X36957000Y-45841000D02*
X39874696Y-45841000D01*
X40376697Y-45841000D02*
X41384697Y-44833000D01*
X41384697Y-44833000D02*
X41704696Y-44833000D01*
%TO.N,/RJ45/SchieberegisterInput7/D0*%
X36189000Y-45841000D02*
X33374696Y-45841000D01*
X33222168Y-45841000D02*
X33374696Y-45841000D01*
X36196676Y-45848676D02*
X36189000Y-45841000D01*
X36307043Y-45848676D02*
X36196676Y-45848676D01*
X31544696Y-44833000D02*
X32214168Y-44833000D01*
X32214168Y-44833000D02*
X33222168Y-45841000D01*
%TO.N,/RJ45/SchieberegisterInput7/D1*%
X33368696Y-47117000D02*
X33374696Y-47111000D01*
X33374696Y-47111000D02*
X33380696Y-47117000D01*
X31544696Y-47117000D02*
X33368696Y-47117000D01*
X33380696Y-47117000D02*
X35782043Y-47117000D01*
%TO.N,/RJ45/SchieberegisterInput7/D2*%
X33374696Y-48381000D02*
X35251043Y-48381000D01*
X31544696Y-48385000D02*
X33370696Y-48385000D01*
X33370696Y-48385000D02*
X33374696Y-48381000D01*
X35251043Y-48381000D02*
X35257043Y-48387000D01*
%TO.N,/OutputShift1/Out7*%
X39116000Y-60344537D02*
X40786537Y-58674000D01*
X40786537Y-58674000D02*
X44577000Y-58674000D01*
X39116000Y-62193000D02*
X39116000Y-60344537D01*
%TO.N,/OutputShift/Out1*%
X27178000Y-61939000D02*
X27178000Y-60833000D01*
%TO.N,/OutputShift/Out3*%
X24638000Y-60833000D02*
X24638000Y-61939000D01*
%TO.N,/RJ45/SchieberegisterInput10/D5*%
X5386696Y-18345000D02*
X7996696Y-20955000D01*
X3477696Y-33270000D02*
X5230696Y-33270000D01*
X5386696Y-15357000D02*
X5386696Y-18345000D01*
X6605696Y-33268000D02*
X5232696Y-33268000D01*
X5230696Y-33270000D02*
X5232696Y-33268000D01*
X7996696Y-20955000D02*
X7996696Y-31877000D01*
X7996696Y-31877000D02*
X6605696Y-33268000D01*
%TO.N,/RJ45/SchieberegisterInput10/D6*%
X6277696Y-34538000D02*
X8396696Y-32419000D01*
X5230696Y-34536000D02*
X5232696Y-34538000D01*
X5232696Y-34538000D02*
X6277696Y-34538000D01*
X8396696Y-19637000D02*
X6656696Y-17897000D01*
X8396696Y-32419000D02*
X8396696Y-19637000D01*
X3477696Y-34536000D02*
X5230696Y-34536000D01*
%TO.N,/RJ45/SchieberegisterInput10/D0*%
X11732696Y-35808000D02*
X12496696Y-35808000D01*
X9196696Y-17897000D02*
X9196696Y-34294000D01*
X12615696Y-35808000D02*
X12875696Y-36068000D01*
X12875696Y-36068000D02*
X12875696Y-36703000D01*
X12994696Y-36822000D02*
X13510696Y-36822000D01*
X9196696Y-34294000D02*
X10710696Y-35808000D01*
X10710696Y-35808000D02*
X11732696Y-35808000D01*
X12875696Y-36703000D02*
X12994696Y-36822000D01*
X11732696Y-35808000D02*
X12615696Y-35808000D01*
%TO.N,/OutputShift/Out4*%
X23351000Y-61922000D02*
X23368000Y-61939000D01*
X23351000Y-60181000D02*
X23351000Y-61922000D01*
%TO.N,/RJ45/SchieberegisterInput11/D5*%
X11736696Y-48385000D02*
X11732696Y-48381000D01*
X13510696Y-48385000D02*
X11736696Y-48385000D01*
X11732696Y-48381000D02*
X9833928Y-48381000D01*
X9833928Y-48381000D02*
X9827928Y-48387000D01*
%TO.N,/RJ45/SchieberegisterInput11/D0*%
X3797695Y-44833000D02*
X3477696Y-44833000D01*
X5232696Y-45841000D02*
X4805695Y-45841000D01*
X4805695Y-45841000D02*
X3797695Y-44833000D01*
X8128000Y-45848676D02*
X7875676Y-45848676D01*
X7868000Y-45841000D02*
X5232696Y-45841000D01*
X7875676Y-45848676D02*
X7868000Y-45841000D01*
%TO.N,/RJ45/SchieberegisterInput11/D1*%
X7597000Y-47111000D02*
X7603000Y-47117000D01*
X5226696Y-47117000D02*
X5232696Y-47111000D01*
X5232696Y-47111000D02*
X7597000Y-47111000D01*
X3477696Y-47117000D02*
X5226696Y-47117000D01*
%TO.N,/OutputShift/Out7*%
X19558000Y-58606000D02*
X19558000Y-61939000D01*
X19431000Y-61812000D02*
X19558000Y-61939000D01*
%TO.N,/RJ45/SchieberegisterInput10/Out*%
X8303696Y-43053000D02*
X8303696Y-39497000D01*
X5232696Y-44571000D02*
X6785696Y-44571000D01*
X9452696Y-38348000D02*
X11732696Y-38348000D01*
X6785696Y-44571000D02*
X8303696Y-43053000D01*
X8303696Y-39497000D02*
X9452696Y-38348000D01*
%TO.N,Net-(U3-QG)*%
X60325000Y-63261000D02*
X61595000Y-64531000D01*
X61595000Y-64531000D02*
X61595000Y-65251000D01*
%TO.N,Net-(U3-QB)*%
X67945000Y-64531000D02*
X67945000Y-65251000D01*
X66675000Y-63261000D02*
X67945000Y-64531000D01*
%TO.N,Net-(U3-QC)*%
X66675000Y-64531000D02*
X66675000Y-65251000D01*
X65405000Y-63261000D02*
X66675000Y-64531000D01*
%TO.N,Led_Out*%
X59055000Y-73279000D02*
X59055000Y-71751000D01*
X76858000Y-70000000D02*
X80500000Y-70000000D01*
X76835000Y-69977000D02*
X76858000Y-70000000D01*
%TO.N,Net-(U3-~{SRCLR})*%
D28*
X60325000Y-73404000D02*
X60325000Y-71751000D01*
%TO.N,Net-(U11-~{CE})*%
D29*
X33374696Y-50921000D02*
X34538000Y-50921000D01*
X36959000Y-53342000D02*
X36959000Y-53975000D01*
X34538000Y-50921000D02*
X36959000Y-53342000D01*
%TO.N,/RJ45/SchieberegisterInput5/Out*%
X39874696Y-37078000D02*
X40428696Y-37078000D01*
X46524696Y-43301000D02*
X47090696Y-43301000D01*
X41084696Y-39639000D02*
X42593696Y-41148000D01*
X40428696Y-37078000D02*
X41084696Y-37734000D01*
X42593696Y-41148000D02*
X44371696Y-41148000D01*
X41084696Y-37734000D02*
X41084696Y-39639000D01*
X44371696Y-41148000D02*
X46524696Y-43301000D01*
%TO.N,/RJ45/SchieberegisterInput6/Out*%
X34725696Y-44571000D02*
X36624696Y-42672000D01*
X36624696Y-42672000D02*
X36624696Y-39243000D01*
X33374696Y-44571000D02*
X34725696Y-44571000D01*
X37519696Y-38348000D02*
X39874696Y-38348000D01*
X36624696Y-39243000D02*
X37519696Y-38348000D01*
%TO.N,Net-(U14-~{CE})*%
D28*
X12434000Y-30480000D02*
X14095000Y-30480000D01*
X12192000Y-30722000D02*
X12434000Y-30480000D01*
X14095000Y-30480000D02*
X14605000Y-29970000D01*
X11732696Y-30728000D02*
X12186000Y-30728000D01*
X12186000Y-30728000D02*
X12192000Y-30734000D01*
X12192000Y-30734000D02*
X12192000Y-30722000D01*
%TD*%
M02*
