%TF.GenerationSoftware,KiCad,Pcbnew,10.0.1*%
%TF.CreationDate,2026-05-08T20:02:03+02:00*%
%TF.ProjectId,Sens_Board,53656e73-5f42-46f6-9172-642e6b696361,rev?*%
%TF.SameCoordinates,Original*%
%TF.FileFunction,Legend,Bot*%
%TF.FilePolarity,Positive*%
%FSLAX46Y46*%
G04 Gerber Fmt 4.6, Leading zero omitted, Abs format (unit mm)*
G04 Created by KiCad (PCBNEW 10.0.1) date 2026-05-08 20:02:03*
%MOMM*%
%LPD*%
G01*
G04 APERTURE LIST*
%ADD10C,3.200000*%
%ADD11C,1.600000*%
%ADD12C,3.250000*%
%ADD13C,1.500000*%
G04 APERTURE END LIST*
%LPC*%
D10*
%TO.C,H1*%
X34000000Y-70000000D03*
%TD*%
D11*
%TO.C,J3*%
X86930000Y-16357000D03*
X86930000Y-7987000D03*
D12*
X78420000Y-5197000D03*
X8580000Y-5197000D03*
D11*
X70000Y-16357000D03*
X70000Y-7987000D03*
D13*
X73980000Y-17897000D03*
X75250000Y-15357000D03*
X76520000Y-17897000D03*
X77790000Y-15357000D03*
X79060000Y-17897000D03*
X80330000Y-15357000D03*
X81600000Y-17897000D03*
X82870000Y-15357000D03*
X72330000Y-21817000D03*
X74870000Y-21817000D03*
X81980000Y-21817000D03*
X84520000Y-21817000D03*
X82870000Y-9117000D03*
X81600000Y-11657000D03*
X80330000Y-9117000D03*
X79060000Y-11657000D03*
X77790000Y-9117000D03*
X76520000Y-11657000D03*
X75250000Y-9117000D03*
X73980000Y-11657000D03*
X71960000Y-3957000D03*
X74500000Y-3957000D03*
X82350000Y-2177000D03*
X84890000Y-2177000D03*
X60010000Y-17897000D03*
X61280000Y-15357000D03*
X62550000Y-17897000D03*
X63820000Y-15357000D03*
X65090000Y-17897000D03*
X66360000Y-15357000D03*
X67630000Y-17897000D03*
X68900000Y-15357000D03*
X58360000Y-21817000D03*
X60900000Y-21817000D03*
X68010000Y-21817000D03*
X70550000Y-21817000D03*
X68900000Y-9117000D03*
X67630000Y-11657000D03*
X66360000Y-9117000D03*
X65090000Y-11657000D03*
X63820000Y-9117000D03*
X62550000Y-11657000D03*
X61280000Y-9117000D03*
X60010000Y-11657000D03*
X57990000Y-3957000D03*
X60530000Y-3957000D03*
X68380000Y-2177000D03*
X70920000Y-2177000D03*
X46040000Y-17897000D03*
X47310000Y-15357000D03*
X48580000Y-17897000D03*
X49850000Y-15357000D03*
X51120000Y-17897000D03*
X52390000Y-15357000D03*
X53660000Y-17897000D03*
X54930000Y-15357000D03*
X44390000Y-21817000D03*
X46930000Y-21817000D03*
X54040000Y-21817000D03*
X56580000Y-21817000D03*
X54930000Y-9117000D03*
X53660000Y-11657000D03*
X52390000Y-9117000D03*
X51120000Y-11657000D03*
X49850000Y-9117000D03*
X48580000Y-11657000D03*
X47310000Y-9117000D03*
X46040000Y-11657000D03*
X40440000Y-2177000D03*
X42980000Y-2177000D03*
X54410000Y-2177000D03*
X56950000Y-2177000D03*
X32070000Y-17897000D03*
X33340000Y-15357000D03*
X34610000Y-17897000D03*
X35880000Y-15357000D03*
X37150000Y-17897000D03*
X38420000Y-15357000D03*
X39690000Y-17897000D03*
X40960000Y-15357000D03*
X30420000Y-21817000D03*
X32960000Y-21817000D03*
X40070000Y-21817000D03*
X42610000Y-21817000D03*
X40960000Y-9117000D03*
X39690000Y-11657000D03*
X38420000Y-9117000D03*
X37150000Y-11657000D03*
X35880000Y-9117000D03*
X34610000Y-11657000D03*
X33340000Y-9117000D03*
X32070000Y-11657000D03*
X30050000Y-3957000D03*
X32590000Y-3957000D03*
X44020000Y-3957000D03*
X46560000Y-3957000D03*
X18100000Y-17897000D03*
X19370000Y-15357000D03*
X20640000Y-17897000D03*
X21910000Y-15357000D03*
X23180000Y-17897000D03*
X24450000Y-15357000D03*
X25720000Y-17897000D03*
X26990000Y-15357000D03*
X16450000Y-21817000D03*
X18990000Y-21817000D03*
X26100000Y-21817000D03*
X28640000Y-21817000D03*
X26990000Y-9117000D03*
X25720000Y-11657000D03*
X24450000Y-9117000D03*
X23180000Y-11657000D03*
X21910000Y-9117000D03*
X20640000Y-11657000D03*
X19370000Y-9117000D03*
X18100000Y-11657000D03*
X12500000Y-2177000D03*
X15040000Y-2177000D03*
X26470000Y-2177000D03*
X29010000Y-2177000D03*
X4130000Y-17897000D03*
X5400000Y-15357000D03*
X6670000Y-17897000D03*
X7940000Y-15357000D03*
X9210000Y-17897000D03*
X10480000Y-15357000D03*
X11750000Y-17897000D03*
X13020000Y-15357000D03*
X2480000Y-21817000D03*
X5020000Y-21817000D03*
X12130000Y-21817000D03*
X14670000Y-21817000D03*
X13020000Y-9117000D03*
X11750000Y-11657000D03*
X10480000Y-9117000D03*
X9210000Y-11657000D03*
X7940000Y-9117000D03*
X6670000Y-11657000D03*
X5400000Y-9117000D03*
X4130000Y-11657000D03*
X2110000Y-3957000D03*
X4650000Y-3957000D03*
X16080000Y-3957000D03*
X18620000Y-3957000D03*
%TD*%
D10*
%TO.C,H2*%
X53000000Y-70000000D03*
%TD*%
%LPD*%
M02*
