%TF.GenerationSoftware,KiCad,Pcbnew,10.0.1*%
%TF.CreationDate,2026-05-08T20:08:20+02:00*%
%TF.ProjectId,Sens_Board,53656e73-5f42-46f6-9172-642e6b696361,rev?*%
%TF.SameCoordinates,Original*%
%TF.FileFunction,Copper,L4,Bot*%
%TF.FilePolarity,Positive*%
%FSLAX46Y46*%
G04 Gerber Fmt 4.6, Leading zero omitted, Abs format (unit mm)*
G04 Created by KiCad (PCBNEW 10.0.1) date 2026-05-08 20:08:20*
%MOMM*%
%LPD*%
G01*
G04 APERTURE LIST*
%TA.AperFunction,WasherPad*%
%ADD10C,1.600000*%
%TD*%
%TA.AperFunction,ComponentPad*%
%ADD11C,1.500000*%
%TD*%
%TA.AperFunction,ViaPad*%
%ADD12C,0.450000*%
%TD*%
%TA.AperFunction,ViaPad*%
%ADD13C,0.600000*%
%TD*%
%TA.AperFunction,Conductor*%
%ADD14C,0.200000*%
%TD*%
G04 APERTURE END LIST*
D10*
%TO.P,J3,*%
%TO.N,*%
X86930000Y-16357000D03*
X86930000Y-7987000D03*
X70000Y-16357000D03*
X70000Y-7987000D03*
D11*
%TO.P,J3,A1*%
%TO.N,/RJ45/SchieberegisterInput/D4*%
X73980000Y-17897000D03*
%TO.P,J3,A2*%
%TO.N,/RJ45/SchieberegisterInput/D5*%
X75250000Y-15357000D03*
%TO.P,J3,A3*%
%TO.N,/RJ45/SchieberegisterInput/D6*%
X76520000Y-17897000D03*
%TO.P,J3,A4*%
%TO.N,/RJ45/SchieberegisterInput/D7*%
X77790000Y-15357000D03*
%TO.P,J3,A5*%
%TO.N,/RJ45/SchieberegisterInput/D0*%
X79060000Y-17897000D03*
%TO.P,J3,A6*%
%TO.N,/RJ45/SchieberegisterInput/D1*%
X80330000Y-15357000D03*
%TO.P,J3,A7*%
%TO.N,/RJ45/SchieberegisterInput/D2*%
X81600000Y-17897000D03*
%TO.P,J3,A8*%
%TO.N,/RJ45/SchieberegisterInput/D3*%
X82870000Y-15357000D03*
%TO.P,J3,A9*%
%TO.N,GND*%
X72330000Y-21817000D03*
%TO.P,J3,A10*%
%TO.N,/OutputShift2/Out0*%
X74870000Y-21817000D03*
%TO.P,J3,A11*%
%TO.N,GND*%
X81980000Y-21817000D03*
%TO.P,J3,A12*%
%TO.N,/OutputShift2/Out1*%
X84520000Y-21817000D03*
%TO.P,J3,B1*%
%TO.N,/RJ45/SchieberegisterInput1/D4*%
X82870000Y-9117000D03*
%TO.P,J3,B2*%
%TO.N,/RJ45/SchieberegisterInput1/D5*%
X81600000Y-11657000D03*
%TO.P,J3,B3*%
%TO.N,/RJ45/SchieberegisterInput1/D6*%
X80330000Y-9117000D03*
%TO.P,J3,B4*%
%TO.N,/RJ45/SchieberegisterInput1/D7*%
X79060000Y-11657000D03*
%TO.P,J3,B5*%
%TO.N,/RJ45/SchieberegisterInput1/D0*%
X77790000Y-9117000D03*
%TO.P,J3,B6*%
%TO.N,/RJ45/SchieberegisterInput1/D1*%
X76520000Y-11657000D03*
%TO.P,J3,B7*%
%TO.N,/RJ45/SchieberegisterInput1/D2*%
X75250000Y-9117000D03*
%TO.P,J3,B8*%
%TO.N,/RJ45/SchieberegisterInput1/D3*%
X73980000Y-11657000D03*
%TO.P,J3,B9*%
%TO.N,GND*%
X71960000Y-3957000D03*
%TO.P,J3,B10*%
%TO.N,/OutputShift2/Out2*%
X74500000Y-3957000D03*
%TO.P,J3,B11*%
%TO.N,GND*%
X82350000Y-2177000D03*
%TO.P,J3,B12*%
%TO.N,/OutputShift2/Out3*%
X84890000Y-2177000D03*
%TO.P,J3,C1*%
%TO.N,/RJ45/SchieberegisterInput2/D4*%
X60010000Y-17897000D03*
%TO.P,J3,C2*%
%TO.N,/RJ45/SchieberegisterInput2/D5*%
X61280000Y-15357000D03*
%TO.P,J3,C3*%
%TO.N,/RJ45/SchieberegisterInput2/D6*%
X62550000Y-17897000D03*
%TO.P,J3,C4*%
%TO.N,/RJ45/SchieberegisterInput2/D7*%
X63820000Y-15357000D03*
%TO.P,J3,C5*%
%TO.N,/RJ45/SchieberegisterInput2/D0*%
X65090000Y-17897000D03*
%TO.P,J3,C6*%
%TO.N,/RJ45/SchieberegisterInput2/D1*%
X66360000Y-15357000D03*
%TO.P,J3,C7*%
%TO.N,/RJ45/SchieberegisterInput2/D2*%
X67630000Y-17897000D03*
%TO.P,J3,C8*%
%TO.N,/RJ45/SchieberegisterInput2/D3*%
X68900000Y-15357000D03*
%TO.P,J3,C9*%
%TO.N,GND*%
X58360000Y-21817000D03*
%TO.P,J3,C10*%
%TO.N,/OutputShift2/Out4*%
X60900000Y-21817000D03*
%TO.P,J3,C11*%
%TO.N,GND*%
X68010000Y-21817000D03*
%TO.P,J3,C12*%
%TO.N,/OutputShift2/Out5*%
X70550000Y-21817000D03*
%TO.P,J3,D1*%
%TO.N,/RJ45/SchieberegisterInput3/D4*%
X68900000Y-9117000D03*
%TO.P,J3,D2*%
%TO.N,/RJ45/SchieberegisterInput3/D5*%
X67630000Y-11657000D03*
%TO.P,J3,D3*%
%TO.N,/RJ45/SchieberegisterInput3/D6*%
X66360000Y-9117000D03*
%TO.P,J3,D4*%
%TO.N,/RJ45/SchieberegisterInput3/D7*%
X65090000Y-11657000D03*
%TO.P,J3,D5*%
%TO.N,/RJ45/SchieberegisterInput3/D0*%
X63820000Y-9117000D03*
%TO.P,J3,D6*%
%TO.N,/RJ45/SchieberegisterInput3/D1*%
X62550000Y-11657000D03*
%TO.P,J3,D7*%
%TO.N,/RJ45/SchieberegisterInput3/D2*%
X61280000Y-9117000D03*
%TO.P,J3,D8*%
%TO.N,/RJ45/SchieberegisterInput3/D3*%
X60010000Y-11657000D03*
%TO.P,J3,D9*%
%TO.N,GND*%
X57990000Y-3957000D03*
%TO.P,J3,D10*%
%TO.N,/OutputShift2/Out6*%
X60530000Y-3957000D03*
%TO.P,J3,D11*%
%TO.N,GND*%
X68380000Y-2177000D03*
%TO.P,J3,D12*%
%TO.N,/OutputShift2/Out7*%
X70920000Y-2177000D03*
%TO.P,J3,E1*%
%TO.N,/RJ45/SchieberegisterInput4/D4*%
X46040000Y-17897000D03*
%TO.P,J3,E2*%
%TO.N,/RJ45/SchieberegisterInput4/D5*%
X47310000Y-15357000D03*
%TO.P,J3,E3*%
%TO.N,/RJ45/SchieberegisterInput4/D6*%
X48580000Y-17897000D03*
%TO.P,J3,E4*%
%TO.N,/RJ45/SchieberegisterInput4/D7*%
X49850000Y-15357000D03*
%TO.P,J3,E5*%
%TO.N,/RJ45/SchieberegisterInput4/D0*%
X51120000Y-17897000D03*
%TO.P,J3,E6*%
%TO.N,/RJ45/SchieberegisterInput4/D1*%
X52390000Y-15357000D03*
%TO.P,J3,E7*%
%TO.N,/RJ45/SchieberegisterInput4/D2*%
X53660000Y-17897000D03*
%TO.P,J3,E8*%
%TO.N,/RJ45/SchieberegisterInput4/D3*%
X54930000Y-15357000D03*
%TO.P,J3,E9*%
%TO.N,GND*%
X44390000Y-21817000D03*
%TO.P,J3,E10*%
%TO.N,/OutputShift1/Out0*%
X46930000Y-21817000D03*
%TO.P,J3,E11*%
%TO.N,GND*%
X54040000Y-21817000D03*
%TO.P,J3,E12*%
%TO.N,/OutputShift1/Out1*%
X56580000Y-21817000D03*
%TO.P,J3,F1*%
%TO.N,/RJ45/SchieberegisterInput5/D4*%
X54930000Y-9117000D03*
%TO.P,J3,F2*%
%TO.N,/RJ45/SchieberegisterInput5/D5*%
X53660000Y-11657000D03*
%TO.P,J3,F3*%
%TO.N,/RJ45/SchieberegisterInput5/D6*%
X52390000Y-9117000D03*
%TO.P,J3,F4*%
%TO.N,/RJ45/SchieberegisterInput5/D7*%
X51120000Y-11657000D03*
%TO.P,J3,F5*%
%TO.N,/RJ45/SchieberegisterInput5/D0*%
X49850000Y-9117000D03*
%TO.P,J3,F6*%
%TO.N,/RJ45/SchieberegisterInput5/D1*%
X48580000Y-11657000D03*
%TO.P,J3,F7*%
%TO.N,/RJ45/SchieberegisterInput5/D2*%
X47310000Y-9117000D03*
%TO.P,J3,F8*%
%TO.N,/RJ45/SchieberegisterInput5/D3*%
X46040000Y-11657000D03*
%TO.P,J3,F9*%
%TO.N,GND*%
X40440000Y-2177000D03*
%TO.P,J3,F10*%
%TO.N,/OutputShift1/Out2*%
X42980000Y-2177000D03*
%TO.P,J3,F11*%
%TO.N,GND*%
X54410000Y-2177000D03*
%TO.P,J3,F12*%
%TO.N,/OutputShift1/Out3*%
X56950000Y-2177000D03*
%TO.P,J3,G1*%
%TO.N,/RJ45/SchieberegisterInput6/D4*%
X32070000Y-17897000D03*
%TO.P,J3,G2*%
%TO.N,/RJ45/SchieberegisterInput6/D5*%
X33340000Y-15357000D03*
%TO.P,J3,G3*%
%TO.N,/RJ45/SchieberegisterInput6/D6*%
X34610000Y-17897000D03*
%TO.P,J3,G4*%
%TO.N,/RJ45/SchieberegisterInput6/D7*%
X35880000Y-15357000D03*
%TO.P,J3,G5*%
%TO.N,/RJ45/SchieberegisterInput6/D0*%
X37150000Y-17897000D03*
%TO.P,J3,G6*%
%TO.N,/RJ45/SchieberegisterInput6/D1*%
X38420000Y-15357000D03*
%TO.P,J3,G7*%
%TO.N,/RJ45/SchieberegisterInput6/D2*%
X39690000Y-17897000D03*
%TO.P,J3,G8*%
%TO.N,/RJ45/SchieberegisterInput6/D3*%
X40960000Y-15357000D03*
%TO.P,J3,G9*%
%TO.N,GND*%
X30420000Y-21817000D03*
%TO.P,J3,G10*%
%TO.N,/OutputShift1/Out4*%
X32960000Y-21817000D03*
%TO.P,J3,G11*%
%TO.N,GND*%
X40070000Y-21817000D03*
%TO.P,J3,G12*%
%TO.N,/OutputShift1/Out5*%
X42610000Y-21817000D03*
%TO.P,J3,H1*%
%TO.N,/RJ45/SchieberegisterInput7/D4*%
X40960000Y-9117000D03*
%TO.P,J3,H2*%
%TO.N,/RJ45/SchieberegisterInput7/D5*%
X39690000Y-11657000D03*
%TO.P,J3,H3*%
%TO.N,/RJ45/SchieberegisterInput7/D6*%
X38420000Y-9117000D03*
%TO.P,J3,H4*%
%TO.N,/RJ45/SchieberegisterInput7/D7*%
X37150000Y-11657000D03*
%TO.P,J3,H5*%
%TO.N,/RJ45/SchieberegisterInput7/D0*%
X35880000Y-9117000D03*
%TO.P,J3,H6*%
%TO.N,/RJ45/SchieberegisterInput7/D1*%
X34610000Y-11657000D03*
%TO.P,J3,H7*%
%TO.N,/RJ45/SchieberegisterInput7/D2*%
X33340000Y-9117000D03*
%TO.P,J3,H8*%
%TO.N,/RJ45/SchieberegisterInput7/D3*%
X32070000Y-11657000D03*
%TO.P,J3,H9*%
%TO.N,GND*%
X30050000Y-3957000D03*
%TO.P,J3,H10*%
%TO.N,/OutputShift1/Out6*%
X32590000Y-3957000D03*
%TO.P,J3,H11*%
%TO.N,GND*%
X44020000Y-3957000D03*
%TO.P,J3,H12*%
%TO.N,/OutputShift1/Out7*%
X46560000Y-3957000D03*
%TO.P,J3,I1*%
%TO.N,/RJ45/SchieberegisterInput8/D4*%
X18100000Y-17897000D03*
%TO.P,J3,I2*%
%TO.N,/RJ45/SchieberegisterInput8/D5*%
X19370000Y-15357000D03*
%TO.P,J3,I3*%
%TO.N,/RJ45/SchieberegisterInput8/D6*%
X20640000Y-17897000D03*
%TO.P,J3,I4*%
%TO.N,/RJ45/SchieberegisterInput8/D7*%
X21910000Y-15357000D03*
%TO.P,J3,I5*%
%TO.N,/RJ45/SchieberegisterInput8/D0*%
X23180000Y-17897000D03*
%TO.P,J3,I6*%
%TO.N,/RJ45/SchieberegisterInput8/D1*%
X24450000Y-15357000D03*
%TO.P,J3,I7*%
%TO.N,/RJ45/SchieberegisterInput8/D2*%
X25720000Y-17897000D03*
%TO.P,J3,I8*%
%TO.N,/RJ45/SchieberegisterInput8/D3*%
X26990000Y-15357000D03*
%TO.P,J3,I9*%
%TO.N,GND*%
X16450000Y-21817000D03*
%TO.P,J3,I10*%
%TO.N,/OutputShift/Out0*%
X18990000Y-21817000D03*
%TO.P,J3,I11*%
%TO.N,GND*%
X26100000Y-21817000D03*
%TO.P,J3,I12*%
%TO.N,/OutputShift/Out1*%
X28640000Y-21817000D03*
%TO.P,J3,J1*%
%TO.N,/RJ45/SchieberegisterInput9/D4*%
X26990000Y-9117000D03*
%TO.P,J3,J2*%
%TO.N,/RJ45/SchieberegisterInput9/D5*%
X25720000Y-11657000D03*
%TO.P,J3,J3*%
%TO.N,/RJ45/SchieberegisterInput9/D6*%
X24450000Y-9117000D03*
%TO.P,J3,J4*%
%TO.N,/RJ45/SchieberegisterInput9/D7*%
X23180000Y-11657000D03*
%TO.P,J3,J5*%
%TO.N,/RJ45/SchieberegisterInput9/D0*%
X21910000Y-9117000D03*
%TO.P,J3,J6*%
%TO.N,/RJ45/SchieberegisterInput9/D1*%
X20640000Y-11657000D03*
%TO.P,J3,J7*%
%TO.N,/RJ45/SchieberegisterInput9/D2*%
X19370000Y-9117000D03*
%TO.P,J3,J8*%
%TO.N,/RJ45/SchieberegisterInput9/D3*%
X18100000Y-11657000D03*
%TO.P,J3,J9*%
%TO.N,GND*%
X12500000Y-2177000D03*
%TO.P,J3,J10*%
%TO.N,/OutputShift/Out2*%
X15040000Y-2177000D03*
%TO.P,J3,J11*%
%TO.N,GND*%
X26470000Y-2177000D03*
%TO.P,J3,J12*%
%TO.N,/OutputShift/Out3*%
X29010000Y-2177000D03*
%TO.P,J3,K1*%
%TO.N,/RJ45/SchieberegisterInput10/D4*%
X4130000Y-17897000D03*
%TO.P,J3,K2*%
%TO.N,/RJ45/SchieberegisterInput10/D5*%
X5400000Y-15357000D03*
%TO.P,J3,K3*%
%TO.N,/RJ45/SchieberegisterInput10/D6*%
X6670000Y-17897000D03*
%TO.P,J3,K4*%
%TO.N,/RJ45/SchieberegisterInput10/D7*%
X7940000Y-15357000D03*
%TO.P,J3,K5*%
%TO.N,/RJ45/SchieberegisterInput10/D0*%
X9210000Y-17897000D03*
%TO.P,J3,K6*%
%TO.N,/RJ45/SchieberegisterInput10/D1*%
X10480000Y-15357000D03*
%TO.P,J3,K7*%
%TO.N,/RJ45/SchieberegisterInput10/D2*%
X11750000Y-17897000D03*
%TO.P,J3,K8*%
%TO.N,/RJ45/SchieberegisterInput10/D3*%
X13020000Y-15357000D03*
%TO.P,J3,K9*%
%TO.N,GND*%
X2480000Y-21817000D03*
%TO.P,J3,K10*%
%TO.N,/OutputShift/Out4*%
X5020000Y-21817000D03*
%TO.P,J3,K11*%
%TO.N,GND*%
X12130000Y-21817000D03*
%TO.P,J3,K12*%
%TO.N,/OutputShift/Out5*%
X14670000Y-21817000D03*
%TO.P,J3,L1*%
%TO.N,/RJ45/SchieberegisterInput11/D4*%
X13020000Y-9117000D03*
%TO.P,J3,L2*%
%TO.N,/RJ45/SchieberegisterInput11/D5*%
X11750000Y-11657000D03*
%TO.P,J3,L3*%
%TO.N,/RJ45/SchieberegisterInput11/D6*%
X10480000Y-9117000D03*
%TO.P,J3,L4*%
%TO.N,/RJ45/SchieberegisterInput11/D7*%
X9210000Y-11657000D03*
%TO.P,J3,L5*%
%TO.N,/RJ45/SchieberegisterInput11/D0*%
X7940000Y-9117000D03*
%TO.P,J3,L6*%
%TO.N,/RJ45/SchieberegisterInput11/D1*%
X6670000Y-11657000D03*
%TO.P,J3,L7*%
%TO.N,/RJ45/SchieberegisterInput11/D2*%
X5400000Y-9117000D03*
%TO.P,J3,L8*%
%TO.N,/RJ45/SchieberegisterInput11/D3*%
X4130000Y-11657000D03*
%TO.P,J3,L9*%
%TO.N,GND*%
X2110000Y-3957000D03*
%TO.P,J3,L10*%
%TO.N,/OutputShift/Out6*%
X4650000Y-3957000D03*
%TO.P,J3,L11*%
%TO.N,GND*%
X16080000Y-3957000D03*
%TO.P,J3,L12*%
%TO.N,/OutputShift/Out7*%
X18620000Y-3957000D03*
%TD*%
D12*
%TO.N,+5V*%
X82985696Y-45593000D03*
X55420696Y-28858000D03*
X59443431Y-31791265D03*
X3477696Y-52451000D03*
X74780696Y-54681000D03*
X27607696Y-31760000D03*
X73067696Y-38484915D03*
X73073696Y-52797000D03*
X31590396Y-49901000D03*
X82973696Y-31623000D03*
X55461961Y-31791265D03*
X25956696Y-27178000D03*
X17747396Y-49901000D03*
X73067696Y-28829000D03*
D13*
X67818000Y-27305000D03*
D12*
X27734696Y-52797000D03*
X55420696Y-38481000D03*
X73067696Y-36195000D03*
X55466396Y-49901000D03*
X3477696Y-38481000D03*
X13510696Y-52797000D03*
X3477696Y-45603000D03*
X41704696Y-43053000D03*
X31544696Y-52832000D03*
X3474781Y-36052000D03*
X82985696Y-43307000D03*
X82985696Y-49911000D03*
X69637196Y-49901000D03*
D13*
X46355000Y-53975000D03*
D12*
X73079696Y-43307000D03*
X5128696Y-54737000D03*
X69644696Y-43180000D03*
X17701696Y-52797000D03*
X45227422Y-31799255D03*
X59484696Y-52797000D03*
X14732000Y-28702000D03*
X3477696Y-43307000D03*
X70750000Y-71751000D03*
X41704696Y-52797000D03*
X73067696Y-31617509D03*
X82973696Y-29337000D03*
X45260696Y-38608000D03*
X41697196Y-49901000D03*
X27734696Y-45603000D03*
X31574290Y-35943876D03*
X13560028Y-36052000D03*
X41768627Y-36037401D03*
X3489677Y-31754000D03*
X31544696Y-28829000D03*
X59484696Y-28858000D03*
X13510696Y-43180000D03*
X59484696Y-49901000D03*
X55484627Y-36037401D03*
X17747396Y-36058000D03*
X58166000Y-73533000D03*
X73079696Y-49976000D03*
X55420696Y-45603000D03*
X17701696Y-31760000D03*
X45260696Y-43180000D03*
X3477696Y-29337000D03*
X81929696Y-27336000D03*
X69652196Y-45603000D03*
X73079696Y-45593000D03*
X30480000Y-71474000D03*
X27734696Y-43307000D03*
X45260696Y-52797000D03*
X59484696Y-38481000D03*
X82973696Y-35941000D03*
X3523396Y-49901000D03*
D13*
X32200988Y-53975000D03*
D12*
X69661111Y-31822115D03*
X17701696Y-45603000D03*
X13510696Y-45603000D03*
X7239000Y-60579000D03*
X27734696Y-49901000D03*
X17701696Y-28829000D03*
X59484696Y-43307000D03*
X45214996Y-45603000D03*
X13510696Y-38481000D03*
X31498996Y-45603000D03*
X11732696Y-27305000D03*
X82973696Y-38348000D03*
X17701696Y-43180000D03*
D13*
X53594000Y-27305000D03*
D12*
X55420696Y-52797000D03*
X69644696Y-52797000D03*
X17701696Y-38481000D03*
X45260696Y-49901000D03*
X45260696Y-28858000D03*
X41743961Y-31793265D03*
X41658996Y-45603000D03*
X20191000Y-74043000D03*
X41704696Y-28829000D03*
X80391000Y-60960000D03*
X82985696Y-52197000D03*
X13518196Y-31760000D03*
D13*
X60189696Y-53975000D03*
D12*
X31484367Y-31772201D03*
X45213431Y-36020735D03*
X69644696Y-38481000D03*
X31544696Y-43180000D03*
X27607696Y-36058000D03*
X41704696Y-38735000D03*
X39624000Y-72992100D03*
X48387000Y-73406000D03*
X59470097Y-35988069D03*
X31544696Y-38608000D03*
D13*
X18390000Y-53975000D03*
D12*
X59484696Y-45603000D03*
X55420696Y-43180000D03*
X69691961Y-36020735D03*
X39926696Y-27178000D03*
X69644696Y-28858000D03*
X13556396Y-49901000D03*
X28369696Y-37846000D03*
%TO.N,/OutputShift2/Out5*%
X61595000Y-57912000D03*
%TO.N,/OutputShift2/Out7*%
X59055000Y-58547000D03*
%TO.N,/RJ45/SchieberegisterInput1/D4*%
X80081659Y-49656726D03*
%TO.N,Data_Latch*%
X38656696Y-52197000D03*
X66596696Y-52197000D03*
X24686696Y-52197000D03*
X75861696Y-29458000D03*
X10462696Y-52197000D03*
X4191000Y-29464000D03*
X60198000Y-29458000D03*
X32258000Y-29458000D03*
X52372696Y-52197000D03*
X80058696Y-52197000D03*
X45974000Y-29458000D03*
X18299878Y-29453306D03*
%TO.N,Data_Clk*%
X32275988Y-30724931D03*
X52372696Y-50927000D03*
X80058696Y-50927000D03*
X75861696Y-30728000D03*
X4210178Y-30730914D03*
X10462696Y-50927000D03*
X38656696Y-50927000D03*
X60215988Y-30724931D03*
X24686696Y-50927000D03*
X66596696Y-50927000D03*
X18432504Y-30728496D03*
X45993196Y-30731001D03*
%TO.N,/RJ45/SchieberegisterInput1/D5*%
X80318696Y-48381000D03*
%TO.N,/RJ45/SchieberegisterInput1/D6*%
X78680696Y-46863000D03*
%TO.N,/RJ45/SchieberegisterInput1/D7*%
X78155696Y-45847000D03*
D13*
%TO.N,GND*%
X55118000Y-27432000D03*
X62992000Y-53975000D03*
D12*
X39878000Y-42672000D03*
X33374696Y-38888304D03*
X69800000Y-69751000D03*
X53594000Y-42672000D03*
X11732696Y-42545000D03*
X56993900Y-31623000D03*
X21130696Y-53975000D03*
X71247000Y-31496000D03*
X28829000Y-31623000D03*
X61314696Y-38888304D03*
X81328696Y-42799000D03*
X5232696Y-39139000D03*
X46609000Y-73406000D03*
X84074000Y-31496000D03*
X43307000Y-31496000D03*
X80435696Y-27934000D03*
X9779000Y-77978000D03*
X38311000Y-65203000D03*
X27607696Y-28067000D03*
D13*
X35179000Y-53975000D03*
D12*
X47117000Y-38989000D03*
X58420000Y-65278000D03*
X74803000Y-56261000D03*
X6906696Y-53975000D03*
X13383696Y-28067000D03*
X18868000Y-64949000D03*
X25956696Y-42672000D03*
X75455000Y-39116000D03*
X77216000Y-78000000D03*
X14605000Y-31623000D03*
X67818000Y-42672000D03*
X41450696Y-28067000D03*
D13*
X69469000Y-27940000D03*
D12*
X19685000Y-38989000D03*
X30353000Y-72390000D03*
X75819000Y-54737000D03*
D13*
X48768000Y-53975000D03*
D12*
%TO.N,/RJ45/SchieberegisterInput1/D0*%
X77438696Y-45847000D03*
%TO.N,/RJ45/SchieberegisterInput1/D1*%
X76913696Y-47117000D03*
%TO.N,/RJ45/SchieberegisterInput1/D2*%
X75988696Y-48381000D03*
%TO.N,/RJ45/SchieberegisterInput1/D3*%
X75994696Y-49657000D03*
%TO.N,/RJ45/SchieberegisterInput5/D4*%
X52324000Y-49657000D03*
%TO.N,/OutputShift1/Out6*%
X40386000Y-61341000D03*
%TO.N,/RJ45/SchieberegisterInput5/D6*%
X51198000Y-47117000D03*
%TO.N,/OutputShift1/Out1*%
X46736000Y-61341000D03*
%TO.N,/OutputShift1/out*%
X39116000Y-74041000D03*
X65405000Y-74041000D03*
%TO.N,Led_Latch*%
X42926000Y-75421000D03*
X10541000Y-74041000D03*
X23368000Y-75421000D03*
X76581000Y-74041000D03*
X62865000Y-75421000D03*
%TO.N,Led_OE*%
X24638000Y-74803000D03*
X64135000Y-74803000D03*
X44196000Y-74803000D03*
X76844000Y-72000000D03*
X10287000Y-72009000D03*
%TO.N,/OutputShift/out*%
X19558000Y-73406000D03*
X45466000Y-73406000D03*
%TO.N,/OutputShift/Out0*%
X28448000Y-57150000D03*
%TO.N,/RJ45/SchieberegisterInput9/D4*%
X24577003Y-49657000D03*
%TO.N,/RJ45/SchieberegisterInput9/D5*%
X24052003Y-48387000D03*
%TO.N,/RJ45/SchieberegisterInput9/D6*%
X23527003Y-47117000D03*
%TO.N,/RJ45/SchieberegisterInput9/D7*%
X23002003Y-45847000D03*
%TO.N,/RJ45/SchieberegisterInput9/D0*%
X22352000Y-45847000D03*
%TO.N,/RJ45/SchieberegisterInput9/D1*%
X21717000Y-47111000D03*
%TO.N,/RJ45/SchieberegisterInput9/D2*%
X21082000Y-48381000D03*
%TO.N,/RJ45/SchieberegisterInput9/D3*%
X20557000Y-49634000D03*
%TO.N,/RJ45/SchieberegisterInput7/D3*%
X34732043Y-49657000D03*
%TO.N,/RJ45/SchieberegisterInput11/D6*%
X9302928Y-47117000D03*
%TO.N,/OutputShift/Out6*%
X20828000Y-60706000D03*
%TO.N,/RJ45/SchieberegisterInput5/D1*%
X49498042Y-47117000D03*
%TO.N,/RJ45/SchieberegisterInput3/D6*%
X65422000Y-47117000D03*
%TO.N,/RJ45/SchieberegisterInput7/D6*%
X37482000Y-47117000D03*
%TO.N,/OutputShift/Out2*%
X25908000Y-59690000D03*
%TO.N,/RJ45/SchieberegisterInput7/D5*%
X38007000Y-48387000D03*
%TO.N,/RJ45/SchieberegisterInput3/D1*%
X63721997Y-47117000D03*
%TO.N,/RJ45/SchieberegisterInput3/D3*%
X63119000Y-49657000D03*
%TO.N,/RJ45/SchieberegisterInput11/D2*%
X7078000Y-48387000D03*
%TO.N,/RJ45/SchieberegisterInput5/D7*%
X50673000Y-45847000D03*
%TO.N,/OutputShift2/Out3*%
X64135000Y-60833000D03*
%TO.N,/RJ45/SchieberegisterInput11/D4*%
X10352928Y-49657000D03*
%TO.N,/RJ45/SchieberegisterInput5/D5*%
X51723000Y-48387000D03*
%TO.N,/RJ45/SchieberegisterInput3/D4*%
X66675000Y-49651000D03*
%TO.N,/RJ45/SchieberegisterInput3/D5*%
X65947000Y-48387000D03*
%TO.N,/RJ45/SchieberegisterInput3/D7*%
X64897000Y-45847000D03*
%TO.N,/RJ45/SchieberegisterInput3/D0*%
X64246997Y-45847000D03*
%TO.N,/RJ45/SchieberegisterInput3/D2*%
X62478000Y-48381000D03*
%TO.N,/OutputShift2/Out4*%
X62484000Y-56515000D03*
%TO.N,/RJ45/SchieberegisterInput7/D4*%
X38532000Y-49657000D03*
%TO.N,/OutputShift/Out5*%
X22098000Y-59131000D03*
%TO.N,/RJ45/SchieberegisterInput11/D7*%
X8777928Y-45838856D03*
%TO.N,/OutputShift2/Out0*%
X67945000Y-59597000D03*
%TO.N,/RJ45/SchieberegisterInput11/D3*%
X6553000Y-49657000D03*
%TO.N,/OutputShift2/Out1*%
X66675000Y-60308000D03*
%TO.N,/OutputShift2/Out2*%
X65405000Y-59072000D03*
%TO.N,/OutputShift2/Out6*%
X60325000Y-57150000D03*
%TO.N,/OutputShift1/Out0*%
X48006000Y-60071000D03*
%TO.N,/RJ45/SchieberegisterInput5/D0*%
X50023042Y-45854656D03*
%TO.N,/RJ45/SchieberegisterInput5/D2*%
X48895000Y-48387000D03*
%TO.N,/RJ45/SchieberegisterInput5/D3*%
X48260000Y-49651000D03*
%TO.N,/OutputShift1/Out2*%
X40894000Y-59309000D03*
%TO.N,/OutputShift1/Out3*%
X44196000Y-60706000D03*
%TO.N,/OutputShift1/Out4*%
X42926000Y-60706000D03*
%TO.N,/OutputShift1/Out5*%
X41656000Y-60181000D03*
%TO.N,/RJ45/SchieberegisterInput7/D7*%
X36957000Y-45841000D03*
%TO.N,/RJ45/SchieberegisterInput7/D0*%
X36307043Y-45841000D03*
%TO.N,/RJ45/SchieberegisterInput7/D1*%
X35782043Y-47117000D03*
%TO.N,/RJ45/SchieberegisterInput7/D2*%
X35257043Y-48387000D03*
%TO.N,/OutputShift1/Out7*%
X44577000Y-58674000D03*
%TO.N,/OutputShift/Out1*%
X27178000Y-60833000D03*
%TO.N,/OutputShift/Out3*%
X24638000Y-60833000D03*
%TO.N,/OutputShift/Out4*%
X23351000Y-60181000D03*
%TO.N,/RJ45/SchieberegisterInput11/D5*%
X9827928Y-48387000D03*
%TO.N,/RJ45/SchieberegisterInput11/D0*%
X8128000Y-45848676D03*
%TO.N,/RJ45/SchieberegisterInput11/D1*%
X7603000Y-47117000D03*
%TO.N,/OutputShift/Out7*%
X19558000Y-58606000D03*
%TO.N,Led_Out*%
X59055000Y-73279000D03*
X76835000Y-69977000D03*
%TD*%
%TO.N,/OutputShift2/Out5*%
D14*
X61595000Y-57912000D02*
X68135473Y-57912000D01*
X70485000Y-21882000D02*
X70550000Y-21817000D01*
X68135473Y-57912000D02*
X70485000Y-55562473D01*
X70485000Y-55562473D02*
X70485000Y-21882000D01*
%TO.N,/OutputShift2/Out7*%
X71247000Y-18542000D02*
X71247000Y-18666360D01*
X74130000Y-52324000D02*
X74130000Y-53191080D01*
X74130000Y-53191080D02*
X73624234Y-53191080D01*
X73420000Y-23495000D02*
X73508315Y-23495000D01*
X69040860Y-58547000D02*
X74130000Y-53457861D01*
X70170000Y-5997000D02*
X71247000Y-7074000D01*
X71247000Y-18542000D02*
X71247000Y-18669000D01*
X73420000Y-20839360D02*
X73420000Y-23495000D01*
X71247000Y-18666360D02*
X73420000Y-20839360D01*
X59055000Y-58547000D02*
X69040860Y-58547000D01*
X74130000Y-53457861D02*
X74130000Y-52324000D01*
X73508315Y-23495000D02*
X74130000Y-24116686D01*
X70920000Y-2177000D02*
X70170000Y-2927000D01*
X71247000Y-7074000D02*
X71247000Y-18542000D01*
X74130000Y-24116686D02*
X74130000Y-52324000D01*
X70170000Y-2927000D02*
X70170000Y-5997000D01*
%TO.N,/RJ45/SchieberegisterInput1/D4*%
X81074696Y-47879000D02*
X81074696Y-48641000D01*
X79804696Y-21971000D02*
X79804696Y-46609000D01*
X81074696Y-48641000D02*
X80081659Y-49634037D01*
X84306696Y-10567000D02*
X84306696Y-17469000D01*
X82856696Y-9117000D02*
X84306696Y-10567000D01*
X79804696Y-46609000D02*
X81074696Y-47879000D01*
X80081659Y-49634037D02*
X80081659Y-49656726D01*
X84306696Y-17469000D02*
X79804696Y-21971000D01*
%TO.N,Data_Latch*%
X7620000Y-52197000D02*
X10462696Y-52197000D01*
X4191000Y-29464000D02*
X2921000Y-30734000D01*
X2921000Y-30734000D02*
X2921000Y-47498000D01*
X2921000Y-47498000D02*
X7620000Y-52197000D01*
%TO.N,Data_Clk*%
X6985000Y-50927000D02*
X10462696Y-50927000D01*
X4210178Y-48152178D02*
X6985000Y-50927000D01*
X4210178Y-30730914D02*
X4210178Y-48152178D01*
%TO.N,/RJ45/SchieberegisterInput1/D5*%
X83906696Y-17061925D02*
X79334696Y-21633925D01*
X79334696Y-21633925D02*
X79334696Y-47397000D01*
X81586696Y-11657000D02*
X83906696Y-13977000D01*
X79334696Y-47397000D02*
X80318696Y-48381000D01*
X83906696Y-13977000D02*
X83906696Y-17061925D01*
%TO.N,/RJ45/SchieberegisterInput1/D6*%
X80496696Y-19304686D02*
X80496696Y-17215000D01*
X81582696Y-13843000D02*
X80316696Y-12577000D01*
X81582696Y-16129000D02*
X81582696Y-13843000D01*
X80496696Y-17215000D02*
X81582696Y-16129000D01*
X80316696Y-12577000D02*
X80316696Y-9117000D01*
X78934696Y-20866686D02*
X80496696Y-19304686D01*
X78680696Y-32893000D02*
X78934696Y-32639000D01*
X78934696Y-32639000D02*
X78934696Y-20866686D01*
X78680696Y-46863000D02*
X78680696Y-32893000D01*
%TO.N,/RJ45/SchieberegisterInput1/D7*%
X78155696Y-45847000D02*
X78155696Y-32510000D01*
X78534696Y-20701000D02*
X80096696Y-19139000D01*
X78155696Y-32510000D02*
X78534696Y-32131000D01*
X78534696Y-32131000D02*
X78534696Y-20701000D01*
X80096696Y-19139000D02*
X80096696Y-16929000D01*
X80096696Y-16929000D02*
X79046696Y-15879000D01*
X79046696Y-15879000D02*
X79046696Y-11657000D01*
%TO.N,/RJ45/SchieberegisterInput1/D0*%
X77438696Y-32503000D02*
X77810696Y-32131000D01*
X76502696Y-14351000D02*
X77776696Y-13077000D01*
X76502696Y-15875000D02*
X76502696Y-14351000D01*
X77810696Y-32131000D02*
X77810696Y-17183000D01*
X77810696Y-17183000D02*
X76502696Y-15875000D01*
X77776696Y-13077000D02*
X77776696Y-9117000D01*
X77438696Y-45847000D02*
X77438696Y-32503000D01*
%TO.N,/RJ45/SchieberegisterInput1/D1*%
X76913696Y-32374000D02*
X76913696Y-47117000D01*
X73962696Y-14201000D02*
X73962696Y-16129000D01*
X75232696Y-19119314D02*
X77410696Y-21297315D01*
X76506696Y-11657000D02*
X73962696Y-14201000D01*
X73962696Y-16129000D02*
X75232696Y-17399000D01*
X75232696Y-17399000D02*
X75232696Y-19119314D01*
X77410696Y-21297315D02*
X77410696Y-31877000D01*
X77410696Y-31877000D02*
X76913696Y-32374000D01*
%TO.N,/RJ45/SchieberegisterInput1/D2*%
X76502696Y-31369000D02*
X75988696Y-31883000D01*
X76502696Y-21520686D02*
X76502696Y-31369000D01*
X72184696Y-18472685D02*
X74060854Y-20348843D01*
X72184696Y-11108340D02*
X72184696Y-18472685D01*
X74060854Y-20348843D02*
X75330853Y-20348843D01*
X75988696Y-31883000D02*
X75988696Y-48381000D01*
X75330853Y-20348843D02*
X76502696Y-21520686D01*
X74176036Y-9117000D02*
X72184696Y-11108340D01*
X75236696Y-9117000D02*
X74176036Y-9117000D01*
%TO.N,/RJ45/SchieberegisterInput1/D3*%
X72692696Y-12931000D02*
X73966696Y-11657000D01*
X76388696Y-48038537D02*
X76388696Y-32048686D01*
X74216696Y-19939000D02*
X72692696Y-18415000D01*
X76902696Y-21355000D02*
X75486696Y-19939000D01*
X72692696Y-18415000D02*
X72692696Y-12931000D01*
X76513696Y-48163537D02*
X76388696Y-48038537D01*
X76513696Y-49138000D02*
X76513696Y-48163537D01*
X75994696Y-49657000D02*
X76513696Y-49138000D01*
X76388696Y-32048686D02*
X76902696Y-31534686D01*
X76902696Y-31534686D02*
X76902696Y-21355000D01*
X75486696Y-19939000D02*
X74216696Y-19939000D01*
%TO.N,/RJ45/SchieberegisterInput5/D4*%
X56134000Y-17710686D02*
X52324000Y-21520686D01*
X56134000Y-10334304D02*
X56134000Y-17710686D01*
X54916696Y-9117000D02*
X56134000Y-10334304D01*
X52324000Y-21520686D02*
X52324000Y-49657000D01*
%TO.N,/OutputShift1/Out6*%
X39566314Y-61341000D02*
X32800988Y-54575674D01*
X32800988Y-23656988D02*
X31750000Y-22606000D01*
X40386000Y-61341000D02*
X39566314Y-61341000D01*
X32590000Y-3957000D02*
X30353000Y-6194000D01*
X32800988Y-54575674D02*
X32800988Y-23656988D01*
X30353000Y-6194000D02*
X30353000Y-19431000D01*
X31750000Y-21590000D02*
X31750000Y-22606000D01*
X30353000Y-19431000D02*
X31750000Y-20828000D01*
X31750000Y-20828000D02*
X31750000Y-22606000D01*
%TO.N,/RJ45/SchieberegisterInput5/D6*%
X53467000Y-14160500D02*
X53467000Y-16364304D01*
X52376696Y-9117000D02*
X52376696Y-13070196D01*
X52376696Y-13070196D02*
X53467000Y-14160500D01*
X52596696Y-17234608D02*
X52596696Y-19031304D01*
X51198000Y-20430000D02*
X51198000Y-47117000D01*
X52596696Y-19031304D02*
X51198000Y-20430000D01*
X53467000Y-16364304D02*
X52596696Y-17234608D01*
%TO.N,/OutputShift1/Out1*%
X46736000Y-61341000D02*
X51816000Y-61341000D01*
X51816000Y-61341000D02*
X56580000Y-56577000D01*
X56580000Y-56577000D02*
X56580000Y-21817000D01*
%TO.N,/OutputShift1/out*%
X65405000Y-74041000D02*
X39116000Y-74041000D01*
%TO.N,Led_Latch*%
X62865000Y-75421000D02*
X75201000Y-75421000D01*
X42926000Y-75421000D02*
X42909000Y-75438000D01*
X11938000Y-75438000D02*
X10541000Y-74041000D01*
X42926000Y-75421000D02*
X62865000Y-75421000D01*
X75201000Y-75421000D02*
X76581000Y-74041000D01*
X42909000Y-75438000D02*
X11938000Y-75438000D01*
%TO.N,Led_OE*%
X44196000Y-74803000D02*
X64135000Y-74803000D01*
X74041000Y-74803000D02*
X76844000Y-72000000D01*
X64135000Y-74803000D02*
X74041000Y-74803000D01*
X13081000Y-74803000D02*
X10287000Y-72009000D01*
X44196000Y-74803000D02*
X13081000Y-74803000D01*
%TO.N,/OutputShift/out*%
X45466000Y-73406000D02*
X19558000Y-73406000D01*
X19558000Y-73406000D02*
X19558000Y-73279000D01*
%TO.N,/OutputShift/Out0*%
X20574000Y-57150000D02*
X28448000Y-57150000D01*
X18990000Y-55566000D02*
X18990000Y-21817000D01*
X18990000Y-55566000D02*
X20574000Y-57150000D01*
%TO.N,/RJ45/SchieberegisterInput9/D4*%
X24577003Y-21269997D02*
X24577003Y-49657000D01*
X28026696Y-10167000D02*
X28026696Y-17820304D01*
X26976696Y-9117000D02*
X28026696Y-10167000D01*
X28026696Y-17820304D02*
X24577003Y-21269997D01*
%TO.N,/RJ45/SchieberegisterInput9/D5*%
X26924000Y-18164621D02*
X24052003Y-21036618D01*
X24052003Y-21036618D02*
X24052003Y-48387000D01*
X25886696Y-16171196D02*
X26924000Y-17208500D01*
X25886696Y-11837000D02*
X25886696Y-16171196D01*
X26924000Y-17208500D02*
X26924000Y-18164621D01*
X25706696Y-11657000D02*
X25886696Y-11837000D01*
%TO.N,/RJ45/SchieberegisterInput9/D6*%
X24436696Y-12595810D02*
X24436696Y-9117000D01*
X25486696Y-16169304D02*
X25486696Y-13645810D01*
X25486696Y-13645810D02*
X24436696Y-12595810D01*
X23527003Y-20287997D02*
X24656696Y-19158304D01*
X24656696Y-19158304D02*
X24656696Y-16999304D01*
X24656696Y-16999304D02*
X25486696Y-16169304D01*
X23527003Y-47117000D02*
X23527003Y-20287997D01*
%TO.N,/RJ45/SchieberegisterInput9/D7*%
X22987000Y-41402000D02*
X23002003Y-41417003D01*
X23166696Y-16054696D02*
X24216696Y-17104696D01*
X24216696Y-17104696D02*
X24216696Y-18836304D01*
X22987000Y-20066000D02*
X22987000Y-41402000D01*
X23166696Y-11657000D02*
X23166696Y-16054696D01*
X24216696Y-18836304D02*
X22987000Y-20066000D01*
X23002003Y-41417003D02*
X23002003Y-45847000D01*
%TO.N,/RJ45/SchieberegisterInput9/D0*%
X22352000Y-18935615D02*
X22352000Y-45847000D01*
X22116696Y-18700311D02*
X22352000Y-18935615D01*
X20828000Y-13589000D02*
X20828000Y-15773229D01*
X20828000Y-15773229D02*
X22116696Y-17061926D01*
X21896696Y-12520304D02*
X20828000Y-13589000D01*
X21896696Y-9117000D02*
X21896696Y-12520304D01*
X22116696Y-17061926D02*
X22116696Y-18700311D01*
%TO.N,/RJ45/SchieberegisterInput9/D1*%
X21716696Y-17502075D02*
X21716696Y-47110696D01*
X21717000Y-47111000D02*
X21833000Y-47111000D01*
X21716696Y-47110696D02*
X21717000Y-47111000D01*
X20428000Y-11855696D02*
X20428000Y-16213379D01*
X20428000Y-16213379D02*
X21716696Y-17502075D01*
X20626696Y-11657000D02*
X20428000Y-11855696D01*
X21833000Y-47111000D02*
X21844000Y-47100000D01*
%TO.N,/RJ45/SchieberegisterInput9/D2*%
X18306696Y-15791925D02*
X19558000Y-17043229D01*
X19558000Y-17043229D02*
X19558000Y-18415000D01*
X19356696Y-12393304D02*
X18306696Y-13443304D01*
X21082000Y-19939000D02*
X21082000Y-48381000D01*
X18306696Y-13443304D02*
X18306696Y-15791925D01*
X19558000Y-18415000D02*
X21082000Y-19939000D01*
X19356696Y-9117000D02*
X19356696Y-12393304D01*
%TO.N,/RJ45/SchieberegisterInput9/D3*%
X19158000Y-18650000D02*
X19158000Y-17208915D01*
X20557000Y-20049000D02*
X19158000Y-18650000D01*
X19158000Y-17208915D02*
X17336696Y-15387610D01*
X17336696Y-12407000D02*
X18086696Y-11657000D01*
X20557000Y-49634000D02*
X20557000Y-20049000D01*
X17336696Y-15387610D02*
X17336696Y-12407000D01*
%TO.N,/RJ45/SchieberegisterInput7/D3*%
X31006696Y-12707000D02*
X32056696Y-11657000D01*
X34732043Y-22117422D02*
X31006696Y-18392075D01*
X31006696Y-18392075D02*
X31006696Y-12707000D01*
X34732043Y-49657000D02*
X34732043Y-22117422D01*
%TO.N,/RJ45/SchieberegisterInput11/D6*%
X10646696Y-17502075D02*
X10646696Y-19198304D01*
X9302928Y-20542072D02*
X9302928Y-47117000D01*
X10466696Y-9117000D02*
X10466696Y-13006696D01*
X11516696Y-14056696D02*
X11516696Y-16632075D01*
X11516696Y-16632075D02*
X10646696Y-17502075D01*
X10646696Y-19198304D02*
X9302928Y-20542072D01*
X10466696Y-13006696D02*
X11516696Y-14056696D01*
%TO.N,/OutputShift/Out6*%
X6511116Y-56861884D02*
X10355232Y-60706000D01*
X2286000Y-6321000D02*
X2286000Y-18923000D01*
X7844616Y-58195384D02*
X8323233Y-58674000D01*
X889000Y-20320000D02*
X889000Y-51239767D01*
X10355232Y-60706000D02*
X20828000Y-60706000D01*
X4650000Y-3957000D02*
X2286000Y-6321000D01*
X6511116Y-56861884D02*
X7844616Y-58195384D01*
X2286000Y-18923000D02*
X889000Y-20320000D01*
X889000Y-51239767D02*
X6511116Y-56861884D01*
%TO.N,/RJ45/SchieberegisterInput5/D1*%
X49616696Y-17358697D02*
X48386696Y-16128697D01*
X48386696Y-11837000D02*
X48566696Y-11657000D01*
X48386696Y-16128697D02*
X48386696Y-11837000D01*
X49498042Y-19208958D02*
X49623042Y-19083958D01*
X49616696Y-18331925D02*
X49616696Y-17358697D01*
X49498042Y-47117000D02*
X49498042Y-19208958D01*
X49623042Y-19083958D02*
X49623042Y-18338271D01*
X49623042Y-18338271D02*
X49616696Y-18331925D01*
%TO.N,/RJ45/SchieberegisterInput3/D6*%
X65422000Y-20557000D02*
X66566696Y-19412304D01*
X67691000Y-16002000D02*
X67691000Y-14097000D01*
X66566696Y-19412304D02*
X66566696Y-17126304D01*
X65422000Y-47117000D02*
X65422000Y-20557000D01*
X66566696Y-17126304D02*
X67691000Y-16002000D01*
X66346696Y-12752696D02*
X66346696Y-9117000D01*
X67691000Y-14097000D02*
X66346696Y-12752696D01*
%TO.N,/RJ45/SchieberegisterInput7/D6*%
X38626696Y-16999304D02*
X38626696Y-19558000D01*
X38406696Y-12879696D02*
X39456696Y-13929696D01*
X39456696Y-16169304D02*
X38626696Y-16999304D01*
X38406696Y-9117000D02*
X38406696Y-12879696D01*
X39456696Y-13929696D02*
X39456696Y-16169304D01*
X37482000Y-20702696D02*
X37482000Y-47117000D01*
X38626696Y-19558000D02*
X37482000Y-20702696D01*
%TO.N,/OutputShift/Out2*%
X14605000Y-2612000D02*
X14605000Y-12573000D01*
X14605000Y-12573000D02*
X15367000Y-13335000D01*
X15367000Y-18796000D02*
X13335000Y-20828000D01*
X15367000Y-13335000D02*
X15367000Y-18796000D01*
X15748000Y-56388000D02*
X19016000Y-59656000D01*
X13335000Y-23133000D02*
X15748000Y-25546000D01*
X13335000Y-20828000D02*
X13335000Y-23133000D01*
X25874000Y-59656000D02*
X25908000Y-59690000D01*
X15040000Y-2177000D02*
X14605000Y-2612000D01*
X19016000Y-59656000D02*
X25874000Y-59656000D01*
X15748000Y-25546000D02*
X15748000Y-56388000D01*
%TO.N,/RJ45/SchieberegisterInput7/D5*%
X39856696Y-11837000D02*
X39856696Y-16234696D01*
X39676696Y-11657000D02*
X39856696Y-11837000D01*
X40726696Y-17104696D02*
X40726696Y-18364304D01*
X38007000Y-21084000D02*
X38007000Y-48387000D01*
X40726696Y-18364304D02*
X38007000Y-21084000D01*
X39856696Y-16234696D02*
X40726696Y-17104696D01*
%TO.N,/RJ45/SchieberegisterInput3/D1*%
X59944000Y-16002000D02*
X61341000Y-17399000D01*
X61341000Y-17399000D02*
X61341000Y-18796000D01*
X63721997Y-21176997D02*
X63721997Y-47117000D01*
X61341000Y-18796000D02*
X63721997Y-21176997D01*
X62536696Y-11657000D02*
X59944000Y-14249696D01*
X59944000Y-14249696D02*
X59944000Y-16002000D01*
%TO.N,/RJ45/SchieberegisterInput3/D3*%
X61087000Y-19685000D02*
X59563000Y-19685000D01*
X63119000Y-49657000D02*
X63119000Y-22606000D01*
X59563000Y-19685000D02*
X58801000Y-18923000D01*
X63119000Y-21717000D02*
X61087000Y-19685000D01*
X58801000Y-12852696D02*
X59996696Y-11657000D01*
X63119000Y-22606000D02*
X63119000Y-21717000D01*
X63119000Y-22606000D02*
X63119000Y-22485683D01*
X58801000Y-18923000D02*
X58801000Y-12852696D01*
%TO.N,/RJ45/SchieberegisterInput11/D2*%
X5386696Y-12774304D02*
X5386696Y-9117000D01*
X4336696Y-13824304D02*
X5386696Y-12774304D01*
X7078000Y-19803229D02*
X5588000Y-18313229D01*
X5588000Y-18313229D02*
X5588000Y-17145000D01*
X5588000Y-17145000D02*
X4336696Y-15893696D01*
X7078000Y-48387000D02*
X7078000Y-19803229D01*
X4336696Y-15893696D02*
X4336696Y-13824304D01*
%TO.N,/RJ45/SchieberegisterInput5/D7*%
X50673000Y-19939000D02*
X52156696Y-18455304D01*
X51106696Y-16181696D02*
X51106696Y-11657000D01*
X52156696Y-17231696D02*
X51106696Y-16181696D01*
X50673000Y-45847000D02*
X50673000Y-19939000D01*
X52156696Y-18455304D02*
X52156696Y-17231696D01*
X50673000Y-45847000D02*
X50548042Y-45847000D01*
%TO.N,/OutputShift2/Out3*%
X77216000Y-60706000D02*
X77089000Y-60833000D01*
X77216000Y-60706000D02*
X85979000Y-51943000D01*
X85979000Y-21082000D02*
X84890000Y-19993000D01*
X85979000Y-51943000D02*
X85979000Y-21082000D01*
X84890000Y-19993000D02*
X84890000Y-2177000D01*
X77089000Y-60833000D02*
X64135000Y-60833000D01*
%TO.N,/RJ45/SchieberegisterInput11/D4*%
X14351000Y-14478000D02*
X14351000Y-17780000D01*
X13006696Y-13133696D02*
X14351000Y-14478000D01*
X13006696Y-9117000D02*
X13006696Y-13133696D01*
X10352928Y-21778072D02*
X10352928Y-49657000D01*
X14351000Y-17780000D02*
X10352928Y-21778072D01*
%TO.N,/RJ45/SchieberegisterInput5/D5*%
X53866696Y-13824304D02*
X53866696Y-16401696D01*
X54875811Y-17410811D02*
X54875811Y-18403189D01*
X53866696Y-16401696D02*
X54875811Y-17410811D01*
X53646696Y-11657000D02*
X53646696Y-13604304D01*
X54875811Y-18403189D02*
X51723000Y-21556000D01*
X51723000Y-21556000D02*
X51723000Y-48387000D01*
X53646696Y-13604304D02*
X53866696Y-13824304D01*
%TO.N,/RJ45/SchieberegisterInput3/D4*%
X70758000Y-16929685D02*
X70758000Y-10988304D01*
X66675000Y-21012686D02*
X70758000Y-16929685D01*
X66675000Y-49651000D02*
X66675000Y-21012686D01*
X70758000Y-10988304D02*
X68886696Y-9117000D01*
%TO.N,/RJ45/SchieberegisterInput3/D5*%
X67616696Y-11657000D02*
X70358000Y-14398304D01*
X65913000Y-21082000D02*
X65947000Y-21116000D01*
X65947000Y-21116000D02*
X65947000Y-48387000D01*
X66040000Y-21082000D02*
X65913000Y-21082000D01*
X70358000Y-16764000D02*
X66040000Y-21082000D01*
X70358000Y-14398304D02*
X70358000Y-16764000D01*
%TO.N,/RJ45/SchieberegisterInput3/D7*%
X64897000Y-45847000D02*
X64897000Y-19939000D01*
X66167000Y-18669000D02*
X66167000Y-17145000D01*
X66167000Y-17145000D02*
X65076696Y-16054696D01*
X64897000Y-19939000D02*
X66167000Y-18669000D01*
X65076696Y-16054696D02*
X65076696Y-11657000D01*
%TO.N,/RJ45/SchieberegisterInput3/D0*%
X63754000Y-17284615D02*
X63754000Y-19050000D01*
X63754000Y-19050000D02*
X64262000Y-19558000D01*
X63806696Y-9117000D02*
X63806696Y-12774304D01*
X64262000Y-45831997D02*
X64246997Y-45847000D01*
X62611000Y-16141615D02*
X63754000Y-17284615D01*
X64262000Y-19558000D02*
X64262000Y-45831997D01*
X62611000Y-13970000D02*
X62611000Y-16141615D01*
X63806696Y-12774304D02*
X62611000Y-13970000D01*
%TO.N,/RJ45/SchieberegisterInput3/D2*%
X60352000Y-9117000D02*
X58039000Y-11430000D01*
X60947385Y-20332615D02*
X62484000Y-21869230D01*
X61266696Y-9117000D02*
X60352000Y-9117000D01*
X62484000Y-21869230D02*
X62484000Y-28702000D01*
X59644929Y-20332615D02*
X60071000Y-20332615D01*
X62484000Y-28702000D02*
X62484000Y-28933000D01*
X62484000Y-48375000D02*
X62478000Y-48381000D01*
X59644929Y-20332615D02*
X60947385Y-20332615D01*
X58039000Y-11430000D02*
X58039000Y-18288000D01*
X58039000Y-18726686D02*
X59644929Y-20332615D01*
X58039000Y-18288000D02*
X58039000Y-18726686D01*
X62484000Y-28702000D02*
X62484000Y-48375000D01*
%TO.N,/OutputShift2/Out4*%
X61953000Y-22870000D02*
X60900000Y-21817000D01*
X62484000Y-56515000D02*
X61953000Y-55984000D01*
X61953000Y-55984000D02*
X61953000Y-22870000D01*
%TO.N,/RJ45/SchieberegisterInput7/D4*%
X41996696Y-17659990D02*
X41996696Y-10167000D01*
X38532000Y-21124686D02*
X41996696Y-17659990D01*
X41996696Y-10167000D02*
X40946696Y-9117000D01*
X38532000Y-49657000D02*
X38532000Y-21124686D01*
%TO.N,/OutputShift/Out5*%
X16237000Y-23384000D02*
X16237000Y-56115000D01*
X16237000Y-56115000D02*
X19253000Y-59131000D01*
X19253000Y-59131000D02*
X22098000Y-59131000D01*
X14670000Y-21817000D02*
X16237000Y-23384000D01*
%TO.N,/RJ45/SchieberegisterInput11/D7*%
X9196696Y-16054696D02*
X10246696Y-17104696D01*
X8763000Y-20193000D02*
X8763000Y-45823928D01*
X8763000Y-45823928D02*
X8777928Y-45838856D01*
X10246696Y-18709304D02*
X8763000Y-20193000D01*
X10246696Y-17104696D02*
X10246696Y-18709304D01*
X9196696Y-11657000D02*
X9196696Y-16054696D01*
%TO.N,/OutputShift2/Out0*%
X74930000Y-21877000D02*
X74870000Y-21817000D01*
X67945000Y-59597000D02*
X69122233Y-59597000D01*
X74930000Y-53789233D02*
X74930000Y-21877000D01*
X69122233Y-59597000D02*
X74930000Y-53789233D01*
%TO.N,/RJ45/SchieberegisterInput11/D3*%
X3429000Y-15724379D02*
X3429000Y-12344696D01*
X5188000Y-17483379D02*
X3429000Y-15724379D01*
X6553000Y-19843914D02*
X5188000Y-18478914D01*
X6553000Y-49657000D02*
X6553000Y-19843914D01*
X3429000Y-12344696D02*
X4116696Y-11657000D01*
X5188000Y-18478914D02*
X5188000Y-17483379D01*
%TO.N,/OutputShift2/Out1*%
X85579000Y-22876000D02*
X84520000Y-21817000D01*
X66675000Y-60308000D02*
X66721500Y-60261500D01*
X85579000Y-51777314D02*
X85579000Y-22876000D01*
X77094814Y-60261500D02*
X85579000Y-51777314D01*
X66721500Y-60261500D02*
X77094814Y-60261500D01*
%TO.N,/OutputShift2/Out2*%
X73820000Y-20673675D02*
X71755000Y-18608674D01*
X73820000Y-23241000D02*
X73820000Y-20673675D01*
X71755000Y-6702000D02*
X74500000Y-3957000D01*
X65405000Y-59072000D02*
X69081548Y-59072000D01*
X74530000Y-23951000D02*
X73820000Y-23241000D01*
X71755000Y-18608674D02*
X71755000Y-6702000D01*
X74530000Y-53623547D02*
X74530000Y-23951000D01*
X69081548Y-59072000D02*
X74530000Y-53623547D01*
%TO.N,/OutputShift2/Out6*%
X57639000Y-19611075D02*
X57639000Y-6848000D01*
X57639000Y-6848000D02*
X60530000Y-3957000D01*
X60325000Y-57150000D02*
X60789696Y-56685304D01*
X59850000Y-27678608D02*
X59850000Y-21822075D01*
X60789696Y-56685304D02*
X60789696Y-28618304D01*
X60789696Y-28618304D02*
X59850000Y-27678608D01*
X59850000Y-21822075D02*
X57639000Y-19611075D01*
%TO.N,/OutputShift1/Out0*%
X46990000Y-39514000D02*
X46899537Y-39514000D01*
X46990000Y-59055000D02*
X46990000Y-39514000D01*
X46592000Y-39206463D02*
X46592000Y-38771537D01*
X46990000Y-38464000D02*
X46990000Y-21877000D01*
X46899537Y-39514000D02*
X46592000Y-39206463D01*
X48006000Y-60071000D02*
X46990000Y-59055000D01*
X46899537Y-38464000D02*
X46990000Y-38464000D01*
X46592000Y-38771537D02*
X46899537Y-38464000D01*
X46990000Y-21877000D02*
X46930000Y-21817000D01*
%TO.N,/RJ45/SchieberegisterInput5/D0*%
X48786696Y-15791925D02*
X50023042Y-17028271D01*
X48786696Y-14205304D02*
X48786696Y-15791925D01*
X49836696Y-9117000D02*
X49836696Y-13155304D01*
X49836696Y-13155304D02*
X48786696Y-14205304D01*
X50023042Y-17028271D02*
X50023042Y-45854656D01*
X50023042Y-45854656D02*
X50030344Y-45854656D01*
X50038000Y-45847000D02*
X50030344Y-45854656D01*
%TO.N,/RJ45/SchieberegisterInput5/D2*%
X45720000Y-15875000D02*
X45720000Y-14224000D01*
X45720000Y-14224000D02*
X47296696Y-12647304D01*
X48895000Y-48387000D02*
X48895000Y-20320000D01*
X47296696Y-12647304D02*
X47296696Y-9117000D01*
X47371000Y-17526000D02*
X45720000Y-15875000D01*
X47371000Y-18796000D02*
X47371000Y-17526000D01*
X48895000Y-20320000D02*
X47371000Y-18796000D01*
%TO.N,/RJ45/SchieberegisterInput5/D3*%
X44831000Y-18669000D02*
X45847000Y-19685000D01*
X47244000Y-19685000D02*
X48260000Y-20701000D01*
X46026696Y-11657000D02*
X44831000Y-12852696D01*
X48260000Y-20701000D02*
X48260000Y-49651000D01*
X45847000Y-19685000D02*
X47244000Y-19685000D01*
X44831000Y-12852696D02*
X44831000Y-18669000D01*
%TO.N,/OutputShift1/Out2*%
X40894000Y-59309000D02*
X40925696Y-59277304D01*
X40925696Y-25114304D02*
X41402000Y-24638000D01*
X42970000Y-18912075D02*
X42970000Y-2187000D01*
X42970000Y-2187000D02*
X42980000Y-2177000D01*
X41402000Y-20480075D02*
X42970000Y-18912075D01*
X40925696Y-59277304D02*
X40925696Y-25114304D01*
X41402000Y-24638000D02*
X41402000Y-20480075D01*
%TO.N,/OutputShift1/Out3*%
X56950000Y-19123000D02*
X56950000Y-2177000D01*
X44196000Y-60706000D02*
X50927000Y-60706000D01*
X55118000Y-20955000D02*
X56950000Y-19123000D01*
X50927000Y-60706000D02*
X52959000Y-58674000D01*
X55118000Y-26670000D02*
X55118000Y-20955000D01*
X52959000Y-58674000D02*
X52959000Y-28829000D01*
X52959000Y-28829000D02*
X55118000Y-26670000D01*
%TO.N,/OutputShift1/Out4*%
X42926000Y-60706000D02*
X39497000Y-60706000D01*
X39497000Y-60706000D02*
X33899696Y-55108696D01*
X33899696Y-55108696D02*
X33899696Y-22756696D01*
X33899696Y-22756696D02*
X32960000Y-21817000D01*
%TO.N,/OutputShift1/Out5*%
X42610000Y-21817000D02*
X42610000Y-56388000D01*
X42610000Y-59227000D02*
X41656000Y-60181000D01*
X42610000Y-56388000D02*
X42610000Y-59227000D01*
X42610000Y-56388000D02*
X42610000Y-56580000D01*
%TO.N,/RJ45/SchieberegisterInput7/D7*%
X36957000Y-45841000D02*
X36957000Y-20574000D01*
X37136696Y-15927696D02*
X37136696Y-11657000D01*
X38186696Y-16977696D02*
X37136696Y-15927696D01*
X38186696Y-19344304D02*
X38186696Y-16977696D01*
X36957000Y-20574000D02*
X38186696Y-19344304D01*
%TO.N,/RJ45/SchieberegisterInput7/D0*%
X34816696Y-14078304D02*
X34816696Y-15791925D01*
X35866696Y-9117000D02*
X35866696Y-13028304D01*
X34816696Y-15791925D02*
X35610886Y-16586114D01*
X36322000Y-18923000D02*
X36322000Y-45826043D01*
X35610886Y-16586114D02*
X36068000Y-17043229D01*
X35866696Y-13028304D02*
X34816696Y-14078304D01*
X36068000Y-18669000D02*
X36322000Y-18923000D01*
X36068000Y-17043229D02*
X36068000Y-18669000D01*
X36322000Y-45826043D02*
X36307043Y-45841000D01*
%TO.N,/RJ45/SchieberegisterInput7/D1*%
X35782043Y-21463000D02*
X35668000Y-21348957D01*
X35668000Y-17208915D02*
X34416696Y-15957611D01*
X35668000Y-21348957D02*
X35668000Y-17208915D01*
X34416696Y-11837000D02*
X34596696Y-11657000D01*
X35782043Y-47117000D02*
X35782043Y-21463000D01*
X34416696Y-15957611D02*
X34416696Y-11837000D01*
%TO.N,/RJ45/SchieberegisterInput7/D2*%
X35257043Y-20779043D02*
X33401000Y-18923000D01*
X33326696Y-13028304D02*
X33326696Y-9117000D01*
X35257043Y-48387000D02*
X35257043Y-20779043D01*
X31877000Y-14478000D02*
X33326696Y-13028304D01*
X33401000Y-17272000D02*
X31877000Y-15748000D01*
X33401000Y-18923000D02*
X33401000Y-17272000D01*
X31877000Y-15748000D02*
X31877000Y-14478000D01*
%TO.N,/OutputShift1/Out7*%
X44577000Y-26289000D02*
X45847000Y-25019000D01*
X44577000Y-58674000D02*
X44577000Y-26289000D01*
X43942000Y-6575000D02*
X46560000Y-3957000D01*
X45847000Y-25019000D02*
X45847000Y-20828000D01*
X43942000Y-18923000D02*
X43942000Y-6575000D01*
X45847000Y-20828000D02*
X43942000Y-18923000D01*
%TO.N,/OutputShift/Out1*%
X29864000Y-23041000D02*
X29864000Y-55880000D01*
X29864000Y-58147000D02*
X29864000Y-55880000D01*
X27178000Y-60833000D02*
X29864000Y-58147000D01*
X28640000Y-21817000D02*
X29864000Y-23041000D01*
%TO.N,/OutputShift/Out3*%
X29464000Y-27559000D02*
X29464000Y-57023000D01*
X27305000Y-20701000D02*
X27305000Y-25400000D01*
X28426696Y-19579304D02*
X27305000Y-20701000D01*
X25654000Y-60833000D02*
X24638000Y-60833000D01*
X28426696Y-2760304D02*
X28426696Y-19579304D01*
X27305000Y-25400000D02*
X29464000Y-27559000D01*
X29464000Y-57023000D02*
X25654000Y-60833000D01*
X29010000Y-2177000D02*
X28426696Y-2760304D01*
%TO.N,/OutputShift/Out4*%
X2521000Y-50331767D02*
X8670117Y-56480883D01*
X2521000Y-24316000D02*
X2521000Y-50331767D01*
X5020000Y-21817000D02*
X2521000Y-24316000D01*
X23368000Y-60198000D02*
X23351000Y-60181000D01*
X12370234Y-60181000D02*
X23351000Y-60181000D01*
X8670117Y-56480883D02*
X9847233Y-57658000D01*
X8670117Y-56480883D02*
X12370234Y-60181000D01*
%TO.N,/RJ45/SchieberegisterInput11/D5*%
X12786696Y-18331925D02*
X11304811Y-19813811D01*
X11304811Y-19813811D02*
X9827928Y-21290694D01*
X9827928Y-21290694D02*
X9827928Y-48387000D01*
X11916696Y-16592075D02*
X12786696Y-17462075D01*
X11304811Y-19813811D02*
X10417621Y-20701000D01*
X11916696Y-11837000D02*
X11916696Y-16592075D01*
X11736696Y-11657000D02*
X11916696Y-11837000D01*
X12786696Y-17462075D02*
X12786696Y-18331925D01*
%TO.N,/RJ45/SchieberegisterInput11/D0*%
X7926696Y-12901304D02*
X6877000Y-13951000D01*
X6877000Y-15792229D02*
X8128000Y-17043229D01*
X7926696Y-9117000D02*
X7926696Y-12901304D01*
X8128000Y-17043229D02*
X8128000Y-45848676D01*
X6877000Y-13951000D02*
X6877000Y-15792229D01*
%TO.N,/RJ45/SchieberegisterInput11/D1*%
X7706696Y-20216304D02*
X7706696Y-17187611D01*
X7603000Y-47117000D02*
X7603000Y-20320000D01*
X6436696Y-15917611D02*
X6436696Y-11877000D01*
X6436696Y-11877000D02*
X6656696Y-11657000D01*
X7603000Y-20320000D02*
X7706696Y-20216304D01*
X7706696Y-17187611D02*
X6436696Y-15917611D01*
%TO.N,/OutputShift/Out7*%
X18620000Y-3957000D02*
X16129000Y-6448000D01*
X16129000Y-18796000D02*
X17653000Y-20320000D01*
X17653000Y-20320000D02*
X17653000Y-25019000D01*
X16129000Y-6448000D02*
X16129000Y-18796000D01*
X16637000Y-55626000D02*
X19558000Y-58547000D01*
X17653000Y-25019000D02*
X16637000Y-26035000D01*
X16637000Y-26035000D02*
X16637000Y-55626000D01*
X19558000Y-58547000D02*
X19558000Y-58606000D01*
%TO.N,Led_Out*%
X73533000Y-73279000D02*
X59055000Y-73279000D01*
X76835000Y-69977000D02*
X73533000Y-73279000D01*
%TD*%
M02*
